<?xml version="1.0" encoding="utf-8" standalone="no"?>
<!DOCTYPE svg PUBLIC "-//W3C//DTD SVG 1.1//EN"
  "http://www.w3.org/Graphics/SVG/1.1/DTD/svg11.dtd">
<!-- Created with matplotlib (http://matplotlib.org/) -->
<svg height="450.72pt" version="1.1" viewBox="0 0 569.52 450.72" width="569.52pt" xmlns="http://www.w3.org/2000/svg" xmlns:xlink="http://www.w3.org/1999/xlink">
 <defs>
  <style type="text/css">
*{stroke-linecap:butt;stroke-linejoin:round;}
  </style>
 </defs>
 <g id="figure_1">
  <g id="patch_1">
   <path d="M 0 450.72 
L 569.52 450.72 
L 569.52 0 
L 0 0 
z
" style="fill:#ffffff;"/>
  </g>
  <g id="axes_1">
   <g id="patch_2">
    <path d="M 48.000517 188.113 
L 283.131858 188.113 
L 283.131858 30.2984 
L 48.000517 30.2984 
z
" style="fill:#eaeaf2;"/>
   </g>
   <g id="matplotlib.axis_1">
    <g id="xtick_1">
     <g id="line2d_1">
      <path clip-path="url(#p0b6e6f7be2)" d="M 67.808944 188.113 
L 67.808944 30.2984 
" style="fill:none;stroke:#ffffff;stroke-linecap:round;"/>
     </g>
    </g>
    <g id="xtick_2">
     <g id="line2d_2">
      <path clip-path="url(#p0b6e6f7be2)" d="M 122.910181 188.113 
L 122.910181 30.2984 
" style="fill:none;stroke:#ffffff;stroke-linecap:round;"/>
     </g>
    </g>
    <g id="xtick_3">
     <g id="line2d_3">
      <path clip-path="url(#p0b6e6f7be2)" d="M 178.011417 188.113 
L 178.011417 30.2984 
" style="fill:none;stroke:#ffffff;stroke-linecap:round;"/>
     </g>
    </g>
    <g id="xtick_4">
     <g id="line2d_4">
      <path clip-path="url(#p0b6e6f7be2)" d="M 233.112654 188.113 
L 233.112654 30.2984 
" style="fill:none;stroke:#ffffff;stroke-linecap:round;"/>
     </g>
    </g>
   </g>
   <g id="matplotlib.axis_2">
    <g id="ytick_1">
     <g id="line2d_5">
      <path clip-path="url(#p0b6e6f7be2)" d="M 48.000517 188.113 
L 283.131858 188.113 
" style="fill:none;stroke:#ffffff;stroke-linecap:round;"/>
     </g>
     <g id="text_1">
      <!-- 0 -->
      <defs>
       <path d="M 31.78125 66.40625 
Q 24.171875 66.40625 20.328125 58.90625 
Q 16.5 51.421875 16.5 36.375 
Q 16.5 21.390625 20.328125 13.890625 
Q 24.171875 6.390625 31.78125 6.390625 
Q 39.453125 6.390625 43.28125 13.890625 
Q 47.125 21.390625 47.125 36.375 
Q 47.125 51.421875 43.28125 58.90625 
Q 39.453125 66.40625 31.78125 66.40625 
z
M 31.78125 74.21875 
Q 44.046875 74.21875 50.515625 64.515625 
Q 56.984375 54.828125 56.984375 36.375 
Q 56.984375 17.96875 50.515625 8.265625 
Q 44.046875 -1.421875 31.78125 -1.421875 
Q 19.53125 -1.421875 13.0625 8.265625 
Q 6.59375 17.96875 6.59375 36.375 
Q 6.59375 54.828125 13.0625 64.515625 
Q 19.53125 74.21875 31.78125 74.21875 
z
" id="DejaVuSans-30"/>
      </defs>
      <g style="fill:#262626;" transform="translate(31.501767 192.292141)scale(0.11 -0.11)">
       <use xlink:href="#DejaVuSans-30"/>
      </g>
     </g>
    </g>
    <g id="ytick_2">
     <g id="line2d_6">
      <path clip-path="url(#p0b6e6f7be2)" d="M 48.000517 162.320521 
L 283.131858 162.320521 
" style="fill:none;stroke:#ffffff;stroke-linecap:round;"/>
     </g>
     <g id="text_2">
      <!-- 10 -->
      <defs>
       <path d="M 12.40625 8.296875 
L 28.515625 8.296875 
L 28.515625 63.921875 
L 10.984375 60.40625 
L 10.984375 69.390625 
L 28.421875 72.90625 
L 38.28125 72.90625 
L 38.28125 8.296875 
L 54.390625 8.296875 
L 54.390625 0 
L 12.40625 0 
z
" id="DejaVuSans-31"/>
      </defs>
      <g style="fill:#262626;" transform="translate(24.503017 166.499661)scale(0.11 -0.11)">
       <use xlink:href="#DejaVuSans-31"/>
       <use x="63.623047" xlink:href="#DejaVuSans-30"/>
      </g>
     </g>
    </g>
    <g id="ytick_3">
     <g id="line2d_7">
      <path clip-path="url(#p0b6e6f7be2)" d="M 48.000517 136.528041 
L 283.131858 136.528041 
" style="fill:none;stroke:#ffffff;stroke-linecap:round;"/>
     </g>
     <g id="text_3">
      <!-- 20 -->
      <defs>
       <path d="M 19.1875 8.296875 
L 53.609375 8.296875 
L 53.609375 0 
L 7.328125 0 
L 7.328125 8.296875 
Q 12.9375 14.109375 22.625 23.890625 
Q 32.328125 33.6875 34.8125 36.53125 
Q 39.546875 41.84375 41.421875 45.53125 
Q 43.3125 49.21875 43.3125 52.78125 
Q 43.3125 58.59375 39.234375 62.25 
Q 35.15625 65.921875 28.609375 65.921875 
Q 23.96875 65.921875 18.8125 64.3125 
Q 13.671875 62.703125 7.8125 59.421875 
L 7.8125 69.390625 
Q 13.765625 71.78125 18.9375 73 
Q 24.125 74.21875 28.421875 74.21875 
Q 39.75 74.21875 46.484375 68.546875 
Q 53.21875 62.890625 53.21875 53.421875 
Q 53.21875 48.921875 51.53125 44.890625 
Q 49.859375 40.875 45.40625 35.40625 
Q 44.1875 33.984375 37.640625 27.21875 
Q 31.109375 20.453125 19.1875 8.296875 
z
" id="DejaVuSans-32"/>
      </defs>
      <g style="fill:#262626;" transform="translate(24.503017 140.707182)scale(0.11 -0.11)">
       <use xlink:href="#DejaVuSans-32"/>
       <use x="63.623047" xlink:href="#DejaVuSans-30"/>
      </g>
     </g>
    </g>
    <g id="ytick_4">
     <g id="line2d_8">
      <path clip-path="url(#p0b6e6f7be2)" d="M 48.000517 110.735562 
L 283.131858 110.735562 
" style="fill:none;stroke:#ffffff;stroke-linecap:round;"/>
     </g>
     <g id="text_4">
      <!-- 30 -->
      <defs>
       <path d="M 40.578125 39.3125 
Q 47.65625 37.796875 51.625 33 
Q 55.609375 28.21875 55.609375 21.1875 
Q 55.609375 10.40625 48.1875 4.484375 
Q 40.765625 -1.421875 27.09375 -1.421875 
Q 22.515625 -1.421875 17.65625 -0.515625 
Q 12.796875 0.390625 7.625 2.203125 
L 7.625 11.71875 
Q 11.71875 9.328125 16.59375 8.109375 
Q 21.484375 6.890625 26.8125 6.890625 
Q 36.078125 6.890625 40.9375 10.546875 
Q 45.796875 14.203125 45.796875 21.1875 
Q 45.796875 27.640625 41.28125 31.265625 
Q 36.765625 34.90625 28.71875 34.90625 
L 20.21875 34.90625 
L 20.21875 43.015625 
L 29.109375 43.015625 
Q 36.375 43.015625 40.234375 45.921875 
Q 44.09375 48.828125 44.09375 54.296875 
Q 44.09375 59.90625 40.109375 62.90625 
Q 36.140625 65.921875 28.71875 65.921875 
Q 24.65625 65.921875 20.015625 65.03125 
Q 15.375 64.15625 9.8125 62.3125 
L 9.8125 71.09375 
Q 15.4375 72.65625 20.34375 73.4375 
Q 25.25 74.21875 29.59375 74.21875 
Q 40.828125 74.21875 47.359375 69.109375 
Q 53.90625 64.015625 53.90625 55.328125 
Q 53.90625 49.265625 50.4375 45.09375 
Q 46.96875 40.921875 40.578125 39.3125 
z
" id="DejaVuSans-33"/>
      </defs>
      <g style="fill:#262626;" transform="translate(24.503017 114.914702)scale(0.11 -0.11)">
       <use xlink:href="#DejaVuSans-33"/>
       <use x="63.623047" xlink:href="#DejaVuSans-30"/>
      </g>
     </g>
    </g>
    <g id="ytick_5">
     <g id="line2d_9">
      <path clip-path="url(#p0b6e6f7be2)" d="M 48.000517 84.943082 
L 283.131858 84.943082 
" style="fill:none;stroke:#ffffff;stroke-linecap:round;"/>
     </g>
     <g id="text_5">
      <!-- 40 -->
      <defs>
       <path d="M 37.796875 64.3125 
L 12.890625 25.390625 
L 37.796875 25.390625 
z
M 35.203125 72.90625 
L 47.609375 72.90625 
L 47.609375 25.390625 
L 58.015625 25.390625 
L 58.015625 17.1875 
L 47.609375 17.1875 
L 47.609375 0 
L 37.796875 0 
L 37.796875 17.1875 
L 4.890625 17.1875 
L 4.890625 26.703125 
z
" id="DejaVuSans-34"/>
      </defs>
      <g style="fill:#262626;" transform="translate(24.503017 89.122223)scale(0.11 -0.11)">
       <use xlink:href="#DejaVuSans-34"/>
       <use x="63.623047" xlink:href="#DejaVuSans-30"/>
      </g>
     </g>
    </g>
    <g id="ytick_6">
     <g id="line2d_10">
      <path clip-path="url(#p0b6e6f7be2)" d="M 48.000517 59.150603 
L 283.131858 59.150603 
" style="fill:none;stroke:#ffffff;stroke-linecap:round;"/>
     </g>
     <g id="text_6">
      <!-- 50 -->
      <defs>
       <path d="M 10.796875 72.90625 
L 49.515625 72.90625 
L 49.515625 64.59375 
L 19.828125 64.59375 
L 19.828125 46.734375 
Q 21.96875 47.46875 24.109375 47.828125 
Q 26.265625 48.1875 28.421875 48.1875 
Q 40.625 48.1875 47.75 41.5 
Q 54.890625 34.8125 54.890625 23.390625 
Q 54.890625 11.625 47.5625 5.09375 
Q 40.234375 -1.421875 26.90625 -1.421875 
Q 22.3125 -1.421875 17.546875 -0.640625 
Q 12.796875 0.140625 7.71875 1.703125 
L 7.71875 11.625 
Q 12.109375 9.234375 16.796875 8.0625 
Q 21.484375 6.890625 26.703125 6.890625 
Q 35.15625 6.890625 40.078125 11.328125 
Q 45.015625 15.765625 45.015625 23.390625 
Q 45.015625 31 40.078125 35.4375 
Q 35.15625 39.890625 26.703125 39.890625 
Q 22.75 39.890625 18.8125 39.015625 
Q 14.890625 38.140625 10.796875 36.28125 
z
" id="DejaVuSans-35"/>
      </defs>
      <g style="fill:#262626;" transform="translate(24.503017 63.329743)scale(0.11 -0.11)">
       <use xlink:href="#DejaVuSans-35"/>
       <use x="63.623047" xlink:href="#DejaVuSans-30"/>
      </g>
     </g>
    </g>
    <g id="ytick_7">
     <g id="line2d_11">
      <path clip-path="url(#p0b6e6f7be2)" d="M 48.000517 33.358123 
L 283.131858 33.358123 
" style="fill:none;stroke:#ffffff;stroke-linecap:round;"/>
     </g>
     <g id="text_7">
      <!-- 60 -->
      <defs>
       <path d="M 33.015625 40.375 
Q 26.375 40.375 22.484375 35.828125 
Q 18.609375 31.296875 18.609375 23.390625 
Q 18.609375 15.53125 22.484375 10.953125 
Q 26.375 6.390625 33.015625 6.390625 
Q 39.65625 6.390625 43.53125 10.953125 
Q 47.40625 15.53125 47.40625 23.390625 
Q 47.40625 31.296875 43.53125 35.828125 
Q 39.65625 40.375 33.015625 40.375 
z
M 52.59375 71.296875 
L 52.59375 62.3125 
Q 48.875 64.0625 45.09375 64.984375 
Q 41.3125 65.921875 37.59375 65.921875 
Q 27.828125 65.921875 22.671875 59.328125 
Q 17.53125 52.734375 16.796875 39.40625 
Q 19.671875 43.65625 24.015625 45.921875 
Q 28.375 48.1875 33.59375 48.1875 
Q 44.578125 48.1875 50.953125 41.515625 
Q 57.328125 34.859375 57.328125 23.390625 
Q 57.328125 12.15625 50.6875 5.359375 
Q 44.046875 -1.421875 33.015625 -1.421875 
Q 20.359375 -1.421875 13.671875 8.265625 
Q 6.984375 17.96875 6.984375 36.375 
Q 6.984375 53.65625 15.1875 63.9375 
Q 23.390625 74.21875 37.203125 74.21875 
Q 40.921875 74.21875 44.703125 73.484375 
Q 48.484375 72.75 52.59375 71.296875 
z
" id="DejaVuSans-36"/>
      </defs>
      <g style="fill:#262626;" transform="translate(24.503017 37.537264)scale(0.11 -0.11)">
       <use xlink:href="#DejaVuSans-36"/>
       <use x="63.623047" xlink:href="#DejaVuSans-30"/>
      </g>
     </g>
    </g>
   </g>
   <g id="patch_3">
    <path clip-path="url(#p0b6e6f7be2)" d="M 93.011293 188.113 
L 96.774102 188.113 
L 96.774102 185.257567 
L 93.011293 185.257567 
z
" style="fill:#4c72b0;opacity:0.4;stroke:#ffffff;stroke-linejoin:miter;"/>
   </g>
   <g id="patch_4">
    <path clip-path="url(#p0b6e6f7be2)" d="M 96.774102 188.113 
L 100.53691 188.113 
L 100.53691 173.05708 
L 96.774102 173.05708 
z
" style="fill:#4c72b0;opacity:0.4;stroke:#ffffff;stroke-linejoin:miter;"/>
   </g>
   <g id="patch_5">
    <path clip-path="url(#p0b6e6f7be2)" d="M 100.53691 188.113 
L 104.299719 188.113 
L 104.299719 172.278325 
L 100.53691 172.278325 
z
" style="fill:#4c72b0;opacity:0.4;stroke:#ffffff;stroke-linejoin:miter;"/>
   </g>
   <g id="patch_6">
    <path clip-path="url(#p0b6e6f7be2)" d="M 104.299719 188.113 
L 108.062528 188.113 
L 108.062528 177.729607 
L 104.299719 177.729607 
z
" style="fill:#4c72b0;opacity:0.4;stroke:#ffffff;stroke-linejoin:miter;"/>
   </g>
   <g id="patch_7">
    <path clip-path="url(#p0b6e6f7be2)" d="M 108.062528 188.113 
L 111.825336 188.113 
L 111.825336 182.661718 
L 108.062528 182.661718 
z
" style="fill:#4c72b0;opacity:0.4;stroke:#ffffff;stroke-linejoin:miter;"/>
   </g>
   <g id="patch_8">
    <path clip-path="url(#p0b6e6f7be2)" d="M 111.825336 188.113 
L 115.588145 188.113 
L 115.588145 161.635347 
L 111.825336 161.635347 
z
" style="fill:#4c72b0;opacity:0.4;stroke:#ffffff;stroke-linejoin:miter;"/>
   </g>
   <g id="patch_9">
    <path clip-path="url(#p0b6e6f7be2)" d="M 115.588145 188.113 
L 119.350954 188.113 
L 119.350954 152.549878 
L 115.588145 152.549878 
z
" style="fill:#4c72b0;opacity:0.4;stroke:#ffffff;stroke-linejoin:miter;"/>
   </g>
   <g id="patch_10">
    <path clip-path="url(#p0b6e6f7be2)" d="M 119.350954 188.113 
L 123.113762 188.113 
L 123.113762 163.452441 
L 119.350954 163.452441 
z
" style="fill:#4c72b0;opacity:0.4;stroke:#ffffff;stroke-linejoin:miter;"/>
   </g>
   <g id="patch_11">
    <path clip-path="url(#p0b6e6f7be2)" d="M 123.113762 188.113 
L 126.876571 188.113 
L 126.876571 171.499571 
L 123.113762 171.499571 
z
" style="fill:#4c72b0;opacity:0.4;stroke:#ffffff;stroke-linejoin:miter;"/>
   </g>
   <g id="patch_12">
    <path clip-path="url(#p0b6e6f7be2)" d="M 126.876571 188.113 
L 130.639379 188.113 
L 130.639379 176.691267 
L 126.876571 176.691267 
z
" style="fill:#4c72b0;opacity:0.4;stroke:#ffffff;stroke-linejoin:miter;"/>
   </g>
   <g id="patch_13">
    <path clip-path="url(#p0b6e6f7be2)" d="M 130.639379 188.113 
L 134.402188 188.113 
L 134.402188 180.06587 
L 130.639379 180.06587 
z
" style="fill:#4c72b0;opacity:0.4;stroke:#ffffff;stroke-linejoin:miter;"/>
   </g>
   <g id="patch_14">
    <path clip-path="url(#p0b6e6f7be2)" d="M 134.402188 188.113 
L 138.164997 188.113 
L 138.164997 181.623379 
L 134.402188 181.623379 
z
" style="fill:#4c72b0;opacity:0.4;stroke:#ffffff;stroke-linejoin:miter;"/>
   </g>
   <g id="patch_15">
    <path clip-path="url(#p0b6e6f7be2)" d="M 138.164997 188.113 
L 141.927805 188.113 
L 141.927805 180.06587 
L 138.164997 180.06587 
z
" style="fill:#4c72b0;opacity:0.4;stroke:#ffffff;stroke-linejoin:miter;"/>
   </g>
   <g id="patch_16">
    <path clip-path="url(#p0b6e6f7be2)" d="M 141.927805 188.113 
L 145.690614 188.113 
L 145.690614 174.874173 
L 141.927805 174.874173 
z
" style="fill:#4c72b0;opacity:0.4;stroke:#ffffff;stroke-linejoin:miter;"/>
   </g>
   <g id="patch_17">
    <path clip-path="url(#p0b6e6f7be2)" d="M 145.690614 188.113 
L 149.453423 188.113 
L 149.453423 172.53791 
L 145.690614 172.53791 
z
" style="fill:#4c72b0;opacity:0.4;stroke:#ffffff;stroke-linejoin:miter;"/>
   </g>
   <g id="patch_18">
    <path clip-path="url(#p0b6e6f7be2)" d="M 149.453423 188.113 
L 153.216231 188.113 
L 153.216231 159.558668 
L 149.453423 159.558668 
z
" style="fill:#4c72b0;opacity:0.4;stroke:#ffffff;stroke-linejoin:miter;"/>
   </g>
   <g id="patch_19">
    <path clip-path="url(#p0b6e6f7be2)" d="M 153.216231 188.113 
L 156.97904 188.113 
L 156.97904 139.051466 
L 153.216231 139.051466 
z
" style="fill:#4c72b0;opacity:0.4;stroke:#ffffff;stroke-linejoin:miter;"/>
   </g>
   <g id="patch_20">
    <path clip-path="url(#p0b6e6f7be2)" d="M 156.97904 188.113 
L 160.741848 188.113 
L 160.741848 143.983578 
L 156.97904 143.983578 
z
" style="fill:#4c72b0;opacity:0.4;stroke:#ffffff;stroke-linejoin:miter;"/>
   </g>
   <g id="patch_21">
    <path clip-path="url(#p0b6e6f7be2)" d="M 160.741848 188.113 
L 164.504657 188.113 
L 164.504657 140.089806 
L 160.741848 140.089806 
z
" style="fill:#4c72b0;opacity:0.4;stroke:#ffffff;stroke-linejoin:miter;"/>
   </g>
   <g id="patch_22">
    <path clip-path="url(#p0b6e6f7be2)" d="M 164.504657 188.113 
L 168.267466 188.113 
L 168.267466 37.813381 
L 164.504657 37.813381 
z
" style="fill:#4c72b0;opacity:0.4;stroke:#ffffff;stroke-linejoin:miter;"/>
   </g>
   <g id="patch_23">
    <path clip-path="url(#p0b6e6f7be2)" d="M 168.267466 188.113 
L 172.030274 188.113 
L 172.030274 141.128145 
L 168.267466 141.128145 
z
" style="fill:#4c72b0;opacity:0.4;stroke:#ffffff;stroke-linejoin:miter;"/>
   </g>
   <g id="patch_24">
    <path clip-path="url(#p0b6e6f7be2)" d="M 172.030274 188.113 
L 175.793083 188.113 
L 175.793083 159.039499 
L 172.030274 159.039499 
z
" style="fill:#4c72b0;opacity:0.4;stroke:#ffffff;stroke-linejoin:miter;"/>
   </g>
   <g id="patch_25">
    <path clip-path="url(#p0b6e6f7be2)" d="M 175.793083 188.113 
L 179.555892 188.113 
L 179.555892 163.97161 
L 175.793083 163.97161 
z
" style="fill:#4c72b0;opacity:0.4;stroke:#ffffff;stroke-linejoin:miter;"/>
   </g>
   <g id="patch_26">
    <path clip-path="url(#p0b6e6f7be2)" d="M 179.555892 188.113 
L 183.3187 188.113 
L 183.3187 168.903722 
L 179.555892 168.903722 
z
" style="fill:#4c72b0;opacity:0.4;stroke:#ffffff;stroke-linejoin:miter;"/>
   </g>
   <g id="patch_27">
    <path clip-path="url(#p0b6e6f7be2)" d="M 183.3187 188.113 
L 187.081509 188.113 
L 187.081509 180.325455 
L 183.3187 180.325455 
z
" style="fill:#4c72b0;opacity:0.4;stroke:#ffffff;stroke-linejoin:miter;"/>
   </g>
   <g id="patch_28">
    <path clip-path="url(#p0b6e6f7be2)" d="M 187.081509 188.113 
L 190.844317 188.113 
L 190.844317 179.287116 
L 187.081509 179.287116 
z
" style="fill:#4c72b0;opacity:0.4;stroke:#ffffff;stroke-linejoin:miter;"/>
   </g>
   <g id="patch_29">
    <path clip-path="url(#p0b6e6f7be2)" d="M 190.844317 188.113 
L 194.607126 188.113 
L 194.607126 167.086628 
L 190.844317 167.086628 
z
" style="fill:#4c72b0;opacity:0.4;stroke:#ffffff;stroke-linejoin:miter;"/>
   </g>
   <g id="patch_30">
    <path clip-path="url(#p0b6e6f7be2)" d="M 194.607126 188.113 
L 198.369935 188.113 
L 198.369935 175.133758 
L 194.607126 175.133758 
z
" style="fill:#4c72b0;opacity:0.4;stroke:#ffffff;stroke-linejoin:miter;"/>
   </g>
   <g id="patch_31">
    <path clip-path="url(#p0b6e6f7be2)" d="M 198.369935 188.113 
L 202.132743 188.113 
L 202.132743 181.623379 
L 198.369935 181.623379 
z
" style="fill:#4c72b0;opacity:0.4;stroke:#ffffff;stroke-linejoin:miter;"/>
   </g>
   <g id="patch_32">
    <path clip-path="url(#p0b6e6f7be2)" d="M 202.132743 188.113 
L 205.895552 188.113 
L 205.895552 175.393343 
L 202.132743 175.393343 
z
" style="fill:#4c72b0;opacity:0.4;stroke:#ffffff;stroke-linejoin:miter;"/>
   </g>
   <g id="patch_33">
    <path clip-path="url(#p0b6e6f7be2)" d="M 205.895552 188.113 
L 209.658361 188.113 
L 209.658361 176.431682 
L 205.895552 176.431682 
z
" style="fill:#4c72b0;opacity:0.4;stroke:#ffffff;stroke-linejoin:miter;"/>
   </g>
   <g id="patch_34">
    <path clip-path="url(#p0b6e6f7be2)" d="M 209.658361 188.113 
L 213.421169 188.113 
L 213.421169 187.59383 
L 209.658361 187.59383 
z
" style="fill:#4c72b0;opacity:0.4;stroke:#ffffff;stroke-linejoin:miter;"/>
   </g>
   <g id="patch_35">
    <path clip-path="url(#p0b6e6f7be2)" d="M 213.421169 188.113 
L 217.183978 188.113 
L 217.183978 187.074661 
L 213.421169 187.074661 
z
" style="fill:#4c72b0;opacity:0.4;stroke:#ffffff;stroke-linejoin:miter;"/>
   </g>
   <g id="patch_36">
    <path clip-path="url(#p0b6e6f7be2)" d="M 217.183978 188.113 
L 220.946786 188.113 
L 220.946786 187.59383 
L 217.183978 187.59383 
z
" style="fill:#4c72b0;opacity:0.4;stroke:#ffffff;stroke-linejoin:miter;"/>
   </g>
   <g id="patch_37">
    <path clip-path="url(#p0b6e6f7be2)" d="M 220.946786 188.113 
L 224.709595 188.113 
L 224.709595 184.219227 
L 220.946786 184.219227 
z
" style="fill:#4c72b0;opacity:0.4;stroke:#ffffff;stroke-linejoin:miter;"/>
   </g>
   <g id="patch_38">
    <path clip-path="url(#p0b6e6f7be2)" d="M 224.709595 188.113 
L 228.472404 188.113 
L 228.472404 183.440473 
L 224.709595 183.440473 
z
" style="fill:#4c72b0;opacity:0.4;stroke:#ffffff;stroke-linejoin:miter;"/>
   </g>
   <g id="patch_39">
    <path clip-path="url(#p0b6e6f7be2)" d="M 228.472404 188.113 
L 232.235212 188.113 
L 232.235212 180.06587 
L 228.472404 180.06587 
z
" style="fill:#4c72b0;opacity:0.4;stroke:#ffffff;stroke-linejoin:miter;"/>
   </g>
   <g id="line2d_12">
    <path clip-path="url(#p0b6e6f7be2)" d="M 75.817881 188.108114 
L 77.571525 188.099508 
L 79.325169 188.078516 
L 81.078812 188.03129 
L 82.832456 187.933224 
L 84.5861 187.745204 
L 86.339744 187.41246 
L 88.093388 186.869477 
L 89.847032 186.054018 
L 91.600676 184.930224 
L 93.35432 183.514898 
L 95.107963 181.89476 
L 96.861607 180.220234 
L 98.615251 178.667496 
L 100.368895 177.375199 
L 102.122539 176.379422 
L 103.876183 175.579596 
L 105.629827 174.761209 
L 107.383471 173.677565 
L 109.137114 172.162636 
L 110.890758 170.225988 
L 112.644402 168.082879 
L 114.398046 166.099992 
L 116.15169 164.677194 
L 117.905334 164.116165 
L 119.658978 164.530704 
L 121.412622 165.829866 
L 123.166265 167.769182 
L 124.919909 170.037395 
L 126.673553 172.339006 
L 128.427197 174.445224 
L 130.180841 176.206941 
L 131.934485 177.540635 
L 133.688129 178.404572 
L 135.441773 178.778403 
L 137.195416 178.650004 
L 138.94906 178.006663 
L 140.702704 176.827778 
L 142.456348 175.081631 
L 144.209992 172.733002 
L 145.963636 169.764711 
L 147.71728 166.204348 
L 149.470924 162.135554 
L 151.224568 157.674298 
L 152.978211 152.911608 
L 154.731855 147.857445 
L 156.485499 142.442052 
L 158.239143 136.615068 
L 159.992787 130.522228 
L 161.746431 124.664073 
L 163.500075 119.908053 
L 165.253719 117.28026 
L 167.007362 117.592973 
L 168.761006 121.08745 
L 170.51465 127.291203 
L 172.268294 135.175625 
L 174.021938 143.526542 
L 175.775582 151.328365 
L 177.529226 157.9833 
L 179.28287 163.309291 
L 181.036513 167.388293 
L 182.790157 170.391144 
L 184.543801 172.474173 
L 186.297445 173.768963 
L 188.051089 174.424659 
L 189.804733 174.642722 
L 191.558377 174.665732 
L 193.312021 174.722451 
L 195.065664 174.963797 
L 196.819308 175.43074 
L 198.572952 176.074216 
L 200.326596 176.813996 
L 202.08024 177.599742 
L 203.833884 178.438181 
L 205.587528 179.373856 
L 207.341172 180.440792 
L 209.094815 181.618751 
L 210.848459 182.821244 
L 212.602103 183.920055 
L 214.355747 184.789541 
L 216.109391 185.346776 
L 217.863035 185.571663 
L 219.616679 185.505264 
L 221.370323 185.23432 
L 223.123967 184.871108 
L 224.87761 184.53356 
L 226.631254 184.32625 
L 228.384898 184.32226 
L 230.138542 184.548625 
L 231.892186 184.980816 
L 233.64583 185.55087 
L 235.399474 186.168475 
L 237.153118 186.747581 
L 238.906761 187.228044 
L 240.660405 187.584665 
L 242.414049 187.822933 
L 244.167693 187.966753 
L 245.921337 188.045365 
L 247.674981 188.084336 
L 249.428625 188.101876 
" style="fill:none;stroke:#4c72b0;stroke-linecap:round;stroke-width:1.5;"/>
   </g>
   <g id="patch_40">
    <path d="M 48.000517 188.113 
L 48.000517 30.2984 
" style="fill:none;stroke:#ffffff;stroke-linecap:square;stroke-linejoin:miter;stroke-width:1.25;"/>
   </g>
   <g id="patch_41">
    <path d="M 48.000517 188.113 
L 283.131858 188.113 
" style="fill:none;stroke:#ffffff;stroke-linecap:square;stroke-linejoin:miter;stroke-width:1.25;"/>
   </g>
   <g id="text_8">
    <!-- estimate = basalt_traj -->
    <defs>
     <path d="M 56.203125 29.59375 
L 56.203125 25.203125 
L 14.890625 25.203125 
Q 15.484375 15.921875 20.484375 11.0625 
Q 25.484375 6.203125 34.421875 6.203125 
Q 39.59375 6.203125 44.453125 7.46875 
Q 49.3125 8.734375 54.109375 11.28125 
L 54.109375 2.78125 
Q 49.265625 0.734375 44.1875 -0.34375 
Q 39.109375 -1.421875 33.890625 -1.421875 
Q 20.796875 -1.421875 13.15625 6.1875 
Q 5.515625 13.8125 5.515625 26.8125 
Q 5.515625 40.234375 12.765625 48.109375 
Q 20.015625 56 32.328125 56 
Q 43.359375 56 49.78125 48.890625 
Q 56.203125 41.796875 56.203125 29.59375 
z
M 47.21875 32.234375 
Q 47.125 39.59375 43.09375 43.984375 
Q 39.0625 48.390625 32.421875 48.390625 
Q 24.90625 48.390625 20.390625 44.140625 
Q 15.875 39.890625 15.1875 32.171875 
z
" id="DejaVuSans-65"/>
     <path d="M 44.28125 53.078125 
L 44.28125 44.578125 
Q 40.484375 46.53125 36.375 47.5 
Q 32.28125 48.484375 27.875 48.484375 
Q 21.1875 48.484375 17.84375 46.4375 
Q 14.5 44.390625 14.5 40.28125 
Q 14.5 37.15625 16.890625 35.375 
Q 19.28125 33.59375 26.515625 31.984375 
L 29.59375 31.296875 
Q 39.15625 29.25 43.1875 25.515625 
Q 47.21875 21.78125 47.21875 15.09375 
Q 47.21875 7.46875 41.1875 3.015625 
Q 35.15625 -1.421875 24.609375 -1.421875 
Q 20.21875 -1.421875 15.453125 -0.5625 
Q 10.6875 0.296875 5.421875 2 
L 5.421875 11.28125 
Q 10.40625 8.6875 15.234375 7.390625 
Q 20.0625 6.109375 24.8125 6.109375 
Q 31.15625 6.109375 34.5625 8.28125 
Q 37.984375 10.453125 37.984375 14.40625 
Q 37.984375 18.0625 35.515625 20.015625 
Q 33.0625 21.96875 24.703125 23.78125 
L 21.578125 24.515625 
Q 13.234375 26.265625 9.515625 29.90625 
Q 5.8125 33.546875 5.8125 39.890625 
Q 5.8125 47.609375 11.28125 51.796875 
Q 16.75 56 26.8125 56 
Q 31.78125 56 36.171875 55.265625 
Q 40.578125 54.546875 44.28125 53.078125 
z
" id="DejaVuSans-73"/>
     <path d="M 18.3125 70.21875 
L 18.3125 54.6875 
L 36.8125 54.6875 
L 36.8125 47.703125 
L 18.3125 47.703125 
L 18.3125 18.015625 
Q 18.3125 11.328125 20.140625 9.421875 
Q 21.96875 7.515625 27.59375 7.515625 
L 36.8125 7.515625 
L 36.8125 0 
L 27.59375 0 
Q 17.1875 0 13.234375 3.875 
Q 9.28125 7.765625 9.28125 18.015625 
L 9.28125 47.703125 
L 2.6875 47.703125 
L 2.6875 54.6875 
L 9.28125 54.6875 
L 9.28125 70.21875 
z
" id="DejaVuSans-74"/>
     <path d="M 9.421875 54.6875 
L 18.40625 54.6875 
L 18.40625 0 
L 9.421875 0 
z
M 9.421875 75.984375 
L 18.40625 75.984375 
L 18.40625 64.59375 
L 9.421875 64.59375 
z
" id="DejaVuSans-69"/>
     <path d="M 52 44.1875 
Q 55.375 50.25 60.0625 53.125 
Q 64.75 56 71.09375 56 
Q 79.640625 56 84.28125 50.015625 
Q 88.921875 44.046875 88.921875 33.015625 
L 88.921875 0 
L 79.890625 0 
L 79.890625 32.71875 
Q 79.890625 40.578125 77.09375 44.375 
Q 74.3125 48.1875 68.609375 48.1875 
Q 61.625 48.1875 57.5625 43.546875 
Q 53.515625 38.921875 53.515625 30.90625 
L 53.515625 0 
L 44.484375 0 
L 44.484375 32.71875 
Q 44.484375 40.625 41.703125 44.40625 
Q 38.921875 48.1875 33.109375 48.1875 
Q 26.21875 48.1875 22.15625 43.53125 
Q 18.109375 38.875 18.109375 30.90625 
L 18.109375 0 
L 9.078125 0 
L 9.078125 54.6875 
L 18.109375 54.6875 
L 18.109375 46.1875 
Q 21.1875 51.21875 25.484375 53.609375 
Q 29.78125 56 35.6875 56 
Q 41.65625 56 45.828125 52.96875 
Q 50 49.953125 52 44.1875 
z
" id="DejaVuSans-6d"/>
     <path d="M 34.28125 27.484375 
Q 23.390625 27.484375 19.1875 25 
Q 14.984375 22.515625 14.984375 16.5 
Q 14.984375 11.71875 18.140625 8.90625 
Q 21.296875 6.109375 26.703125 6.109375 
Q 34.1875 6.109375 38.703125 11.40625 
Q 43.21875 16.703125 43.21875 25.484375 
L 43.21875 27.484375 
z
M 52.203125 31.203125 
L 52.203125 0 
L 43.21875 0 
L 43.21875 8.296875 
Q 40.140625 3.328125 35.546875 0.953125 
Q 30.953125 -1.421875 24.3125 -1.421875 
Q 15.921875 -1.421875 10.953125 3.296875 
Q 6 8.015625 6 15.921875 
Q 6 25.140625 12.171875 29.828125 
Q 18.359375 34.515625 30.609375 34.515625 
L 43.21875 34.515625 
L 43.21875 35.40625 
Q 43.21875 41.609375 39.140625 45 
Q 35.0625 48.390625 27.6875 48.390625 
Q 23 48.390625 18.546875 47.265625 
Q 14.109375 46.140625 10.015625 43.890625 
L 10.015625 52.203125 
Q 14.9375 54.109375 19.578125 55.046875 
Q 24.21875 56 28.609375 56 
Q 40.484375 56 46.34375 49.84375 
Q 52.203125 43.703125 52.203125 31.203125 
z
" id="DejaVuSans-61"/>
     <path id="DejaVuSans-20"/>
     <path d="M 10.59375 45.40625 
L 73.1875 45.40625 
L 73.1875 37.203125 
L 10.59375 37.203125 
z
M 10.59375 25.484375 
L 73.1875 25.484375 
L 73.1875 17.1875 
L 10.59375 17.1875 
z
" id="DejaVuSans-3d"/>
     <path d="M 48.6875 27.296875 
Q 48.6875 37.203125 44.609375 42.84375 
Q 40.53125 48.484375 33.40625 48.484375 
Q 26.265625 48.484375 22.1875 42.84375 
Q 18.109375 37.203125 18.109375 27.296875 
Q 18.109375 17.390625 22.1875 11.75 
Q 26.265625 6.109375 33.40625 6.109375 
Q 40.53125 6.109375 44.609375 11.75 
Q 48.6875 17.390625 48.6875 27.296875 
z
M 18.109375 46.390625 
Q 20.953125 51.265625 25.265625 53.625 
Q 29.59375 56 35.59375 56 
Q 45.5625 56 51.78125 48.09375 
Q 58.015625 40.1875 58.015625 27.296875 
Q 58.015625 14.40625 51.78125 6.484375 
Q 45.5625 -1.421875 35.59375 -1.421875 
Q 29.59375 -1.421875 25.265625 0.953125 
Q 20.953125 3.328125 18.109375 8.203125 
L 18.109375 0 
L 9.078125 0 
L 9.078125 75.984375 
L 18.109375 75.984375 
z
" id="DejaVuSans-62"/>
     <path d="M 9.421875 75.984375 
L 18.40625 75.984375 
L 18.40625 0 
L 9.421875 0 
z
" id="DejaVuSans-6c"/>
     <path d="M 50.984375 -16.609375 
L 50.984375 -23.578125 
L -0.984375 -23.578125 
L -0.984375 -16.609375 
z
" id="DejaVuSans-5f"/>
     <path d="M 41.109375 46.296875 
Q 39.59375 47.171875 37.8125 47.578125 
Q 36.03125 48 33.890625 48 
Q 26.265625 48 22.1875 43.046875 
Q 18.109375 38.09375 18.109375 28.8125 
L 18.109375 0 
L 9.078125 0 
L 9.078125 54.6875 
L 18.109375 54.6875 
L 18.109375 46.1875 
Q 20.953125 51.171875 25.484375 53.578125 
Q 30.03125 56 36.53125 56 
Q 37.453125 56 38.578125 55.875 
Q 39.703125 55.765625 41.0625 55.515625 
z
" id="DejaVuSans-72"/>
     <path d="M 9.421875 54.6875 
L 18.40625 54.6875 
L 18.40625 -0.984375 
Q 18.40625 -11.421875 14.421875 -16.109375 
Q 10.453125 -20.796875 1.609375 -20.796875 
L -1.8125 -20.796875 
L -1.8125 -13.1875 
L 0.59375 -13.1875 
Q 5.71875 -13.1875 7.5625 -10.8125 
Q 9.421875 -8.453125 9.421875 -0.984375 
z
M 9.421875 75.984375 
L 18.40625 75.984375 
L 18.40625 64.59375 
L 9.421875 64.59375 
z
" id="DejaVuSans-6a"/>
    </defs>
    <g style="fill:#262626;" transform="translate(98.85275 24.2984)scale(0.12 -0.12)">
     <use xlink:href="#DejaVuSans-65"/>
     <use x="61.523438" xlink:href="#DejaVuSans-73"/>
     <use x="113.623047" xlink:href="#DejaVuSans-74"/>
     <use x="152.832031" xlink:href="#DejaVuSans-69"/>
     <use x="180.615234" xlink:href="#DejaVuSans-6d"/>
     <use x="278.027344" xlink:href="#DejaVuSans-61"/>
     <use x="339.306641" xlink:href="#DejaVuSans-74"/>
     <use x="378.515625" xlink:href="#DejaVuSans-65"/>
     <use x="440.039062" xlink:href="#DejaVuSans-20"/>
     <use x="471.826172" xlink:href="#DejaVuSans-3d"/>
     <use x="555.615234" xlink:href="#DejaVuSans-20"/>
     <use x="587.402344" xlink:href="#DejaVuSans-62"/>
     <use x="650.878906" xlink:href="#DejaVuSans-61"/>
     <use x="712.158203" xlink:href="#DejaVuSans-73"/>
     <use x="764.257812" xlink:href="#DejaVuSans-61"/>
     <use x="825.537109" xlink:href="#DejaVuSans-6c"/>
     <use x="853.320312" xlink:href="#DejaVuSans-74"/>
     <use x="892.529297" xlink:href="#DejaVuSans-5f"/>
     <use x="942.529297" xlink:href="#DejaVuSans-74"/>
     <use x="981.738281" xlink:href="#DejaVuSans-72"/>
     <use x="1022.851562" xlink:href="#DejaVuSans-61"/>
     <use x="1084.130859" xlink:href="#DejaVuSans-6a"/>
    </g>
   </g>
  </g>
  <g id="axes_2">
   <g id="patch_42">
    <path d="M 311.607858 188.113 
L 546.7392 188.113 
L 546.7392 30.2984 
L 311.607858 30.2984 
z
" style="fill:#eaeaf2;"/>
   </g>
   <g id="matplotlib.axis_3">
    <g id="xtick_5">
     <g id="line2d_13">
      <path clip-path="url(#p131cea7285)" d="M 331.416286 188.113 
L 331.416286 30.2984 
" style="fill:none;stroke:#ffffff;stroke-linecap:round;"/>
     </g>
     <g id="text_9">
      <!-- 0.00 -->
      <defs>
       <path d="M 10.6875 12.40625 
L 21 12.40625 
L 21 0 
L 10.6875 0 
z
" id="DejaVuSans-2e"/>
      </defs>
      <g style="fill:#262626;" transform="translate(319.170192 205.971281)scale(0.11 -0.11)">
       <use xlink:href="#DejaVuSans-30"/>
       <use x="63.623047" xlink:href="#DejaVuSans-2e"/>
       <use x="95.410156" xlink:href="#DejaVuSans-30"/>
       <use x="159.033203" xlink:href="#DejaVuSans-30"/>
      </g>
     </g>
    </g>
    <g id="xtick_6">
     <g id="line2d_14">
      <path clip-path="url(#p131cea7285)" d="M 386.517522 188.113 
L 386.517522 30.2984 
" style="fill:none;stroke:#ffffff;stroke-linecap:round;"/>
     </g>
     <g id="text_10">
      <!-- 0.05 -->
      <g style="fill:#262626;" transform="translate(374.271429 205.971281)scale(0.11 -0.11)">
       <use xlink:href="#DejaVuSans-30"/>
       <use x="63.623047" xlink:href="#DejaVuSans-2e"/>
       <use x="95.410156" xlink:href="#DejaVuSans-30"/>
       <use x="159.033203" xlink:href="#DejaVuSans-35"/>
      </g>
     </g>
    </g>
    <g id="xtick_7">
     <g id="line2d_15">
      <path clip-path="url(#p131cea7285)" d="M 441.618759 188.113 
L 441.618759 30.2984 
" style="fill:none;stroke:#ffffff;stroke-linecap:round;"/>
     </g>
     <g id="text_11">
      <!-- 0.10 -->
      <g style="fill:#262626;" transform="translate(429.372665 205.971281)scale(0.11 -0.11)">
       <use xlink:href="#DejaVuSans-30"/>
       <use x="63.623047" xlink:href="#DejaVuSans-2e"/>
       <use x="95.410156" xlink:href="#DejaVuSans-31"/>
       <use x="159.033203" xlink:href="#DejaVuSans-30"/>
      </g>
     </g>
    </g>
    <g id="xtick_8">
     <g id="line2d_16">
      <path clip-path="url(#p131cea7285)" d="M 496.719996 188.113 
L 496.719996 30.2984 
" style="fill:none;stroke:#ffffff;stroke-linecap:round;"/>
     </g>
     <g id="text_12">
      <!-- 0.15 -->
      <g style="fill:#262626;" transform="translate(484.473902 205.971281)scale(0.11 -0.11)">
       <use xlink:href="#DejaVuSans-30"/>
       <use x="63.623047" xlink:href="#DejaVuSans-2e"/>
       <use x="95.410156" xlink:href="#DejaVuSans-31"/>
       <use x="159.033203" xlink:href="#DejaVuSans-35"/>
      </g>
     </g>
    </g>
    <g id="text_13">
     <!-- APE (m) -->
     <defs>
      <path d="M 34.1875 63.1875 
L 20.796875 26.90625 
L 47.609375 26.90625 
z
M 28.609375 72.90625 
L 39.796875 72.90625 
L 67.578125 0 
L 57.328125 0 
L 50.6875 18.703125 
L 17.828125 18.703125 
L 11.1875 0 
L 0.78125 0 
z
" id="DejaVuSans-41"/>
      <path d="M 19.671875 64.796875 
L 19.671875 37.40625 
L 32.078125 37.40625 
Q 38.96875 37.40625 42.71875 40.96875 
Q 46.484375 44.53125 46.484375 51.125 
Q 46.484375 57.671875 42.71875 61.234375 
Q 38.96875 64.796875 32.078125 64.796875 
z
M 9.8125 72.90625 
L 32.078125 72.90625 
Q 44.34375 72.90625 50.609375 67.359375 
Q 56.890625 61.8125 56.890625 51.125 
Q 56.890625 40.328125 50.609375 34.8125 
Q 44.34375 29.296875 32.078125 29.296875 
L 19.671875 29.296875 
L 19.671875 0 
L 9.8125 0 
z
" id="DejaVuSans-50"/>
      <path d="M 9.8125 72.90625 
L 55.90625 72.90625 
L 55.90625 64.59375 
L 19.671875 64.59375 
L 19.671875 43.015625 
L 54.390625 43.015625 
L 54.390625 34.71875 
L 19.671875 34.71875 
L 19.671875 8.296875 
L 56.78125 8.296875 
L 56.78125 0 
L 9.8125 0 
z
" id="DejaVuSans-45"/>
      <path d="M 31 75.875 
Q 24.46875 64.65625 21.28125 53.65625 
Q 18.109375 42.671875 18.109375 31.390625 
Q 18.109375 20.125 21.3125 9.0625 
Q 24.515625 -2 31 -13.1875 
L 23.1875 -13.1875 
Q 15.875 -1.703125 12.234375 9.375 
Q 8.59375 20.453125 8.59375 31.390625 
Q 8.59375 42.28125 12.203125 53.3125 
Q 15.828125 64.359375 23.1875 75.875 
z
" id="DejaVuSans-28"/>
      <path d="M 8.015625 75.875 
L 15.828125 75.875 
Q 23.140625 64.359375 26.78125 53.3125 
Q 30.421875 42.28125 30.421875 31.390625 
Q 30.421875 20.453125 26.78125 9.375 
Q 23.140625 -1.703125 15.828125 -13.1875 
L 8.015625 -13.1875 
Q 14.5 -2 17.703125 9.0625 
Q 20.90625 20.125 20.90625 31.390625 
Q 20.90625 42.671875 17.703125 53.65625 
Q 14.5 64.65625 8.015625 75.875 
z
" id="DejaVuSans-29"/>
     </defs>
     <g style="fill:#262626;" transform="translate(405.226967 221.377062)scale(0.12 -0.12)">
      <use xlink:href="#DejaVuSans-41"/>
      <use x="68.408203" xlink:href="#DejaVuSans-50"/>
      <use x="128.710938" xlink:href="#DejaVuSans-45"/>
      <use x="191.894531" xlink:href="#DejaVuSans-20"/>
      <use x="223.681641" xlink:href="#DejaVuSans-28"/>
      <use x="262.695312" xlink:href="#DejaVuSans-6d"/>
      <use x="360.107422" xlink:href="#DejaVuSans-29"/>
     </g>
    </g>
   </g>
   <g id="matplotlib.axis_4">
    <g id="ytick_8">
     <g id="line2d_17">
      <path clip-path="url(#p131cea7285)" d="M 311.607858 188.113 
L 546.7392 188.113 
" style="fill:none;stroke:#ffffff;stroke-linecap:round;"/>
     </g>
    </g>
    <g id="ytick_9">
     <g id="line2d_18">
      <path clip-path="url(#p131cea7285)" d="M 311.607858 162.320521 
L 546.7392 162.320521 
" style="fill:none;stroke:#ffffff;stroke-linecap:round;"/>
     </g>
    </g>
    <g id="ytick_10">
     <g id="line2d_19">
      <path clip-path="url(#p131cea7285)" d="M 311.607858 136.528041 
L 546.7392 136.528041 
" style="fill:none;stroke:#ffffff;stroke-linecap:round;"/>
     </g>
    </g>
    <g id="ytick_11">
     <g id="line2d_20">
      <path clip-path="url(#p131cea7285)" d="M 311.607858 110.735562 
L 546.7392 110.735562 
" style="fill:none;stroke:#ffffff;stroke-linecap:round;"/>
     </g>
    </g>
    <g id="ytick_12">
     <g id="line2d_21">
      <path clip-path="url(#p131cea7285)" d="M 311.607858 84.943082 
L 546.7392 84.943082 
" style="fill:none;stroke:#ffffff;stroke-linecap:round;"/>
     </g>
    </g>
    <g id="ytick_13">
     <g id="line2d_22">
      <path clip-path="url(#p131cea7285)" d="M 311.607858 59.150603 
L 546.7392 59.150603 
" style="fill:none;stroke:#ffffff;stroke-linecap:round;"/>
     </g>
    </g>
    <g id="ytick_14">
     <g id="line2d_23">
      <path clip-path="url(#p131cea7285)" d="M 311.607858 33.358123 
L 546.7392 33.358123 
" style="fill:none;stroke:#ffffff;stroke-linecap:round;"/>
     </g>
    </g>
   </g>
   <g id="patch_43">
    <path clip-path="url(#p131cea7285)" d="M 335.102908 188.113 
L 338.79756 188.113 
L 338.79756 171.051314 
L 335.102908 171.051314 
z
" style="fill:#4c72b0;opacity:0.4;stroke:#ffffff;stroke-linejoin:miter;"/>
   </g>
   <g id="patch_44">
    <path clip-path="url(#p131cea7285)" d="M 338.79756 188.113 
L 342.492211 188.113 
L 342.492211 167.173658 
L 338.79756 167.173658 
z
" style="fill:#4c72b0;opacity:0.4;stroke:#ffffff;stroke-linejoin:miter;"/>
   </g>
   <g id="patch_45">
    <path clip-path="url(#p131cea7285)" d="M 342.492211 188.113 
L 346.186863 188.113 
L 346.186863 150.111972 
L 342.492211 150.111972 
z
" style="fill:#4c72b0;opacity:0.4;stroke:#ffffff;stroke-linejoin:miter;"/>
   </g>
   <g id="patch_46">
    <path clip-path="url(#p131cea7285)" d="M 346.186863 188.113 
L 349.881515 188.113 
L 349.881515 117.539662 
L 346.186863 117.539662 
z
" style="fill:#4c72b0;opacity:0.4;stroke:#ffffff;stroke-linejoin:miter;"/>
   </g>
   <g id="patch_47">
    <path clip-path="url(#p131cea7285)" d="M 349.881515 188.113 
L 353.576166 188.113 
L 353.576166 94.273727 
L 349.881515 94.273727 
z
" style="fill:#4c72b0;opacity:0.4;stroke:#ffffff;stroke-linejoin:miter;"/>
   </g>
   <g id="patch_48">
    <path clip-path="url(#p131cea7285)" d="M 353.576166 188.113 
L 357.270818 188.113 
L 357.270818 97.375852 
L 353.576166 97.375852 
z
" style="fill:#4c72b0;opacity:0.4;stroke:#ffffff;stroke-linejoin:miter;"/>
   </g>
   <g id="patch_49">
    <path clip-path="url(#p131cea7285)" d="M 357.270818 188.113 
L 360.96547 188.113 
L 360.96547 105.906695 
L 357.270818 105.906695 
z
" style="fill:#4c72b0;opacity:0.4;stroke:#ffffff;stroke-linejoin:miter;"/>
   </g>
   <g id="patch_50">
    <path clip-path="url(#p131cea7285)" d="M 360.96547 188.113 
L 364.660121 188.113 
L 364.660121 119.866256 
L 360.96547 119.866256 
z
" style="fill:#4c72b0;opacity:0.4;stroke:#ffffff;stroke-linejoin:miter;"/>
   </g>
   <g id="patch_51">
    <path clip-path="url(#p131cea7285)" d="M 364.660121 188.113 
L 368.354773 188.113 
L 368.354773 122.192849 
L 364.660121 122.192849 
z
" style="fill:#4c72b0;opacity:0.4;stroke:#ffffff;stroke-linejoin:miter;"/>
   </g>
   <g id="patch_52">
    <path clip-path="url(#p131cea7285)" d="M 368.354773 188.113 
L 372.049425 188.113 
L 372.049425 145.458785 
L 368.354773 145.458785 
z
" style="fill:#4c72b0;opacity:0.4;stroke:#ffffff;stroke-linejoin:miter;"/>
   </g>
   <g id="patch_53">
    <path clip-path="url(#p131cea7285)" d="M 372.049425 188.113 
L 375.744076 188.113 
L 375.744076 148.56091 
L 372.049425 148.56091 
z
" style="fill:#4c72b0;opacity:0.4;stroke:#ffffff;stroke-linejoin:miter;"/>
   </g>
   <g id="patch_54">
    <path clip-path="url(#p131cea7285)" d="M 375.744076 188.113 
L 379.438728 188.113 
L 379.438728 156.316221 
L 375.744076 156.316221 
z
" style="fill:#4c72b0;opacity:0.4;stroke:#ffffff;stroke-linejoin:miter;"/>
   </g>
   <g id="patch_55">
    <path clip-path="url(#p131cea7285)" d="M 379.438728 188.113 
L 383.13338 188.113 
L 383.13338 160.193877 
L 379.438728 160.193877 
z
" style="fill:#4c72b0;opacity:0.4;stroke:#ffffff;stroke-linejoin:miter;"/>
   </g>
   <g id="patch_56">
    <path clip-path="url(#p131cea7285)" d="M 383.13338 188.113 
L 386.828031 188.113 
L 386.828031 178.031095 
L 383.13338 178.031095 
z
" style="fill:#4c72b0;opacity:0.4;stroke:#ffffff;stroke-linejoin:miter;"/>
   </g>
   <g id="patch_57">
    <path clip-path="url(#p131cea7285)" d="M 386.828031 188.113 
L 390.522683 188.113 
L 390.522683 175.704501 
L 386.828031 175.704501 
z
" style="fill:#4c72b0;opacity:0.4;stroke:#ffffff;stroke-linejoin:miter;"/>
   </g>
   <g id="patch_58">
    <path clip-path="url(#p131cea7285)" d="M 390.522683 188.113 
L 394.217335 188.113 
L 394.217335 181.133219 
L 390.522683 181.133219 
z
" style="fill:#4c72b0;opacity:0.4;stroke:#ffffff;stroke-linejoin:miter;"/>
   </g>
   <g id="patch_59">
    <path clip-path="url(#p131cea7285)" d="M 394.217335 188.113 
L 397.911986 188.113 
L 397.911986 178.031095 
L 394.217335 178.031095 
z
" style="fill:#4c72b0;opacity:0.4;stroke:#ffffff;stroke-linejoin:miter;"/>
   </g>
   <g id="patch_60">
    <path clip-path="url(#p131cea7285)" d="M 397.911986 188.113 
L 401.606638 188.113 
L 401.606638 184.235344 
L 397.911986 184.235344 
z
" style="fill:#4c72b0;opacity:0.4;stroke:#ffffff;stroke-linejoin:miter;"/>
   </g>
   <g id="patch_61">
    <path clip-path="url(#p131cea7285)" d="M 401.606638 188.113 
L 405.301289 188.113 
L 405.301289 183.459813 
L 401.606638 183.459813 
z
" style="fill:#4c72b0;opacity:0.4;stroke:#ffffff;stroke-linejoin:miter;"/>
   </g>
   <g id="patch_62">
    <path clip-path="url(#p131cea7285)" d="M 405.301289 188.113 
L 408.995941 188.113 
L 408.995941 182.684282 
L 405.301289 182.684282 
z
" style="fill:#4c72b0;opacity:0.4;stroke:#ffffff;stroke-linejoin:miter;"/>
   </g>
   <g id="patch_63">
    <path clip-path="url(#p131cea7285)" d="M 408.995941 188.113 
L 412.690593 188.113 
L 412.690593 183.459813 
L 408.995941 183.459813 
z
" style="fill:#4c72b0;opacity:0.4;stroke:#ffffff;stroke-linejoin:miter;"/>
   </g>
   <g id="patch_64">
    <path clip-path="url(#p131cea7285)" d="M 412.690593 188.113 
L 416.385244 188.113 
L 416.385244 178.806626 
L 412.690593 178.806626 
z
" style="fill:#4c72b0;opacity:0.4;stroke:#ffffff;stroke-linejoin:miter;"/>
   </g>
   <g id="patch_65">
    <path clip-path="url(#p131cea7285)" d="M 416.385244 188.113 
L 420.079896 188.113 
L 420.079896 181.908751 
L 416.385244 181.908751 
z
" style="fill:#4c72b0;opacity:0.4;stroke:#ffffff;stroke-linejoin:miter;"/>
   </g>
   <g id="patch_66">
    <path clip-path="url(#p131cea7285)" d="M 420.079896 188.113 
L 423.774548 188.113 
L 423.774548 181.908751 
L 420.079896 181.908751 
z
" style="fill:#4c72b0;opacity:0.4;stroke:#ffffff;stroke-linejoin:miter;"/>
   </g>
   <g id="line2d_24">
    <path clip-path="url(#p131cea7285)" d="M 322.295647 188.095028 
L 323.450052 188.069774 
L 324.604458 188.015656 
L 325.758864 187.907578 
L 326.913269 187.70635 
L 328.067675 187.356855 
L 329.222081 186.790125 
L 330.376486 185.930933 
L 331.530892 184.710565 
L 332.685298 183.081452 
L 333.839703 181.02786 
L 334.994109 178.566676 
L 336.148515 175.735454 
L 337.30292 172.570365 
L 338.457326 169.081851 
L 339.611732 165.238018 
L 340.766138 160.96413 
L 341.920543 156.162005 
L 343.074949 150.747285 
L 344.229355 144.696617 
L 345.38376 138.091548 
L 346.538166 131.143229 
L 347.692572 124.184655 
L 348.846977 117.626539 
L 350.001383 111.886613 
L 351.155789 107.313441 
L 352.310194 104.128149 
L 353.4646 102.399013 
L 354.619006 102.049887 
L 355.773411 102.892161 
L 356.927817 104.666894 
L 358.082223 107.088012 
L 359.236628 109.883065 
L 360.391034 112.829884 
L 361.54544 115.784853 
L 362.699845 118.695151 
L 363.854251 121.58808 
L 365.008657 124.536992 
L 366.163063 127.613179 
L 367.317468 130.840886 
L 368.471874 134.173566 
L 369.62628 137.501733 
L 370.780685 140.68921 
L 371.935091 143.622065 
L 373.089497 146.249509 
L 374.243902 148.600969 
L 375.398308 150.774808 
L 376.552714 152.90538 
L 377.707119 155.121175 
L 378.861525 157.507133 
L 380.015931 160.081031 
L 381.170336 162.789447 
L 382.324742 165.523698 
L 383.479148 168.150349 
L 384.633553 170.545988 
L 385.787959 172.624695 
L 386.942365 174.350542 
L 388.09677 175.734788 
L 389.251176 176.823565 
L 390.405582 177.68337 
L 391.559988 178.388479 
L 392.714393 179.010179 
L 393.868799 179.606144 
L 395.023205 180.21023 
L 396.17761 180.826006 
L 397.332016 181.428162 
L 398.486422 181.973176 
L 399.640827 182.416021 
L 400.795233 182.726289 
L 401.949639 182.897187 
L 403.104044 182.944349 
L 404.25845 182.896268 
L 405.412856 182.781957 
L 406.567261 182.622177 
L 407.721667 182.428206 
L 408.876073 182.207715 
L 410.030478 181.973394 
L 411.184884 181.748589 
L 412.33929 181.566241 
L 413.493696 181.461571 
L 414.648101 181.462673 
L 415.802507 181.584126 
L 416.956913 181.826477 
L 418.111318 182.180593 
L 419.265724 182.633182 
L 420.42013 183.169717 
L 421.574535 183.773514 
L 422.728941 184.422668 
L 423.883347 185.088089 
L 425.037752 185.735079 
L 426.192158 186.328579 
L 427.346564 186.839992 
L 428.500969 187.252641 
L 429.655375 187.563751 
L 430.809781 187.7826 
L 431.964186 187.926099 
L 433.118592 188.013746 
L 434.272998 188.063589 
L 435.427403 188.089968 
L 436.581809 188.102958 
" style="fill:none;stroke:#4c72b0;stroke-linecap:round;stroke-width:1.5;"/>
   </g>
   <g id="patch_67">
    <path d="M 311.607858 188.113 
L 311.607858 30.2984 
" style="fill:none;stroke:#ffffff;stroke-linecap:square;stroke-linejoin:miter;stroke-width:1.25;"/>
   </g>
   <g id="patch_68">
    <path d="M 311.607858 188.113 
L 546.7392 188.113 
" style="fill:none;stroke:#ffffff;stroke-linecap:square;stroke-linejoin:miter;stroke-width:1.25;"/>
   </g>
   <g id="text_14">
    <!-- estimate = DM_SVI_slam_traj -->
    <defs>
     <path d="M 19.671875 64.796875 
L 19.671875 8.109375 
L 31.59375 8.109375 
Q 46.6875 8.109375 53.6875 14.9375 
Q 60.6875 21.78125 60.6875 36.53125 
Q 60.6875 51.171875 53.6875 57.984375 
Q 46.6875 64.796875 31.59375 64.796875 
z
M 9.8125 72.90625 
L 30.078125 72.90625 
Q 51.265625 72.90625 61.171875 64.09375 
Q 71.09375 55.28125 71.09375 36.53125 
Q 71.09375 17.671875 61.125 8.828125 
Q 51.171875 0 30.078125 0 
L 9.8125 0 
z
" id="DejaVuSans-44"/>
     <path d="M 9.8125 72.90625 
L 24.515625 72.90625 
L 43.109375 23.296875 
L 61.8125 72.90625 
L 76.515625 72.90625 
L 76.515625 0 
L 66.890625 0 
L 66.890625 64.015625 
L 48.09375 14.015625 
L 38.1875 14.015625 
L 19.390625 64.015625 
L 19.390625 0 
L 9.8125 0 
z
" id="DejaVuSans-4d"/>
     <path d="M 53.515625 70.515625 
L 53.515625 60.890625 
Q 47.90625 63.578125 42.921875 64.890625 
Q 37.9375 66.21875 33.296875 66.21875 
Q 25.25 66.21875 20.875 63.09375 
Q 16.5 59.96875 16.5 54.203125 
Q 16.5 49.359375 19.40625 46.890625 
Q 22.3125 44.4375 30.421875 42.921875 
L 36.375 41.703125 
Q 47.40625 39.59375 52.65625 34.296875 
Q 57.90625 29 57.90625 20.125 
Q 57.90625 9.515625 50.796875 4.046875 
Q 43.703125 -1.421875 29.984375 -1.421875 
Q 24.8125 -1.421875 18.96875 -0.25 
Q 13.140625 0.921875 6.890625 3.21875 
L 6.890625 13.375 
Q 12.890625 10.015625 18.65625 8.296875 
Q 24.421875 6.59375 29.984375 6.59375 
Q 38.421875 6.59375 43.015625 9.90625 
Q 47.609375 13.234375 47.609375 19.390625 
Q 47.609375 24.75 44.3125 27.78125 
Q 41.015625 30.8125 33.5 32.328125 
L 27.484375 33.5 
Q 16.453125 35.6875 11.515625 40.375 
Q 6.59375 45.0625 6.59375 53.421875 
Q 6.59375 63.09375 13.40625 68.65625 
Q 20.21875 74.21875 32.171875 74.21875 
Q 37.3125 74.21875 42.625 73.28125 
Q 47.953125 72.359375 53.515625 70.515625 
z
" id="DejaVuSans-53"/>
     <path d="M 28.609375 0 
L 0.78125 72.90625 
L 11.078125 72.90625 
L 34.1875 11.53125 
L 57.328125 72.90625 
L 67.578125 72.90625 
L 39.796875 0 
z
" id="DejaVuSans-56"/>
     <path d="M 9.8125 72.90625 
L 19.671875 72.90625 
L 19.671875 0 
L 9.8125 0 
z
" id="DejaVuSans-49"/>
    </defs>
    <g style="fill:#262626;" transform="translate(340.973529 24.2984)scale(0.12 -0.12)">
     <use xlink:href="#DejaVuSans-65"/>
     <use x="61.523438" xlink:href="#DejaVuSans-73"/>
     <use x="113.623047" xlink:href="#DejaVuSans-74"/>
     <use x="152.832031" xlink:href="#DejaVuSans-69"/>
     <use x="180.615234" xlink:href="#DejaVuSans-6d"/>
     <use x="278.027344" xlink:href="#DejaVuSans-61"/>
     <use x="339.306641" xlink:href="#DejaVuSans-74"/>
     <use x="378.515625" xlink:href="#DejaVuSans-65"/>
     <use x="440.039062" xlink:href="#DejaVuSans-20"/>
     <use x="471.826172" xlink:href="#DejaVuSans-3d"/>
     <use x="555.615234" xlink:href="#DejaVuSans-20"/>
     <use x="587.402344" xlink:href="#DejaVuSans-44"/>
     <use x="664.404297" xlink:href="#DejaVuSans-4d"/>
     <use x="750.683594" xlink:href="#DejaVuSans-5f"/>
     <use x="800.683594" xlink:href="#DejaVuSans-53"/>
     <use x="864.160156" xlink:href="#DejaVuSans-56"/>
     <use x="932.568359" xlink:href="#DejaVuSans-49"/>
     <use x="962.060547" xlink:href="#DejaVuSans-5f"/>
     <use x="1012.060547" xlink:href="#DejaVuSans-73"/>
     <use x="1064.160156" xlink:href="#DejaVuSans-6c"/>
     <use x="1091.943359" xlink:href="#DejaVuSans-61"/>
     <use x="1153.222656" xlink:href="#DejaVuSans-6d"/>
     <use x="1250.634766" xlink:href="#DejaVuSans-5f"/>
     <use x="1300.634766" xlink:href="#DejaVuSans-74"/>
     <use x="1339.84375" xlink:href="#DejaVuSans-72"/>
     <use x="1380.957031" xlink:href="#DejaVuSans-61"/>
     <use x="1442.236328" xlink:href="#DejaVuSans-6a"/>
    </g>
   </g>
  </g>
  <g id="axes_3">
   <g id="patch_69">
    <path d="M 48.000517 398.3238 
L 283.131858 398.3238 
L 283.131858 240.5092 
L 48.000517 240.5092 
z
" style="fill:#eaeaf2;"/>
   </g>
   <g id="matplotlib.axis_5">
    <g id="xtick_9">
     <g id="line2d_25">
      <path clip-path="url(#pe1c2966a0a)" d="M 67.808944 398.3238 
L 67.808944 240.5092 
" style="fill:none;stroke:#ffffff;stroke-linecap:round;"/>
     </g>
     <g id="text_15">
      <!-- 0.00 -->
      <g style="fill:#262626;" transform="translate(55.56285 416.182081)scale(0.11 -0.11)">
       <use xlink:href="#DejaVuSans-30"/>
       <use x="63.623047" xlink:href="#DejaVuSans-2e"/>
       <use x="95.410156" xlink:href="#DejaVuSans-30"/>
       <use x="159.033203" xlink:href="#DejaVuSans-30"/>
      </g>
     </g>
    </g>
    <g id="xtick_10">
     <g id="line2d_26">
      <path clip-path="url(#pe1c2966a0a)" d="M 122.910181 398.3238 
L 122.910181 240.5092 
" style="fill:none;stroke:#ffffff;stroke-linecap:round;"/>
     </g>
     <g id="text_16">
      <!-- 0.05 -->
      <g style="fill:#262626;" transform="translate(110.664087 416.182081)scale(0.11 -0.11)">
       <use xlink:href="#DejaVuSans-30"/>
       <use x="63.623047" xlink:href="#DejaVuSans-2e"/>
       <use x="95.410156" xlink:href="#DejaVuSans-30"/>
       <use x="159.033203" xlink:href="#DejaVuSans-35"/>
      </g>
     </g>
    </g>
    <g id="xtick_11">
     <g id="line2d_27">
      <path clip-path="url(#pe1c2966a0a)" d="M 178.011417 398.3238 
L 178.011417 240.5092 
" style="fill:none;stroke:#ffffff;stroke-linecap:round;"/>
     </g>
     <g id="text_17">
      <!-- 0.10 -->
      <g style="fill:#262626;" transform="translate(165.765324 416.182081)scale(0.11 -0.11)">
       <use xlink:href="#DejaVuSans-30"/>
       <use x="63.623047" xlink:href="#DejaVuSans-2e"/>
       <use x="95.410156" xlink:href="#DejaVuSans-31"/>
       <use x="159.033203" xlink:href="#DejaVuSans-30"/>
      </g>
     </g>
    </g>
    <g id="xtick_12">
     <g id="line2d_28">
      <path clip-path="url(#pe1c2966a0a)" d="M 233.112654 398.3238 
L 233.112654 240.5092 
" style="fill:none;stroke:#ffffff;stroke-linecap:round;"/>
     </g>
     <g id="text_18">
      <!-- 0.15 -->
      <g style="fill:#262626;" transform="translate(220.86656 416.182081)scale(0.11 -0.11)">
       <use xlink:href="#DejaVuSans-30"/>
       <use x="63.623047" xlink:href="#DejaVuSans-2e"/>
       <use x="95.410156" xlink:href="#DejaVuSans-31"/>
       <use x="159.033203" xlink:href="#DejaVuSans-35"/>
      </g>
     </g>
    </g>
    <g id="text_19">
     <!-- APE (m) -->
     <g style="fill:#262626;" transform="translate(141.619625 431.587862)scale(0.12 -0.12)">
      <use xlink:href="#DejaVuSans-41"/>
      <use x="68.408203" xlink:href="#DejaVuSans-50"/>
      <use x="128.710938" xlink:href="#DejaVuSans-45"/>
      <use x="191.894531" xlink:href="#DejaVuSans-20"/>
      <use x="223.681641" xlink:href="#DejaVuSans-28"/>
      <use x="262.695312" xlink:href="#DejaVuSans-6d"/>
      <use x="360.107422" xlink:href="#DejaVuSans-29"/>
     </g>
    </g>
   </g>
   <g id="matplotlib.axis_6">
    <g id="ytick_15">
     <g id="line2d_29">
      <path clip-path="url(#pe1c2966a0a)" d="M 48.000517 398.3238 
L 283.131858 398.3238 
" style="fill:none;stroke:#ffffff;stroke-linecap:round;"/>
     </g>
     <g id="text_20">
      <!-- 0 -->
      <g style="fill:#262626;" transform="translate(31.501767 402.502941)scale(0.11 -0.11)">
       <use xlink:href="#DejaVuSans-30"/>
      </g>
     </g>
    </g>
    <g id="ytick_16">
     <g id="line2d_30">
      <path clip-path="url(#pe1c2966a0a)" d="M 48.000517 372.531321 
L 283.131858 372.531321 
" style="fill:none;stroke:#ffffff;stroke-linecap:round;"/>
     </g>
     <g id="text_21">
      <!-- 10 -->
      <g style="fill:#262626;" transform="translate(24.503017 376.710461)scale(0.11 -0.11)">
       <use xlink:href="#DejaVuSans-31"/>
       <use x="63.623047" xlink:href="#DejaVuSans-30"/>
      </g>
     </g>
    </g>
    <g id="ytick_17">
     <g id="line2d_31">
      <path clip-path="url(#pe1c2966a0a)" d="M 48.000517 346.738841 
L 283.131858 346.738841 
" style="fill:none;stroke:#ffffff;stroke-linecap:round;"/>
     </g>
     <g id="text_22">
      <!-- 20 -->
      <g style="fill:#262626;" transform="translate(24.503017 350.917982)scale(0.11 -0.11)">
       <use xlink:href="#DejaVuSans-32"/>
       <use x="63.623047" xlink:href="#DejaVuSans-30"/>
      </g>
     </g>
    </g>
    <g id="ytick_18">
     <g id="line2d_32">
      <path clip-path="url(#pe1c2966a0a)" d="M 48.000517 320.946362 
L 283.131858 320.946362 
" style="fill:none;stroke:#ffffff;stroke-linecap:round;"/>
     </g>
     <g id="text_23">
      <!-- 30 -->
      <g style="fill:#262626;" transform="translate(24.503017 325.125502)scale(0.11 -0.11)">
       <use xlink:href="#DejaVuSans-33"/>
       <use x="63.623047" xlink:href="#DejaVuSans-30"/>
      </g>
     </g>
    </g>
    <g id="ytick_19">
     <g id="line2d_33">
      <path clip-path="url(#pe1c2966a0a)" d="M 48.000517 295.153882 
L 283.131858 295.153882 
" style="fill:none;stroke:#ffffff;stroke-linecap:round;"/>
     </g>
     <g id="text_24">
      <!-- 40 -->
      <g style="fill:#262626;" transform="translate(24.503017 299.333023)scale(0.11 -0.11)">
       <use xlink:href="#DejaVuSans-34"/>
       <use x="63.623047" xlink:href="#DejaVuSans-30"/>
      </g>
     </g>
    </g>
    <g id="ytick_20">
     <g id="line2d_34">
      <path clip-path="url(#pe1c2966a0a)" d="M 48.000517 269.361403 
L 283.131858 269.361403 
" style="fill:none;stroke:#ffffff;stroke-linecap:round;"/>
     </g>
     <g id="text_25">
      <!-- 50 -->
      <g style="fill:#262626;" transform="translate(24.503017 273.540543)scale(0.11 -0.11)">
       <use xlink:href="#DejaVuSans-35"/>
       <use x="63.623047" xlink:href="#DejaVuSans-30"/>
      </g>
     </g>
    </g>
    <g id="ytick_21">
     <g id="line2d_35">
      <path clip-path="url(#pe1c2966a0a)" d="M 48.000517 243.568923 
L 283.131858 243.568923 
" style="fill:none;stroke:#ffffff;stroke-linecap:round;"/>
     </g>
     <g id="text_26">
      <!-- 60 -->
      <g style="fill:#262626;" transform="translate(24.503017 247.748064)scale(0.11 -0.11)">
       <use xlink:href="#DejaVuSans-36"/>
       <use x="63.623047" xlink:href="#DejaVuSans-30"/>
      </g>
     </g>
    </g>
   </g>
   <g id="patch_70">
    <path clip-path="url(#pe1c2966a0a)" d="M 86.478407 398.3238 
L 97.196686 398.3238 
L 97.196686 395.932295 
L 86.478407 395.932295 
z
" style="fill:#4c72b0;opacity:0.4;stroke:#ffffff;stroke-linejoin:miter;"/>
   </g>
   <g id="patch_71">
    <path clip-path="url(#pe1c2966a0a)" d="M 97.196686 398.3238 
L 107.914965 398.3238 
L 107.914965 387.163442 
L 97.196686 387.163442 
z
" style="fill:#4c72b0;opacity:0.4;stroke:#ffffff;stroke-linejoin:miter;"/>
   </g>
   <g id="patch_72">
    <path clip-path="url(#pe1c2966a0a)" d="M 107.914965 398.3238 
L 118.633245 398.3238 
L 118.633245 381.583263 
L 107.914965 381.583263 
z
" style="fill:#4c72b0;opacity:0.4;stroke:#ffffff;stroke-linejoin:miter;"/>
   </g>
   <g id="patch_73">
    <path clip-path="url(#pe1c2966a0a)" d="M 118.633245 398.3238 
L 129.351524 398.3238 
L 129.351524 362.451222 
L 118.633245 362.451222 
z
" style="fill:#4c72b0;opacity:0.4;stroke:#ffffff;stroke-linejoin:miter;"/>
   </g>
   <g id="patch_74">
    <path clip-path="url(#pe1c2966a0a)" d="M 129.351524 398.3238 
L 140.069803 398.3238 
L 140.069803 359.793994 
L 129.351524 359.793994 
z
" style="fill:#4c72b0;opacity:0.4;stroke:#ffffff;stroke-linejoin:miter;"/>
   </g>
   <g id="patch_75">
    <path clip-path="url(#pe1c2966a0a)" d="M 140.069803 398.3238 
L 150.788082 398.3238 
L 150.788082 379.988927 
L 140.069803 379.988927 
z
" style="fill:#4c72b0;opacity:0.4;stroke:#ffffff;stroke-linejoin:miter;"/>
   </g>
   <g id="patch_76">
    <path clip-path="url(#pe1c2966a0a)" d="M 150.788082 398.3238 
L 161.506362 398.3238 
L 161.506362 376.003085 
L 150.788082 376.003085 
z
" style="fill:#4c72b0;opacity:0.4;stroke:#ffffff;stroke-linejoin:miter;"/>
   </g>
   <g id="patch_77">
    <path clip-path="url(#pe1c2966a0a)" d="M 161.506362 398.3238 
L 172.224641 398.3238 
L 172.224641 373.080134 
L 161.506362 373.080134 
z
" style="fill:#4c72b0;opacity:0.4;stroke:#ffffff;stroke-linejoin:miter;"/>
   </g>
   <g id="patch_78">
    <path clip-path="url(#pe1c2966a0a)" d="M 172.224641 398.3238 
L 182.94292 398.3238 
L 182.94292 373.611579 
L 172.224641 373.611579 
z
" style="fill:#4c72b0;opacity:0.4;stroke:#ffffff;stroke-linejoin:miter;"/>
   </g>
   <g id="patch_79">
    <path clip-path="url(#pe1c2966a0a)" d="M 182.94292 398.3238 
L 193.6612 398.3238 
L 193.6612 368.562846 
L 182.94292 368.562846 
z
" style="fill:#4c72b0;opacity:0.4;stroke:#ffffff;stroke-linejoin:miter;"/>
   </g>
   <g id="patch_80">
    <path clip-path="url(#pe1c2966a0a)" d="M 193.6612 398.3238 
L 204.379479 398.3238 
L 204.379479 383.443323 
L 193.6612 383.443323 
z
" style="fill:#4c72b0;opacity:0.4;stroke:#ffffff;stroke-linejoin:miter;"/>
   </g>
   <g id="patch_81">
    <path clip-path="url(#pe1c2966a0a)" d="M 204.379479 398.3238 
L 215.097758 398.3238 
L 215.097758 384.771937 
L 204.379479 384.771937 
z
" style="fill:#4c72b0;opacity:0.4;stroke:#ffffff;stroke-linejoin:miter;"/>
   </g>
   <g id="patch_82">
    <path clip-path="url(#pe1c2966a0a)" d="M 215.097758 398.3238 
L 225.816038 398.3238 
L 225.816038 392.477898 
L 215.097758 392.477898 
z
" style="fill:#4c72b0;opacity:0.4;stroke:#ffffff;stroke-linejoin:miter;"/>
   </g>
   <g id="patch_83">
    <path clip-path="url(#pe1c2966a0a)" d="M 225.816038 398.3238 
L 236.534317 398.3238 
L 236.534317 393.009344 
L 225.816038 393.009344 
z
" style="fill:#4c72b0;opacity:0.4;stroke:#ffffff;stroke-linejoin:miter;"/>
   </g>
   <g id="patch_84">
    <path clip-path="url(#pe1c2966a0a)" d="M 236.534317 398.3238 
L 247.252596 398.3238 
L 247.252596 397.792354 
L 236.534317 397.792354 
z
" style="fill:#4c72b0;opacity:0.4;stroke:#ffffff;stroke-linejoin:miter;"/>
   </g>
   <g id="line2d_36">
    <path clip-path="url(#pe1c2966a0a)" d="M 61.286933 398.318035 
L 63.419833 398.311316 
L 65.552734 398.298334 
L 67.685634 398.274804 
L 69.818534 398.234766 
L 71.951435 398.170698 
L 74.084335 398.074018 
L 76.217235 397.935861 
L 78.350136 397.747724 
L 80.483036 397.501428 
L 82.615937 397.188007 
L 84.748837 396.795653 
L 86.881737 396.307657 
L 89.014638 395.701874 
L 91.147538 394.953081 
L 93.280438 394.038502 
L 95.413339 392.944937 
L 97.546239 391.674314 
L 99.67914 390.244209 
L 101.81204 388.681451 
L 103.94494 387.010215 
L 106.077841 385.239377 
L 108.210741 383.355674 
L 110.343641 381.32795 
L 112.476542 379.123649 
L 114.609442 376.733286 
L 116.742343 374.194444 
L 118.875243 371.605757 
L 121.008143 369.12412 
L 123.141044 366.943722 
L 125.273944 365.26141 
L 127.406844 364.23714 
L 129.539745 363.959578 
L 131.672645 364.425281 
L 133.805546 365.536252 
L 135.938446 367.116224 
L 138.071346 368.941973 
L 140.204247 370.782798 
L 142.337147 372.439502 
L 144.470047 373.774119 
L 146.602948 374.723739 
L 148.735848 375.295991 
L 150.868749 375.549141 
L 153.001649 375.564403 
L 155.134549 375.419997 
L 157.26745 375.174737 
L 159.40035 374.864318 
L 161.53325 374.508005 
L 163.666151 374.119743 
L 165.799051 373.717062 
L 167.931952 373.323759 
L 170.064852 372.966521 
L 172.197752 372.669317 
L 174.330653 372.450496 
L 176.463553 372.325323 
L 178.596454 372.312539 
L 180.729354 372.439776 
L 182.862254 372.742133 
L 184.995155 373.251682 
L 187.128055 373.981546 
L 189.260955 374.912824 
L 191.393856 375.992904 
L 193.526756 377.14866 
L 195.659657 378.310255 
L 197.792557 379.435083 
L 199.925457 380.520427 
L 202.058358 381.59843 
L 204.191258 382.715349 
L 206.324158 383.904406 
L 208.457059 385.164372 
L 210.589959 386.453177 
L 212.72286 387.699143 
L 214.85576 388.825045 
L 216.98866 389.775247 
L 219.121561 390.535324 
L 221.254461 391.136863 
L 223.387361 391.646079 
L 225.520262 392.140995 
L 227.653162 392.686037 
L 229.786063 393.313265 
L 231.918963 394.016218 
L 234.051863 394.757014 
L 236.184764 395.482325 
L 238.317664 396.141252 
L 240.450564 396.698726 
L 242.583465 397.141037 
L 244.716365 397.473724 
L 246.849266 397.714714 
L 248.982166 397.886362 
L 251.115066 398.009262 
L 253.247967 398.099057 
L 255.380867 398.166003 
L 257.513767 398.216187 
L 259.646668 398.253222 
L 261.779568 398.279619 
L 263.912469 398.297543 
L 266.045369 398.309039 
L 268.178269 398.315969 
L 270.31117 398.319886 
L 272.44407 398.321959 
" style="fill:none;stroke:#4c72b0;stroke-linecap:round;stroke-width:1.5;"/>
   </g>
   <g id="patch_85">
    <path d="M 48.000517 398.3238 
L 48.000517 240.5092 
" style="fill:none;stroke:#ffffff;stroke-linecap:square;stroke-linejoin:miter;stroke-width:1.25;"/>
   </g>
   <g id="patch_86">
    <path d="M 48.000517 398.3238 
L 283.131858 398.3238 
" style="fill:none;stroke:#ffffff;stroke-linecap:square;stroke-linejoin:miter;stroke-width:1.25;"/>
   </g>
   <g id="text_27">
    <!-- estimate = vins_fusion_traj -->
    <defs>
     <path d="M 2.984375 54.6875 
L 12.5 54.6875 
L 29.59375 8.796875 
L 46.6875 54.6875 
L 56.203125 54.6875 
L 35.6875 0 
L 23.484375 0 
z
" id="DejaVuSans-76"/>
     <path d="M 54.890625 33.015625 
L 54.890625 0 
L 45.90625 0 
L 45.90625 32.71875 
Q 45.90625 40.484375 42.875 44.328125 
Q 39.84375 48.1875 33.796875 48.1875 
Q 26.515625 48.1875 22.3125 43.546875 
Q 18.109375 38.921875 18.109375 30.90625 
L 18.109375 0 
L 9.078125 0 
L 9.078125 54.6875 
L 18.109375 54.6875 
L 18.109375 46.1875 
Q 21.34375 51.125 25.703125 53.5625 
Q 30.078125 56 35.796875 56 
Q 45.21875 56 50.046875 50.171875 
Q 54.890625 44.34375 54.890625 33.015625 
z
" id="DejaVuSans-6e"/>
     <path d="M 37.109375 75.984375 
L 37.109375 68.5 
L 28.515625 68.5 
Q 23.6875 68.5 21.796875 66.546875 
Q 19.921875 64.59375 19.921875 59.515625 
L 19.921875 54.6875 
L 34.71875 54.6875 
L 34.71875 47.703125 
L 19.921875 47.703125 
L 19.921875 0 
L 10.890625 0 
L 10.890625 47.703125 
L 2.296875 47.703125 
L 2.296875 54.6875 
L 10.890625 54.6875 
L 10.890625 58.5 
Q 10.890625 67.625 15.140625 71.796875 
Q 19.390625 75.984375 28.609375 75.984375 
z
" id="DejaVuSans-66"/>
     <path d="M 8.5 21.578125 
L 8.5 54.6875 
L 17.484375 54.6875 
L 17.484375 21.921875 
Q 17.484375 14.15625 20.5 10.265625 
Q 23.53125 6.390625 29.59375 6.390625 
Q 36.859375 6.390625 41.078125 11.03125 
Q 45.3125 15.671875 45.3125 23.6875 
L 45.3125 54.6875 
L 54.296875 54.6875 
L 54.296875 0 
L 45.3125 0 
L 45.3125 8.40625 
Q 42.046875 3.421875 37.71875 1 
Q 33.40625 -1.421875 27.6875 -1.421875 
Q 18.265625 -1.421875 13.375 4.4375 
Q 8.5 10.296875 8.5 21.578125 
z
M 31.109375 56 
z
" id="DejaVuSans-75"/>
     <path d="M 30.609375 48.390625 
Q 23.390625 48.390625 19.1875 42.75 
Q 14.984375 37.109375 14.984375 27.296875 
Q 14.984375 17.484375 19.15625 11.84375 
Q 23.34375 6.203125 30.609375 6.203125 
Q 37.796875 6.203125 41.984375 11.859375 
Q 46.1875 17.53125 46.1875 27.296875 
Q 46.1875 37.015625 41.984375 42.703125 
Q 37.796875 48.390625 30.609375 48.390625 
z
M 30.609375 56 
Q 42.328125 56 49.015625 48.375 
Q 55.71875 40.765625 55.71875 27.296875 
Q 55.71875 13.875 49.015625 6.21875 
Q 42.328125 -1.421875 30.609375 -1.421875 
Q 18.84375 -1.421875 12.171875 6.21875 
Q 5.515625 13.875 5.515625 27.296875 
Q 5.515625 40.765625 12.171875 48.375 
Q 18.84375 56 30.609375 56 
z
" id="DejaVuSans-6f"/>
    </defs>
    <g style="fill:#262626;" transform="translate(83.833063 234.5092)scale(0.12 -0.12)">
     <use xlink:href="#DejaVuSans-65"/>
     <use x="61.523438" xlink:href="#DejaVuSans-73"/>
     <use x="113.623047" xlink:href="#DejaVuSans-74"/>
     <use x="152.832031" xlink:href="#DejaVuSans-69"/>
     <use x="180.615234" xlink:href="#DejaVuSans-6d"/>
     <use x="278.027344" xlink:href="#DejaVuSans-61"/>
     <use x="339.306641" xlink:href="#DejaVuSans-74"/>
     <use x="378.515625" xlink:href="#DejaVuSans-65"/>
     <use x="440.039062" xlink:href="#DejaVuSans-20"/>
     <use x="471.826172" xlink:href="#DejaVuSans-3d"/>
     <use x="555.615234" xlink:href="#DejaVuSans-20"/>
     <use x="587.402344" xlink:href="#DejaVuSans-76"/>
     <use x="646.582031" xlink:href="#DejaVuSans-69"/>
     <use x="674.365234" xlink:href="#DejaVuSans-6e"/>
     <use x="737.744141" xlink:href="#DejaVuSans-73"/>
     <use x="789.84375" xlink:href="#DejaVuSans-5f"/>
     <use x="839.84375" xlink:href="#DejaVuSans-66"/>
     <use x="875.048828" xlink:href="#DejaVuSans-75"/>
     <use x="938.427734" xlink:href="#DejaVuSans-73"/>
     <use x="990.527344" xlink:href="#DejaVuSans-69"/>
     <use x="1018.310547" xlink:href="#DejaVuSans-6f"/>
     <use x="1079.492188" xlink:href="#DejaVuSans-6e"/>
     <use x="1142.871094" xlink:href="#DejaVuSans-5f"/>
     <use x="1192.871094" xlink:href="#DejaVuSans-74"/>
     <use x="1232.080078" xlink:href="#DejaVuSans-72"/>
     <use x="1273.193359" xlink:href="#DejaVuSans-61"/>
     <use x="1334.472656" xlink:href="#DejaVuSans-6a"/>
    </g>
   </g>
  </g>
 </g>
 <defs>
  <clipPath id="p0b6e6f7be2">
   <rect height="157.8146" width="235.131342" x="48.000517" y="30.2984"/>
  </clipPath>
  <clipPath id="p131cea7285">
   <rect height="157.8146" width="235.131342" x="311.607858" y="30.2984"/>
  </clipPath>
  <clipPath id="pe1c2966a0a">
   <rect height="157.8146" width="235.131342" x="48.000517" y="240.5092"/>
  </clipPath>
 </defs>
</svg>
