<?xml version="1.0" encoding="utf-8" standalone="no"?>
<!DOCTYPE svg PUBLIC "-//W3C//DTD SVG 1.1//EN"
  "http://www.w3.org/Graphics/SVG/1.1/DTD/svg11.dtd">
<!-- Created with matplotlib (http://matplotlib.org/) -->
<svg height="450.72pt" version="1.1" viewBox="0 0 569.52 450.72" width="569.52pt" xmlns="http://www.w3.org/2000/svg" xmlns:xlink="http://www.w3.org/1999/xlink">
 <defs>
  <style type="text/css">
*{stroke-linecap:butt;stroke-linejoin:round;}
  </style>
 </defs>
 <g id="figure_1">
  <g id="patch_1">
   <path d="M 0 450.72 
L 569.52 450.72 
L 569.52 0 
L 0 0 
z
" style="fill:#ffffff;"/>
  </g>
  <g id="axes_1">
   <g id="patch_2">
    <path d="M 93.14025 397.420012 
L 546.7392 397.420012 
L 546.7392 18.0288 
L 93.14025 18.0288 
z
" style="fill:#eaeaf2;"/>
   </g>
   <g id="matplotlib.axis_1">
    <g id="xtick_1">
     <g id="text_1">
      <!-- basalt_traj -->
      <defs>
       <path d="M 48.6875 27.296875 
Q 48.6875 37.203125 44.609375 42.84375 
Q 40.53125 48.484375 33.40625 48.484375 
Q 26.265625 48.484375 22.1875 42.84375 
Q 18.109375 37.203125 18.109375 27.296875 
Q 18.109375 17.390625 22.1875 11.75 
Q 26.265625 6.109375 33.40625 6.109375 
Q 40.53125 6.109375 44.609375 11.75 
Q 48.6875 17.390625 48.6875 27.296875 
z
M 18.109375 46.390625 
Q 20.953125 51.265625 25.265625 53.625 
Q 29.59375 56 35.59375 56 
Q 45.5625 56 51.78125 48.09375 
Q 58.015625 40.1875 58.015625 27.296875 
Q 58.015625 14.40625 51.78125 6.484375 
Q 45.5625 -1.421875 35.59375 -1.421875 
Q 29.59375 -1.421875 25.265625 0.953125 
Q 20.953125 3.328125 18.109375 8.203125 
L 18.109375 0 
L 9.078125 0 
L 9.078125 75.984375 
L 18.109375 75.984375 
z
" id="DejaVuSans-62"/>
       <path d="M 34.28125 27.484375 
Q 23.390625 27.484375 19.1875 25 
Q 14.984375 22.515625 14.984375 16.5 
Q 14.984375 11.71875 18.140625 8.90625 
Q 21.296875 6.109375 26.703125 6.109375 
Q 34.1875 6.109375 38.703125 11.40625 
Q 43.21875 16.703125 43.21875 25.484375 
L 43.21875 27.484375 
z
M 52.203125 31.203125 
L 52.203125 0 
L 43.21875 0 
L 43.21875 8.296875 
Q 40.140625 3.328125 35.546875 0.953125 
Q 30.953125 -1.421875 24.3125 -1.421875 
Q 15.921875 -1.421875 10.953125 3.296875 
Q 6 8.015625 6 15.921875 
Q 6 25.140625 12.171875 29.828125 
Q 18.359375 34.515625 30.609375 34.515625 
L 43.21875 34.515625 
L 43.21875 35.40625 
Q 43.21875 41.609375 39.140625 45 
Q 35.0625 48.390625 27.6875 48.390625 
Q 23 48.390625 18.546875 47.265625 
Q 14.109375 46.140625 10.015625 43.890625 
L 10.015625 52.203125 
Q 14.9375 54.109375 19.578125 55.046875 
Q 24.21875 56 28.609375 56 
Q 40.484375 56 46.34375 49.84375 
Q 52.203125 43.703125 52.203125 31.203125 
z
" id="DejaVuSans-61"/>
       <path d="M 44.28125 53.078125 
L 44.28125 44.578125 
Q 40.484375 46.53125 36.375 47.5 
Q 32.28125 48.484375 27.875 48.484375 
Q 21.1875 48.484375 17.84375 46.4375 
Q 14.5 44.390625 14.5 40.28125 
Q 14.5 37.15625 16.890625 35.375 
Q 19.28125 33.59375 26.515625 31.984375 
L 29.59375 31.296875 
Q 39.15625 29.25 43.1875 25.515625 
Q 47.21875 21.78125 47.21875 15.09375 
Q 47.21875 7.46875 41.1875 3.015625 
Q 35.15625 -1.421875 24.609375 -1.421875 
Q 20.21875 -1.421875 15.453125 -0.5625 
Q 10.6875 0.296875 5.421875 2 
L 5.421875 11.28125 
Q 10.40625 8.6875 15.234375 7.390625 
Q 20.0625 6.109375 24.8125 6.109375 
Q 31.15625 6.109375 34.5625 8.28125 
Q 37.984375 10.453125 37.984375 14.40625 
Q 37.984375 18.0625 35.515625 20.015625 
Q 33.0625 21.96875 24.703125 23.78125 
L 21.578125 24.515625 
Q 13.234375 26.265625 9.515625 29.90625 
Q 5.8125 33.546875 5.8125 39.890625 
Q 5.8125 47.609375 11.28125 51.796875 
Q 16.75 56 26.8125 56 
Q 31.78125 56 36.171875 55.265625 
Q 40.578125 54.546875 44.28125 53.078125 
z
" id="DejaVuSans-73"/>
       <path d="M 9.421875 75.984375 
L 18.40625 75.984375 
L 18.40625 0 
L 9.421875 0 
z
" id="DejaVuSans-6c"/>
       <path d="M 18.3125 70.21875 
L 18.3125 54.6875 
L 36.8125 54.6875 
L 36.8125 47.703125 
L 18.3125 47.703125 
L 18.3125 18.015625 
Q 18.3125 11.328125 20.140625 9.421875 
Q 21.96875 7.515625 27.59375 7.515625 
L 36.8125 7.515625 
L 36.8125 0 
L 27.59375 0 
Q 17.1875 0 13.234375 3.875 
Q 9.28125 7.765625 9.28125 18.015625 
L 9.28125 47.703125 
L 2.6875 47.703125 
L 2.6875 54.6875 
L 9.28125 54.6875 
L 9.28125 70.21875 
z
" id="DejaVuSans-74"/>
       <path d="M 50.984375 -16.609375 
L 50.984375 -23.578125 
L -0.984375 -23.578125 
L -0.984375 -16.609375 
z
" id="DejaVuSans-5f"/>
       <path d="M 41.109375 46.296875 
Q 39.59375 47.171875 37.8125 47.578125 
Q 36.03125 48 33.890625 48 
Q 26.265625 48 22.1875 43.046875 
Q 18.109375 38.09375 18.109375 28.8125 
L 18.109375 0 
L 9.078125 0 
L 9.078125 54.6875 
L 18.109375 54.6875 
L 18.109375 46.1875 
Q 20.953125 51.171875 25.484375 53.578125 
Q 30.03125 56 36.53125 56 
Q 37.453125 56 38.578125 55.875 
Q 39.703125 55.765625 41.0625 55.515625 
z
" id="DejaVuSans-72"/>
       <path d="M 9.421875 54.6875 
L 18.40625 54.6875 
L 18.40625 -0.984375 
Q 18.40625 -11.421875 14.421875 -16.109375 
Q 10.453125 -20.796875 1.609375 -20.796875 
L -1.8125 -20.796875 
L -1.8125 -13.1875 
L 0.59375 -13.1875 
Q 5.71875 -13.1875 7.5625 -10.8125 
Q 9.421875 -8.453125 9.421875 -0.984375 
z
M 9.421875 75.984375 
L 18.40625 75.984375 
L 18.40625 64.59375 
L 9.421875 64.59375 
z
" id="DejaVuSans-6a"/>
      </defs>
      <g style="fill:#262626;" transform="translate(139.892575 415.278294)scale(0.11 -0.11)">
       <use xlink:href="#DejaVuSans-62"/>
       <use x="63.476562" xlink:href="#DejaVuSans-61"/>
       <use x="124.755859" xlink:href="#DejaVuSans-73"/>
       <use x="176.855469" xlink:href="#DejaVuSans-61"/>
       <use x="238.134766" xlink:href="#DejaVuSans-6c"/>
       <use x="265.917969" xlink:href="#DejaVuSans-74"/>
       <use x="305.126953" xlink:href="#DejaVuSans-5f"/>
       <use x="355.126953" xlink:href="#DejaVuSans-74"/>
       <use x="394.335938" xlink:href="#DejaVuSans-72"/>
       <use x="435.449219" xlink:href="#DejaVuSans-61"/>
       <use x="496.728516" xlink:href="#DejaVuSans-6a"/>
      </g>
     </g>
    </g>
    <g id="xtick_2">
     <g id="text_2">
      <!-- DM_SVI_slam_traj -->
      <defs>
       <path d="M 19.671875 64.796875 
L 19.671875 8.109375 
L 31.59375 8.109375 
Q 46.6875 8.109375 53.6875 14.9375 
Q 60.6875 21.78125 60.6875 36.53125 
Q 60.6875 51.171875 53.6875 57.984375 
Q 46.6875 64.796875 31.59375 64.796875 
z
M 9.8125 72.90625 
L 30.078125 72.90625 
Q 51.265625 72.90625 61.171875 64.09375 
Q 71.09375 55.28125 71.09375 36.53125 
Q 71.09375 17.671875 61.125 8.828125 
Q 51.171875 0 30.078125 0 
L 9.8125 0 
z
" id="DejaVuSans-44"/>
       <path d="M 9.8125 72.90625 
L 24.515625 72.90625 
L 43.109375 23.296875 
L 61.8125 72.90625 
L 76.515625 72.90625 
L 76.515625 0 
L 66.890625 0 
L 66.890625 64.015625 
L 48.09375 14.015625 
L 38.1875 14.015625 
L 19.390625 64.015625 
L 19.390625 0 
L 9.8125 0 
z
" id="DejaVuSans-4d"/>
       <path d="M 53.515625 70.515625 
L 53.515625 60.890625 
Q 47.90625 63.578125 42.921875 64.890625 
Q 37.9375 66.21875 33.296875 66.21875 
Q 25.25 66.21875 20.875 63.09375 
Q 16.5 59.96875 16.5 54.203125 
Q 16.5 49.359375 19.40625 46.890625 
Q 22.3125 44.4375 30.421875 42.921875 
L 36.375 41.703125 
Q 47.40625 39.59375 52.65625 34.296875 
Q 57.90625 29 57.90625 20.125 
Q 57.90625 9.515625 50.796875 4.046875 
Q 43.703125 -1.421875 29.984375 -1.421875 
Q 24.8125 -1.421875 18.96875 -0.25 
Q 13.140625 0.921875 6.890625 3.21875 
L 6.890625 13.375 
Q 12.890625 10.015625 18.65625 8.296875 
Q 24.421875 6.59375 29.984375 6.59375 
Q 38.421875 6.59375 43.015625 9.90625 
Q 47.609375 13.234375 47.609375 19.390625 
Q 47.609375 24.75 44.3125 27.78125 
Q 41.015625 30.8125 33.5 32.328125 
L 27.484375 33.5 
Q 16.453125 35.6875 11.515625 40.375 
Q 6.59375 45.0625 6.59375 53.421875 
Q 6.59375 63.09375 13.40625 68.65625 
Q 20.21875 74.21875 32.171875 74.21875 
Q 37.3125 74.21875 42.625 73.28125 
Q 47.953125 72.359375 53.515625 70.515625 
z
" id="DejaVuSans-53"/>
       <path d="M 28.609375 0 
L 0.78125 72.90625 
L 11.078125 72.90625 
L 34.1875 11.53125 
L 57.328125 72.90625 
L 67.578125 72.90625 
L 39.796875 0 
z
" id="DejaVuSans-56"/>
       <path d="M 9.8125 72.90625 
L 19.671875 72.90625 
L 19.671875 0 
L 9.8125 0 
z
" id="DejaVuSans-49"/>
       <path d="M 52 44.1875 
Q 55.375 50.25 60.0625 53.125 
Q 64.75 56 71.09375 56 
Q 79.640625 56 84.28125 50.015625 
Q 88.921875 44.046875 88.921875 33.015625 
L 88.921875 0 
L 79.890625 0 
L 79.890625 32.71875 
Q 79.890625 40.578125 77.09375 44.375 
Q 74.3125 48.1875 68.609375 48.1875 
Q 61.625 48.1875 57.5625 43.546875 
Q 53.515625 38.921875 53.515625 30.90625 
L 53.515625 0 
L 44.484375 0 
L 44.484375 32.71875 
Q 44.484375 40.625 41.703125 44.40625 
Q 38.921875 48.1875 33.109375 48.1875 
Q 26.21875 48.1875 22.15625 43.53125 
Q 18.109375 38.875 18.109375 30.90625 
L 18.109375 0 
L 9.078125 0 
L 9.078125 54.6875 
L 18.109375 54.6875 
L 18.109375 46.1875 
Q 21.1875 51.21875 25.484375 53.609375 
Q 29.78125 56 35.6875 56 
Q 41.65625 56 45.828125 52.96875 
Q 50 49.953125 52 44.1875 
z
" id="DejaVuSans-6d"/>
      </defs>
      <g style="fill:#262626;" transform="translate(271.396209 415.278294)scale(0.11 -0.11)">
       <use xlink:href="#DejaVuSans-44"/>
       <use x="77.001953" xlink:href="#DejaVuSans-4d"/>
       <use x="163.28125" xlink:href="#DejaVuSans-5f"/>
       <use x="213.28125" xlink:href="#DejaVuSans-53"/>
       <use x="276.757812" xlink:href="#DejaVuSans-56"/>
       <use x="345.166016" xlink:href="#DejaVuSans-49"/>
       <use x="374.658203" xlink:href="#DejaVuSans-5f"/>
       <use x="424.658203" xlink:href="#DejaVuSans-73"/>
       <use x="476.757812" xlink:href="#DejaVuSans-6c"/>
       <use x="504.541016" xlink:href="#DejaVuSans-61"/>
       <use x="565.820312" xlink:href="#DejaVuSans-6d"/>
       <use x="663.232422" xlink:href="#DejaVuSans-5f"/>
       <use x="713.232422" xlink:href="#DejaVuSans-74"/>
       <use x="752.441406" xlink:href="#DejaVuSans-72"/>
       <use x="793.554688" xlink:href="#DejaVuSans-61"/>
       <use x="854.833984" xlink:href="#DejaVuSans-6a"/>
      </g>
     </g>
    </g>
    <g id="xtick_3">
     <g id="text_3">
      <!-- vins_fusion_traj -->
      <defs>
       <path d="M 2.984375 54.6875 
L 12.5 54.6875 
L 29.59375 8.796875 
L 46.6875 54.6875 
L 56.203125 54.6875 
L 35.6875 0 
L 23.484375 0 
z
" id="DejaVuSans-76"/>
       <path d="M 9.421875 54.6875 
L 18.40625 54.6875 
L 18.40625 0 
L 9.421875 0 
z
M 9.421875 75.984375 
L 18.40625 75.984375 
L 18.40625 64.59375 
L 9.421875 64.59375 
z
" id="DejaVuSans-69"/>
       <path d="M 54.890625 33.015625 
L 54.890625 0 
L 45.90625 0 
L 45.90625 32.71875 
Q 45.90625 40.484375 42.875 44.328125 
Q 39.84375 48.1875 33.796875 48.1875 
Q 26.515625 48.1875 22.3125 43.546875 
Q 18.109375 38.921875 18.109375 30.90625 
L 18.109375 0 
L 9.078125 0 
L 9.078125 54.6875 
L 18.109375 54.6875 
L 18.109375 46.1875 
Q 21.34375 51.125 25.703125 53.5625 
Q 30.078125 56 35.796875 56 
Q 45.21875 56 50.046875 50.171875 
Q 54.890625 44.34375 54.890625 33.015625 
z
" id="DejaVuSans-6e"/>
       <path d="M 37.109375 75.984375 
L 37.109375 68.5 
L 28.515625 68.5 
Q 23.6875 68.5 21.796875 66.546875 
Q 19.921875 64.59375 19.921875 59.515625 
L 19.921875 54.6875 
L 34.71875 54.6875 
L 34.71875 47.703125 
L 19.921875 47.703125 
L 19.921875 0 
L 10.890625 0 
L 10.890625 47.703125 
L 2.296875 47.703125 
L 2.296875 54.6875 
L 10.890625 54.6875 
L 10.890625 58.5 
Q 10.890625 67.625 15.140625 71.796875 
Q 19.390625 75.984375 28.609375 75.984375 
z
" id="DejaVuSans-66"/>
       <path d="M 8.5 21.578125 
L 8.5 54.6875 
L 17.484375 54.6875 
L 17.484375 21.921875 
Q 17.484375 14.15625 20.5 10.265625 
Q 23.53125 6.390625 29.59375 6.390625 
Q 36.859375 6.390625 41.078125 11.03125 
Q 45.3125 15.671875 45.3125 23.6875 
L 45.3125 54.6875 
L 54.296875 54.6875 
L 54.296875 0 
L 45.3125 0 
L 45.3125 8.40625 
Q 42.046875 3.421875 37.71875 1 
Q 33.40625 -1.421875 27.6875 -1.421875 
Q 18.265625 -1.421875 13.375 4.4375 
Q 8.5 10.296875 8.5 21.578125 
z
M 31.109375 56 
z
" id="DejaVuSans-75"/>
       <path d="M 30.609375 48.390625 
Q 23.390625 48.390625 19.1875 42.75 
Q 14.984375 37.109375 14.984375 27.296875 
Q 14.984375 17.484375 19.15625 11.84375 
Q 23.34375 6.203125 30.609375 6.203125 
Q 37.796875 6.203125 41.984375 11.859375 
Q 46.1875 17.53125 46.1875 27.296875 
Q 46.1875 37.015625 41.984375 42.703125 
Q 37.796875 48.390625 30.609375 48.390625 
z
M 30.609375 56 
Q 42.328125 56 49.015625 48.375 
Q 55.71875 40.765625 55.71875 27.296875 
Q 55.71875 13.875 49.015625 6.21875 
Q 42.328125 -1.421875 30.609375 -1.421875 
Q 18.84375 -1.421875 12.171875 6.21875 
Q 5.515625 13.875 5.515625 27.296875 
Q 5.515625 40.765625 12.171875 48.375 
Q 18.84375 56 30.609375 56 
z
" id="DejaVuSans-6f"/>
      </defs>
      <g style="fill:#262626;" transform="translate(428.523828 415.278294)scale(0.11 -0.11)">
       <use xlink:href="#DejaVuSans-76"/>
       <use x="59.179688" xlink:href="#DejaVuSans-69"/>
       <use x="86.962891" xlink:href="#DejaVuSans-6e"/>
       <use x="150.341797" xlink:href="#DejaVuSans-73"/>
       <use x="202.441406" xlink:href="#DejaVuSans-5f"/>
       <use x="252.441406" xlink:href="#DejaVuSans-66"/>
       <use x="287.646484" xlink:href="#DejaVuSans-75"/>
       <use x="351.025391" xlink:href="#DejaVuSans-73"/>
       <use x="403.125" xlink:href="#DejaVuSans-69"/>
       <use x="430.908203" xlink:href="#DejaVuSans-6f"/>
       <use x="492.089844" xlink:href="#DejaVuSans-6e"/>
       <use x="555.46875" xlink:href="#DejaVuSans-5f"/>
       <use x="605.46875" xlink:href="#DejaVuSans-74"/>
       <use x="644.677734" xlink:href="#DejaVuSans-72"/>
       <use x="685.791016" xlink:href="#DejaVuSans-61"/>
       <use x="747.070312" xlink:href="#DejaVuSans-6a"/>
      </g>
     </g>
    </g>
    <g id="text_4">
     <!-- estimate -->
     <defs>
      <path d="M 56.203125 29.59375 
L 56.203125 25.203125 
L 14.890625 25.203125 
Q 15.484375 15.921875 20.484375 11.0625 
Q 25.484375 6.203125 34.421875 6.203125 
Q 39.59375 6.203125 44.453125 7.46875 
Q 49.3125 8.734375 54.109375 11.28125 
L 54.109375 2.78125 
Q 49.265625 0.734375 44.1875 -0.34375 
Q 39.109375 -1.421875 33.890625 -1.421875 
Q 20.796875 -1.421875 13.15625 6.1875 
Q 5.515625 13.8125 5.515625 26.8125 
Q 5.515625 40.234375 12.765625 48.109375 
Q 20.015625 56 32.328125 56 
Q 43.359375 56 49.78125 48.890625 
Q 56.203125 41.796875 56.203125 29.59375 
z
M 47.21875 32.234375 
Q 47.125 39.59375 43.09375 43.984375 
Q 39.0625 48.390625 32.421875 48.390625 
Q 24.90625 48.390625 20.390625 44.140625 
Q 15.875 39.890625 15.1875 32.171875 
z
" id="DejaVuSans-65"/>
     </defs>
     <g style="fill:#262626;" transform="translate(293.53785 430.990012)scale(0.12 -0.12)">
      <use xlink:href="#DejaVuSans-65"/>
      <use x="61.523438" xlink:href="#DejaVuSans-73"/>
      <use x="113.623047" xlink:href="#DejaVuSans-74"/>
      <use x="152.832031" xlink:href="#DejaVuSans-69"/>
      <use x="180.615234" xlink:href="#DejaVuSans-6d"/>
      <use x="278.027344" xlink:href="#DejaVuSans-61"/>
      <use x="339.306641" xlink:href="#DejaVuSans-74"/>
      <use x="378.515625" xlink:href="#DejaVuSans-65"/>
     </g>
    </g>
   </g>
   <g id="matplotlib.axis_2">
    <g id="ytick_1">
     <g id="line2d_1">
      <path clip-path="url(#p52e485cfc4)" d="M 93.14025 371.8469 
L 546.7392 371.8469 
" style="fill:none;stroke:#ffffff;stroke-linecap:round;"/>
     </g>
     <g id="text_5">
      <!-- 0.000 -->
      <defs>
       <path d="M 31.78125 66.40625 
Q 24.171875 66.40625 20.328125 58.90625 
Q 16.5 51.421875 16.5 36.375 
Q 16.5 21.390625 20.328125 13.890625 
Q 24.171875 6.390625 31.78125 6.390625 
Q 39.453125 6.390625 43.28125 13.890625 
Q 47.125 21.390625 47.125 36.375 
Q 47.125 51.421875 43.28125 58.90625 
Q 39.453125 66.40625 31.78125 66.40625 
z
M 31.78125 74.21875 
Q 44.046875 74.21875 50.515625 64.515625 
Q 56.984375 54.828125 56.984375 36.375 
Q 56.984375 17.96875 50.515625 8.265625 
Q 44.046875 -1.421875 31.78125 -1.421875 
Q 19.53125 -1.421875 13.0625 8.265625 
Q 6.59375 17.96875 6.59375 36.375 
Q 6.59375 54.828125 13.0625 64.515625 
Q 19.53125 74.21875 31.78125 74.21875 
z
" id="DejaVuSans-30"/>
       <path d="M 10.6875 12.40625 
L 21 12.40625 
L 21 0 
L 10.6875 0 
z
" id="DejaVuSans-2e"/>
      </defs>
      <g style="fill:#262626;" transform="translate(52.149312 376.026041)scale(0.11 -0.11)">
       <use xlink:href="#DejaVuSans-30"/>
       <use x="63.623047" xlink:href="#DejaVuSans-2e"/>
       <use x="95.410156" xlink:href="#DejaVuSans-30"/>
       <use x="159.033203" xlink:href="#DejaVuSans-30"/>
       <use x="222.65625" xlink:href="#DejaVuSans-30"/>
      </g>
     </g>
    </g>
    <g id="ytick_2">
     <g id="line2d_2">
      <path clip-path="url(#p52e485cfc4)" d="M 93.14025 324.596117 
L 546.7392 324.596117 
" style="fill:none;stroke:#ffffff;stroke-linecap:round;"/>
     </g>
     <g id="text_6">
      <!-- 0.025 -->
      <defs>
       <path d="M 19.1875 8.296875 
L 53.609375 8.296875 
L 53.609375 0 
L 7.328125 0 
L 7.328125 8.296875 
Q 12.9375 14.109375 22.625 23.890625 
Q 32.328125 33.6875 34.8125 36.53125 
Q 39.546875 41.84375 41.421875 45.53125 
Q 43.3125 49.21875 43.3125 52.78125 
Q 43.3125 58.59375 39.234375 62.25 
Q 35.15625 65.921875 28.609375 65.921875 
Q 23.96875 65.921875 18.8125 64.3125 
Q 13.671875 62.703125 7.8125 59.421875 
L 7.8125 69.390625 
Q 13.765625 71.78125 18.9375 73 
Q 24.125 74.21875 28.421875 74.21875 
Q 39.75 74.21875 46.484375 68.546875 
Q 53.21875 62.890625 53.21875 53.421875 
Q 53.21875 48.921875 51.53125 44.890625 
Q 49.859375 40.875 45.40625 35.40625 
Q 44.1875 33.984375 37.640625 27.21875 
Q 31.109375 20.453125 19.1875 8.296875 
z
" id="DejaVuSans-32"/>
       <path d="M 10.796875 72.90625 
L 49.515625 72.90625 
L 49.515625 64.59375 
L 19.828125 64.59375 
L 19.828125 46.734375 
Q 21.96875 47.46875 24.109375 47.828125 
Q 26.265625 48.1875 28.421875 48.1875 
Q 40.625 48.1875 47.75 41.5 
Q 54.890625 34.8125 54.890625 23.390625 
Q 54.890625 11.625 47.5625 5.09375 
Q 40.234375 -1.421875 26.90625 -1.421875 
Q 22.3125 -1.421875 17.546875 -0.640625 
Q 12.796875 0.140625 7.71875 1.703125 
L 7.71875 11.625 
Q 12.109375 9.234375 16.796875 8.0625 
Q 21.484375 6.890625 26.703125 6.890625 
Q 35.15625 6.890625 40.078125 11.328125 
Q 45.015625 15.765625 45.015625 23.390625 
Q 45.015625 31 40.078125 35.4375 
Q 35.15625 39.890625 26.703125 39.890625 
Q 22.75 39.890625 18.8125 39.015625 
Q 14.890625 38.140625 10.796875 36.28125 
z
" id="DejaVuSans-35"/>
      </defs>
      <g style="fill:#262626;" transform="translate(52.149312 328.775258)scale(0.11 -0.11)">
       <use xlink:href="#DejaVuSans-30"/>
       <use x="63.623047" xlink:href="#DejaVuSans-2e"/>
       <use x="95.410156" xlink:href="#DejaVuSans-30"/>
       <use x="159.033203" xlink:href="#DejaVuSans-32"/>
       <use x="222.65625" xlink:href="#DejaVuSans-35"/>
      </g>
     </g>
    </g>
    <g id="ytick_3">
     <g id="line2d_3">
      <path clip-path="url(#p52e485cfc4)" d="M 93.14025 277.345334 
L 546.7392 277.345334 
" style="fill:none;stroke:#ffffff;stroke-linecap:round;"/>
     </g>
     <g id="text_7">
      <!-- 0.050 -->
      <g style="fill:#262626;" transform="translate(52.149312 281.524475)scale(0.11 -0.11)">
       <use xlink:href="#DejaVuSans-30"/>
       <use x="63.623047" xlink:href="#DejaVuSans-2e"/>
       <use x="95.410156" xlink:href="#DejaVuSans-30"/>
       <use x="159.033203" xlink:href="#DejaVuSans-35"/>
       <use x="222.65625" xlink:href="#DejaVuSans-30"/>
      </g>
     </g>
    </g>
    <g id="ytick_4">
     <g id="line2d_4">
      <path clip-path="url(#p52e485cfc4)" d="M 93.14025 230.094551 
L 546.7392 230.094551 
" style="fill:none;stroke:#ffffff;stroke-linecap:round;"/>
     </g>
     <g id="text_8">
      <!-- 0.075 -->
      <defs>
       <path d="M 8.203125 72.90625 
L 55.078125 72.90625 
L 55.078125 68.703125 
L 28.609375 0 
L 18.3125 0 
L 43.21875 64.59375 
L 8.203125 64.59375 
z
" id="DejaVuSans-37"/>
      </defs>
      <g style="fill:#262626;" transform="translate(52.149312 234.273692)scale(0.11 -0.11)">
       <use xlink:href="#DejaVuSans-30"/>
       <use x="63.623047" xlink:href="#DejaVuSans-2e"/>
       <use x="95.410156" xlink:href="#DejaVuSans-30"/>
       <use x="159.033203" xlink:href="#DejaVuSans-37"/>
       <use x="222.65625" xlink:href="#DejaVuSans-35"/>
      </g>
     </g>
    </g>
    <g id="ytick_5">
     <g id="line2d_5">
      <path clip-path="url(#p52e485cfc4)" d="M 93.14025 182.843768 
L 546.7392 182.843768 
" style="fill:none;stroke:#ffffff;stroke-linecap:round;"/>
     </g>
     <g id="text_9">
      <!-- 0.100 -->
      <defs>
       <path d="M 12.40625 8.296875 
L 28.515625 8.296875 
L 28.515625 63.921875 
L 10.984375 60.40625 
L 10.984375 69.390625 
L 28.421875 72.90625 
L 38.28125 72.90625 
L 38.28125 8.296875 
L 54.390625 8.296875 
L 54.390625 0 
L 12.40625 0 
z
" id="DejaVuSans-31"/>
      </defs>
      <g style="fill:#262626;" transform="translate(52.149312 187.022909)scale(0.11 -0.11)">
       <use xlink:href="#DejaVuSans-30"/>
       <use x="63.623047" xlink:href="#DejaVuSans-2e"/>
       <use x="95.410156" xlink:href="#DejaVuSans-31"/>
       <use x="159.033203" xlink:href="#DejaVuSans-30"/>
       <use x="222.65625" xlink:href="#DejaVuSans-30"/>
      </g>
     </g>
    </g>
    <g id="ytick_6">
     <g id="line2d_6">
      <path clip-path="url(#p52e485cfc4)" d="M 93.14025 135.592985 
L 546.7392 135.592985 
" style="fill:none;stroke:#ffffff;stroke-linecap:round;"/>
     </g>
     <g id="text_10">
      <!-- 0.125 -->
      <g style="fill:#262626;" transform="translate(52.149312 139.772126)scale(0.11 -0.11)">
       <use xlink:href="#DejaVuSans-30"/>
       <use x="63.623047" xlink:href="#DejaVuSans-2e"/>
       <use x="95.410156" xlink:href="#DejaVuSans-31"/>
       <use x="159.033203" xlink:href="#DejaVuSans-32"/>
       <use x="222.65625" xlink:href="#DejaVuSans-35"/>
      </g>
     </g>
    </g>
    <g id="ytick_7">
     <g id="line2d_7">
      <path clip-path="url(#p52e485cfc4)" d="M 93.14025 88.342202 
L 546.7392 88.342202 
" style="fill:none;stroke:#ffffff;stroke-linecap:round;"/>
     </g>
     <g id="text_11">
      <!-- 0.150 -->
      <g style="fill:#262626;" transform="translate(52.149312 92.521343)scale(0.11 -0.11)">
       <use xlink:href="#DejaVuSans-30"/>
       <use x="63.623047" xlink:href="#DejaVuSans-2e"/>
       <use x="95.410156" xlink:href="#DejaVuSans-31"/>
       <use x="159.033203" xlink:href="#DejaVuSans-35"/>
       <use x="222.65625" xlink:href="#DejaVuSans-30"/>
      </g>
     </g>
    </g>
    <g id="ytick_8">
     <g id="line2d_8">
      <path clip-path="url(#p52e485cfc4)" d="M 93.14025 41.091419 
L 546.7392 41.091419 
" style="fill:none;stroke:#ffffff;stroke-linecap:round;"/>
     </g>
     <g id="text_12">
      <!-- 0.175 -->
      <g style="fill:#262626;" transform="translate(52.149312 45.27056)scale(0.11 -0.11)">
       <use xlink:href="#DejaVuSans-30"/>
       <use x="63.623047" xlink:href="#DejaVuSans-2e"/>
       <use x="95.410156" xlink:href="#DejaVuSans-31"/>
       <use x="159.033203" xlink:href="#DejaVuSans-37"/>
       <use x="222.65625" xlink:href="#DejaVuSans-35"/>
      </g>
     </g>
    </g>
    <g id="text_13">
     <!-- APE (m) -->
     <defs>
      <path d="M 34.1875 63.1875 
L 20.796875 26.90625 
L 47.609375 26.90625 
z
M 28.609375 72.90625 
L 39.796875 72.90625 
L 67.578125 0 
L 57.328125 0 
L 50.6875 18.703125 
L 17.828125 18.703125 
L 11.1875 0 
L 0.78125 0 
z
" id="DejaVuSans-41"/>
      <path d="M 19.671875 64.796875 
L 19.671875 37.40625 
L 32.078125 37.40625 
Q 38.96875 37.40625 42.71875 40.96875 
Q 46.484375 44.53125 46.484375 51.125 
Q 46.484375 57.671875 42.71875 61.234375 
Q 38.96875 64.796875 32.078125 64.796875 
z
M 9.8125 72.90625 
L 32.078125 72.90625 
Q 44.34375 72.90625 50.609375 67.359375 
Q 56.890625 61.8125 56.890625 51.125 
Q 56.890625 40.328125 50.609375 34.8125 
Q 44.34375 29.296875 32.078125 29.296875 
L 19.671875 29.296875 
L 19.671875 0 
L 9.8125 0 
z
" id="DejaVuSans-50"/>
      <path d="M 9.8125 72.90625 
L 55.90625 72.90625 
L 55.90625 64.59375 
L 19.671875 64.59375 
L 19.671875 43.015625 
L 54.390625 43.015625 
L 54.390625 34.71875 
L 19.671875 34.71875 
L 19.671875 8.296875 
L 56.78125 8.296875 
L 56.78125 0 
L 9.8125 0 
z
" id="DejaVuSans-45"/>
      <path id="DejaVuSans-20"/>
      <path d="M 31 75.875 
Q 24.46875 64.65625 21.28125 53.65625 
Q 18.109375 42.671875 18.109375 31.390625 
Q 18.109375 20.125 21.3125 9.0625 
Q 24.515625 -2 31 -13.1875 
L 23.1875 -13.1875 
Q 15.875 -1.703125 12.234375 9.375 
Q 8.59375 20.453125 8.59375 31.390625 
Q 8.59375 42.28125 12.203125 53.3125 
Q 15.828125 64.359375 23.1875 75.875 
z
" id="DejaVuSans-28"/>
      <path d="M 8.015625 75.875 
L 15.828125 75.875 
Q 23.140625 64.359375 26.78125 53.3125 
Q 30.421875 42.28125 30.421875 31.390625 
Q 30.421875 20.453125 26.78125 9.375 
Q 23.140625 -1.703125 15.828125 -13.1875 
L 8.015625 -13.1875 
Q 14.5 -2 17.703125 9.0625 
Q 20.90625 20.125 20.90625 31.390625 
Q 20.90625 42.671875 17.703125 53.65625 
Q 14.5 64.65625 8.015625 75.875 
z
" id="DejaVuSans-29"/>
     </defs>
     <g style="fill:#262626;" transform="translate(45.653687 231.670969)rotate(-90)scale(0.12 -0.12)">
      <use xlink:href="#DejaVuSans-41"/>
      <use x="68.408203" xlink:href="#DejaVuSans-50"/>
      <use x="128.710938" xlink:href="#DejaVuSans-45"/>
      <use x="191.894531" xlink:href="#DejaVuSans-20"/>
      <use x="223.681641" xlink:href="#DejaVuSans-28"/>
      <use x="262.695312" xlink:href="#DejaVuSans-6d"/>
      <use x="360.107422" xlink:href="#DejaVuSans-29"/>
     </g>
    </g>
   </g>
   <g id="PolyCollection_1">
    <defs>
     <path d="M 168.811436 -102.434683 
L 168.668714 -102.434683 
L 168.593398 -105.243774 
L 168.457057 -108.052866 
L 168.226936 -110.861957 
L 167.865126 -113.671049 
L 167.336074 -116.48014 
L 166.618328 -119.289231 
L 165.717848 -122.098323 
L 164.67759 -124.907414 
L 163.576861 -127.716505 
L 162.515996 -130.525597 
L 161.587356 -133.334688 
L 160.840949 -136.14378 
L 160.2584 -138.952871 
L 159.749079 -141.761962 
L 159.175377 -144.571054 
L 158.402291 -147.380145 
L 157.354544 -150.189237 
L 156.058519 -152.998328 
L 154.650136 -155.807419 
L 153.342961 -158.616511 
L 152.367509 -161.425602 
L 151.904717 -164.234694 
L 152.038048 -167.043785 
L 152.739253 -169.852876 
L 153.887979 -172.661968 
L 155.312683 -175.471059 
L 156.835064 -178.280151 
L 158.303281 -181.089242 
L 159.607258 -183.898333 
L 160.677819 -186.707425 
L 161.476534 -189.516516 
L 161.983733 -192.325608 
L 162.189226 -195.134699 
L 162.086353 -197.94379 
L 161.667758 -200.752882 
L 160.921747 -203.561973 
L 159.830544 -206.371064 
L 158.373506 -209.180156 
L 156.537079 -211.989247 
L 154.328581 -214.798339 
L 151.785434 -217.60743 
L 148.97004 -220.416521 
L 145.946591 -223.225613 
L 142.748927 -226.034704 
L 139.361402 -228.843796 
L 135.737399 -231.652887 
L 131.865249 -234.461978 
L 127.861588 -237.27107 
L 124.042857 -240.080161 
L 120.918695 -242.889253 
L 119.079985 -245.698344 
L 119.010331 -248.507435 
L 120.900958 -251.316527 
L 124.559535 -254.125618 
L 129.460759 -256.93471 
L 134.914378 -259.743801 
L 140.269376 -262.552892 
L 145.064977 -265.361984 
L 149.07923 -268.171075 
L 152.28388 -270.980167 
L 154.754595 -273.789258 
L 156.591069 -276.598349 
L 157.878709 -279.407441 
L 158.692052 -282.216532 
L 159.117958 -285.025623 
L 159.272166 -287.834715 
L 159.293386 -290.643806 
L 159.316256 -293.452898 
L 159.438147 -296.261989 
L 159.698547 -299.07108 
L 160.082433 -301.880172 
L 160.545527 -304.689263 
L 161.047385 -307.498355 
L 161.57464 -310.307446 
L 162.143175 -313.116537 
L 162.780316 -315.925629 
L 163.499029 -318.73472 
L 164.279301 -321.543812 
L 165.066374 -324.352903 
L 165.785501 -327.161994 
L 166.364683 -329.971086 
L 166.754781 -332.780177 
L 166.940113 -335.589269 
L 166.938585 -338.39836 
L 166.794682 -341.207451 
L 166.569567 -344.016543 
L 166.330994 -346.825634 
L 166.143687 -349.634726 
L 166.060023 -352.443817 
L 166.111512 -355.252908 
L 166.303005 -358.062 
L 166.612182 -360.871091 
L 166.995738 -363.680182 
L 167.401094 -366.489274 
L 167.77978 -369.298365 
L 168.097859 -372.107457 
L 168.340233 -374.916548 
L 168.508644 -377.725639 
L 168.615688 -380.534731 
L 168.864462 -380.534731 
L 168.864462 -380.534731 
L 168.971506 -377.725639 
L 169.139917 -374.916548 
L 169.382291 -372.107457 
L 169.70037 -369.298365 
L 170.079056 -366.489274 
L 170.484412 -363.680182 
L 170.867968 -360.871091 
L 171.177145 -358.062 
L 171.368638 -355.252908 
L 171.420127 -352.443817 
L 171.336463 -349.634726 
L 171.149156 -346.825634 
L 170.910583 -344.016543 
L 170.685468 -341.207451 
L 170.541565 -338.39836 
L 170.540037 -335.589269 
L 170.725369 -332.780177 
L 171.115467 -329.971086 
L 171.694649 -327.161994 
L 172.413776 -324.352903 
L 173.200849 -321.543812 
L 173.981121 -318.73472 
L 174.699834 -315.925629 
L 175.336975 -313.116537 
L 175.90551 -310.307446 
L 176.432765 -307.498355 
L 176.934623 -304.689263 
L 177.397717 -301.880172 
L 177.781603 -299.07108 
L 178.042003 -296.261989 
L 178.163894 -293.452898 
L 178.186764 -290.643806 
L 178.207984 -287.834715 
L 178.362192 -285.025623 
L 178.788098 -282.216532 
L 179.601441 -279.407441 
L 180.889081 -276.598349 
L 182.725555 -273.789258 
L 185.19627 -270.980167 
L 188.40092 -268.171075 
L 192.415173 -265.361984 
L 197.210774 -262.552892 
L 202.565772 -259.743801 
L 208.019391 -256.93471 
L 212.920615 -254.125618 
L 216.579192 -251.316527 
L 218.469819 -248.507435 
L 218.400165 -245.698344 
L 216.561455 -242.889253 
L 213.437293 -240.080161 
L 209.618562 -237.27107 
L 205.614901 -234.461978 
L 201.742751 -231.652887 
L 198.118748 -228.843796 
L 194.731223 -226.034704 
L 191.533559 -223.225613 
L 188.51011 -220.416521 
L 185.694716 -217.60743 
L 183.151569 -214.798339 
L 180.943071 -211.989247 
L 179.106644 -209.180156 
L 177.649606 -206.371064 
L 176.558403 -203.561973 
L 175.812392 -200.752882 
L 175.393797 -197.94379 
L 175.290924 -195.134699 
L 175.496417 -192.325608 
L 176.003616 -189.516516 
L 176.802331 -186.707425 
L 177.872892 -183.898333 
L 179.176869 -181.089242 
L 180.645086 -178.280151 
L 182.167467 -175.471059 
L 183.592171 -172.661968 
L 184.740897 -169.852876 
L 185.442102 -167.043785 
L 185.575433 -164.234694 
L 185.112641 -161.425602 
L 184.137189 -158.616511 
L 182.830014 -155.807419 
L 181.421631 -152.998328 
L 180.125606 -150.189237 
L 179.077859 -147.380145 
L 178.304773 -144.571054 
L 177.731071 -141.761962 
L 177.22175 -138.952871 
L 176.639201 -136.14378 
L 175.892794 -133.334688 
L 174.964154 -130.525597 
L 173.903289 -127.716505 
L 172.80256 -124.907414 
L 171.762302 -122.098323 
L 170.861822 -119.289231 
L 170.144076 -116.48014 
L 169.615024 -113.671049 
L 169.253214 -110.861957 
L 169.023093 -108.052866 
L 168.886752 -105.243774 
L 168.811436 -102.434683 
z
" id="meddeeb13df" style="stroke:#4c4c4c;stroke-width:1.5;"/>
    </defs>
    <g clip-path="url(#p52e485cfc4)">
     <use style="fill:#5875a4;stroke:#4c4c4c;stroke-width:1.5;" x="0" xlink:href="#meddeeb13df" y="450.72"/>
    </g>
   </g>
   <g id="PolyCollection_2">
    <defs>
     <path d="M 320.173131 -70.545043 
L 319.706319 -70.545043 
L 319.517105 -72.377146 
L 319.21384 -74.209249 
L 318.755273 -76.041352 
L 318.100207 -77.873456 
L 317.214391 -79.705559 
L 316.077158 -81.537662 
L 314.685187 -83.369766 
L 313.051216 -85.201869 
L 311.197081 -87.033972 
L 309.142678 -88.866075 
L 306.894288 -90.698179 
L 304.436459 -92.530282 
L 301.730894 -94.362385 
L 298.724155 -96.194489 
L 295.363722 -98.026592 
L 291.619749 -99.858695 
L 287.507687 -101.690798 
L 283.105457 -103.522902 
L 278.558801 -105.355005 
L 274.070721 -107.187108 
L 269.875451 -109.019211 
L 266.202754 -110.851315 
L 263.241951 -112.683418 
L 261.115144 -114.515521 
L 259.86536 -116.347625 
L 259.459865 -118.179728 
L 259.804473 -120.011831 
L 260.763232 -121.843934 
L 262.179201 -123.676038 
L 263.894384 -125.508141 
L 265.768234 -127.340244 
L 267.693621 -129.172348 
L 269.607717 -131.004451 
L 271.494448 -132.836554 
L 273.37621 -134.668657 
L 275.295678 -136.500761 
L 277.292309 -138.332864 
L 279.380903 -140.164967 
L 281.539732 -141.99707 
L 283.71268 -143.829174 
L 285.824719 -145.661277 
L 287.80493 -147.49338 
L 289.60857 -149.325484 
L 291.230516 -151.157587 
L 292.706203 -152.98969 
L 294.100832 -154.821793 
L 295.49111 -156.653897 
L 296.945108 -158.486 
L 298.505333 -160.318103 
L 300.17868 -162.150207 
L 301.935249 -163.98231 
L 303.716014 -165.814413 
L 305.447148 -167.646516 
L 307.056835 -169.47862 
L 308.489692 -171.310723 
L 309.715088 -173.142826 
L 310.728258 -174.97493 
L 311.545901 -176.807033 
L 312.199342 -178.639136 
L 312.727836 -180.471239 
L 313.172959 -182.303343 
L 313.573584 -184.135446 
L 313.960783 -185.967549 
L 314.353004 -187.799652 
L 314.753004 -189.631756 
L 315.148298 -191.463859 
L 315.515794 -193.295962 
L 315.829506 -195.128066 
L 316.068763 -196.960169 
L 316.224005 -198.792272 
L 316.298277 -200.624375 
L 316.304333 -202.456479 
L 316.259015 -204.288582 
L 316.177579 -206.120685 
L 316.070377 -207.952789 
L 315.94309 -209.784892 
L 315.79993 -211.616995 
L 315.647824 -213.449098 
L 315.499203 -215.281202 
L 315.371802 -217.113305 
L 315.285505 -218.945408 
L 315.257786 -220.777511 
L 315.299938 -222.609615 
L 315.415678 -224.441718 
L 315.602362 -226.273821 
L 315.853635 -228.105925 
L 316.161793 -229.938028 
L 316.518603 -231.770131 
L 316.914458 -233.602234 
L 317.336851 -235.434338 
L 317.769514 -237.266441 
L 318.193203 -239.098544 
L 318.588139 -240.930648 
L 318.937291 -242.762751 
L 319.22925 -244.594854 
L 319.459719 -246.426957 
L 319.631236 -248.259061 
L 319.751463 -250.091164 
L 319.83079 -251.923267 
L 320.04866 -251.923267 
L 320.04866 -251.923267 
L 320.127987 -250.091164 
L 320.248214 -248.259061 
L 320.419731 -246.426957 
L 320.6502 -244.594854 
L 320.942159 -242.762751 
L 321.291311 -240.930648 
L 321.686247 -239.098544 
L 322.109936 -237.266441 
L 322.542599 -235.434338 
L 322.964992 -233.602234 
L 323.360847 -231.770131 
L 323.717657 -229.938028 
L 324.025815 -228.105925 
L 324.277088 -226.273821 
L 324.463772 -224.441718 
L 324.579512 -222.609615 
L 324.621664 -220.777511 
L 324.593945 -218.945408 
L 324.507648 -217.113305 
L 324.380247 -215.281202 
L 324.231626 -213.449098 
L 324.07952 -211.616995 
L 323.93636 -209.784892 
L 323.809073 -207.952789 
L 323.701871 -206.120685 
L 323.620435 -204.288582 
L 323.575117 -202.456479 
L 323.581173 -200.624375 
L 323.655445 -198.792272 
L 323.810687 -196.960169 
L 324.049944 -195.128066 
L 324.363656 -193.295962 
L 324.731152 -191.463859 
L 325.126446 -189.631756 
L 325.526446 -187.799652 
L 325.918667 -185.967549 
L 326.305866 -184.135446 
L 326.706491 -182.303343 
L 327.151614 -180.471239 
L 327.680108 -178.639136 
L 328.333549 -176.807033 
L 329.151192 -174.97493 
L 330.164362 -173.142826 
L 331.389758 -171.310723 
L 332.822615 -169.47862 
L 334.432302 -167.646516 
L 336.163436 -165.814413 
L 337.944201 -163.98231 
L 339.70077 -162.150207 
L 341.374117 -160.318103 
L 342.934342 -158.486 
L 344.38834 -156.653897 
L 345.778618 -154.821793 
L 347.173247 -152.98969 
L 348.648934 -151.157587 
L 350.27088 -149.325484 
L 352.07452 -147.49338 
L 354.054731 -145.661277 
L 356.16677 -143.829174 
L 358.339718 -141.99707 
L 360.498547 -140.164967 
L 362.587141 -138.332864 
L 364.583772 -136.500761 
L 366.50324 -134.668657 
L 368.385002 -132.836554 
L 370.271733 -131.004451 
L 372.185829 -129.172348 
L 374.111216 -127.340244 
L 375.985066 -125.508141 
L 377.700249 -123.676038 
L 379.116218 -121.843934 
L 380.074977 -120.011831 
L 380.419585 -118.179728 
L 380.01409 -116.347625 
L 378.764306 -114.515521 
L 376.637499 -112.683418 
L 373.676696 -110.851315 
L 370.003999 -109.019211 
L 365.808729 -107.187108 
L 361.320649 -105.355005 
L 356.773993 -103.522902 
L 352.371763 -101.690798 
L 348.259701 -99.858695 
L 344.515728 -98.026592 
L 341.155295 -96.194489 
L 338.148556 -94.362385 
L 335.442991 -92.530282 
L 332.985162 -90.698179 
L 330.736772 -88.866075 
L 328.682369 -87.033972 
L 326.828234 -85.201869 
L 325.194263 -83.369766 
L 323.802292 -81.537662 
L 322.665059 -79.705559 
L 321.779243 -77.873456 
L 321.124177 -76.041352 
L 320.66561 -74.209249 
L 320.362345 -72.377146 
L 320.173131 -70.545043 
z
" id="m66fd1b3aae" style="stroke:#4c4c4c;stroke-width:1.5;"/>
    </defs>
    <g clip-path="url(#p52e485cfc4)">
     <use style="fill:#5f9e6e;stroke:#4c4c4c;stroke-width:1.5;" x="0" xlink:href="#m66fd1b3aae" y="450.72"/>
    </g>
   </g>
   <g id="PolyCollection_3">
    <defs>
     <path d="M 471.199571 -82.074635 
L 471.079179 -82.074635 
L 471.039699 -85.442024 
L 470.981579 -88.809413 
L 470.899951 -92.176802 
L 470.790078 -95.544191 
L 470.647464 -98.91158 
L 470.46751 -102.278969 
L 470.244714 -105.646358 
L 469.971616 -109.013747 
L 469.638018 -112.381136 
L 469.23112 -115.748525 
L 468.737011 -119.115914 
L 468.143475 -122.483303 
L 467.443352 -125.850692 
L 466.637147 -129.218081 
L 465.733472 -132.58547 
L 464.746522 -135.952859 
L 463.690895 -139.320248 
L 462.575425 -142.687637 
L 461.398537 -146.055026 
L 460.147598 -149.422415 
L 458.803634 -152.789804 
L 457.350863 -156.157193 
L 455.788609 -159.524582 
L 454.141908 -162.891971 
L 452.467111 -166.25936 
L 450.850035 -169.626749 
L 449.396267 -172.994138 
L 448.215391 -176.361527 
L 447.402523 -179.728916 
L 447.021183 -183.096305 
L 447.091102 -186.463694 
L 447.583407 -189.831083 
L 448.424051 -193.198472 
L 449.50477 -196.565861 
L 450.699481 -199.93325 
L 451.88311 -203.300639 
L 452.949293 -206.668028 
L 453.823576 -210.035417 
L 454.46959 -213.402806 
L 454.887305 -216.770195 
L 455.104414 -220.137584 
L 455.163721 -223.504973 
L 455.110289 -226.872362 
L 454.981834 -230.239751 
L 454.804364 -233.60714 
L 454.593097 -236.974529 
L 454.356872 -240.341918 
L 454.103379 -243.709307 
L 453.842756 -247.076696 
L 453.588314 -250.444085 
L 453.35474 -253.811474 
L 453.155419 -257.178863 
L 453.000864 -260.546252 
L 452.899496 -263.913641 
L 452.860482 -267.28103 
L 452.896832 -270.648419 
L 453.026314 -274.015808 
L 453.268546 -277.383197 
L 453.638537 -280.750586 
L 454.13913 -284.117975 
L 454.755971 -287.485363 
L 455.458095 -290.852752 
L 456.204932 -294.220141 
L 456.957662 -297.58753 
L 457.690596 -300.954919 
L 458.397969 -304.322308 
L 459.09323 -307.689697 
L 459.800957 -311.057086 
L 460.544474 -314.424475 
L 461.33393 -317.791864 
L 462.159305 -321.159253 
L 462.990873 -324.526642 
L 463.786893 -327.894031 
L 464.505784 -331.26142 
L 465.118611 -334.628809 
L 465.617766 -337.996198 
L 466.019114 -341.363587 
L 466.357093 -344.730976 
L 466.674532 -348.098365 
L 467.010579 -351.465754 
L 467.390545 -354.833143 
L 467.820576 -358.200532 
L 468.288267 -361.567921 
L 468.768296 -364.93531 
L 469.230681 -368.302699 
L 469.648812 -371.670088 
L 470.004984 -375.037477 
L 470.292417 -378.404866 
L 470.514049 -381.772255 
L 470.679319 -385.139644 
L 470.800408 -388.507033 
L 470.889125 -391.874422 
L 470.955062 -395.241811 
L 471.005015 -398.6092 
L 471.043322 -401.976589 
L 471.072614 -405.343978 
L 471.094582 -408.711367 
L 471.11052 -412.078756 
L 471.121597 -415.446145 
L 471.157153 -415.446145 
L 471.157153 -415.446145 
L 471.16823 -412.078756 
L 471.184168 -408.711367 
L 471.206136 -405.343978 
L 471.235428 -401.976589 
L 471.273735 -398.6092 
L 471.323688 -395.241811 
L 471.389625 -391.874422 
L 471.478342 -388.507033 
L 471.599431 -385.139644 
L 471.764701 -381.772255 
L 471.986333 -378.404866 
L 472.273766 -375.037477 
L 472.629938 -371.670088 
L 473.048069 -368.302699 
L 473.510454 -364.93531 
L 473.990483 -361.567921 
L 474.458174 -358.200532 
L 474.888205 -354.833143 
L 475.268171 -351.465754 
L 475.604218 -348.098365 
L 475.921657 -344.730976 
L 476.259636 -341.363587 
L 476.660984 -337.996198 
L 477.160139 -334.628809 
L 477.772966 -331.26142 
L 478.491857 -327.894031 
L 479.287877 -324.526642 
L 480.119445 -321.159253 
L 480.94482 -317.791864 
L 481.734276 -314.424475 
L 482.477793 -311.057086 
L 483.18552 -307.689697 
L 483.880781 -304.322308 
L 484.588154 -300.954919 
L 485.321088 -297.58753 
L 486.073818 -294.220141 
L 486.820655 -290.852752 
L 487.522779 -287.485363 
L 488.13962 -284.117975 
L 488.640213 -280.750586 
L 489.010204 -277.383197 
L 489.252436 -274.015808 
L 489.381918 -270.648419 
L 489.418268 -267.28103 
L 489.379254 -263.913641 
L 489.277886 -260.546252 
L 489.123331 -257.178863 
L 488.92401 -253.811474 
L 488.690436 -250.444085 
L 488.435994 -247.076696 
L 488.175371 -243.709307 
L 487.921878 -240.341918 
L 487.685653 -236.974529 
L 487.474386 -233.60714 
L 487.296916 -230.239751 
L 487.168461 -226.872362 
L 487.115029 -223.504973 
L 487.174336 -220.137584 
L 487.391445 -216.770195 
L 487.80916 -213.402806 
L 488.455174 -210.035417 
L 489.329457 -206.668028 
L 490.39564 -203.300639 
L 491.579269 -199.93325 
L 492.77398 -196.565861 
L 493.854699 -193.198472 
L 494.695343 -189.831083 
L 495.187648 -186.463694 
L 495.257567 -183.096305 
L 494.876227 -179.728916 
L 494.063359 -176.361527 
L 492.882483 -172.994138 
L 491.428715 -169.626749 
L 489.811639 -166.25936 
L 488.136842 -162.891971 
L 486.490141 -159.524582 
L 484.927887 -156.157193 
L 483.475116 -152.789804 
L 482.131152 -149.422415 
L 480.880213 -146.055026 
L 479.703325 -142.687637 
L 478.587855 -139.320248 
L 477.532228 -135.952859 
L 476.545278 -132.58547 
L 475.641603 -129.218081 
L 474.835398 -125.850692 
L 474.135275 -122.483303 
L 473.541739 -119.115914 
L 473.04763 -115.748525 
L 472.640732 -112.381136 
L 472.307134 -109.013747 
L 472.034036 -105.646358 
L 471.81124 -102.278969 
L 471.631286 -98.91158 
L 471.488672 -95.544191 
L 471.378799 -92.176802 
L 471.297171 -88.809413 
L 471.239051 -85.442024 
L 471.199571 -82.074635 
z
" id="m1b769a5fa2" style="stroke:#4c4c4c;stroke-width:1.5;"/>
    </defs>
    <g clip-path="url(#p52e485cfc4)">
     <use style="fill:#b55d60;stroke:#4c4c4c;stroke-width:1.5;" x="0" xlink:href="#m1b769a5fa2" y="450.72"/>
    </g>
   </g>
   <g id="line2d_9">
    <path clip-path="url(#p52e485cfc4)" d="M 168.740075 313.39765 
L 168.740075 126.971473 
" style="fill:none;stroke:#4c4c4c;stroke-linecap:round;stroke-width:1.5;"/>
   </g>
   <g id="line2d_10">
    <path clip-path="url(#p52e485cfc4)" d="M 168.740075 243.064421 
L 168.740075 196.081277 
" style="fill:none;stroke:#4c4c4c;stroke-linecap:round;stroke-width:4.5;"/>
   </g>
   <g id="line2d_11">
    <path clip-path="url(#p52e485cfc4)" d="M 319.939725 365.524146 
L 319.939725 255.706384 
" style="fill:none;stroke:#4c4c4c;stroke-linecap:round;stroke-width:1.5;"/>
   </g>
   <g id="line2d_12">
    <path clip-path="url(#p52e485cfc4)" d="M 319.939725 337.029168 
L 319.939725 304.195817 
" style="fill:none;stroke:#4c4c4c;stroke-linecap:round;stroke-width:4.5;"/>
   </g>
   <g id="line2d_13">
    <path clip-path="url(#p52e485cfc4)" d="M 471.139375 339.827774 
L 471.139375 64.091446 
" style="fill:none;stroke:#4c4c4c;stroke-linecap:round;stroke-width:1.5;"/>
   </g>
   <g id="line2d_14">
    <path clip-path="url(#p52e485cfc4)" d="M 471.139375 266.006245 
L 471.139375 172.262955 
" style="fill:none;stroke:#4c4c4c;stroke-linecap:round;stroke-width:4.5;"/>
   </g>
   <g id="patch_3">
    <path d="M 93.14025 397.420012 
L 93.14025 18.0288 
" style="fill:none;stroke:#ffffff;stroke-linecap:square;stroke-linejoin:miter;stroke-width:1.25;"/>
   </g>
   <g id="patch_4">
    <path d="M 546.7392 397.420012 
L 546.7392 18.0288 
" style="fill:none;stroke:#ffffff;stroke-linecap:square;stroke-linejoin:miter;stroke-width:1.25;"/>
   </g>
   <g id="patch_5">
    <path d="M 93.14025 397.420012 
L 546.7392 397.420012 
" style="fill:none;stroke:#ffffff;stroke-linecap:square;stroke-linejoin:miter;stroke-width:1.25;"/>
   </g>
   <g id="patch_6">
    <path d="M 93.14025 18.0288 
L 546.7392 18.0288 
" style="fill:none;stroke:#ffffff;stroke-linecap:square;stroke-linejoin:miter;stroke-width:1.25;"/>
   </g>
   <g id="PathCollection_1">
    <defs>
     <path d="M 0 1.5 
C 0.397805 1.5 0.77937 1.341951 1.06066 1.06066 
C 1.341951 0.77937 1.5 0.397805 1.5 0 
C 1.5 -0.397805 1.341951 -0.77937 1.06066 -1.06066 
C 0.77937 -1.341951 0.397805 -1.5 0 -1.5 
C -0.397805 -1.5 -0.77937 -1.341951 -1.06066 -1.06066 
C -1.341951 -0.77937 -1.5 -0.397805 -1.5 0 
C -1.5 0.397805 -1.341951 0.77937 -1.06066 1.06066 
C -0.77937 1.341951 -0.397805 1.5 0 1.5 
z
" id="mf25ed0dbe5" style="stroke:#4c4c4c;"/>
    </defs>
    <g clip-path="url(#p52e485cfc4)">
     <use style="fill:#ffffff;stroke:#4c4c4c;" x="168.740075" xlink:href="#mf25ed0dbe5" y="207.25775"/>
    </g>
   </g>
   <g id="PathCollection_2">
    <g clip-path="url(#p52e485cfc4)">
     <use style="fill:#ffffff;stroke:#4c4c4c;" x="319.939725" xlink:href="#mf25ed0dbe5" y="323.606255"/>
    </g>
   </g>
   <g id="PathCollection_3">
    <g clip-path="url(#p52e485cfc4)">
     <use style="fill:#ffffff;stroke:#4c4c4c;" x="471.139375" xlink:href="#mf25ed0dbe5" y="222.273601"/>
    </g>
   </g>
  </g>
 </g>
 <defs>
  <clipPath id="p52e485cfc4">
   <rect height="379.391212" width="453.59895" x="93.14025" y="18.0288"/>
  </clipPath>
 </defs>
</svg>
