<?xml version="1.0" encoding="utf-8" standalone="no"?>
<!DOCTYPE svg PUBLIC "-//W3C//DTD SVG 1.1//EN"
  "http://www.w3.org/Graphics/SVG/1.1/DTD/svg11.dtd">
<!-- Created with matplotlib (http://matplotlib.org/) -->
<svg height="435.6pt" version="1.1" viewBox="0 0 485.28 435.6" width="485.28pt" xmlns="http://www.w3.org/2000/svg" xmlns:xlink="http://www.w3.org/1999/xlink">
 <defs>
  <style type="text/css">
*{stroke-linecap:butt;stroke-linejoin:round;}
  </style>
 </defs>
 <g id="figure_1">
  <g id="patch_1">
   <path d="M 0 435.6 
L 485.28 435.6 
L 485.28 0 
L 0 0 
z
" style="fill:#ffffff;"/>
  </g>
  <g id="axes_1">
   <g id="patch_2">
    <path d="M 40.799467 181.8025 
L 241.202133 181.8025 
L 241.202133 29.282 
L 40.799467 29.282 
z
" style="fill:#eaeaf2;"/>
   </g>
   <g id="matplotlib.axis_1">
    <g id="xtick_1">
     <g id="line2d_1">
      <path clip-path="url(#pad3f003a53)" d="M 59.08908 181.8025 
L 59.08908 29.282 
" style="fill:none;stroke:#ffffff;stroke-linecap:round;"/>
     </g>
    </g>
    <g id="xtick_2">
     <g id="line2d_2">
      <path clip-path="url(#pad3f003a53)" d="M 105.669103 181.8025 
L 105.669103 29.282 
" style="fill:none;stroke:#ffffff;stroke-linecap:round;"/>
     </g>
    </g>
    <g id="xtick_3">
     <g id="line2d_3">
      <path clip-path="url(#pad3f003a53)" d="M 152.249126 181.8025 
L 152.249126 29.282 
" style="fill:none;stroke:#ffffff;stroke-linecap:round;"/>
     </g>
    </g>
    <g id="xtick_4">
     <g id="line2d_4">
      <path clip-path="url(#pad3f003a53)" d="M 198.82915 181.8025 
L 198.82915 29.282 
" style="fill:none;stroke:#ffffff;stroke-linecap:round;"/>
     </g>
    </g>
   </g>
   <g id="matplotlib.axis_2">
    <g id="ytick_1">
     <g id="line2d_5">
      <path clip-path="url(#pad3f003a53)" d="M 40.799467 181.8025 
L 241.202133 181.8025 
" style="fill:none;stroke:#ffffff;stroke-linecap:round;"/>
     </g>
     <g id="text_1">
      <!-- 0 -->
      <defs>
       <path d="M 31.78125 66.40625 
Q 24.171875 66.40625 20.328125 58.90625 
Q 16.5 51.421875 16.5 36.375 
Q 16.5 21.390625 20.328125 13.890625 
Q 24.171875 6.390625 31.78125 6.390625 
Q 39.453125 6.390625 43.28125 13.890625 
Q 47.125 21.390625 47.125 36.375 
Q 47.125 51.421875 43.28125 58.90625 
Q 39.453125 66.40625 31.78125 66.40625 
z
M 31.78125 74.21875 
Q 44.046875 74.21875 50.515625 64.515625 
Q 56.984375 54.828125 56.984375 36.375 
Q 56.984375 17.96875 50.515625 8.265625 
Q 44.046875 -1.421875 31.78125 -1.421875 
Q 19.53125 -1.421875 13.0625 8.265625 
Q 6.59375 17.96875 6.59375 36.375 
Q 6.59375 54.828125 13.0625 64.515625 
Q 19.53125 74.21875 31.78125 74.21875 
z
" id="DejaVuSans-30"/>
      </defs>
      <g style="fill:#262626;" transform="translate(24.300717 185.981641)scale(0.11 -0.11)">
       <use xlink:href="#DejaVuSans-30"/>
      </g>
     </g>
    </g>
    <g id="ytick_2">
     <g id="line2d_6">
      <path clip-path="url(#pad3f003a53)" d="M 40.799467 146.482748 
L 241.202133 146.482748 
" style="fill:none;stroke:#ffffff;stroke-linecap:round;"/>
     </g>
     <g id="text_2">
      <!-- 5 -->
      <defs>
       <path d="M 10.796875 72.90625 
L 49.515625 72.90625 
L 49.515625 64.59375 
L 19.828125 64.59375 
L 19.828125 46.734375 
Q 21.96875 47.46875 24.109375 47.828125 
Q 26.265625 48.1875 28.421875 48.1875 
Q 40.625 48.1875 47.75 41.5 
Q 54.890625 34.8125 54.890625 23.390625 
Q 54.890625 11.625 47.5625 5.09375 
Q 40.234375 -1.421875 26.90625 -1.421875 
Q 22.3125 -1.421875 17.546875 -0.640625 
Q 12.796875 0.140625 7.71875 1.703125 
L 7.71875 11.625 
Q 12.109375 9.234375 16.796875 8.0625 
Q 21.484375 6.890625 26.703125 6.890625 
Q 35.15625 6.890625 40.078125 11.328125 
Q 45.015625 15.765625 45.015625 23.390625 
Q 45.015625 31 40.078125 35.4375 
Q 35.15625 39.890625 26.703125 39.890625 
Q 22.75 39.890625 18.8125 39.015625 
Q 14.890625 38.140625 10.796875 36.28125 
z
" id="DejaVuSans-35"/>
      </defs>
      <g style="fill:#262626;" transform="translate(24.300717 150.661889)scale(0.11 -0.11)">
       <use xlink:href="#DejaVuSans-35"/>
      </g>
     </g>
    </g>
    <g id="ytick_3">
     <g id="line2d_7">
      <path clip-path="url(#pad3f003a53)" d="M 40.799467 111.162996 
L 241.202133 111.162996 
" style="fill:none;stroke:#ffffff;stroke-linecap:round;"/>
     </g>
     <g id="text_3">
      <!-- 10 -->
      <defs>
       <path d="M 12.40625 8.296875 
L 28.515625 8.296875 
L 28.515625 63.921875 
L 10.984375 60.40625 
L 10.984375 69.390625 
L 28.421875 72.90625 
L 38.28125 72.90625 
L 38.28125 8.296875 
L 54.390625 8.296875 
L 54.390625 0 
L 12.40625 0 
z
" id="DejaVuSans-31"/>
      </defs>
      <g style="fill:#262626;" transform="translate(17.301967 115.342136)scale(0.11 -0.11)">
       <use xlink:href="#DejaVuSans-31"/>
       <use x="63.623047" xlink:href="#DejaVuSans-30"/>
      </g>
     </g>
    </g>
    <g id="ytick_4">
     <g id="line2d_8">
      <path clip-path="url(#pad3f003a53)" d="M 40.799467 75.843244 
L 241.202133 75.843244 
" style="fill:none;stroke:#ffffff;stroke-linecap:round;"/>
     </g>
     <g id="text_4">
      <!-- 15 -->
      <g style="fill:#262626;" transform="translate(17.301967 80.022384)scale(0.11 -0.11)">
       <use xlink:href="#DejaVuSans-31"/>
       <use x="63.623047" xlink:href="#DejaVuSans-35"/>
      </g>
     </g>
    </g>
    <g id="ytick_5">
     <g id="line2d_9">
      <path clip-path="url(#pad3f003a53)" d="M 40.799467 40.523492 
L 241.202133 40.523492 
" style="fill:none;stroke:#ffffff;stroke-linecap:round;"/>
     </g>
     <g id="text_5">
      <!-- 20 -->
      <defs>
       <path d="M 19.1875 8.296875 
L 53.609375 8.296875 
L 53.609375 0 
L 7.328125 0 
L 7.328125 8.296875 
Q 12.9375 14.109375 22.625 23.890625 
Q 32.328125 33.6875 34.8125 36.53125 
Q 39.546875 41.84375 41.421875 45.53125 
Q 43.3125 49.21875 43.3125 52.78125 
Q 43.3125 58.59375 39.234375 62.25 
Q 35.15625 65.921875 28.609375 65.921875 
Q 23.96875 65.921875 18.8125 64.3125 
Q 13.671875 62.703125 7.8125 59.421875 
L 7.8125 69.390625 
Q 13.765625 71.78125 18.9375 73 
Q 24.125 74.21875 28.421875 74.21875 
Q 39.75 74.21875 46.484375 68.546875 
Q 53.21875 62.890625 53.21875 53.421875 
Q 53.21875 48.921875 51.53125 44.890625 
Q 49.859375 40.875 45.40625 35.40625 
Q 44.1875 33.984375 37.640625 27.21875 
Q 31.109375 20.453125 19.1875 8.296875 
z
" id="DejaVuSans-32"/>
      </defs>
      <g style="fill:#262626;" transform="translate(17.301967 44.702632)scale(0.11 -0.11)">
       <use xlink:href="#DejaVuSans-32"/>
       <use x="63.623047" xlink:href="#DejaVuSans-30"/>
      </g>
     </g>
    </g>
   </g>
   <g id="patch_3">
    <path clip-path="url(#pad3f003a53)" d="M 62.483044 181.8025 
L 66.518176 181.8025 
L 66.518176 170.79019 
L 62.483044 170.79019 
z
" style="fill:#4c72b0;opacity:0.4;stroke:#ffffff;stroke-linejoin:miter;"/>
   </g>
   <g id="patch_4">
    <path clip-path="url(#pad3f003a53)" d="M 66.518176 181.8025 
L 70.553308 181.8025 
L 70.553308 168.168211 
L 66.518176 168.168211 
z
" style="fill:#4c72b0;opacity:0.4;stroke:#ffffff;stroke-linejoin:miter;"/>
   </g>
   <g id="patch_5">
    <path clip-path="url(#pad3f003a53)" d="M 70.553308 181.8025 
L 74.588441 181.8025 
L 74.588441 147.192381 
L 70.553308 147.192381 
z
" style="fill:#4c72b0;opacity:0.4;stroke:#ffffff;stroke-linejoin:miter;"/>
   </g>
   <g id="patch_6">
    <path clip-path="url(#pad3f003a53)" d="M 74.588441 181.8025 
L 78.623573 181.8025 
L 78.623573 133.558092 
L 74.588441 133.558092 
z
" style="fill:#4c72b0;opacity:0.4;stroke:#ffffff;stroke-linejoin:miter;"/>
   </g>
   <g id="patch_7">
    <path clip-path="url(#pad3f003a53)" d="M 78.623573 181.8025 
L 82.658706 181.8025 
L 82.658706 137.753258 
L 78.623573 137.753258 
z
" style="fill:#4c72b0;opacity:0.4;stroke:#ffffff;stroke-linejoin:miter;"/>
   </g>
   <g id="patch_8">
    <path clip-path="url(#pad3f003a53)" d="M 82.658706 181.8025 
L 86.693838 181.8025 
L 86.693838 157.1559 
L 82.658706 157.1559 
z
" style="fill:#4c72b0;opacity:0.4;stroke:#ffffff;stroke-linejoin:miter;"/>
   </g>
   <g id="patch_9">
    <path clip-path="url(#pad3f003a53)" d="M 86.693838 181.8025 
L 90.728971 181.8025 
L 90.728971 143.521611 
L 86.693838 143.521611 
z
" style="fill:#4c72b0;opacity:0.4;stroke:#ffffff;stroke-linejoin:miter;"/>
   </g>
   <g id="patch_10">
    <path clip-path="url(#pad3f003a53)" d="M 90.728971 181.8025 
L 94.764103 181.8025 
L 94.764103 152.960734 
L 90.728971 152.960734 
z
" style="fill:#4c72b0;opacity:0.4;stroke:#ffffff;stroke-linejoin:miter;"/>
   </g>
   <g id="patch_11">
    <path clip-path="url(#pad3f003a53)" d="M 94.764103 181.8025 
L 98.799236 181.8025 
L 98.799236 131.460509 
L 94.764103 131.460509 
z
" style="fill:#4c72b0;opacity:0.4;stroke:#ffffff;stroke-linejoin:miter;"/>
   </g>
   <g id="patch_12">
    <path clip-path="url(#pad3f003a53)" d="M 98.799236 181.8025 
L 102.834368 181.8025 
L 102.834368 106.81391 
L 98.799236 106.81391 
z
" style="fill:#4c72b0;opacity:0.4;stroke:#ffffff;stroke-linejoin:miter;"/>
   </g>
   <g id="patch_13">
    <path clip-path="url(#pad3f003a53)" d="M 102.834368 181.8025 
L 106.869501 181.8025 
L 106.869501 117.301824 
L 102.834368 117.301824 
z
" style="fill:#4c72b0;opacity:0.4;stroke:#ffffff;stroke-linejoin:miter;"/>
   </g>
   <g id="patch_14">
    <path clip-path="url(#pad3f003a53)" d="M 106.869501 181.8025 
L 110.904633 181.8025 
L 110.904633 99.472369 
L 106.869501 99.472369 
z
" style="fill:#4c72b0;opacity:0.4;stroke:#ffffff;stroke-linejoin:miter;"/>
   </g>
   <g id="patch_15">
    <path clip-path="url(#pad3f003a53)" d="M 110.904633 181.8025 
L 114.939766 181.8025 
L 114.939766 36.544881 
L 110.904633 36.544881 
z
" style="fill:#4c72b0;opacity:0.4;stroke:#ffffff;stroke-linejoin:miter;"/>
   </g>
   <g id="patch_16">
    <path clip-path="url(#pad3f003a53)" d="M 114.939766 181.8025 
L 118.974898 181.8025 
L 118.974898 141.424028 
L 114.939766 141.424028 
z
" style="fill:#4c72b0;opacity:0.4;stroke:#ffffff;stroke-linejoin:miter;"/>
   </g>
   <g id="patch_17">
    <path clip-path="url(#pad3f003a53)" d="M 118.974898 181.8025 
L 123.010031 181.8025 
L 123.010031 158.729088 
L 118.974898 158.729088 
z
" style="fill:#4c72b0;opacity:0.4;stroke:#ffffff;stroke-linejoin:miter;"/>
   </g>
   <g id="patch_18">
    <path clip-path="url(#pad3f003a53)" d="M 123.010031 181.8025 
L 127.045163 181.8025 
L 127.045163 162.924253 
L 123.010031 162.924253 
z
" style="fill:#4c72b0;opacity:0.4;stroke:#ffffff;stroke-linejoin:miter;"/>
   </g>
   <g id="patch_19">
    <path clip-path="url(#pad3f003a53)" d="M 127.045163 181.8025 
L 131.080296 181.8025 
L 131.080296 165.546232 
L 127.045163 165.546232 
z
" style="fill:#4c72b0;opacity:0.4;stroke:#ffffff;stroke-linejoin:miter;"/>
   </g>
   <g id="patch_20">
    <path clip-path="url(#pad3f003a53)" d="M 131.080296 181.8025 
L 135.115428 181.8025 
L 135.115428 172.363377 
L 131.080296 172.363377 
z
" style="fill:#4c72b0;opacity:0.4;stroke:#ffffff;stroke-linejoin:miter;"/>
   </g>
   <g id="patch_21">
    <path clip-path="url(#pad3f003a53)" d="M 135.115428 181.8025 
L 139.150561 181.8025 
L 139.150561 166.070628 
L 135.115428 166.070628 
z
" style="fill:#4c72b0;opacity:0.4;stroke:#ffffff;stroke-linejoin:miter;"/>
   </g>
   <g id="patch_22">
    <path clip-path="url(#pad3f003a53)" d="M 139.150561 181.8025 
L 143.185693 181.8025 
L 143.185693 163.448649 
L 139.150561 163.448649 
z
" style="fill:#4c72b0;opacity:0.4;stroke:#ffffff;stroke-linejoin:miter;"/>
   </g>
   <g id="patch_23">
    <path clip-path="url(#pad3f003a53)" d="M 143.185693 181.8025 
L 147.220825 181.8025 
L 147.220825 169.217002 
L 143.185693 169.217002 
z
" style="fill:#4c72b0;opacity:0.4;stroke:#ffffff;stroke-linejoin:miter;"/>
   </g>
   <g id="line2d_10">
    <path clip-path="url(#pad3f003a53)" d="M 49.908679 181.784882 
L 51.018644 181.762356 
L 52.128608 181.716774 
L 53.238573 181.630789 
L 54.348538 181.47952 
L 55.458503 181.231159 
L 56.568467 180.850099 
L 57.678432 180.302484 
L 58.788397 179.562538 
L 59.898362 178.616595 
L 61.008326 177.461662 
L 62.118291 176.097326 
L 63.228256 174.513618 
L 64.338221 172.68111 
L 65.448185 170.55059 
L 66.55815 168.066534 
L 67.668115 165.192198 
L 68.77808 161.937715 
L 69.888044 158.379865 
L 70.998009 154.665131 
L 72.107974 150.994693 
L 73.217939 147.597053 
L 74.327904 144.696808 
L 75.437868 142.485741 
L 76.547833 141.097514 
L 77.657798 140.584879 
L 78.767763 140.900993 
L 79.877727 141.892334 
L 80.987692 143.313747 
L 82.097657 144.871206 
L 83.207622 146.285086 
L 84.317586 147.353244 
L 85.427551 147.98812 
L 86.537516 148.210579 
L 87.647481 148.102092 
L 88.757445 147.736253 
L 89.86741 147.120324 
L 90.977375 146.172837 
L 92.08734 144.747071 
L 93.197304 142.690635 
L 94.307269 139.916733 
L 95.417234 136.458195 
L 96.527199 132.481687 
L 97.637164 128.253595 
L 98.747128 124.066028 
L 99.857093 120.145932 
L 100.967058 116.578286 
L 102.077023 113.273047 
L 103.186987 109.994649 
L 104.296952 106.454419 
L 105.406917 102.444566 
L 106.516882 97.973587 
L 107.626846 93.354005 
L 108.736811 89.200162 
L 109.846776 86.318677 
L 110.956741 85.511933 
L 112.066705 87.352317 
L 113.17667 92.00382 
L 114.286635 99.155727 
L 115.3966 108.092234 
L 116.506564 117.870234 
L 117.616529 127.53972 
L 118.726494 136.333904 
L 119.836459 143.778813 
L 120.946424 149.709465 
L 122.056388 154.212683 
L 123.166353 157.532846 
L 124.276318 159.975423 
L 125.386283 161.830875 
L 126.496247 163.32732 
L 127.606212 164.610396 
L 128.716177 165.744349 
L 129.826142 166.727958 
L 130.936106 167.519535 
L 132.046071 168.065516 
L 133.156036 168.327071 
L 134.266001 168.299768 
L 135.375965 168.023255 
L 136.48593 167.580579 
L 137.595895 167.088903 
L 138.70586 166.684255 
L 139.815824 166.502661 
L 140.925789 166.659649 
L 142.035754 167.230554 
L 143.145719 168.235151 
L 144.255684 169.630894 
L 145.365648 171.318145 
L 146.475613 173.157808 
L 147.585578 174.997673 
L 148.695543 176.700555 
L 149.805507 178.166529 
L 150.915472 179.343888 
L 152.025437 180.227608 
L 153.135402 180.848206 
L 154.245366 181.256209 
L 155.355331 181.507399 
L 156.465296 181.652235 
L 157.575261 181.730445 
L 158.685225 181.769991 
L 159.79519 181.788712 
" style="fill:none;stroke:#4c72b0;stroke-linecap:round;stroke-width:1.5;"/>
   </g>
   <g id="patch_24">
    <path d="M 40.799467 181.8025 
L 40.799467 29.282 
" style="fill:none;stroke:#ffffff;stroke-linecap:square;stroke-linejoin:miter;stroke-width:1.25;"/>
   </g>
   <g id="patch_25">
    <path d="M 40.799467 181.8025 
L 241.202133 181.8025 
" style="fill:none;stroke:#ffffff;stroke-linecap:square;stroke-linejoin:miter;stroke-width:1.25;"/>
   </g>
   <g id="text_6">
    <!-- estimate = basalt_traj -->
    <defs>
     <path d="M 56.203125 29.59375 
L 56.203125 25.203125 
L 14.890625 25.203125 
Q 15.484375 15.921875 20.484375 11.0625 
Q 25.484375 6.203125 34.421875 6.203125 
Q 39.59375 6.203125 44.453125 7.46875 
Q 49.3125 8.734375 54.109375 11.28125 
L 54.109375 2.78125 
Q 49.265625 0.734375 44.1875 -0.34375 
Q 39.109375 -1.421875 33.890625 -1.421875 
Q 20.796875 -1.421875 13.15625 6.1875 
Q 5.515625 13.8125 5.515625 26.8125 
Q 5.515625 40.234375 12.765625 48.109375 
Q 20.015625 56 32.328125 56 
Q 43.359375 56 49.78125 48.890625 
Q 56.203125 41.796875 56.203125 29.59375 
z
M 47.21875 32.234375 
Q 47.125 39.59375 43.09375 43.984375 
Q 39.0625 48.390625 32.421875 48.390625 
Q 24.90625 48.390625 20.390625 44.140625 
Q 15.875 39.890625 15.1875 32.171875 
z
" id="DejaVuSans-65"/>
     <path d="M 44.28125 53.078125 
L 44.28125 44.578125 
Q 40.484375 46.53125 36.375 47.5 
Q 32.28125 48.484375 27.875 48.484375 
Q 21.1875 48.484375 17.84375 46.4375 
Q 14.5 44.390625 14.5 40.28125 
Q 14.5 37.15625 16.890625 35.375 
Q 19.28125 33.59375 26.515625 31.984375 
L 29.59375 31.296875 
Q 39.15625 29.25 43.1875 25.515625 
Q 47.21875 21.78125 47.21875 15.09375 
Q 47.21875 7.46875 41.1875 3.015625 
Q 35.15625 -1.421875 24.609375 -1.421875 
Q 20.21875 -1.421875 15.453125 -0.5625 
Q 10.6875 0.296875 5.421875 2 
L 5.421875 11.28125 
Q 10.40625 8.6875 15.234375 7.390625 
Q 20.0625 6.109375 24.8125 6.109375 
Q 31.15625 6.109375 34.5625 8.28125 
Q 37.984375 10.453125 37.984375 14.40625 
Q 37.984375 18.0625 35.515625 20.015625 
Q 33.0625 21.96875 24.703125 23.78125 
L 21.578125 24.515625 
Q 13.234375 26.265625 9.515625 29.90625 
Q 5.8125 33.546875 5.8125 39.890625 
Q 5.8125 47.609375 11.28125 51.796875 
Q 16.75 56 26.8125 56 
Q 31.78125 56 36.171875 55.265625 
Q 40.578125 54.546875 44.28125 53.078125 
z
" id="DejaVuSans-73"/>
     <path d="M 18.3125 70.21875 
L 18.3125 54.6875 
L 36.8125 54.6875 
L 36.8125 47.703125 
L 18.3125 47.703125 
L 18.3125 18.015625 
Q 18.3125 11.328125 20.140625 9.421875 
Q 21.96875 7.515625 27.59375 7.515625 
L 36.8125 7.515625 
L 36.8125 0 
L 27.59375 0 
Q 17.1875 0 13.234375 3.875 
Q 9.28125 7.765625 9.28125 18.015625 
L 9.28125 47.703125 
L 2.6875 47.703125 
L 2.6875 54.6875 
L 9.28125 54.6875 
L 9.28125 70.21875 
z
" id="DejaVuSans-74"/>
     <path d="M 9.421875 54.6875 
L 18.40625 54.6875 
L 18.40625 0 
L 9.421875 0 
z
M 9.421875 75.984375 
L 18.40625 75.984375 
L 18.40625 64.59375 
L 9.421875 64.59375 
z
" id="DejaVuSans-69"/>
     <path d="M 52 44.1875 
Q 55.375 50.25 60.0625 53.125 
Q 64.75 56 71.09375 56 
Q 79.640625 56 84.28125 50.015625 
Q 88.921875 44.046875 88.921875 33.015625 
L 88.921875 0 
L 79.890625 0 
L 79.890625 32.71875 
Q 79.890625 40.578125 77.09375 44.375 
Q 74.3125 48.1875 68.609375 48.1875 
Q 61.625 48.1875 57.5625 43.546875 
Q 53.515625 38.921875 53.515625 30.90625 
L 53.515625 0 
L 44.484375 0 
L 44.484375 32.71875 
Q 44.484375 40.625 41.703125 44.40625 
Q 38.921875 48.1875 33.109375 48.1875 
Q 26.21875 48.1875 22.15625 43.53125 
Q 18.109375 38.875 18.109375 30.90625 
L 18.109375 0 
L 9.078125 0 
L 9.078125 54.6875 
L 18.109375 54.6875 
L 18.109375 46.1875 
Q 21.1875 51.21875 25.484375 53.609375 
Q 29.78125 56 35.6875 56 
Q 41.65625 56 45.828125 52.96875 
Q 50 49.953125 52 44.1875 
z
" id="DejaVuSans-6d"/>
     <path d="M 34.28125 27.484375 
Q 23.390625 27.484375 19.1875 25 
Q 14.984375 22.515625 14.984375 16.5 
Q 14.984375 11.71875 18.140625 8.90625 
Q 21.296875 6.109375 26.703125 6.109375 
Q 34.1875 6.109375 38.703125 11.40625 
Q 43.21875 16.703125 43.21875 25.484375 
L 43.21875 27.484375 
z
M 52.203125 31.203125 
L 52.203125 0 
L 43.21875 0 
L 43.21875 8.296875 
Q 40.140625 3.328125 35.546875 0.953125 
Q 30.953125 -1.421875 24.3125 -1.421875 
Q 15.921875 -1.421875 10.953125 3.296875 
Q 6 8.015625 6 15.921875 
Q 6 25.140625 12.171875 29.828125 
Q 18.359375 34.515625 30.609375 34.515625 
L 43.21875 34.515625 
L 43.21875 35.40625 
Q 43.21875 41.609375 39.140625 45 
Q 35.0625 48.390625 27.6875 48.390625 
Q 23 48.390625 18.546875 47.265625 
Q 14.109375 46.140625 10.015625 43.890625 
L 10.015625 52.203125 
Q 14.9375 54.109375 19.578125 55.046875 
Q 24.21875 56 28.609375 56 
Q 40.484375 56 46.34375 49.84375 
Q 52.203125 43.703125 52.203125 31.203125 
z
" id="DejaVuSans-61"/>
     <path id="DejaVuSans-20"/>
     <path d="M 10.59375 45.40625 
L 73.1875 45.40625 
L 73.1875 37.203125 
L 10.59375 37.203125 
z
M 10.59375 25.484375 
L 73.1875 25.484375 
L 73.1875 17.1875 
L 10.59375 17.1875 
z
" id="DejaVuSans-3d"/>
     <path d="M 48.6875 27.296875 
Q 48.6875 37.203125 44.609375 42.84375 
Q 40.53125 48.484375 33.40625 48.484375 
Q 26.265625 48.484375 22.1875 42.84375 
Q 18.109375 37.203125 18.109375 27.296875 
Q 18.109375 17.390625 22.1875 11.75 
Q 26.265625 6.109375 33.40625 6.109375 
Q 40.53125 6.109375 44.609375 11.75 
Q 48.6875 17.390625 48.6875 27.296875 
z
M 18.109375 46.390625 
Q 20.953125 51.265625 25.265625 53.625 
Q 29.59375 56 35.59375 56 
Q 45.5625 56 51.78125 48.09375 
Q 58.015625 40.1875 58.015625 27.296875 
Q 58.015625 14.40625 51.78125 6.484375 
Q 45.5625 -1.421875 35.59375 -1.421875 
Q 29.59375 -1.421875 25.265625 0.953125 
Q 20.953125 3.328125 18.109375 8.203125 
L 18.109375 0 
L 9.078125 0 
L 9.078125 75.984375 
L 18.109375 75.984375 
z
" id="DejaVuSans-62"/>
     <path d="M 9.421875 75.984375 
L 18.40625 75.984375 
L 18.40625 0 
L 9.421875 0 
z
" id="DejaVuSans-6c"/>
     <path d="M 50.984375 -16.609375 
L 50.984375 -23.578125 
L -0.984375 -23.578125 
L -0.984375 -16.609375 
z
" id="DejaVuSans-5f"/>
     <path d="M 41.109375 46.296875 
Q 39.59375 47.171875 37.8125 47.578125 
Q 36.03125 48 33.890625 48 
Q 26.265625 48 22.1875 43.046875 
Q 18.109375 38.09375 18.109375 28.8125 
L 18.109375 0 
L 9.078125 0 
L 9.078125 54.6875 
L 18.109375 54.6875 
L 18.109375 46.1875 
Q 20.953125 51.171875 25.484375 53.578125 
Q 30.03125 56 36.53125 56 
Q 37.453125 56 38.578125 55.875 
Q 39.703125 55.765625 41.0625 55.515625 
z
" id="DejaVuSans-72"/>
     <path d="M 9.421875 54.6875 
L 18.40625 54.6875 
L 18.40625 -0.984375 
Q 18.40625 -11.421875 14.421875 -16.109375 
Q 10.453125 -20.796875 1.609375 -20.796875 
L -1.8125 -20.796875 
L -1.8125 -13.1875 
L 0.59375 -13.1875 
Q 5.71875 -13.1875 7.5625 -10.8125 
Q 9.421875 -8.453125 9.421875 -0.984375 
z
M 9.421875 75.984375 
L 18.40625 75.984375 
L 18.40625 64.59375 
L 9.421875 64.59375 
z
" id="DejaVuSans-6a"/>
    </defs>
    <g style="fill:#262626;" transform="translate(74.287363 23.282)scale(0.12 -0.12)">
     <use xlink:href="#DejaVuSans-65"/>
     <use x="61.523438" xlink:href="#DejaVuSans-73"/>
     <use x="113.623047" xlink:href="#DejaVuSans-74"/>
     <use x="152.832031" xlink:href="#DejaVuSans-69"/>
     <use x="180.615234" xlink:href="#DejaVuSans-6d"/>
     <use x="278.027344" xlink:href="#DejaVuSans-61"/>
     <use x="339.306641" xlink:href="#DejaVuSans-74"/>
     <use x="378.515625" xlink:href="#DejaVuSans-65"/>
     <use x="440.039062" xlink:href="#DejaVuSans-20"/>
     <use x="471.826172" xlink:href="#DejaVuSans-3d"/>
     <use x="555.615234" xlink:href="#DejaVuSans-20"/>
     <use x="587.402344" xlink:href="#DejaVuSans-62"/>
     <use x="650.878906" xlink:href="#DejaVuSans-61"/>
     <use x="712.158203" xlink:href="#DejaVuSans-73"/>
     <use x="764.257812" xlink:href="#DejaVuSans-61"/>
     <use x="825.537109" xlink:href="#DejaVuSans-6c"/>
     <use x="853.320312" xlink:href="#DejaVuSans-74"/>
     <use x="892.529297" xlink:href="#DejaVuSans-5f"/>
     <use x="942.529297" xlink:href="#DejaVuSans-74"/>
     <use x="981.738281" xlink:href="#DejaVuSans-72"/>
     <use x="1022.851562" xlink:href="#DejaVuSans-61"/>
     <use x="1084.130859" xlink:href="#DejaVuSans-6a"/>
    </g>
   </g>
  </g>
  <g id="axes_2">
   <g id="patch_26">
    <path d="M 265.466133 181.8025 
L 465.8688 181.8025 
L 465.8688 29.282 
L 265.466133 29.282 
z
" style="fill:#eaeaf2;"/>
   </g>
   <g id="matplotlib.axis_3">
    <g id="xtick_5">
     <g id="line2d_11">
      <path clip-path="url(#p8b14a10f70)" d="M 283.755747 181.8025 
L 283.755747 29.282 
" style="fill:none;stroke:#ffffff;stroke-linecap:round;"/>
     </g>
     <g id="text_7">
      <!-- 0.0 -->
      <defs>
       <path d="M 10.6875 12.40625 
L 21 12.40625 
L 21 0 
L 10.6875 0 
z
" id="DejaVuSans-2e"/>
      </defs>
      <g style="fill:#262626;" transform="translate(275.009028 199.660781)scale(0.11 -0.11)">
       <use xlink:href="#DejaVuSans-30"/>
       <use x="63.623047" xlink:href="#DejaVuSans-2e"/>
       <use x="95.410156" xlink:href="#DejaVuSans-30"/>
      </g>
     </g>
    </g>
    <g id="xtick_6">
     <g id="line2d_12">
      <path clip-path="url(#p8b14a10f70)" d="M 330.33577 181.8025 
L 330.33577 29.282 
" style="fill:none;stroke:#ffffff;stroke-linecap:round;"/>
     </g>
     <g id="text_8">
      <!-- 0.1 -->
      <g style="fill:#262626;" transform="translate(321.589051 199.660781)scale(0.11 -0.11)">
       <use xlink:href="#DejaVuSans-30"/>
       <use x="63.623047" xlink:href="#DejaVuSans-2e"/>
       <use x="95.410156" xlink:href="#DejaVuSans-31"/>
      </g>
     </g>
    </g>
    <g id="xtick_7">
     <g id="line2d_13">
      <path clip-path="url(#p8b14a10f70)" d="M 376.915793 181.8025 
L 376.915793 29.282 
" style="fill:none;stroke:#ffffff;stroke-linecap:round;"/>
     </g>
     <g id="text_9">
      <!-- 0.2 -->
      <g style="fill:#262626;" transform="translate(368.169074 199.660781)scale(0.11 -0.11)">
       <use xlink:href="#DejaVuSans-30"/>
       <use x="63.623047" xlink:href="#DejaVuSans-2e"/>
       <use x="95.410156" xlink:href="#DejaVuSans-32"/>
      </g>
     </g>
    </g>
    <g id="xtick_8">
     <g id="line2d_14">
      <path clip-path="url(#p8b14a10f70)" d="M 423.495816 181.8025 
L 423.495816 29.282 
" style="fill:none;stroke:#ffffff;stroke-linecap:round;"/>
     </g>
     <g id="text_10">
      <!-- 0.3 -->
      <defs>
       <path d="M 40.578125 39.3125 
Q 47.65625 37.796875 51.625 33 
Q 55.609375 28.21875 55.609375 21.1875 
Q 55.609375 10.40625 48.1875 4.484375 
Q 40.765625 -1.421875 27.09375 -1.421875 
Q 22.515625 -1.421875 17.65625 -0.515625 
Q 12.796875 0.390625 7.625 2.203125 
L 7.625 11.71875 
Q 11.71875 9.328125 16.59375 8.109375 
Q 21.484375 6.890625 26.8125 6.890625 
Q 36.078125 6.890625 40.9375 10.546875 
Q 45.796875 14.203125 45.796875 21.1875 
Q 45.796875 27.640625 41.28125 31.265625 
Q 36.765625 34.90625 28.71875 34.90625 
L 20.21875 34.90625 
L 20.21875 43.015625 
L 29.109375 43.015625 
Q 36.375 43.015625 40.234375 45.921875 
Q 44.09375 48.828125 44.09375 54.296875 
Q 44.09375 59.90625 40.109375 62.90625 
Q 36.140625 65.921875 28.71875 65.921875 
Q 24.65625 65.921875 20.015625 65.03125 
Q 15.375 64.15625 9.8125 62.3125 
L 9.8125 71.09375 
Q 15.4375 72.65625 20.34375 73.4375 
Q 25.25 74.21875 29.59375 74.21875 
Q 40.828125 74.21875 47.359375 69.109375 
Q 53.90625 64.015625 53.90625 55.328125 
Q 53.90625 49.265625 50.4375 45.09375 
Q 46.96875 40.921875 40.578125 39.3125 
z
" id="DejaVuSans-33"/>
      </defs>
      <g style="fill:#262626;" transform="translate(414.749097 199.660781)scale(0.11 -0.11)">
       <use xlink:href="#DejaVuSans-30"/>
       <use x="63.623047" xlink:href="#DejaVuSans-2e"/>
       <use x="95.410156" xlink:href="#DejaVuSans-33"/>
      </g>
     </g>
    </g>
    <g id="text_11">
     <!-- APE (m) -->
     <defs>
      <path d="M 34.1875 63.1875 
L 20.796875 26.90625 
L 47.609375 26.90625 
z
M 28.609375 72.90625 
L 39.796875 72.90625 
L 67.578125 0 
L 57.328125 0 
L 50.6875 18.703125 
L 17.828125 18.703125 
L 11.1875 0 
L 0.78125 0 
z
" id="DejaVuSans-41"/>
      <path d="M 19.671875 64.796875 
L 19.671875 37.40625 
L 32.078125 37.40625 
Q 38.96875 37.40625 42.71875 40.96875 
Q 46.484375 44.53125 46.484375 51.125 
Q 46.484375 57.671875 42.71875 61.234375 
Q 38.96875 64.796875 32.078125 64.796875 
z
M 9.8125 72.90625 
L 32.078125 72.90625 
Q 44.34375 72.90625 50.609375 67.359375 
Q 56.890625 61.8125 56.890625 51.125 
Q 56.890625 40.328125 50.609375 34.8125 
Q 44.34375 29.296875 32.078125 29.296875 
L 19.671875 29.296875 
L 19.671875 0 
L 9.8125 0 
z
" id="DejaVuSans-50"/>
      <path d="M 9.8125 72.90625 
L 55.90625 72.90625 
L 55.90625 64.59375 
L 19.671875 64.59375 
L 19.671875 43.015625 
L 54.390625 43.015625 
L 54.390625 34.71875 
L 19.671875 34.71875 
L 19.671875 8.296875 
L 56.78125 8.296875 
L 56.78125 0 
L 9.8125 0 
z
" id="DejaVuSans-45"/>
      <path d="M 31 75.875 
Q 24.46875 64.65625 21.28125 53.65625 
Q 18.109375 42.671875 18.109375 31.390625 
Q 18.109375 20.125 21.3125 9.0625 
Q 24.515625 -2 31 -13.1875 
L 23.1875 -13.1875 
Q 15.875 -1.703125 12.234375 9.375 
Q 8.59375 20.453125 8.59375 31.390625 
Q 8.59375 42.28125 12.203125 53.3125 
Q 15.828125 64.359375 23.1875 75.875 
z
" id="DejaVuSans-28"/>
      <path d="M 8.015625 75.875 
L 15.828125 75.875 
Q 23.140625 64.359375 26.78125 53.3125 
Q 30.421875 42.28125 30.421875 31.390625 
Q 30.421875 20.453125 26.78125 9.375 
Q 23.140625 -1.703125 15.828125 -13.1875 
L 8.015625 -13.1875 
Q 14.5 -2 17.703125 9.0625 
Q 20.90625 20.125 20.90625 31.390625 
Q 20.90625 42.671875 17.703125 53.65625 
Q 14.5 64.65625 8.015625 75.875 
z
" id="DejaVuSans-29"/>
     </defs>
     <g style="fill:#262626;" transform="translate(341.720904 215.066563)scale(0.12 -0.12)">
      <use xlink:href="#DejaVuSans-41"/>
      <use x="68.408203" xlink:href="#DejaVuSans-50"/>
      <use x="128.710938" xlink:href="#DejaVuSans-45"/>
      <use x="191.894531" xlink:href="#DejaVuSans-20"/>
      <use x="223.681641" xlink:href="#DejaVuSans-28"/>
      <use x="262.695312" xlink:href="#DejaVuSans-6d"/>
      <use x="360.107422" xlink:href="#DejaVuSans-29"/>
     </g>
    </g>
   </g>
   <g id="matplotlib.axis_4">
    <g id="ytick_6">
     <g id="line2d_15">
      <path clip-path="url(#p8b14a10f70)" d="M 265.466133 181.8025 
L 465.8688 181.8025 
" style="fill:none;stroke:#ffffff;stroke-linecap:round;"/>
     </g>
    </g>
    <g id="ytick_7">
     <g id="line2d_16">
      <path clip-path="url(#p8b14a10f70)" d="M 265.466133 146.482748 
L 465.8688 146.482748 
" style="fill:none;stroke:#ffffff;stroke-linecap:round;"/>
     </g>
    </g>
    <g id="ytick_8">
     <g id="line2d_17">
      <path clip-path="url(#p8b14a10f70)" d="M 265.466133 111.162996 
L 465.8688 111.162996 
" style="fill:none;stroke:#ffffff;stroke-linecap:round;"/>
     </g>
    </g>
    <g id="ytick_9">
     <g id="line2d_18">
      <path clip-path="url(#p8b14a10f70)" d="M 265.466133 75.843244 
L 465.8688 75.843244 
" style="fill:none;stroke:#ffffff;stroke-linecap:round;"/>
     </g>
    </g>
    <g id="ytick_10">
     <g id="line2d_19">
      <path clip-path="url(#p8b14a10f70)" d="M 265.466133 40.523492 
L 465.8688 40.523492 
" style="fill:none;stroke:#ffffff;stroke-linecap:round;"/>
     </g>
    </g>
   </g>
   <g id="patch_27">
    <path clip-path="url(#p8b14a10f70)" d="M 294.244624 181.8025 
L 299.514704 181.8025 
L 299.514704 168.061581 
L 294.244624 168.061581 
z
" style="fill:#4c72b0;opacity:0.4;stroke:#ffffff;stroke-linejoin:miter;"/>
   </g>
   <g id="patch_28">
    <path clip-path="url(#p8b14a10f70)" d="M 299.514704 181.8025 
L 304.784783 181.8025 
L 304.784783 168.920389 
L 299.514704 168.920389 
z
" style="fill:#4c72b0;opacity:0.4;stroke:#ffffff;stroke-linejoin:miter;"/>
   </g>
   <g id="patch_29">
    <path clip-path="url(#p8b14a10f70)" d="M 304.784783 181.8025 
L 310.054862 181.8025 
L 310.054862 163.767544 
L 304.784783 163.767544 
z
" style="fill:#4c72b0;opacity:0.4;stroke:#ffffff;stroke-linejoin:miter;"/>
   </g>
   <g id="patch_30">
    <path clip-path="url(#p8b14a10f70)" d="M 310.054862 181.8025 
L 315.324941 181.8025 
L 315.324941 144.873781 
L 310.054862 144.873781 
z
" style="fill:#4c72b0;opacity:0.4;stroke:#ffffff;stroke-linejoin:miter;"/>
   </g>
   <g id="patch_31">
    <path clip-path="url(#p8b14a10f70)" d="M 315.324941 181.8025 
L 320.59502 181.8025 
L 320.59502 113.097906 
L 315.324941 113.097906 
z
" style="fill:#4c72b0;opacity:0.4;stroke:#ffffff;stroke-linejoin:miter;"/>
   </g>
   <g id="patch_32">
    <path clip-path="url(#p8b14a10f70)" d="M 320.59502 181.8025 
L 325.865099 181.8025 
L 325.865099 107.086254 
L 320.59502 107.086254 
z
" style="fill:#4c72b0;opacity:0.4;stroke:#ffffff;stroke-linejoin:miter;"/>
   </g>
   <g id="patch_33">
    <path clip-path="url(#p8b14a10f70)" d="M 325.865099 181.8025 
L 331.135179 181.8025 
L 331.135179 138.003321 
L 325.865099 138.003321 
z
" style="fill:#4c72b0;opacity:0.4;stroke:#ffffff;stroke-linejoin:miter;"/>
   </g>
   <g id="patch_34">
    <path clip-path="url(#p8b14a10f70)" d="M 331.135179 181.8025 
L 336.405258 181.8025 
L 336.405258 123.403595 
L 331.135179 123.403595 
z
" style="fill:#4c72b0;opacity:0.4;stroke:#ffffff;stroke-linejoin:miter;"/>
   </g>
   <g id="patch_35">
    <path clip-path="url(#p8b14a10f70)" d="M 336.405258 181.8025 
L 341.675337 181.8025 
L 341.675337 133.709284 
L 336.405258 133.709284 
z
" style="fill:#4c72b0;opacity:0.4;stroke:#ffffff;stroke-linejoin:miter;"/>
   </g>
   <g id="patch_36">
    <path clip-path="url(#p8b14a10f70)" d="M 341.675337 181.8025 
L 346.945416 181.8025 
L 346.945416 65.863497 
L 341.675337 65.863497 
z
" style="fill:#4c72b0;opacity:0.4;stroke:#ffffff;stroke-linejoin:miter;"/>
   </g>
   <g id="patch_37">
    <path clip-path="url(#p8b14a10f70)" d="M 346.945416 181.8025 
L 352.215495 181.8025 
L 352.215495 146.591395 
L 346.945416 146.591395 
z
" style="fill:#4c72b0;opacity:0.4;stroke:#ffffff;stroke-linejoin:miter;"/>
   </g>
   <g id="patch_38">
    <path clip-path="url(#p8b14a10f70)" d="M 352.215495 181.8025 
L 357.485574 181.8025 
L 357.485574 168.920389 
L 352.215495 168.920389 
z
" style="fill:#4c72b0;opacity:0.4;stroke:#ffffff;stroke-linejoin:miter;"/>
   </g>
   <g id="patch_39">
    <path clip-path="url(#p8b14a10f70)" d="M 357.485574 181.8025 
L 362.755654 181.8025 
L 362.755654 159.473507 
L 357.485574 159.473507 
z
" style="fill:#4c72b0;opacity:0.4;stroke:#ffffff;stroke-linejoin:miter;"/>
   </g>
   <g id="patch_40">
    <path clip-path="url(#p8b14a10f70)" d="M 362.755654 181.8025 
L 368.025733 181.8025 
L 368.025733 158.614699 
L 362.755654 158.614699 
z
" style="fill:#4c72b0;opacity:0.4;stroke:#ffffff;stroke-linejoin:miter;"/>
   </g>
   <g id="patch_41">
    <path clip-path="url(#p8b14a10f70)" d="M 368.025733 181.8025 
L 373.295812 181.8025 
L 373.295812 158.614699 
L 368.025733 158.614699 
z
" style="fill:#4c72b0;opacity:0.4;stroke:#ffffff;stroke-linejoin:miter;"/>
   </g>
   <g id="patch_42">
    <path clip-path="url(#p8b14a10f70)" d="M 373.295812 181.8025 
L 378.565891 181.8025 
L 378.565891 168.061581 
L 373.295812 168.061581 
z
" style="fill:#4c72b0;opacity:0.4;stroke:#ffffff;stroke-linejoin:miter;"/>
   </g>
   <g id="patch_43">
    <path clip-path="url(#p8b14a10f70)" d="M 378.565891 181.8025 
L 383.83597 181.8025 
L 383.83597 179.226078 
L 378.565891 179.226078 
z
" style="fill:#4c72b0;opacity:0.4;stroke:#ffffff;stroke-linejoin:miter;"/>
   </g>
   <g id="line2d_20">
    <path clip-path="url(#p8b14a10f70)" d="M 279.38905 181.783621 
L 280.594126 181.761585 
L 281.799202 181.718557 
L 283.004277 181.639382 
L 284.209353 181.502109 
L 285.414429 181.277892 
L 286.619505 180.93293 
L 287.82458 180.433096 
L 289.029656 179.751118 
L 290.234732 178.874978 
L 291.439807 177.81506 
L 292.644883 176.607058 
L 293.849959 175.308333 
L 295.055034 173.987259 
L 296.26011 172.707495 
L 297.465186 171.511179 
L 298.670262 170.405707 
L 299.875337 169.357855 
L 301.080413 168.296795 
L 302.285489 167.124999 
L 303.490564 165.733917 
L 304.69564 164.02038 
L 305.900716 161.900021 
L 307.105791 159.315644 
L 308.310867 156.24076 
L 309.515943 152.680602 
L 310.721018 148.673848 
L 311.926094 144.297199 
L 313.13117 139.672175 
L 314.336246 134.970254 
L 315.541321 130.410516 
L 316.746397 126.24482 
L 317.951473 122.729174 
L 319.156548 120.085065 
L 320.361624 118.459064 
L 321.5667 117.890978 
L 322.771775 118.299631 
L 323.976851 119.491245 
L 325.181927 121.189624 
L 326.387003 123.081554 
L 327.592078 124.866392 
L 328.797154 126.297328 
L 330.00223 127.204023 
L 331.207305 127.49238 
L 332.412381 127.125594 
L 333.617457 126.098557 
L 334.822532 124.421467 
L 336.027608 122.125483 
L 337.232684 119.293117 
L 338.437759 116.102186 
L 339.642835 112.860722 
L 340.847911 110.00763 
L 342.052987 108.06345 
L 343.258062 107.534696 
L 344.463138 108.79609 
L 345.668214 111.987876 
L 346.873289 116.963502 
L 348.078365 123.306787 
L 349.283441 130.413989 
L 350.488516 137.615321 
L 351.693592 144.300362 
L 352.898668 150.014876 
L 354.103744 154.509541 
L 355.308819 157.737473 
L 356.513895 159.811498 
L 357.718971 160.940306 
L 358.924046 161.364276 
L 360.129122 161.307655 
L 361.334198 160.95565 
L 362.539273 160.455227 
L 363.744349 159.930118 
L 364.949425 159.496725 
L 366.1545 159.269792 
L 367.359576 159.353822 
L 368.564652 159.824677 
L 369.769728 160.711384 
L 370.974803 161.988106 
L 372.179879 163.581049 
L 373.384955 165.387719 
L 374.59003 167.300571 
L 375.795106 169.226162 
L 377.000182 171.094376 
L 378.205257 172.857659 
L 379.410333 174.484453 
L 380.615409 175.952246 
L 381.820485 177.243912 
L 383.02556 178.347948 
L 384.230636 179.260812 
L 385.435712 179.988821 
L 386.640787 180.547967 
L 387.845863 180.961493 
L 389.050939 181.256203 
L 390.256014 181.458819 
L 391.46109 181.593311 
L 392.666166 181.679511 
L 393.871241 181.732808 
L 395.076317 181.764537 
L 396.281393 181.782675 
L 397.486469 181.792603 
L 398.691544 181.797788 
" style="fill:none;stroke:#4c72b0;stroke-linecap:round;stroke-width:1.5;"/>
   </g>
   <g id="patch_44">
    <path d="M 265.466133 181.8025 
L 265.466133 29.282 
" style="fill:none;stroke:#ffffff;stroke-linecap:square;stroke-linejoin:miter;stroke-width:1.25;"/>
   </g>
   <g id="patch_45">
    <path d="M 265.466133 181.8025 
L 465.8688 181.8025 
" style="fill:none;stroke:#ffffff;stroke-linecap:square;stroke-linejoin:miter;stroke-width:1.25;"/>
   </g>
   <g id="text_12">
    <!-- estimate = DM_SVI_slam_traj -->
    <defs>
     <path d="M 19.671875 64.796875 
L 19.671875 8.109375 
L 31.59375 8.109375 
Q 46.6875 8.109375 53.6875 14.9375 
Q 60.6875 21.78125 60.6875 36.53125 
Q 60.6875 51.171875 53.6875 57.984375 
Q 46.6875 64.796875 31.59375 64.796875 
z
M 9.8125 72.90625 
L 30.078125 72.90625 
Q 51.265625 72.90625 61.171875 64.09375 
Q 71.09375 55.28125 71.09375 36.53125 
Q 71.09375 17.671875 61.125 8.828125 
Q 51.171875 0 30.078125 0 
L 9.8125 0 
z
" id="DejaVuSans-44"/>
     <path d="M 9.8125 72.90625 
L 24.515625 72.90625 
L 43.109375 23.296875 
L 61.8125 72.90625 
L 76.515625 72.90625 
L 76.515625 0 
L 66.890625 0 
L 66.890625 64.015625 
L 48.09375 14.015625 
L 38.1875 14.015625 
L 19.390625 64.015625 
L 19.390625 0 
L 9.8125 0 
z
" id="DejaVuSans-4d"/>
     <path d="M 53.515625 70.515625 
L 53.515625 60.890625 
Q 47.90625 63.578125 42.921875 64.890625 
Q 37.9375 66.21875 33.296875 66.21875 
Q 25.25 66.21875 20.875 63.09375 
Q 16.5 59.96875 16.5 54.203125 
Q 16.5 49.359375 19.40625 46.890625 
Q 22.3125 44.4375 30.421875 42.921875 
L 36.375 41.703125 
Q 47.40625 39.59375 52.65625 34.296875 
Q 57.90625 29 57.90625 20.125 
Q 57.90625 9.515625 50.796875 4.046875 
Q 43.703125 -1.421875 29.984375 -1.421875 
Q 24.8125 -1.421875 18.96875 -0.25 
Q 13.140625 0.921875 6.890625 3.21875 
L 6.890625 13.375 
Q 12.890625 10.015625 18.65625 8.296875 
Q 24.421875 6.59375 29.984375 6.59375 
Q 38.421875 6.59375 43.015625 9.90625 
Q 47.609375 13.234375 47.609375 19.390625 
Q 47.609375 24.75 44.3125 27.78125 
Q 41.015625 30.8125 33.5 32.328125 
L 27.484375 33.5 
Q 16.453125 35.6875 11.515625 40.375 
Q 6.59375 45.0625 6.59375 53.421875 
Q 6.59375 63.09375 13.40625 68.65625 
Q 20.21875 74.21875 32.171875 74.21875 
Q 37.3125 74.21875 42.625 73.28125 
Q 47.953125 72.359375 53.515625 70.515625 
z
" id="DejaVuSans-53"/>
     <path d="M 28.609375 0 
L 0.78125 72.90625 
L 11.078125 72.90625 
L 34.1875 11.53125 
L 57.328125 72.90625 
L 67.578125 72.90625 
L 39.796875 0 
z
" id="DejaVuSans-56"/>
     <path d="M 9.8125 72.90625 
L 19.671875 72.90625 
L 19.671875 0 
L 9.8125 0 
z
" id="DejaVuSans-49"/>
    </defs>
    <g style="fill:#262626;" transform="translate(277.467467 23.282)scale(0.12 -0.12)">
     <use xlink:href="#DejaVuSans-65"/>
     <use x="61.523438" xlink:href="#DejaVuSans-73"/>
     <use x="113.623047" xlink:href="#DejaVuSans-74"/>
     <use x="152.832031" xlink:href="#DejaVuSans-69"/>
     <use x="180.615234" xlink:href="#DejaVuSans-6d"/>
     <use x="278.027344" xlink:href="#DejaVuSans-61"/>
     <use x="339.306641" xlink:href="#DejaVuSans-74"/>
     <use x="378.515625" xlink:href="#DejaVuSans-65"/>
     <use x="440.039062" xlink:href="#DejaVuSans-20"/>
     <use x="471.826172" xlink:href="#DejaVuSans-3d"/>
     <use x="555.615234" xlink:href="#DejaVuSans-20"/>
     <use x="587.402344" xlink:href="#DejaVuSans-44"/>
     <use x="664.404297" xlink:href="#DejaVuSans-4d"/>
     <use x="750.683594" xlink:href="#DejaVuSans-5f"/>
     <use x="800.683594" xlink:href="#DejaVuSans-53"/>
     <use x="864.160156" xlink:href="#DejaVuSans-56"/>
     <use x="932.568359" xlink:href="#DejaVuSans-49"/>
     <use x="962.060547" xlink:href="#DejaVuSans-5f"/>
     <use x="1012.060547" xlink:href="#DejaVuSans-73"/>
     <use x="1064.160156" xlink:href="#DejaVuSans-6c"/>
     <use x="1091.943359" xlink:href="#DejaVuSans-61"/>
     <use x="1153.222656" xlink:href="#DejaVuSans-6d"/>
     <use x="1250.634766" xlink:href="#DejaVuSans-5f"/>
     <use x="1300.634766" xlink:href="#DejaVuSans-74"/>
     <use x="1339.84375" xlink:href="#DejaVuSans-72"/>
     <use x="1380.957031" xlink:href="#DejaVuSans-61"/>
     <use x="1442.236328" xlink:href="#DejaVuSans-6a"/>
    </g>
   </g>
  </g>
  <g id="axes_3">
   <g id="patch_46">
    <path d="M 40.799467 384.9615 
L 241.202133 384.9615 
L 241.202133 232.441 
L 40.799467 232.441 
z
" style="fill:#eaeaf2;"/>
   </g>
   <g id="matplotlib.axis_5">
    <g id="xtick_9">
     <g id="line2d_21">
      <path clip-path="url(#p164564fe8d)" d="M 59.08908 384.9615 
L 59.08908 232.441 
" style="fill:none;stroke:#ffffff;stroke-linecap:round;"/>
     </g>
     <g id="text_13">
      <!-- 0.0 -->
      <g style="fill:#262626;" transform="translate(50.342361 402.819781)scale(0.11 -0.11)">
       <use xlink:href="#DejaVuSans-30"/>
       <use x="63.623047" xlink:href="#DejaVuSans-2e"/>
       <use x="95.410156" xlink:href="#DejaVuSans-30"/>
      </g>
     </g>
    </g>
    <g id="xtick_10">
     <g id="line2d_22">
      <path clip-path="url(#p164564fe8d)" d="M 105.669103 384.9615 
L 105.669103 232.441 
" style="fill:none;stroke:#ffffff;stroke-linecap:round;"/>
     </g>
     <g id="text_14">
      <!-- 0.1 -->
      <g style="fill:#262626;" transform="translate(96.922384 402.819781)scale(0.11 -0.11)">
       <use xlink:href="#DejaVuSans-30"/>
       <use x="63.623047" xlink:href="#DejaVuSans-2e"/>
       <use x="95.410156" xlink:href="#DejaVuSans-31"/>
      </g>
     </g>
    </g>
    <g id="xtick_11">
     <g id="line2d_23">
      <path clip-path="url(#p164564fe8d)" d="M 152.249126 384.9615 
L 152.249126 232.441 
" style="fill:none;stroke:#ffffff;stroke-linecap:round;"/>
     </g>
     <g id="text_15">
      <!-- 0.2 -->
      <g style="fill:#262626;" transform="translate(143.502408 402.819781)scale(0.11 -0.11)">
       <use xlink:href="#DejaVuSans-30"/>
       <use x="63.623047" xlink:href="#DejaVuSans-2e"/>
       <use x="95.410156" xlink:href="#DejaVuSans-32"/>
      </g>
     </g>
    </g>
    <g id="xtick_12">
     <g id="line2d_24">
      <path clip-path="url(#p164564fe8d)" d="M 198.82915 384.9615 
L 198.82915 232.441 
" style="fill:none;stroke:#ffffff;stroke-linecap:round;"/>
     </g>
     <g id="text_16">
      <!-- 0.3 -->
      <g style="fill:#262626;" transform="translate(190.082431 402.819781)scale(0.11 -0.11)">
       <use xlink:href="#DejaVuSans-30"/>
       <use x="63.623047" xlink:href="#DejaVuSans-2e"/>
       <use x="95.410156" xlink:href="#DejaVuSans-33"/>
      </g>
     </g>
    </g>
    <g id="text_17">
     <!-- APE (m) -->
     <g style="fill:#262626;" transform="translate(117.054238 418.225562)scale(0.12 -0.12)">
      <use xlink:href="#DejaVuSans-41"/>
      <use x="68.408203" xlink:href="#DejaVuSans-50"/>
      <use x="128.710938" xlink:href="#DejaVuSans-45"/>
      <use x="191.894531" xlink:href="#DejaVuSans-20"/>
      <use x="223.681641" xlink:href="#DejaVuSans-28"/>
      <use x="262.695312" xlink:href="#DejaVuSans-6d"/>
      <use x="360.107422" xlink:href="#DejaVuSans-29"/>
     </g>
    </g>
   </g>
   <g id="matplotlib.axis_6">
    <g id="ytick_11">
     <g id="line2d_25">
      <path clip-path="url(#p164564fe8d)" d="M 40.799467 384.9615 
L 241.202133 384.9615 
" style="fill:none;stroke:#ffffff;stroke-linecap:round;"/>
     </g>
     <g id="text_18">
      <!-- 0 -->
      <g style="fill:#262626;" transform="translate(24.300717 389.140641)scale(0.11 -0.11)">
       <use xlink:href="#DejaVuSans-30"/>
      </g>
     </g>
    </g>
    <g id="ytick_12">
     <g id="line2d_26">
      <path clip-path="url(#p164564fe8d)" d="M 40.799467 349.641748 
L 241.202133 349.641748 
" style="fill:none;stroke:#ffffff;stroke-linecap:round;"/>
     </g>
     <g id="text_19">
      <!-- 5 -->
      <g style="fill:#262626;" transform="translate(24.300717 353.820889)scale(0.11 -0.11)">
       <use xlink:href="#DejaVuSans-35"/>
      </g>
     </g>
    </g>
    <g id="ytick_13">
     <g id="line2d_27">
      <path clip-path="url(#p164564fe8d)" d="M 40.799467 314.321996 
L 241.202133 314.321996 
" style="fill:none;stroke:#ffffff;stroke-linecap:round;"/>
     </g>
     <g id="text_20">
      <!-- 10 -->
      <g style="fill:#262626;" transform="translate(17.301967 318.501136)scale(0.11 -0.11)">
       <use xlink:href="#DejaVuSans-31"/>
       <use x="63.623047" xlink:href="#DejaVuSans-30"/>
      </g>
     </g>
    </g>
    <g id="ytick_14">
     <g id="line2d_28">
      <path clip-path="url(#p164564fe8d)" d="M 40.799467 279.002244 
L 241.202133 279.002244 
" style="fill:none;stroke:#ffffff;stroke-linecap:round;"/>
     </g>
     <g id="text_21">
      <!-- 15 -->
      <g style="fill:#262626;" transform="translate(17.301967 283.181384)scale(0.11 -0.11)">
       <use xlink:href="#DejaVuSans-31"/>
       <use x="63.623047" xlink:href="#DejaVuSans-35"/>
      </g>
     </g>
    </g>
    <g id="ytick_15">
     <g id="line2d_29">
      <path clip-path="url(#p164564fe8d)" d="M 40.799467 243.682492 
L 241.202133 243.682492 
" style="fill:none;stroke:#ffffff;stroke-linecap:round;"/>
     </g>
     <g id="text_22">
      <!-- 20 -->
      <g style="fill:#262626;" transform="translate(17.301967 247.861632)scale(0.11 -0.11)">
       <use xlink:href="#DejaVuSans-32"/>
       <use x="63.623047" xlink:href="#DejaVuSans-30"/>
      </g>
     </g>
    </g>
   </g>
   <g id="patch_47">
    <path clip-path="url(#p164564fe8d)" d="M 79.339628 384.9615 
L 88.824491 384.9615 
L 88.824491 378.92829 
L 79.339628 378.92829 
z
" style="fill:#4c72b0;opacity:0.4;stroke:#ffffff;stroke-linejoin:miter;"/>
   </g>
   <g id="patch_48">
    <path clip-path="url(#p164564fe8d)" d="M 88.824491 384.9615 
L 98.309354 384.9615 
L 98.309354 353.789915 
L 88.824491 353.789915 
z
" style="fill:#4c72b0;opacity:0.4;stroke:#ffffff;stroke-linejoin:miter;"/>
   </g>
   <g id="patch_49">
    <path clip-path="url(#p164564fe8d)" d="M 98.309354 384.9615 
L 107.794216 384.9615 
L 107.794216 307.535304 
L 98.309354 307.535304 
z
" style="fill:#4c72b0;opacity:0.4;stroke:#ffffff;stroke-linejoin:miter;"/>
   </g>
   <g id="patch_50">
    <path clip-path="url(#p164564fe8d)" d="M 107.794216 384.9615 
L 117.279079 384.9615 
L 117.279079 344.237332 
L 107.794216 344.237332 
z
" style="fill:#4c72b0;opacity:0.4;stroke:#ffffff;stroke-linejoin:miter;"/>
   </g>
   <g id="patch_51">
    <path clip-path="url(#p164564fe8d)" d="M 117.279079 384.9615 
L 126.763942 384.9615 
L 126.763942 350.77331 
L 117.279079 350.77331 
z
" style="fill:#4c72b0;opacity:0.4;stroke:#ffffff;stroke-linejoin:miter;"/>
   </g>
   <g id="patch_52">
    <path clip-path="url(#p164564fe8d)" d="M 126.763942 384.9615 
L 136.248805 384.9615 
L 136.248805 359.320357 
L 126.763942 359.320357 
z
" style="fill:#4c72b0;opacity:0.4;stroke:#ffffff;stroke-linejoin:miter;"/>
   </g>
   <g id="patch_53">
    <path clip-path="url(#p164564fe8d)" d="M 136.248805 384.9615 
L 145.733667 384.9615 
L 145.733667 347.253937 
L 136.248805 347.253937 
z
" style="fill:#4c72b0;opacity:0.4;stroke:#ffffff;stroke-linejoin:miter;"/>
   </g>
   <g id="patch_54">
    <path clip-path="url(#p164564fe8d)" d="M 145.733667 384.9615 
L 155.21853 384.9615 
L 155.21853 329.154307 
L 145.733667 329.154307 
z
" style="fill:#4c72b0;opacity:0.4;stroke:#ffffff;stroke-linejoin:miter;"/>
   </g>
   <g id="patch_55">
    <path clip-path="url(#p164564fe8d)" d="M 155.21853 384.9615 
L 164.703393 384.9615 
L 164.703393 359.823125 
L 155.21853 359.823125 
z
" style="fill:#4c72b0;opacity:0.4;stroke:#ffffff;stroke-linejoin:miter;"/>
   </g>
   <g id="patch_56">
    <path clip-path="url(#p164564fe8d)" d="M 164.703393 384.9615 
L 174.188256 384.9615 
L 174.188256 380.436592 
L 164.703393 380.436592 
z
" style="fill:#4c72b0;opacity:0.4;stroke:#ffffff;stroke-linejoin:miter;"/>
   </g>
   <g id="patch_57">
    <path clip-path="url(#p164564fe8d)" d="M 174.188256 384.9615 
L 183.673118 384.9615 
L 183.673118 382.95043 
L 174.188256 382.95043 
z
" style="fill:#4c72b0;opacity:0.4;stroke:#ffffff;stroke-linejoin:miter;"/>
   </g>
   <g id="patch_58">
    <path clip-path="url(#p164564fe8d)" d="M 183.673118 384.9615 
L 193.157981 384.9615 
L 193.157981 382.95043 
L 183.673118 382.95043 
z
" style="fill:#4c72b0;opacity:0.4;stroke:#ffffff;stroke-linejoin:miter;"/>
   </g>
   <g id="patch_59">
    <path clip-path="url(#p164564fe8d)" d="M 193.157981 384.9615 
L 202.642844 384.9615 
L 202.642844 381.944895 
L 193.157981 381.944895 
z
" style="fill:#4c72b0;opacity:0.4;stroke:#ffffff;stroke-linejoin:miter;"/>
   </g>
   <g id="patch_60">
    <path clip-path="url(#p164564fe8d)" d="M 202.642844 384.9615 
L 212.127707 384.9615 
L 212.127707 383.453197 
L 202.642844 383.453197 
z
" style="fill:#4c72b0;opacity:0.4;stroke:#ffffff;stroke-linejoin:miter;"/>
   </g>
   <g id="line2d_30">
    <path clip-path="url(#p164564fe8d)" d="M 59.374414 384.953092 
L 61.119045 384.942619 
L 62.863676 384.921625 
L 64.608308 384.882187 
L 66.352939 384.812616 
L 68.097571 384.697079 
L 69.842202 384.515761 
L 71.586833 384.245458 
L 73.331465 383.859922 
L 75.076096 383.328888 
L 76.820728 382.614714 
L 78.565359 381.66631 
L 80.30999 380.411683 
L 82.054622 378.752362 
L 83.799253 376.564546 
L 85.543884 373.71166 
L 87.288516 370.070527 
L 89.033147 365.568619 
L 90.777779 360.224471 
L 92.52241 354.179773 
L 94.267041 347.711741 
L 96.011673 341.218355 
L 97.756304 335.175397 
L 99.500936 330.070878 
L 101.245567 326.328135 
L 102.990198 324.23303 
L 104.73483 323.882151 
L 106.479461 325.166011 
L 108.224093 327.792889 
L 109.968724 331.347279 
L 111.713355 335.366727 
L 113.457987 339.41706 
L 115.202618 343.149775 
L 116.947249 346.333631 
L 118.691881 348.860246 
L 120.436512 350.727986 
L 122.181144 352.010345 
L 123.925775 352.816486 
L 125.670406 353.253574 
L 127.415038 353.401038 
L 129.159669 353.303276 
L 130.904301 352.979518 
L 132.648932 352.441304 
L 134.393563 351.704953 
L 136.138195 350.791554 
L 137.882826 349.717651 
L 139.627458 348.4888 
L 141.372089 347.108681 
L 143.11672 345.606866 
L 144.861352 344.074186 
L 146.605983 342.684989 
L 148.350615 341.687449 
L 150.095246 341.356799 
L 151.839877 341.924938 
L 153.584509 343.513144 
L 155.32914 346.094861 
L 157.073771 349.502443 
L 158.818403 353.472333 
L 160.563034 357.707912 
L 162.307666 361.935731 
L 164.052297 365.939234 
L 165.796928 369.567847 
L 167.54156 372.73003 
L 169.286191 375.381704 
L 171.030823 377.517221 
L 172.775454 379.163797 
L 174.520085 380.37637 
L 176.264717 381.229908 
L 178.009348 381.808638 
L 179.75398 382.194133 
L 181.498611 382.455113 
L 183.243242 382.641257 
L 184.987874 382.781943 
L 186.732505 382.88952 
L 188.477136 382.965637 
L 190.221768 383.008586 
L 191.966399 383.019475 
L 193.711031 383.005551 
L 195.455662 382.980071 
L 197.200293 382.959339 
L 198.944925 382.958545 
L 200.689556 382.988275 
L 202.434188 383.053026 
L 204.178819 383.151947 
L 205.92345 383.280961 
L 207.668082 383.434868 
L 209.412713 383.608359 
L 211.157345 383.795727 
L 212.901976 383.989991 
L 214.646607 384.182483 
L 216.391239 384.363538 
L 218.13587 384.524165 
L 219.880501 384.657922 
L 221.625133 384.762128 
L 223.369764 384.837929 
L 225.114396 384.889359 
L 226.859027 384.921888 
L 228.603658 384.941066 
L 230.34829 384.951606 
L 232.092921 384.957007 
" style="fill:none;stroke:#4c72b0;stroke-linecap:round;stroke-width:1.5;"/>
   </g>
   <g id="patch_61">
    <path d="M 40.799467 384.9615 
L 40.799467 232.441 
" style="fill:none;stroke:#ffffff;stroke-linecap:square;stroke-linejoin:miter;stroke-width:1.25;"/>
   </g>
   <g id="patch_62">
    <path d="M 40.799467 384.9615 
L 241.202133 384.9615 
" style="fill:none;stroke:#ffffff;stroke-linecap:square;stroke-linejoin:miter;stroke-width:1.25;"/>
   </g>
   <g id="text_23">
    <!-- estimate = vins_fusion_traj -->
    <defs>
     <path d="M 2.984375 54.6875 
L 12.5 54.6875 
L 29.59375 8.796875 
L 46.6875 54.6875 
L 56.203125 54.6875 
L 35.6875 0 
L 23.484375 0 
z
" id="DejaVuSans-76"/>
     <path d="M 54.890625 33.015625 
L 54.890625 0 
L 45.90625 0 
L 45.90625 32.71875 
Q 45.90625 40.484375 42.875 44.328125 
Q 39.84375 48.1875 33.796875 48.1875 
Q 26.515625 48.1875 22.3125 43.546875 
Q 18.109375 38.921875 18.109375 30.90625 
L 18.109375 0 
L 9.078125 0 
L 9.078125 54.6875 
L 18.109375 54.6875 
L 18.109375 46.1875 
Q 21.34375 51.125 25.703125 53.5625 
Q 30.078125 56 35.796875 56 
Q 45.21875 56 50.046875 50.171875 
Q 54.890625 44.34375 54.890625 33.015625 
z
" id="DejaVuSans-6e"/>
     <path d="M 37.109375 75.984375 
L 37.109375 68.5 
L 28.515625 68.5 
Q 23.6875 68.5 21.796875 66.546875 
Q 19.921875 64.59375 19.921875 59.515625 
L 19.921875 54.6875 
L 34.71875 54.6875 
L 34.71875 47.703125 
L 19.921875 47.703125 
L 19.921875 0 
L 10.890625 0 
L 10.890625 47.703125 
L 2.296875 47.703125 
L 2.296875 54.6875 
L 10.890625 54.6875 
L 10.890625 58.5 
Q 10.890625 67.625 15.140625 71.796875 
Q 19.390625 75.984375 28.609375 75.984375 
z
" id="DejaVuSans-66"/>
     <path d="M 8.5 21.578125 
L 8.5 54.6875 
L 17.484375 54.6875 
L 17.484375 21.921875 
Q 17.484375 14.15625 20.5 10.265625 
Q 23.53125 6.390625 29.59375 6.390625 
Q 36.859375 6.390625 41.078125 11.03125 
Q 45.3125 15.671875 45.3125 23.6875 
L 45.3125 54.6875 
L 54.296875 54.6875 
L 54.296875 0 
L 45.3125 0 
L 45.3125 8.40625 
Q 42.046875 3.421875 37.71875 1 
Q 33.40625 -1.421875 27.6875 -1.421875 
Q 18.265625 -1.421875 13.375 4.4375 
Q 8.5 10.296875 8.5 21.578125 
z
M 31.109375 56 
z
" id="DejaVuSans-75"/>
     <path d="M 30.609375 48.390625 
Q 23.390625 48.390625 19.1875 42.75 
Q 14.984375 37.109375 14.984375 27.296875 
Q 14.984375 17.484375 19.15625 11.84375 
Q 23.34375 6.203125 30.609375 6.203125 
Q 37.796875 6.203125 41.984375 11.859375 
Q 46.1875 17.53125 46.1875 27.296875 
Q 46.1875 37.015625 41.984375 42.703125 
Q 37.796875 48.390625 30.609375 48.390625 
z
M 30.609375 56 
Q 42.328125 56 49.015625 48.375 
Q 55.71875 40.765625 55.71875 27.296875 
Q 55.71875 13.875 49.015625 6.21875 
Q 42.328125 -1.421875 30.609375 -1.421875 
Q 18.84375 -1.421875 12.171875 6.21875 
Q 5.515625 13.875 5.515625 27.296875 
Q 5.515625 40.765625 12.171875 48.375 
Q 18.84375 56 30.609375 56 
z
" id="DejaVuSans-6f"/>
    </defs>
    <g style="fill:#262626;" transform="translate(59.267675 226.441)scale(0.12 -0.12)">
     <use xlink:href="#DejaVuSans-65"/>
     <use x="61.523438" xlink:href="#DejaVuSans-73"/>
     <use x="113.623047" xlink:href="#DejaVuSans-74"/>
     <use x="152.832031" xlink:href="#DejaVuSans-69"/>
     <use x="180.615234" xlink:href="#DejaVuSans-6d"/>
     <use x="278.027344" xlink:href="#DejaVuSans-61"/>
     <use x="339.306641" xlink:href="#DejaVuSans-74"/>
     <use x="378.515625" xlink:href="#DejaVuSans-65"/>
     <use x="440.039062" xlink:href="#DejaVuSans-20"/>
     <use x="471.826172" xlink:href="#DejaVuSans-3d"/>
     <use x="555.615234" xlink:href="#DejaVuSans-20"/>
     <use x="587.402344" xlink:href="#DejaVuSans-76"/>
     <use x="646.582031" xlink:href="#DejaVuSans-69"/>
     <use x="674.365234" xlink:href="#DejaVuSans-6e"/>
     <use x="737.744141" xlink:href="#DejaVuSans-73"/>
     <use x="789.84375" xlink:href="#DejaVuSans-5f"/>
     <use x="839.84375" xlink:href="#DejaVuSans-66"/>
     <use x="875.048828" xlink:href="#DejaVuSans-75"/>
     <use x="938.427734" xlink:href="#DejaVuSans-73"/>
     <use x="990.527344" xlink:href="#DejaVuSans-69"/>
     <use x="1018.310547" xlink:href="#DejaVuSans-6f"/>
     <use x="1079.492188" xlink:href="#DejaVuSans-6e"/>
     <use x="1142.871094" xlink:href="#DejaVuSans-5f"/>
     <use x="1192.871094" xlink:href="#DejaVuSans-74"/>
     <use x="1232.080078" xlink:href="#DejaVuSans-72"/>
     <use x="1273.193359" xlink:href="#DejaVuSans-61"/>
     <use x="1334.472656" xlink:href="#DejaVuSans-6a"/>
    </g>
   </g>
  </g>
 </g>
 <defs>
  <clipPath id="pad3f003a53">
   <rect height="152.5205" width="200.402667" x="40.799467" y="29.282"/>
  </clipPath>
  <clipPath id="p8b14a10f70">
   <rect height="152.5205" width="200.402667" x="265.466133" y="29.282"/>
  </clipPath>
  <clipPath id="p164564fe8d">
   <rect height="152.5205" width="200.402667" x="40.799467" y="232.441"/>
  </clipPath>
 </defs>
</svg>
