<?xml version="1.0" encoding="utf-8" standalone="no"?>
<!DOCTYPE svg PUBLIC "-//W3C//DTD SVG 1.1//EN"
  "http://www.w3.org/Graphics/SVG/1.1/DTD/svg11.dtd">
<!-- Created with matplotlib (http://matplotlib.org/) -->
<svg height="435.6pt" version="1.1" viewBox="0 0 485.28 435.6" width="485.28pt" xmlns="http://www.w3.org/2000/svg" xmlns:xlink="http://www.w3.org/1999/xlink">
 <defs>
  <style type="text/css">
*{stroke-linecap:butt;stroke-linejoin:round;}
  </style>
 </defs>
 <g id="figure_1">
  <g id="patch_1">
   <path d="M 0 435.6 
L 485.28 435.6 
L 485.28 0 
L 0 0 
z
" style="fill:#ffffff;"/>
  </g>
  <g id="axes_1">
   <g id="patch_2">
    <path d="M 71.6799 383.5095 
L 465.8688 383.5095 
L 465.8688 44.3828 
L 71.6799 44.3828 
z
" style="fill:#eaeaf2;"/>
   </g>
   <g id="matplotlib.axis_1">
    <g id="xtick_1">
     <g id="line2d_1">
      <path clip-path="url(#p736e1644a5)" d="M 73.356696 383.5095 
L 73.356696 44.3828 
" style="fill:none;stroke:#ffffff;stroke-linecap:round;"/>
     </g>
     <g id="text_1">
      <!-- 5.2 -->
      <defs>
       <path d="M 10.796875 72.90625 
L 49.515625 72.90625 
L 49.515625 64.59375 
L 19.828125 64.59375 
L 19.828125 46.734375 
Q 21.96875 47.46875 24.109375 47.828125 
Q 26.265625 48.1875 28.421875 48.1875 
Q 40.625 48.1875 47.75 41.5 
Q 54.890625 34.8125 54.890625 23.390625 
Q 54.890625 11.625 47.5625 5.09375 
Q 40.234375 -1.421875 26.90625 -1.421875 
Q 22.3125 -1.421875 17.546875 -0.640625 
Q 12.796875 0.140625 7.71875 1.703125 
L 7.71875 11.625 
Q 12.109375 9.234375 16.796875 8.0625 
Q 21.484375 6.890625 26.703125 6.890625 
Q 35.15625 6.890625 40.078125 11.328125 
Q 45.015625 15.765625 45.015625 23.390625 
Q 45.015625 31 40.078125 35.4375 
Q 35.15625 39.890625 26.703125 39.890625 
Q 22.75 39.890625 18.8125 39.015625 
Q 14.890625 38.140625 10.796875 36.28125 
z
" id="DejaVuSans-35"/>
       <path d="M 10.6875 12.40625 
L 21 12.40625 
L 21 0 
L 10.6875 0 
z
" id="DejaVuSans-2e"/>
       <path d="M 19.1875 8.296875 
L 53.609375 8.296875 
L 53.609375 0 
L 7.328125 0 
L 7.328125 8.296875 
Q 12.9375 14.109375 22.625 23.890625 
Q 32.328125 33.6875 34.8125 36.53125 
Q 39.546875 41.84375 41.421875 45.53125 
Q 43.3125 49.21875 43.3125 52.78125 
Q 43.3125 58.59375 39.234375 62.25 
Q 35.15625 65.921875 28.609375 65.921875 
Q 23.96875 65.921875 18.8125 64.3125 
Q 13.671875 62.703125 7.8125 59.421875 
L 7.8125 69.390625 
Q 13.765625 71.78125 18.9375 73 
Q 24.125 74.21875 28.421875 74.21875 
Q 39.75 74.21875 46.484375 68.546875 
Q 53.21875 62.890625 53.21875 53.421875 
Q 53.21875 48.921875 51.53125 44.890625 
Q 49.859375 40.875 45.40625 35.40625 
Q 44.1875 33.984375 37.640625 27.21875 
Q 31.109375 20.453125 19.1875 8.296875 
z
" id="DejaVuSans-32"/>
      </defs>
      <g style="fill:#262626;" transform="translate(64.609977 401.367781)scale(0.11 -0.11)">
       <use xlink:href="#DejaVuSans-35"/>
       <use x="63.623047" xlink:href="#DejaVuSans-2e"/>
       <use x="95.410156" xlink:href="#DejaVuSans-32"/>
      </g>
     </g>
    </g>
    <g id="xtick_2">
     <g id="line2d_2">
      <path clip-path="url(#p736e1644a5)" d="M 144.381723 383.5095 
L 144.381723 44.3828 
" style="fill:none;stroke:#ffffff;stroke-linecap:round;"/>
     </g>
     <g id="text_2">
      <!-- 5.4 -->
      <defs>
       <path d="M 37.796875 64.3125 
L 12.890625 25.390625 
L 37.796875 25.390625 
z
M 35.203125 72.90625 
L 47.609375 72.90625 
L 47.609375 25.390625 
L 58.015625 25.390625 
L 58.015625 17.1875 
L 47.609375 17.1875 
L 47.609375 0 
L 37.796875 0 
L 37.796875 17.1875 
L 4.890625 17.1875 
L 4.890625 26.703125 
z
" id="DejaVuSans-34"/>
      </defs>
      <g style="fill:#262626;" transform="translate(135.635005 401.367781)scale(0.11 -0.11)">
       <use xlink:href="#DejaVuSans-35"/>
       <use x="63.623047" xlink:href="#DejaVuSans-2e"/>
       <use x="95.410156" xlink:href="#DejaVuSans-34"/>
      </g>
     </g>
    </g>
    <g id="xtick_3">
     <g id="line2d_3">
      <path clip-path="url(#p736e1644a5)" d="M 215.406751 383.5095 
L 215.406751 44.3828 
" style="fill:none;stroke:#ffffff;stroke-linecap:round;"/>
     </g>
     <g id="text_3">
      <!-- 5.6 -->
      <defs>
       <path d="M 33.015625 40.375 
Q 26.375 40.375 22.484375 35.828125 
Q 18.609375 31.296875 18.609375 23.390625 
Q 18.609375 15.53125 22.484375 10.953125 
Q 26.375 6.390625 33.015625 6.390625 
Q 39.65625 6.390625 43.53125 10.953125 
Q 47.40625 15.53125 47.40625 23.390625 
Q 47.40625 31.296875 43.53125 35.828125 
Q 39.65625 40.375 33.015625 40.375 
z
M 52.59375 71.296875 
L 52.59375 62.3125 
Q 48.875 64.0625 45.09375 64.984375 
Q 41.3125 65.921875 37.59375 65.921875 
Q 27.828125 65.921875 22.671875 59.328125 
Q 17.53125 52.734375 16.796875 39.40625 
Q 19.671875 43.65625 24.015625 45.921875 
Q 28.375 48.1875 33.59375 48.1875 
Q 44.578125 48.1875 50.953125 41.515625 
Q 57.328125 34.859375 57.328125 23.390625 
Q 57.328125 12.15625 50.6875 5.359375 
Q 44.046875 -1.421875 33.015625 -1.421875 
Q 20.359375 -1.421875 13.671875 8.265625 
Q 6.984375 17.96875 6.984375 36.375 
Q 6.984375 53.65625 15.1875 63.9375 
Q 23.390625 74.21875 37.203125 74.21875 
Q 40.921875 74.21875 44.703125 73.484375 
Q 48.484375 72.75 52.59375 71.296875 
z
" id="DejaVuSans-36"/>
      </defs>
      <g style="fill:#262626;" transform="translate(206.660032 401.367781)scale(0.11 -0.11)">
       <use xlink:href="#DejaVuSans-35"/>
       <use x="63.623047" xlink:href="#DejaVuSans-2e"/>
       <use x="95.410156" xlink:href="#DejaVuSans-36"/>
      </g>
     </g>
    </g>
    <g id="xtick_4">
     <g id="line2d_4">
      <path clip-path="url(#p736e1644a5)" d="M 286.431777 383.5095 
L 286.431777 44.3828 
" style="fill:none;stroke:#ffffff;stroke-linecap:round;"/>
     </g>
     <g id="text_4">
      <!-- 5.8 -->
      <defs>
       <path d="M 31.78125 34.625 
Q 24.75 34.625 20.71875 30.859375 
Q 16.703125 27.09375 16.703125 20.515625 
Q 16.703125 13.921875 20.71875 10.15625 
Q 24.75 6.390625 31.78125 6.390625 
Q 38.8125 6.390625 42.859375 10.171875 
Q 46.921875 13.96875 46.921875 20.515625 
Q 46.921875 27.09375 42.890625 30.859375 
Q 38.875 34.625 31.78125 34.625 
z
M 21.921875 38.8125 
Q 15.578125 40.375 12.03125 44.71875 
Q 8.5 49.078125 8.5 55.328125 
Q 8.5 64.0625 14.71875 69.140625 
Q 20.953125 74.21875 31.78125 74.21875 
Q 42.671875 74.21875 48.875 69.140625 
Q 55.078125 64.0625 55.078125 55.328125 
Q 55.078125 49.078125 51.53125 44.71875 
Q 48 40.375 41.703125 38.8125 
Q 48.828125 37.15625 52.796875 32.3125 
Q 56.78125 27.484375 56.78125 20.515625 
Q 56.78125 9.90625 50.3125 4.234375 
Q 43.84375 -1.421875 31.78125 -1.421875 
Q 19.734375 -1.421875 13.25 4.234375 
Q 6.78125 9.90625 6.78125 20.515625 
Q 6.78125 27.484375 10.78125 32.3125 
Q 14.796875 37.15625 21.921875 38.8125 
z
M 18.3125 54.390625 
Q 18.3125 48.734375 21.84375 45.5625 
Q 25.390625 42.390625 31.78125 42.390625 
Q 38.140625 42.390625 41.71875 45.5625 
Q 45.3125 48.734375 45.3125 54.390625 
Q 45.3125 60.0625 41.71875 63.234375 
Q 38.140625 66.40625 31.78125 66.40625 
Q 25.390625 66.40625 21.84375 63.234375 
Q 18.3125 60.0625 18.3125 54.390625 
z
" id="DejaVuSans-38"/>
      </defs>
      <g style="fill:#262626;" transform="translate(277.685058 401.367781)scale(0.11 -0.11)">
       <use xlink:href="#DejaVuSans-35"/>
       <use x="63.623047" xlink:href="#DejaVuSans-2e"/>
       <use x="95.410156" xlink:href="#DejaVuSans-38"/>
      </g>
     </g>
    </g>
    <g id="xtick_5">
     <g id="line2d_5">
      <path clip-path="url(#p736e1644a5)" d="M 357.456804 383.5095 
L 357.456804 44.3828 
" style="fill:none;stroke:#ffffff;stroke-linecap:round;"/>
     </g>
     <g id="text_5">
      <!-- 6.0 -->
      <defs>
       <path d="M 31.78125 66.40625 
Q 24.171875 66.40625 20.328125 58.90625 
Q 16.5 51.421875 16.5 36.375 
Q 16.5 21.390625 20.328125 13.890625 
Q 24.171875 6.390625 31.78125 6.390625 
Q 39.453125 6.390625 43.28125 13.890625 
Q 47.125 21.390625 47.125 36.375 
Q 47.125 51.421875 43.28125 58.90625 
Q 39.453125 66.40625 31.78125 66.40625 
z
M 31.78125 74.21875 
Q 44.046875 74.21875 50.515625 64.515625 
Q 56.984375 54.828125 56.984375 36.375 
Q 56.984375 17.96875 50.515625 8.265625 
Q 44.046875 -1.421875 31.78125 -1.421875 
Q 19.53125 -1.421875 13.0625 8.265625 
Q 6.59375 17.96875 6.59375 36.375 
Q 6.59375 54.828125 13.0625 64.515625 
Q 19.53125 74.21875 31.78125 74.21875 
z
" id="DejaVuSans-30"/>
      </defs>
      <g style="fill:#262626;" transform="translate(348.710086 401.367781)scale(0.11 -0.11)">
       <use xlink:href="#DejaVuSans-36"/>
       <use x="63.623047" xlink:href="#DejaVuSans-2e"/>
       <use x="95.410156" xlink:href="#DejaVuSans-30"/>
      </g>
     </g>
    </g>
    <g id="xtick_6">
     <g id="line2d_6">
      <path clip-path="url(#p736e1644a5)" d="M 428.481832 383.5095 
L 428.481832 44.3828 
" style="fill:none;stroke:#ffffff;stroke-linecap:round;"/>
     </g>
     <g id="text_6">
      <!-- 6.2 -->
      <g style="fill:#262626;" transform="translate(419.735113 401.367781)scale(0.11 -0.11)">
       <use xlink:href="#DejaVuSans-36"/>
       <use x="63.623047" xlink:href="#DejaVuSans-2e"/>
       <use x="95.410156" xlink:href="#DejaVuSans-32"/>
      </g>
     </g>
    </g>
    <g id="text_7">
     <!-- $t$ (s) -->
     <defs>
      <path d="M 42.28125 54.6875 
L 40.921875 47.703125 
L 23 47.703125 
L 17.1875 18.015625 
Q 16.890625 16.359375 16.75 15.234375 
Q 16.609375 14.109375 16.609375 13.484375 
Q 16.609375 10.359375 18.484375 8.9375 
Q 20.359375 7.515625 24.515625 7.515625 
L 33.59375 7.515625 
L 32.078125 0 
L 23.484375 0 
Q 15.484375 0 11.546875 3.125 
Q 7.625 6.25 7.625 12.59375 
Q 7.625 13.71875 7.765625 15.0625 
Q 7.90625 16.40625 8.203125 18.015625 
L 14.015625 47.703125 
L 6.390625 47.703125 
L 7.8125 54.6875 
L 15.28125 54.6875 
L 18.3125 70.21875 
L 27.296875 70.21875 
L 24.3125 54.6875 
z
" id="DejaVuSans-Oblique-74"/>
      <path id="DejaVuSans-20"/>
      <path d="M 31 75.875 
Q 24.46875 64.65625 21.28125 53.65625 
Q 18.109375 42.671875 18.109375 31.390625 
Q 18.109375 20.125 21.3125 9.0625 
Q 24.515625 -2 31 -13.1875 
L 23.1875 -13.1875 
Q 15.875 -1.703125 12.234375 9.375 
Q 8.59375 20.453125 8.59375 31.390625 
Q 8.59375 42.28125 12.203125 53.3125 
Q 15.828125 64.359375 23.1875 75.875 
z
" id="DejaVuSans-28"/>
      <path d="M 44.28125 53.078125 
L 44.28125 44.578125 
Q 40.484375 46.53125 36.375 47.5 
Q 32.28125 48.484375 27.875 48.484375 
Q 21.1875 48.484375 17.84375 46.4375 
Q 14.5 44.390625 14.5 40.28125 
Q 14.5 37.15625 16.890625 35.375 
Q 19.28125 33.59375 26.515625 31.984375 
L 29.59375 31.296875 
Q 39.15625 29.25 43.1875 25.515625 
Q 47.21875 21.78125 47.21875 15.09375 
Q 47.21875 7.46875 41.1875 3.015625 
Q 35.15625 -1.421875 24.609375 -1.421875 
Q 20.21875 -1.421875 15.453125 -0.5625 
Q 10.6875 0.296875 5.421875 2 
L 5.421875 11.28125 
Q 10.40625 8.6875 15.234375 7.390625 
Q 20.0625 6.109375 24.8125 6.109375 
Q 31.15625 6.109375 34.5625 8.28125 
Q 37.984375 10.453125 37.984375 14.40625 
Q 37.984375 18.0625 35.515625 20.015625 
Q 33.0625 21.96875 24.703125 23.78125 
L 21.578125 24.515625 
Q 13.234375 26.265625 9.515625 29.90625 
Q 5.8125 33.546875 5.8125 39.890625 
Q 5.8125 47.609375 11.28125 51.796875 
Q 16.75 56 26.8125 56 
Q 31.78125 56 36.171875 55.265625 
Q 40.578125 54.546875 44.28125 53.078125 
z
" id="DejaVuSans-73"/>
      <path d="M 8.015625 75.875 
L 15.828125 75.875 
Q 23.140625 64.359375 26.78125 53.3125 
Q 30.421875 42.28125 30.421875 31.390625 
Q 30.421875 20.453125 26.78125 9.375 
Q 23.140625 -1.703125 15.828125 -13.1875 
L 8.015625 -13.1875 
Q 14.5 -2 17.703125 9.0625 
Q 20.90625 20.125 20.90625 31.390625 
Q 20.90625 42.671875 17.703125 53.65625 
Q 14.5 64.65625 8.015625 75.875 
z
" id="DejaVuSans-29"/>
     </defs>
     <g style="fill:#262626;" transform="translate(256.65435 416.773562)scale(0.12 -0.12)">
      <use transform="translate(0 0.125)" xlink:href="#DejaVuSans-Oblique-74"/>
      <use transform="translate(39.208984 0.125)" xlink:href="#DejaVuSans-20"/>
      <use transform="translate(70.996094 0.125)" xlink:href="#DejaVuSans-28"/>
      <use transform="translate(110.009766 0.125)" xlink:href="#DejaVuSans-73"/>
      <use transform="translate(162.109375 0.125)" xlink:href="#DejaVuSans-29"/>
     </g>
    </g>
    <g id="text_8">
     <!-- 1e11+1.403638e18 -->
     <defs>
      <path d="M 12.40625 8.296875 
L 28.515625 8.296875 
L 28.515625 63.921875 
L 10.984375 60.40625 
L 10.984375 69.390625 
L 28.421875 72.90625 
L 38.28125 72.90625 
L 38.28125 8.296875 
L 54.390625 8.296875 
L 54.390625 0 
L 12.40625 0 
z
" id="DejaVuSans-31"/>
      <path d="M 56.203125 29.59375 
L 56.203125 25.203125 
L 14.890625 25.203125 
Q 15.484375 15.921875 20.484375 11.0625 
Q 25.484375 6.203125 34.421875 6.203125 
Q 39.59375 6.203125 44.453125 7.46875 
Q 49.3125 8.734375 54.109375 11.28125 
L 54.109375 2.78125 
Q 49.265625 0.734375 44.1875 -0.34375 
Q 39.109375 -1.421875 33.890625 -1.421875 
Q 20.796875 -1.421875 13.15625 6.1875 
Q 5.515625 13.8125 5.515625 26.8125 
Q 5.515625 40.234375 12.765625 48.109375 
Q 20.015625 56 32.328125 56 
Q 43.359375 56 49.78125 48.890625 
Q 56.203125 41.796875 56.203125 29.59375 
z
M 47.21875 32.234375 
Q 47.125 39.59375 43.09375 43.984375 
Q 39.0625 48.390625 32.421875 48.390625 
Q 24.90625 48.390625 20.390625 44.140625 
Q 15.875 39.890625 15.1875 32.171875 
z
" id="DejaVuSans-65"/>
      <path d="M 46 62.703125 
L 46 35.5 
L 73.1875 35.5 
L 73.1875 27.203125 
L 46 27.203125 
L 46 0 
L 37.796875 0 
L 37.796875 27.203125 
L 10.59375 27.203125 
L 10.59375 35.5 
L 37.796875 35.5 
L 37.796875 62.703125 
z
" id="DejaVuSans-2b"/>
      <path d="M 40.578125 39.3125 
Q 47.65625 37.796875 51.625 33 
Q 55.609375 28.21875 55.609375 21.1875 
Q 55.609375 10.40625 48.1875 4.484375 
Q 40.765625 -1.421875 27.09375 -1.421875 
Q 22.515625 -1.421875 17.65625 -0.515625 
Q 12.796875 0.390625 7.625 2.203125 
L 7.625 11.71875 
Q 11.71875 9.328125 16.59375 8.109375 
Q 21.484375 6.890625 26.8125 6.890625 
Q 36.078125 6.890625 40.9375 10.546875 
Q 45.796875 14.203125 45.796875 21.1875 
Q 45.796875 27.640625 41.28125 31.265625 
Q 36.765625 34.90625 28.71875 34.90625 
L 20.21875 34.90625 
L 20.21875 43.015625 
L 29.109375 43.015625 
Q 36.375 43.015625 40.234375 45.921875 
Q 44.09375 48.828125 44.09375 54.296875 
Q 44.09375 59.90625 40.109375 62.90625 
Q 36.140625 65.921875 28.71875 65.921875 
Q 24.65625 65.921875 20.015625 65.03125 
Q 15.375 64.15625 9.8125 62.3125 
L 9.8125 71.09375 
Q 15.4375 72.65625 20.34375 73.4375 
Q 25.25 74.21875 29.59375 74.21875 
Q 40.828125 74.21875 47.359375 69.109375 
Q 53.90625 64.015625 53.90625 55.328125 
Q 53.90625 49.265625 50.4375 45.09375 
Q 46.96875 40.921875 40.578125 39.3125 
z
" id="DejaVuSans-33"/>
     </defs>
     <g style="fill:#262626;" transform="translate(355.633331 415.013719)scale(0.11 -0.11)">
      <use xlink:href="#DejaVuSans-31"/>
      <use x="63.623047" xlink:href="#DejaVuSans-65"/>
      <use x="125.146484" xlink:href="#DejaVuSans-31"/>
      <use x="188.769531" xlink:href="#DejaVuSans-31"/>
      <use x="252.392578" xlink:href="#DejaVuSans-2b"/>
      <use x="336.181641" xlink:href="#DejaVuSans-31"/>
      <use x="399.804688" xlink:href="#DejaVuSans-2e"/>
      <use x="431.591797" xlink:href="#DejaVuSans-34"/>
      <use x="495.214844" xlink:href="#DejaVuSans-30"/>
      <use x="558.837891" xlink:href="#DejaVuSans-33"/>
      <use x="622.460938" xlink:href="#DejaVuSans-36"/>
      <use x="686.083984" xlink:href="#DejaVuSans-33"/>
      <use x="749.707031" xlink:href="#DejaVuSans-38"/>
      <use x="813.330078" xlink:href="#DejaVuSans-65"/>
      <use x="874.853516" xlink:href="#DejaVuSans-31"/>
      <use x="938.476562" xlink:href="#DejaVuSans-38"/>
     </g>
    </g>
   </g>
   <g id="matplotlib.axis_2">
    <g id="ytick_1">
     <g id="line2d_7">
      <path clip-path="url(#p736e1644a5)" d="M 71.6799 375.086873 
L 465.8688 375.086873 
" style="fill:none;stroke:#ffffff;stroke-linecap:round;"/>
     </g>
     <g id="text_9">
      <!-- 0.00 -->
      <g style="fill:#262626;" transform="translate(37.687713 379.266013)scale(0.11 -0.11)">
       <use xlink:href="#DejaVuSans-30"/>
       <use x="63.623047" xlink:href="#DejaVuSans-2e"/>
       <use x="95.410156" xlink:href="#DejaVuSans-30"/>
       <use x="159.033203" xlink:href="#DejaVuSans-30"/>
      </g>
     </g>
    </g>
    <g id="ytick_2">
     <g id="line2d_8">
      <path clip-path="url(#p736e1644a5)" d="M 71.6799 327.104936 
L 465.8688 327.104936 
" style="fill:none;stroke:#ffffff;stroke-linecap:round;"/>
     </g>
     <g id="text_10">
      <!-- 0.05 -->
      <g style="fill:#262626;" transform="translate(37.687713 331.284077)scale(0.11 -0.11)">
       <use xlink:href="#DejaVuSans-30"/>
       <use x="63.623047" xlink:href="#DejaVuSans-2e"/>
       <use x="95.410156" xlink:href="#DejaVuSans-30"/>
       <use x="159.033203" xlink:href="#DejaVuSans-35"/>
      </g>
     </g>
    </g>
    <g id="ytick_3">
     <g id="line2d_9">
      <path clip-path="url(#p736e1644a5)" d="M 71.6799 279.123 
L 465.8688 279.123 
" style="fill:none;stroke:#ffffff;stroke-linecap:round;"/>
     </g>
     <g id="text_11">
      <!-- 0.10 -->
      <g style="fill:#262626;" transform="translate(37.687713 283.30214)scale(0.11 -0.11)">
       <use xlink:href="#DejaVuSans-30"/>
       <use x="63.623047" xlink:href="#DejaVuSans-2e"/>
       <use x="95.410156" xlink:href="#DejaVuSans-31"/>
       <use x="159.033203" xlink:href="#DejaVuSans-30"/>
      </g>
     </g>
    </g>
    <g id="ytick_4">
     <g id="line2d_10">
      <path clip-path="url(#p736e1644a5)" d="M 71.6799 231.141063 
L 465.8688 231.141063 
" style="fill:none;stroke:#ffffff;stroke-linecap:round;"/>
     </g>
     <g id="text_12">
      <!-- 0.15 -->
      <g style="fill:#262626;" transform="translate(37.687713 235.320204)scale(0.11 -0.11)">
       <use xlink:href="#DejaVuSans-30"/>
       <use x="63.623047" xlink:href="#DejaVuSans-2e"/>
       <use x="95.410156" xlink:href="#DejaVuSans-31"/>
       <use x="159.033203" xlink:href="#DejaVuSans-35"/>
      </g>
     </g>
    </g>
    <g id="ytick_5">
     <g id="line2d_11">
      <path clip-path="url(#p736e1644a5)" d="M 71.6799 183.159127 
L 465.8688 183.159127 
" style="fill:none;stroke:#ffffff;stroke-linecap:round;"/>
     </g>
     <g id="text_13">
      <!-- 0.20 -->
      <g style="fill:#262626;" transform="translate(37.687713 187.338268)scale(0.11 -0.11)">
       <use xlink:href="#DejaVuSans-30"/>
       <use x="63.623047" xlink:href="#DejaVuSans-2e"/>
       <use x="95.410156" xlink:href="#DejaVuSans-32"/>
       <use x="159.033203" xlink:href="#DejaVuSans-30"/>
      </g>
     </g>
    </g>
    <g id="ytick_6">
     <g id="line2d_12">
      <path clip-path="url(#p736e1644a5)" d="M 71.6799 135.177191 
L 465.8688 135.177191 
" style="fill:none;stroke:#ffffff;stroke-linecap:round;"/>
     </g>
     <g id="text_14">
      <!-- 0.25 -->
      <g style="fill:#262626;" transform="translate(37.687713 139.356331)scale(0.11 -0.11)">
       <use xlink:href="#DejaVuSans-30"/>
       <use x="63.623047" xlink:href="#DejaVuSans-2e"/>
       <use x="95.410156" xlink:href="#DejaVuSans-32"/>
       <use x="159.033203" xlink:href="#DejaVuSans-35"/>
      </g>
     </g>
    </g>
    <g id="ytick_7">
     <g id="line2d_13">
      <path clip-path="url(#p736e1644a5)" d="M 71.6799 87.195254 
L 465.8688 87.195254 
" style="fill:none;stroke:#ffffff;stroke-linecap:round;"/>
     </g>
     <g id="text_15">
      <!-- 0.30 -->
      <g style="fill:#262626;" transform="translate(37.687713 91.374395)scale(0.11 -0.11)">
       <use xlink:href="#DejaVuSans-30"/>
       <use x="63.623047" xlink:href="#DejaVuSans-2e"/>
       <use x="95.410156" xlink:href="#DejaVuSans-33"/>
       <use x="159.033203" xlink:href="#DejaVuSans-30"/>
      </g>
     </g>
    </g>
    <g id="text_16">
     <!-- APE (m) -->
     <defs>
      <path d="M 34.1875 63.1875 
L 20.796875 26.90625 
L 47.609375 26.90625 
z
M 28.609375 72.90625 
L 39.796875 72.90625 
L 67.578125 0 
L 57.328125 0 
L 50.6875 18.703125 
L 17.828125 18.703125 
L 11.1875 0 
L 0.78125 0 
z
" id="DejaVuSans-41"/>
      <path d="M 19.671875 64.796875 
L 19.671875 37.40625 
L 32.078125 37.40625 
Q 38.96875 37.40625 42.71875 40.96875 
Q 46.484375 44.53125 46.484375 51.125 
Q 46.484375 57.671875 42.71875 61.234375 
Q 38.96875 64.796875 32.078125 64.796875 
z
M 9.8125 72.90625 
L 32.078125 72.90625 
Q 44.34375 72.90625 50.609375 67.359375 
Q 56.890625 61.8125 56.890625 51.125 
Q 56.890625 40.328125 50.609375 34.8125 
Q 44.34375 29.296875 32.078125 29.296875 
L 19.671875 29.296875 
L 19.671875 0 
L 9.8125 0 
z
" id="DejaVuSans-50"/>
      <path d="M 9.8125 72.90625 
L 55.90625 72.90625 
L 55.90625 64.59375 
L 19.671875 64.59375 
L 19.671875 43.015625 
L 54.390625 43.015625 
L 54.390625 34.71875 
L 19.671875 34.71875 
L 19.671875 8.296875 
L 56.78125 8.296875 
L 56.78125 0 
L 9.8125 0 
z
" id="DejaVuSans-45"/>
      <path d="M 52 44.1875 
Q 55.375 50.25 60.0625 53.125 
Q 64.75 56 71.09375 56 
Q 79.640625 56 84.28125 50.015625 
Q 88.921875 44.046875 88.921875 33.015625 
L 88.921875 0 
L 79.890625 0 
L 79.890625 32.71875 
Q 79.890625 40.578125 77.09375 44.375 
Q 74.3125 48.1875 68.609375 48.1875 
Q 61.625 48.1875 57.5625 43.546875 
Q 53.515625 38.921875 53.515625 30.90625 
L 53.515625 0 
L 44.484375 0 
L 44.484375 32.71875 
Q 44.484375 40.625 41.703125 44.40625 
Q 38.921875 48.1875 33.109375 48.1875 
Q 26.21875 48.1875 22.15625 43.53125 
Q 18.109375 38.875 18.109375 30.90625 
L 18.109375 0 
L 9.078125 0 
L 9.078125 54.6875 
L 18.109375 54.6875 
L 18.109375 46.1875 
Q 21.1875 51.21875 25.484375 53.609375 
Q 29.78125 56 35.6875 56 
Q 41.65625 56 45.828125 52.96875 
Q 50 49.953125 52 44.1875 
z
" id="DejaVuSans-6d"/>
     </defs>
     <g style="fill:#262626;" transform="translate(31.192087 237.892712)rotate(-90)scale(0.12 -0.12)">
      <use xlink:href="#DejaVuSans-41"/>
      <use x="68.408203" xlink:href="#DejaVuSans-50"/>
      <use x="128.710938" xlink:href="#DejaVuSans-45"/>
      <use x="191.894531" xlink:href="#DejaVuSans-20"/>
      <use x="223.681641" xlink:href="#DejaVuSans-28"/>
      <use x="262.695312" xlink:href="#DejaVuSans-6d"/>
      <use x="360.107422" xlink:href="#DejaVuSans-29"/>
     </g>
    </g>
   </g>
   <g id="line2d_14">
    <path clip-path="url(#p736e1644a5)" d="M 71.6799 289.39766 
L 72.39015 288.774767 
L 72.745275 288.695296 
L 73.277963 288.715732 
L 73.455525 288.497953 
L 73.810651 288.754726 
L 74.165776 288.758708 
L 74.343338 289.092587 
L 75.231152 288.207559 
L 75.586277 288.076422 
L 76.118964 288.202587 
L 76.296527 287.817413 
L 76.651652 287.574437 
L 77.006777 287.750859 
L 77.361902 288.184845 
L 77.894589 288.125791 
L 78.072152 288.5506 
L 78.427278 288.586333 
L 78.782403 288.048743 
L 79.137528 289.096697 
L 79.492653 289.296386 
L 79.847778 289.292541 
L 80.380466 289.217346 
L 82.156091 292.903203 
L 82.333654 292.730779 
L 82.688779 290.455946 
L 83.043904 290.610717 
L 83.39903 289.161049 
L 83.754155 285.250602 
L 84.10928 285.708113 
L 84.464405 285.553633 
L 84.997092 280.329528 
L 85.174655 280.639997 
L 85.52978 280.319525 
L 86.062469 274.031052 
L 86.417594 271.488206 
L 86.595156 270.781602 
L 86.772718 274.622635 
L 86.950281 273.372883 
L 87.305407 276.114609 
L 87.482968 279.138497 
L 87.838095 277.609235 
L 88.370782 275.804666 
L 88.548344 276.709359 
L 88.725906 278.344003 
L 89.081032 278.344913 
L 89.436157 279.333892 
L 89.791282 280.307623 
L 90.146407 274.843792 
L 90.323969 275.435459 
L 90.501533 276.63917 
L 90.856657 276.897559 
L 91.03422 276.160152 
L 91.566908 270.874613 
L 92.099595 268.800722 
L 92.277158 268.015501 
L 92.632283 264.626045 
L 92.809845 264.933215 
L 92.987409 266.087281 
L 93.342533 262.286681 
L 93.87522 267.742291 
L 94.052784 267.573418 
L 94.407908 269.08677 
L 94.585471 269.260116 
L 94.763034 269.786522 
L 95.295722 275.823712 
L 95.473284 277.129562 
L 95.650846 282.66324 
L 96.361096 288.879468 
L 96.53866 289.056296 
L 96.893785 279.889441 
L 97.604035 274.637155 
L 97.95916 273.365169 
L 98.136723 273.371841 
L 98.669411 269.059127 
L 99.024535 266.203603 
L 99.557223 257.605693 
L 99.912348 254.029823 
L 100.977723 238.955919 
L 101.155287 238.897913 
L 101.510411 240.11056 
L 101.687974 241.56193 
L 102.043099 245.870369 
L 102.575787 251.207057 
L 103.108475 256.614582 
L 103.463599 258.223041 
L 103.641162 259.649813 
L 103.996287 265.543754 
L 104.351413 266.616422 
L 104.706538 266.437927 
L 105.061663 265.198068 
L 105.239225 264.120942 
L 105.416788 264.11828 
L 105.771914 261.523603 
L 106.127038 262.132461 
L 106.304601 261.820003 
L 106.659726 261.961155 
L 106.837289 261.983131 
L 107.014851 262.191952 
L 107.369977 263.083296 
L 107.547539 263.366647 
L 107.902664 268.896553 
L 108.080226 269.268282 
L 108.435352 271.464225 
L 108.96804 275.070639 
L 109.323165 275.041043 
L 109.855852 277.860744 
L 110.210978 278.315064 
L 110.38854 278.475801 
L 110.743665 278.153742 
L 111.09879 273.133232 
L 111.453916 271.45954 
L 111.631477 271.316171 
L 112.164165 269.878207 
L 112.519291 269.321841 
L 112.874415 269.13492 
L 113.229541 268.495014 
L 113.584666 267.504192 
L 113.939792 267.520845 
L 114.117353 267.766224 
L 114.650042 267.55413 
L 115.182729 268.046596 
L 115.360291 267.824922 
L 115.715417 267.763785 
L 115.892979 268.065203 
L 117.135918 267.958255 
L 118.911543 267.706513 
L 119.44423 267.437961 
L 119.621794 267.537822 
L 122.462794 267.434195 
L 122.995481 267.12449 
L 123.52817 267.088895 
L 124.23842 266.861061 
L 124.593545 267.310273 
L 124.771108 267.186636 
L 124.94867 267.28408 
L 125.65892 266.902071 
L 125.836483 267.119553 
L 126.369171 266.995244 
L 126.546733 266.63734 
L 127.079421 266.439266 
L 127.612108 266.99755 
L 127.789672 266.815268 
L 128.499922 266.545159 
L 128.855047 266.485109 
L 129.387734 266.26736 
L 129.565297 266.369862 
L 130.097984 266.475902 
L 130.275547 266.242359 
L 130.985798 266.264345 
L 131.340923 266.25319 
L 133.116549 265.729764 
L 133.826798 266.103838 
L 134.181924 266.114035 
L 134.537049 264.779736 
L 134.892174 264.595256 
L 135.247299 264.146001 
L 135.424862 264.220243 
L 135.602425 264.161895 
L 135.95755 264.166273 
L 136.312675 264.447976 
L 137.37805 264.196518 
L 137.733175 264.480411 
L 138.443425 264.270554 
L 138.798551 263.875969 
L 138.976112 263.240949 
L 139.153676 263.271869 
L 139.508801 263.655711 
L 139.863926 263.854034 
L 140.219051 263.639279 
L 140.929301 261.914481 
L 141.461989 262.466396 
L 141.639552 262.702896 
L 141.817114 262.318335 
L 141.994677 261.381948 
L 142.349802 260.978256 
L 142.527364 261.016374 
L 142.704927 262.603005 
L 144.125428 264.313617 
L 144.30299 264.245833 
L 144.480553 263.056195 
L 144.835678 263.234134 
L 145.190804 259.555188 
L 145.368365 258.948354 
L 145.545928 258.86435 
L 146.433742 263.217288 
L 146.611303 263.539165 
L 147.143991 263.907695 
L 147.321554 264.702723 
L 147.676679 264.591617 
L 147.854241 263.095979 
L 148.564492 262.906995 
L 148.742055 262.708015 
L 148.919617 261.977929 
L 149.097179 262.057896 
L 149.629867 261.118907 
L 149.80743 260.508907 
L 150.340118 262.53876 
L 150.51768 263.045206 
L 151.22793 266.142853 
L 151.405493 266.455251 
L 151.938181 269.968521 
L 152.293305 270.601845 
L 152.470868 271.351338 
L 152.825994 267.581381 
L 153.181118 266.081099 
L 153.358682 263.161969 
L 153.713806 263.273682 
L 154.068932 265.130504 
L 154.246493 265.341791 
L 154.779181 267.085373 
L 154.956744 266.465825 
L 155.134307 267.227128 
L 155.489432 267.407425 
L 156.377245 270.4199 
L 156.909932 272.764879 
L 157.265058 273.295611 
L 157.797745 274.521164 
L 158.330433 277.326871 
L 158.685558 278.011369 
L 159.040684 278.877201 
L 159.395808 278.577296 
L 160.993872 284.468362 
L 161.171434 284.816366 
L 161.348996 284.509394 
L 161.52656 284.611721 
L 163.302185 289.142267 
L 163.65731 290.130864 
L 164.900248 297.798495 
L 165.07781 299.832447 
L 165.432936 300.623114 
L 165.610498 300.306315 
L 165.788061 300.291842 
L 166.320749 303.633044 
L 166.498311 304.363855 
L 166.675874 300.932037 
L 166.853436 305.591145 
L 167.208562 305.466015 
L 167.563686 306.399829 
L 167.918812 306.680852 
L 168.273937 307.459615 
L 168.451499 308.797372 
L 168.629062 308.37671 
L 169.161749 311.136913 
L 169.339313 310.563017 
L 169.694437 311.266543 
L 170.227125 313.72202 
L 170.404688 313.289433 
L 170.759813 313.773318 
L 171.292501 311.716817 
L 171.470063 311.463409 
L 171.825189 315.71588 
L 172.00275 315.67793 
L 172.180313 315.974208 
L 172.535439 314.533572 
L 172.890564 315.522022 
L 173.423252 322.380251 
L 174.666189 330.866236 
L 175.198877 331.489268 
L 175.37644 331.771532 
L 175.554002 331.810748 
L 175.731565 331.996067 
L 176.08669 332.530789 
L 176.441815 333.48041 
L 176.79694 333.345691 
L 177.152065 332.381871 
L 177.329627 333.349284 
L 177.507191 333.497104 
L 177.862315 328.957318 
L 178.039878 337.224529 
L 178.217441 336.91104 
L 178.572566 338.845586 
L 178.927691 339.23568 
L 179.105253 333.499719 
L 179.282816 335.542385 
L 179.637941 345.989571 
L 180.348191 352.655191 
L 180.703317 352.85091 
L 180.880878 353.558597 
L 181.236005 356.788227 
L 181.413567 357.987507 
L 181.591129 358.318584 
L 181.768692 361.769112 
L 182.123817 358.67041 
L 182.656505 348.705874 
L 182.834067 348.810829 
L 183.189193 358.02821 
L 183.366755 356.552343 
L 184.077006 343.53891 
L 184.254568 339.744506 
L 184.43213 341.004297 
L 184.609694 340.273563 
L 185.319943 334.320015 
L 185.675069 330.14417 
L 186.030193 330.864328 
L 186.207756 327.511311 
L 186.740444 305.541115 
L 187.095569 300.642397 
L 187.450694 298.53035 
L 187.80582 300.048995 
L 188.160945 296.277793 
L 188.693632 294.165564 
L 188.871195 293.924961 
L 189.581445 282.941142 
L 189.759007 284.829487 
L 189.93657 284.143764 
L 190.64682 268.307219 
L 191.001945 266.650455 
L 191.357071 262.84949 
L 191.534633 262.612739 
L 192.067321 256.465228 
L 192.244884 256.169245 
L 192.777572 251.529678 
L 193.132696 254.881317 
L 193.310259 255.480581 
L 193.487822 254.751704 
L 194.553197 262.439387 
L 194.908322 264.542614 
L 195.085884 262.067309 
L 195.263447 262.718572 
L 195.618572 263.101132 
L 195.796134 262.539719 
L 195.973698 264.135949 
L 196.328822 264.350085 
L 196.683948 265.164097 
L 197.039073 268.363758 
L 197.57176 271.137006 
L 197.749323 273.842934 
L 198.282011 274.987471 
L 198.459574 275.258775 
L 198.992262 276.621299 
L 199.169824 277.134416 
L 199.347385 275.999064 
L 199.524949 273.609561 
L 200.057637 272.842585 
L 200.235199 272.522701 
L 200.412761 273.447017 
L 200.590324 273.766143 
L 200.94545 276.919794 
L 201.300574 281.213318 
L 201.6557 281.08819 
L 202.010825 282.045874 
L 202.898637 286.565363 
L 203.0762 286.500828 
L 203.431325 286.209839 
L 204.141576 293.384505 
L 204.4967 294.337592 
L 204.674263 294.213313 
L 204.851826 295.492333 
L 205.384514 292.91933 
L 205.917201 291.00194 
L 206.272326 287.224491 
L 206.449888 286.756509 
L 206.627452 285.0039 
L 206.982576 284.974505 
L 207.337702 286.544406 
L 208.047952 285.501021 
L 208.225514 285.40414 
L 208.403077 284.853416 
L 208.758203 284.9224 
L 209.113327 284.311665 
L 209.29089 284.982701 
L 209.468452 285.190092 
L 209.823578 289.523144 
L 210.00114 289.508096 
L 210.533828 291.384411 
L 210.888953 293.397872 
L 211.066515 293.286561 
L 211.244079 294.998132 
L 211.599203 296.030888 
L 211.954329 297.666813 
L 212.309454 296.228238 
L 212.664578 296.186527 
L 212.842141 295.153691 
L 213.019704 295.109923 
L 213.374829 296.039794 
L 213.552391 297.445031 
L 213.729954 297.662347 
L 214.085079 301.138671 
L 214.440205 291.251353 
L 215.150455 285.683028 
L 215.328017 283.459848 
L 215.50558 283.138193 
L 215.860705 279.814965 
L 216.21583 279.048954 
L 217.281205 273.792163 
L 217.636331 274.29577 
L 217.991456 270.873899 
L 218.169018 271.548949 
L 218.346581 271.027182 
L 218.701706 268.39815 
L 218.879269 267.978331 
L 219.767081 261.143692 
L 219.944644 257.173882 
L 220.477332 252.376727 
L 220.832457 244.935686 
L 221.187582 245.704703 
L 221.897832 240.103536 
L 222.252957 239.193853 
L 222.430519 234.116917 
L 222.963208 233.381745 
L 223.318333 243.949694 
L 223.851021 245.306623 
L 224.206145 246.518435 
L 224.383708 246.112129 
L 224.738833 243.732657 
L 225.271521 232.037477 
L 225.449083 232.122181 
L 225.804209 232.768021 
L 225.981771 231.424632 
L 226.159334 226.509908 
L 226.514459 227.986138 
L 227.402272 213.91637 
L 227.579835 212.821994 
L 227.757397 213.013459 
L 228.112523 212.52463 
L 228.290085 212.342005 
L 228.64521 213.143586 
L 229.000335 210.682881 
L 229.533022 209.359371 
L 229.888148 207.522719 
L 230.06571 206.858524 
L 230.420835 203.090826 
L 230.598397 203.352284 
L 230.775961 202.826292 
L 231.308648 194.905687 
L 231.486211 198.206522 
L 231.841336 193.518401 
L 232.72915 197.435892 
L 232.906712 197.514056 
L 233.261837 202.072766 
L 233.616961 205.597669 
L 233.972087 200.008808 
L 234.149649 200.0092 
L 234.327212 203.767079 
L 234.682337 204.143692 
L 234.8599 205.340327 
L 235.037462 199.862942 
L 235.57015 203.761926 
L 235.747712 204.735835 
L 235.925275 200.545915 
L 236.102838 200.898548 
L 236.457963 194.216269 
L 236.813088 197.702132 
L 237.345777 214.283294 
L 237.523338 218.345937 
L 237.7009 218.11388 
L 237.878464 218.513938 
L 238.588714 221.903555 
L 238.943839 221.355449 
L 239.298964 226.515714 
L 240.186776 229.734225 
L 240.541903 233.79552 
L 240.897028 239.833464 
L 241.429715 250.237063 
L 241.78484 254.555159 
L 241.962402 262.283978 
L 242.139965 262.955306 
L 242.49509 260.568375 
L 243.027778 276.209885 
L 243.382903 279.03947 
L 243.560466 279.913931 
L 243.738028 285.52543 
L 243.91559 284.731018 
L 244.448278 297.619251 
L 245.336091 309.623111 
L 245.513654 321.3823 
L 246.223905 335.506037 
L 246.401466 336.466005 
L 246.579029 339.313033 
L 246.756592 337.489454 
L 247.289279 345.060366 
L 247.466842 345.01308 
L 247.821967 348.374234 
L 248.177093 348.148492 
L 248.354654 349.363192 
L 248.532217 348.036047 
L 249.064905 350.474586 
L 249.242468 352.925262 
L 249.597593 355.876118 
L 249.952718 364.222442 
L 250.13028 363.870172 
L 250.307843 363.958463 
L 250.662969 367.781604 
L 250.84053 368.09465 
L 251.018093 367.101266 
L 251.373219 367.206727 
L 251.905906 367.111233 
L 252.438594 364.157779 
L 253.148844 354.958245 
L 253.503969 354.908898 
L 253.681532 354.221714 
L 253.859095 352.988003 
L 254.21422 346.798341 
L 254.391782 346.271628 
L 254.569345 343.740939 
L 254.92447 342.057527 
L 255.279595 333.576486 
L 255.812284 336.417134 
L 255.989845 336.643745 
L 256.344971 334.60941 
L 256.700095 335.778229 
L 257.055221 339.228467 
L 257.232782 342.655791 
L 257.410346 340.612275 
L 257.765471 340.384482 
L 257.943033 340.89416 
L 258.120596 345.97637 
L 258.830847 349.162563 
L 259.008409 350.623808 
L 259.363535 347.739949 
L 259.718658 345.006994 
L 260.784034 337.147948 
L 260.961597 337.919479 
L 261.316722 334.9162 
L 261.494285 335.055126 
L 261.671847 334.745815 
L 262.026973 333.703101 
L 262.382098 329.763583 
L 262.55966 329.517946 
L 262.737223 328.493074 
L 263.26991 330.797248 
L 263.447474 330.516519 
L 263.802598 331.027101 
L 264.157723 331.99961 
L 264.335285 332.11027 
L 264.690412 329.83857 
L 264.867973 329.03496 
L 265.045536 329.838115 
L 265.223099 331.292663 
L 265.578224 332.224473 
L 266.466037 338.644347 
L 266.6436 339.043157 
L 266.821161 337.369395 
L 267.176288 339.58357 
L 267.353849 340.954176 
L 267.708975 341.729214 
L 268.0641 341.475804 
L 268.596787 342.77343 
L 268.77435 343.126317 
L 269.129476 342.524947 
L 269.4846 342.956228 
L 269.662163 344.508457 
L 269.839725 344.759378 
L 270.194851 347.141646 
L 270.372413 347.12417 
L 270.549975 344.384774 
L 270.905101 344.736047 
L 271.260226 344.405796 
L 271.437788 344.001979 
L 272.148039 336.621643 
L 272.325602 339.756583 
L 272.680727 338.62979 
L 273.035851 338.98207 
L 273.213414 338.35749 
L 273.390977 335.343137 
L 273.746102 337.426991 
L 273.923664 336.885496 
L 274.101227 335.088746 
L 274.633915 326.822101 
L 274.989039 323.634689 
L 275.344166 318.948026 
L 275.876853 311.670154 
L 276.231978 307.965686 
L 276.587103 308.850561 
L 276.764666 307.246221 
L 277.297354 295.681754 
L 277.474916 294.199192 
L 277.652478 294.198404 
L 278.362729 283.160399 
L 278.717854 278.86387 
L 279.072979 276.422631 
L 279.250541 273.710818 
L 279.605667 278.292882 
L 279.78323 279.539559 
L 280.138354 278.85203 
L 280.315917 277.925193 
L 280.848605 278.754536 
L 281.026167 280.619835 
L 281.20373 281.148922 
L 281.558855 280.617726 
L 281.91398 273.708464 
L 282.269105 275.398135 
L 282.62423 275.024218 
L 282.801792 274.125444 
L 282.979356 272.641391 
L 283.33448 272.611984 
L 283.867168 277.209255 
L 284.044731 277.906757 
L 284.577418 277.486881 
L 284.754981 276.863399 
L 285.110106 277.91144 
L 286.530607 296.989278 
L 286.885732 295.679166 
L 287.240857 297.221571 
L 287.418419 297.408846 
L 287.595983 296.104869 
L 287.951107 276.633184 
L 288.12867 274.395453 
L 288.661358 272.034876 
L 289.016483 273.954821 
L 289.194045 273.801102 
L 289.371608 272.77659 
L 289.726733 274.010598 
L 290.081859 272.29524 
L 290.792109 271.172581 
L 291.324797 268.293336 
L 291.502358 267.803837 
L 291.857484 265.434746 
L 292.390172 264.903156 
L 292.567734 264.819129 
L 292.745296 265.293773 
L 292.922859 266.746046 
L 293.277985 266.128576 
L 293.455546 268.413746 
L 293.63311 268.53599 
L 293.988235 267.743851 
L 294.34336 266.280761 
L 294.520922 266.658115 
L 294.698485 270.6204 
L 295.231173 269.879338 
L 295.408735 268.119518 
L 295.763861 267.117766 
L 296.118985 269.811951 
L 296.474111 268.637491 
L 296.829236 270.470485 
L 297.006798 269.955692 
L 297.539486 264.403299 
L 297.894611 265.103116 
L 298.072173 264.311137 
L 298.249737 264.135543 
L 298.604861 261.523168 
L 298.782424 261.231515 
L 298.959987 260.219879 
L 299.315112 263.506765 
L 299.670237 262.427726 
L 299.847799 262.335099 
L 300.380487 258.789682 
L 300.558049 258.715849 
L 300.735612 259.248202 
L 301.090737 255.707952 
L 301.445863 256.91064 
L 301.800988 251.586434 
L 302.156113 246.826929 
L 302.511238 247.476191 
L 302.866364 250.925335 
L 303.221488 249.265407 
L 303.399051 247.89154 
L 303.576613 247.864727 
L 303.931739 249.291729 
L 304.109301 253.289407 
L 304.464427 255.076009 
L 304.641989 255.618159 
L 304.997114 255.899396 
L 305.174676 255.290772 
L 305.352239 255.991984 
L 305.884927 256.164821 
L 306.595178 259.701012 
L 306.772739 261.24589 
L 306.950302 261.128403 
L 307.127865 263.735276 
L 307.660552 258.173752 
L 307.838115 257.955215 
L 308.19324 258.35125 
L 308.548366 262.613875 
L 308.725927 263.090588 
L 308.90349 262.486966 
L 309.258615 262.779179 
L 309.436177 264.249023 
L 309.613741 264.471022 
L 309.968865 261.041194 
L 310.323991 269.970329 
L 310.501554 268.716239 
L 311.034242 271.073217 
L 311.211803 272.389959 
L 311.56693 269.192064 
L 311.744492 267.306711 
L 312.099617 266.681287 
L 312.277179 268.170209 
L 312.454741 266.724497 
L 312.809867 269.501476 
L 312.987429 271.799111 
L 313.520117 273.765914 
L 314.052804 271.224264 
L 314.40793 271.041351 
L 314.763055 270.65824 
L 315.295743 268.099181 
L 315.650868 268.357712 
L 316.005993 269.305113 
L 316.361118 271.372265 
L 316.53868 278.638157 
L 316.716244 276.437246 
L 317.071368 279.115923 
L 317.604055 286.368188 
L 317.781619 282.875722 
L 318.136744 289.959958 
L 318.314306 288.440586 
L 318.491869 291.166861 
L 318.846994 291.930815 
L 319.20212 286.947337 
L 319.379682 288.931091 
L 319.557244 286.674379 
L 319.91237 286.380267 
L 320.089931 284.808643 
L 320.267495 288.696031 
L 320.62262 287.231995 
L 321.33287 280.948706 
L 321.865558 283.061609 
L 322.04312 282.827827 
L 322.398246 285.665349 
L 322.930933 292.32794 
L 323.108496 292.207992 
L 323.463621 296.969929 
L 324.173871 298.708187 
L 324.706558 294.677141 
L 324.884122 296.060806 
L 325.239246 302.217782 
L 325.416809 299.487701 
L 325.594372 300.227266 
L 325.949497 304.086436 
L 326.304622 304.791101 
L 326.482184 304.414947 
L 326.659747 302.781101 
L 327.014873 302.637424 
L 327.192434 303.295398 
L 327.369997 303.079515 
L 328.080248 310.085421 
L 328.25781 311.585152 
L 328.790498 309.756854 
L 328.96806 310.317156 
L 329.145623 309.38868 
L 329.500749 309.016958 
L 330.033436 314.01314 
L 330.210999 313.427125 
L 330.743686 315.067374 
L 330.921248 313.01153 
L 331.276374 313.630604 
L 331.631499 314.743663 
L 331.809061 311.083721 
L 331.986624 315.675361 
L 332.341749 314.8316 
L 332.519312 313.946323 
L 332.696875 316.068756 
L 333.052 315.704237 
L 333.407125 316.601279 
L 333.584687 315.281499 
L 333.76225 315.685024 
L 334.117375 318.337332 
L 334.294937 318.417483 
L 334.4725 316.615525 
L 334.827625 316.396299 
L 335.360312 319.950586 
L 335.537875 322.907335 
L 336.070562 317.310565 
L 336.248126 316.182516 
L 336.603251 315.992874 
L 337.135939 318.173624 
L 337.313501 318.43468 
L 337.846189 318.63297 
L 338.378877 317.203516 
L 338.734002 318.771197 
L 338.911564 318.637617 
L 339.089127 320.241034 
L 339.444252 318.330552 
L 339.621814 318.590172 
L 339.799377 319.50715 
L 340.154502 328.551968 
L 340.864753 330.303834 
L 341.219878 332.273622 
L 341.39744 330.628291 
L 341.575003 331.36875 
L 341.930128 331.16357 
L 342.285254 332.558684 
L 342.462815 332.666668 
L 342.817942 331.665124 
L 342.995503 331.344797 
L 343.173065 332.648183 
L 343.350629 331.885826 
L 344.238441 331.204939 
L 344.771129 324.72828 
L 344.948691 323.925073 
L 345.126254 326.513467 
L 345.658942 324.659283 
L 345.836505 324.310762 
L 346.724317 319.86995 
L 347.079443 316.401955 
L 347.434568 314.549657 
L 347.789692 313.183874 
L 348.144818 307.124133 
L 348.32238 304.691162 
L 348.499943 304.942242 
L 349.387755 298.267929 
L 349.742881 296.498627 
L 350.275568 286.259757 
L 350.630694 284.103206 
L 350.98582 282.930602 
L 351.163382 282.591737 
L 351.340943 281.377974 
L 351.69607 284.376566 
L 351.873631 285.536889 
L 352.228757 295.538827 
L 352.939007 290.499959 
L 353.11657 291.316732 
L 353.294132 291.480251 
L 353.649258 327.569226 
L 353.826819 333.91313 
L 354.004382 334.014555 
L 354.359508 336.411583 
L 354.714633 341.157089 
L 355.069758 352.807573 
L 355.424883 352.827442 
L 355.780008 360.28863 
L 356.135134 364.910703 
L 356.667821 363.914826 
L 356.845384 364.865932 
L 357.378071 362.41467 
L 357.910759 348.635376 
L 358.265884 345.483191 
L 358.443446 347.247846 
L 358.62101 347.291956 
L 359.33126 352.93462 
L 359.686385 352.521717 
L 360.04151 352.841974 
L 360.219072 352.481522 
L 360.574198 347.001688 
L 361.106885 341.690673 
L 361.46201 342.642765 
L 361.817136 338.38823 
L 361.994698 337.986345 
L 362.17226 336.840424 
L 362.882511 330.085081 
L 363.237637 326.568866 
L 363.947886 306.387975 
L 364.303012 309.118351 
L 364.8357 301.007816 
L 365.190825 298.698641 
L 365.368387 297.367228 
L 365.545949 299.654435 
L 365.901075 291.203537 
L 366.078637 288.59666 
L 366.256199 292.160475 
L 366.433763 289.267408 
L 367.144012 265.684729 
L 367.321575 268.181409 
L 367.499138 268.979534 
L 368.031825 254.025792 
L 368.209388 255.774793 
L 368.564513 262.508563 
L 369.0972 283.2618 
L 369.274763 281.80523 
L 369.629889 282.733714 
L 369.80745 284.477602 
L 370.162577 283.328494 
L 370.340138 282.96474 
L 370.695264 281.674556 
L 370.872826 276.262696 
L 371.050389 274.418833 
L 371.405514 272.545339 
L 371.760639 267.533778 
L 372.115765 259.394117 
L 372.47089 262.753764 
L 372.648452 262.090965 
L 372.826015 260.131356 
L 373.18114 251.957475 
L 373.358702 251.338993 
L 373.536265 238.413005 
L 373.89139 234.46055 
L 374.246515 237.446111 
L 374.424077 242.88628 
L 375.134328 250.622212 
L 375.311891 252.674204 
L 375.667016 252.7495 
L 376.022141 253.817181 
L 376.199703 253.579343 
L 376.377266 254.527551 
L 376.732391 257.634642 
L 376.909953 257.965803 
L 377.087517 257.480075 
L 377.442641 255.661607 
L 378.152892 265.407808 
L 378.508017 271.14344 
L 378.685579 272.185023 
L 378.863142 273.945204 
L 379.218267 275.235038 
L 379.573392 271.087303 
L 379.750955 271.803874 
L 380.283643 282.662266 
L 380.461205 282.418708 
L 380.638768 280.488555 
L 380.993893 280.991842 
L 381.704144 285.736321 
L 382.059268 296.964644 
L 382.236831 296.740577 
L 382.769519 297.913051 
L 383.124643 296.613746 
L 384.012456 287.560814 
L 384.190019 286.790542 
L 384.545144 280.483878 
L 384.90027 281.62906 
L 385.255395 279.663624 
L 385.610519 278.788375 
L 385.788082 277.782971 
L 385.965645 277.604466 
L 386.32077 278.606903 
L 386.853457 274.0704 
L 387.03102 268.18695 
L 387.386146 271.800354 
L 387.563707 270.415951 
L 388.451521 258.372121 
L 388.984209 247.417062 
L 389.339334 244.588164 
L 389.516896 244.975917 
L 389.872022 242.563386 
L 390.227146 239.224316 
L 390.404709 239.550459 
L 390.582272 239.386784 
L 390.937397 243.794801 
L 391.114959 243.53442 
L 391.292521 243.036886 
L 391.82521 238.650868 
L 392.002772 237.763737 
L 392.180334 231.07026 
L 392.357897 230.078841 
L 392.713022 229.427354 
L 393.068148 228.382248 
L 393.778398 220.911445 
L 394.133523 219.938141 
L 394.66621 216.765609 
L 394.843773 216.695132 
L 395.198898 214.263148 
L 395.554024 210.443564 
L 395.731586 211.626512 
L 395.909148 211.487298 
L 396.264274 212.212145 
L 396.619399 213.368271 
L 397.329649 210.966822 
L 397.507211 210.437793 
L 397.684774 211.136969 
L 398.0399 208.674768 
L 398.217462 206.65121 
L 398.572588 205.46379 
L 398.75015 204.721109 
L 399.105275 204.517273 
L 399.282837 200.389981 
L 399.4604 200.357449 
L 400.17065 199.412352 
L 400.525775 198.005877 
L 400.8809 200.448831 
L 401.058462 203.379719 
L 401.236026 204.277617 
L 401.59115 204.614991 
L 402.301401 202.071739 
L 402.656527 201.846438 
L 402.834088 204.494794 
L 403.011651 204.523678 
L 403.544338 207.086464 
L 403.721902 207.604706 
L 404.077026 207.777891 
L 404.432152 207.242392 
L 404.609714 207.448789 
L 404.787277 206.683924 
L 405.319964 213.954125 
L 405.497527 213.532037 
L 406.207777 218.434405 
L 406.562902 220.08796 
L 406.918028 221.160726 
L 407.09559 222.161458 
L 407.273153 224.109714 
L 407.805841 232.41999 
L 408.160965 235.907744 
L 408.338529 236.696171 
L 408.693653 229.842074 
L 408.871216 229.790705 
L 409.226341 230.93727 
L 409.403904 231.651245 
L 409.936591 229.522341 
L 410.114154 229.588498 
L 410.469279 235.079335 
L 410.824404 235.334108 
L 411.179529 235.257039 
L 411.534655 235.569262 
L 411.712216 235.053728 
L 412.067343 235.460028 
L 412.244905 235.564325 
L 412.955155 239.452819 
L 413.31028 238.101014 
L 413.487843 238.485876 
L 414.020531 243.17579 
L 414.198092 242.696309 
L 414.908343 246.571974 
L 415.441031 248.412933 
L 416.151281 253.665227 
L 416.506407 255.292176 
L 416.861531 255.650268 
L 417.039094 257.245564 
L 417.216657 257.653432 
L 417.749344 256.142436 
L 418.10447 257.066938 
L 418.282032 257.646618 
L 418.814719 261.359032 
L 419.169846 264.061532 
L 419.347407 264.972335 
L 419.702533 263.193909 
L 420.057658 261.918843 
L 420.590345 257.725735 
L 420.767908 258.039597 
L 421.123034 256.843333 
L 421.300595 257.128128 
L 421.833283 258.626983 
L 422.543533 263.264494 
L 422.898659 264.27539 
L 423.076221 265.68375 
L 423.608909 267.182226 
L 423.964034 265.915891 
L 424.31916 267.126062 
L 424.674285 270.566009 
L 424.851847 270.823666 
L 425.029409 270.584116 
L 425.384535 270.681919 
L 425.73966 272.918861 
L 426.272348 286.107573 
L 426.44991 288.823214 
L 426.627472 289.647038 
L 426.805036 292.138968 
L 427.337724 303.077442 
L 427.692847 306.656549 
L 427.870411 307.846216 
L 428.225535 307.571933 
L 428.580661 306.021951 
L 428.935786 307.535093 
L 429.468473 308.908845 
L 429.646036 309.875614 
L 430.178723 311.076002 
L 430.356287 312.392828 
L 430.711411 313.339703 
L 431.421662 318.204115 
L 431.776787 319.122839 
L 432.131912 321.52174 
L 432.487038 322.53987 
L 433.019725 321.143692 
L 433.197288 321.070175 
L 433.729975 325.683124 
L 433.907538 325.311664 
L 434.440227 327.729393 
L 434.617788 328.341197 
L 434.79535 330.305202 
L 434.972914 330.299147 
L 435.328038 330.669838 
L 435.683164 332.827213 
L 436.038289 335.467017 
L 436.570976 340.563633 
L 436.748539 341.620861 
L 437.103664 342.119876 
L 437.281226 343.43057 
L 437.45879 342.897376 
L 438.346601 336.451559 
L 438.524165 336.900468 
L 440.29979 348.834631 
L 440.654916 348.382904 
L 440.832478 347.681343 
L 441.01004 348.291039 
L 441.365166 348.019794 
L 441.720291 348.035175 
L 442.075417 349.470837 
L 442.608104 344.537735 
L 442.785666 345.4134 
L 443.495916 342.964092 
L 443.673479 343.146513 
L 443.851042 341.954951 
L 444.206167 342.334048 
L 444.561292 346.766062 
L 444.916417 347.430963 
L 445.449104 347.372476 
L 445.626667 347.059178 
L 445.981792 347.176027 
L 446.159355 345.982743 
L 446.514481 342.997441 
L 448.467669 332.639495 
L 448.822794 332.886194 
L 449.000356 335.030419 
L 449.177918 334.401775 
L 449.533044 336.340583 
L 449.888169 335.625865 
L 450.243294 334.331313 
L 450.598419 333.966194 
L 450.775982 333.553432 
L 451.663795 329.014994 
L 452.196483 324.773721 
L 452.72917 319.69438 
L 453.261857 316.340713 
L 453.439421 316.072931 
L 453.794545 316.050576 
L 454.859921 311.409299 
L 455.037483 311.495916 
L 455.215046 310.460022 
L 456.102859 307.626185 
L 456.457985 305.727458 
L 456.635547 305.214058 
L 456.813108 305.285574 
L 457.345797 299.828191 
L 457.700922 299.152655 
L 457.878484 297.899395 
L 458.056047 297.662447 
L 458.411172 294.575978 
L 458.766297 295.216494 
L 459.121423 294.199451 
L 459.476548 296.556352 
L 459.831673 296.12147 
L 460.186798 293.591549 
L 460.36436 293.540923 
L 460.541924 293.693496 
L 460.897048 295.514249 
L 461.252173 295.738644 
L 461.429735 295.379985 
L 461.607299 294.700644 
L 461.962423 295.205679 
L 462.139986 295.068988 
L 462.317549 294.537297 
L 462.850237 289.243543 
L 463.027799 286.950403 
L 463.205361 286.833581 
L 463.382924 287.238852 
L 463.73805 288.644795 
L 463.915611 290.61327 
L 464.093175 290.803461 
L 464.448299 292.117073 
L 464.803425 291.404105 
L 464.980987 291.529605 
L 465.513675 295.891652 
L 465.691237 299.313698 
L 465.8688 298.187786 
L 465.8688 298.187786 
" style="fill:none;stroke:#4c72b0;stroke-linecap:round;stroke-opacity:0.75;stroke-width:1.5;"/>
   </g>
   <g id="line2d_15">
    <path clip-path="url(#p736e1644a5)" d="M 84.997092 242.857557 
L 85.707342 237.370012 
L 86.062469 243.495655 
L 86.417594 243.236542 
L 86.772718 243.375927 
L 87.127844 244.01096 
L 87.838095 246.969715 
L 88.548344 249.547581 
L 88.90347 250.908481 
L 89.258594 251.149347 
L 89.61372 252.537366 
L 89.968845 251.826006 
L 90.323969 256.961937 
L 91.389345 239.975968 
L 92.099595 245.863553 
L 92.454721 245.466651 
L 92.809845 245.464366 
L 93.164971 244.420356 
L 93.520097 252.077521 
L 93.87522 248.541239 
L 94.585471 251.466985 
L 94.940597 252.237433 
L 95.295722 250.951412 
L 95.650846 251.428928 
L 96.361096 249.823538 
L 96.716223 248.56657 
L 97.24891 245.159334 
L 97.426472 244.431566 
L 98.136723 238.84683 
L 98.669411 243.543017 
L 98.846973 244.432797 
L 99.202098 243.725554 
L 99.557223 243.73657 
L 99.912348 240.887701 
L 100.800161 246.128066 
L 102.043099 250.407975 
L 103.108475 258.200086 
L 104.17385 257.720192 
L 104.884101 263.265564 
L 105.949476 246.688829 
L 106.304601 244.745683 
L 106.837289 246.508792 
L 107.014851 247.290061 
L 107.369977 242.995694 
L 107.725101 248.484614 
L 108.080226 248.931905 
L 108.435352 246.806521 
L 108.790477 253.876719 
L 109.145602 253.39914 
L 109.500728 254.030512 
L 110.033415 255.851925 
L 110.210978 256.140442 
L 111.276353 254.249877 
L 112.519291 251.503162 
L 113.051979 250.678437 
L 140.751739 251.891261 
L 141.461989 252.608072 
L 142.17224 252.86089 
L 142.88249 251.141623 
L 143.237616 253.984459 
L 143.947865 253.709041 
L 144.658116 257.615367 
L 145.368365 258.927025 
L 145.901053 264.538064 
L 146.256179 266.274816 
L 146.788867 268.053872 
L 147.499117 267.522332 
L 147.854241 262.710634 
L 148.209367 251.614807 
L 148.564492 252.241639 
L 148.919617 248.286228 
L 149.629867 263.095284 
L 150.340118 266.058479 
L 150.695242 260.727171 
L 151.050368 259.842251 
L 151.405493 251.585217 
L 151.760618 260.793341 
L 152.115744 247.005192 
L 152.470868 250.032058 
L 152.825994 259.696526 
L 153.181118 254.762304 
L 153.536244 254.520571 
L 154.068932 257.34627 
L 154.246493 258.00642 
L 154.60162 258.120988 
L 155.489432 261.108596 
L 156.377245 264.619954 
L 157.265058 271.372139 
L 157.442621 272.206455 
L 158.330433 280.053312 
L 158.863121 284.068351 
L 159.218246 284.228741 
L 160.283621 286.500304 
L 160.993872 287.083033 
L 162.23681 290.332785 
L 163.124622 293.365881 
L 163.834872 299.843965 
L 164.36756 307.755005 
L 164.722686 312.224898 
L 165.432936 324.077318 
L 165.788061 329.464774 
L 166.320749 335.038734 
L 167.208562 342.429517 
L 167.74125 345.495345 
L 168.096375 345.338089 
L 169.161749 341.271409 
L 170.049562 336.320192 
L 170.759813 334.262734 
L 171.292501 333.585747 
L 172.535439 329.77723 
L 173.245688 326.370528 
L 173.600814 323.500621 
L 174.133502 319.29295 
L 175.021315 316.093182 
L 175.731565 313.188104 
L 176.441815 311.850826 
L 177.152065 310.987003 
L 177.684753 310.587722 
L 178.395003 308.956644 
L 179.282816 305.194784 
L 179.815503 302.304645 
L 180.703317 290.031635 
L 181.768692 272.648014 
L 182.30138 266.428258 
L 183.01163 266.686588 
L 183.544318 268.026848 
L 183.721881 268.306408 
L 184.077006 268.092172 
L 184.787256 272.482396 
L 185.142381 272.892332 
L 186.030193 268.997257 
L 186.207756 268.360652 
L 186.740444 267.53857 
L 186.918006 267.157542 
L 187.273132 265.717777 
L 187.628257 265.643983 
L 188.338508 264.454736 
L 188.871195 266.573553 
L 189.22632 268.779597 
L 189.93657 273.276611 
L 190.64682 275.780883 
L 191.357071 276.995209 
L 191.534633 277.190876 
L 192.067321 278.875286 
L 192.244884 279.637612 
L 192.777572 283.283677 
L 194.908322 291.05316 
L 195.796134 293.353273 
L 196.15126 294.543055 
L 196.86151 290.564849 
L 197.57176 290.207571 
L 198.104448 288.082018 
L 198.282011 287.73187 
L 198.637136 288.60522 
L 199.169824 284.281709 
L 200.412761 277.176051 
L 201.123012 275.9327 
L 201.833262 277.056199 
L 202.188387 278.246676 
L 203.0762 276.319556 
L 203.608889 274.609836 
L 203.964012 274.629686 
L 204.319139 270.488849 
L 204.674263 271.868488 
L 205.384514 269.178288 
L 205.739638 264.562837 
L 206.449888 261.952013 
L 206.982576 260.148024 
L 207.16014 259.406666 
L 207.515264 259.156905 
L 208.225514 256.651278 
L 208.58064 256.4859 
L 209.29089 251.736802 
L 209.646015 251.389196 
L 210.533828 247.335754 
L 210.711391 246.467868 
L 211.954329 235.46756 
L 212.309454 234.633015 
L 213.019704 233.457396 
L 213.197267 233.03752 
L 213.552391 231.271194 
L 213.907517 232.557397 
L 214.262642 228.952266 
L 214.617766 246.794796 
L 215.50558 251.710786 
L 216.038268 255.437273 
L 216.393393 256.122106 
L 216.748518 257.343531 
L 217.103642 256.546328 
L 217.458769 259.029319 
L 217.813893 259.074193 
L 218.879269 270.575397 
L 219.234394 273.526517 
L 219.767081 274.691563 
L 219.944644 274.884172 
L 220.299769 275.998228 
L 221.897832 287.35512 
L 222.608083 290.625128 
L 222.785645 291.198716 
L 223.140771 290.768272 
L 223.495895 292.37469 
L 224.028584 291.530599 
L 224.206145 291.403778 
L 224.916396 291.732347 
L 225.271521 293.481841 
L 225.626647 297.024214 
L 225.981771 295.220084 
L 226.692022 305.63386 
L 228.290085 334.073501 
L 228.64521 337.294612 
L 229.177898 341.173596 
L 230.243274 343.645845 
L 230.953524 340.09885 
L 232.018899 328.3764 
L 232.374023 325.112991 
L 232.906712 324.068066 
L 233.084273 323.834342 
L 233.972087 318.492927 
L 234.327212 315.95044 
L 234.504775 315.077715 
L 235.57015 306.369734 
L 236.813088 285.961421 
L 236.990651 282.305324 
L 237.345777 292.879399 
L 237.7009 289.691271 
L 238.056026 289.014194 
L 238.411151 289.055701 
L 238.766276 291.020109 
L 239.831652 301.657836 
L 240.186776 301.687405 
L 240.541903 302.705417 
L 240.897028 302.550054 
L 241.252151 303.123553 
L 241.607278 299.640184 
L 241.962402 302.062428 
L 242.317528 301.63817 
L 242.850215 303.629679 
L 243.027778 304.105705 
L 243.382903 306.029394 
L 243.738028 306.553378 
L 244.093154 306.247699 
L 244.448278 303.962403 
L 245.158529 303.283635 
L 245.868779 300.178952 
L 246.223905 296.982256 
L 246.934155 296.265914 
L 247.644405 294.860945 
L 248.354654 295.701544 
L 249.952718 302.92257 
L 251.905906 306.930291 
L 252.616156 313.390819 
L 252.971282 311.007874 
L 253.681532 304.050135 
L 254.569345 297.193579 
L 255.102033 294.042175 
L 255.812284 287.246245 
L 256.344971 282.422217 
L 256.700095 278.788366 
L 257.410346 273.731236 
L 257.765471 272.775024 
L 258.120596 272.229549 
L 258.653284 271.59405 
L 259.185971 270.678505 
L 259.363535 270.538575 
L 260.606472 264.261807 
L 260.961597 262.856611 
L 261.494285 259.986297 
L 262.914786 247.632717 
L 263.26991 246.430913 
L 264.335285 248.071096 
L 264.867973 247.762378 
L 265.045536 247.584319 
L 265.578224 248.819181 
L 265.933349 249.645167 
L 266.110911 249.96666 
L 266.466037 249.577358 
L 266.821161 248.262484 
L 267.176288 248.79278 
L 267.708975 247.715671 
L 267.886537 247.263233 
L 268.241663 247.239022 
L 268.77435 250.376676 
L 269.662163 253.498545 
L 270.017288 254.949316 
L 270.372413 254.432299 
L 270.727539 253.280731 
L 271.082664 254.870208 
L 271.615352 255.073384 
L 271.792914 255.070778 
L 272.148039 253.822436 
L 273.56854 243.212753 
L 274.633915 225.929817 
L 275.876853 206.004311 
L 276.054416 202.816104 
L 276.409541 218.661574 
L 276.942228 217.14157 
L 277.297354 216.727685 
L 277.474916 216.587409 
L 277.830042 215.895088 
L 278.185166 214.041796 
L 278.895417 207.948301 
L 279.250541 207.174998 
L 279.78323 205.088681 
L 279.960793 204.670683 
L 280.315917 204.535075 
L 280.671042 205.174368 
L 281.381293 201.75916 
L 282.091542 202.129283 
L 282.801792 205.597253 
L 283.512044 205.441087 
L 284.399857 200.408235 
L 284.932545 199.023823 
L 285.287669 198.085179 
L 285.642794 198.90125 
L 285.99792 198.703976 
L 286.353044 198.238914 
L 286.70817 197.024133 
L 287.951107 188.263637 
L 288.661358 182.11502 
L 289.194045 179.577955 
L 289.726733 181.310731 
L 289.904295 181.62376 
L 290.614547 185.365146 
L 290.96967 188.623145 
L 291.502358 196.882298 
L 292.035047 201.595806 
L 292.390172 202.290655 
L 293.988235 198.11697 
L 294.520922 197.122855 
L 295.231173 196.912746 
L 297.006798 180.392923 
L 297.361924 180.58354 
L 299.492675 168.902221 
L 299.847799 178.45438 
L 300.913176 188.370259 
L 301.623425 207.251937 
L 303.221488 231.463364 
L 304.464427 247.747508 
L 305.352239 252.456654 
L 305.884927 254.58755 
L 306.595178 253.780357 
L 307.127865 254.134599 
L 307.660552 254.285041 
L 308.015678 258.603409 
L 308.725927 259.539813 
L 309.436177 262.993784 
L 310.323991 271.893033 
L 311.56693 287.087908 
L 312.099617 290.581042 
L 312.809867 293.255843 
L 313.520117 295.315859 
L 314.230368 297.767087 
L 314.763055 298.633754 
L 315.473306 297.481799 
L 316.183557 298.802877 
L 317.604055 295.550381 
L 317.959182 296.579404 
L 319.379682 307.709209 
L 320.089931 309.19018 
L 320.800183 308.781296 
L 322.930933 299.467319 
L 323.641183 298.905481 
L 324.351435 298.959623 
L 325.061685 298.002095 
L 326.12706 294.721766 
L 326.482184 294.566047 
L 327.014873 289.751023 
L 327.369997 288.509542 
L 327.547561 288.098711 
L 328.790498 282.968781 
L 329.323186 281.412641 
L 330.210999 274.26169 
L 330.743686 270.760774 
L 331.276374 270.192911 
L 331.453937 270.074594 
L 331.809061 269.128888 
L 332.519312 269.615237 
L 333.229563 268.347635 
L 334.117375 272.695037 
L 334.294937 273.042039 
L 334.827625 276.113227 
L 335.360312 277.659835 
L 335.893001 281.657217 
L 336.248126 284.313589 
L 336.603251 286.015144 
L 337.846189 290.175716 
L 338.911564 293.022291 
L 340.332066 296.123453 
L 342.817942 295.514154 
L 343.883317 289.603319 
L 345.836505 270.017593 
L 346.191629 266.276836 
L 346.724317 260.685601 
L 347.257005 257.465473 
L 347.434568 256.928245 
L 347.967256 253.009898 
L 348.855068 247.624276 
L 349.387755 242.557322 
L 349.920444 235.20668 
L 352.228757 199.219188 
L 353.11657 189.373253 
L 353.471695 219.583847 
L 354.359508 222.612043 
L 354.537071 223.50306 
L 354.892195 223.220124 
L 355.247321 222.498501 
L 355.602446 220.701136 
L 356.135134 220.040205 
L 356.490258 219.927529 
L 356.667821 219.911034 
L 357.378071 218.986031 
L 357.910759 219.667468 
L 358.088322 219.960889 
L 358.62101 217.596721 
L 359.863948 210.257103 
L 360.219072 207.233171 
L 360.574198 206.288821 
L 360.929322 206.182435 
L 361.284449 204.741381 
L 361.639573 204.687761 
L 362.882511 198.39901 
L 363.237637 196.214983 
L 363.592761 194.285802 
L 365.190825 183.096471 
L 365.545949 214.094751 
L 365.901075 211.849737 
L 366.433763 225.027193 
L 366.966451 232.714375 
L 367.676701 244.215181 
L 368.031825 246.592182 
L 368.386951 253.080702 
L 368.742076 255.473633 
L 369.0972 261.840238 
L 369.80745 265.028719 
L 370.162577 268.870501 
L 370.517702 268.54391 
L 370.872826 276.920105 
L 371.583076 277.925776 
L 372.293327 281.363669 
L 373.003578 288.738619 
L 374.068954 306.596968 
L 374.424077 302.138305 
L 375.134328 305.206036 
L 375.311891 305.100088 
L 375.844579 304.845093 
L 376.55483 307.702048 
L 376.909953 308.163636 
L 377.265079 309.961912 
L 378.152892 306.172782 
L 378.685579 305.071269 
L 379.39583 306.287305 
L 379.928517 313.229663 
L 380.283643 315.872206 
L 380.461205 316.757618 
L 380.816331 315.550712 
L 381.171456 315.995067 
L 382.059268 308.527458 
L 382.947082 300.03229 
L 383.302206 298.891561 
L 383.834894 299.326111 
L 384.012456 299.550074 
L 384.367582 300.460977 
L 384.722707 302.00783 
L 385.432958 302.061404 
L 385.788082 302.377241 
L 387.208583 309.753854 
L 387.918834 312.036727 
L 388.273958 312.011893 
L 388.984209 310.540127 
L 389.339334 307.501798 
L 389.694459 307.079933 
L 390.582272 311.468568 
L 391.292521 315.408227 
L 392.002772 318.493381 
L 392.713022 322.059248 
L 393.95596 325.931092 
L 395.731586 325.147244 
L 396.619399 328.497719 
L 397.152087 330.356097 
L 398.217462 341.424787 
L 398.572588 349.633215 
L 399.282837 351.487229 
L 399.637963 351.354597 
L 400.525775 349.664546 
L 401.236026 349.002251 
L 402.478964 348.042608 
L 403.189215 348.684079 
L 404.077026 352.067206 
L 404.609714 353.477752 
L 406.207777 344.819699 
L 406.38534 343.738299 
L 407.09559 332.328546 
L 408.338529 313.925717 
L 408.871216 307.79413 
L 409.226341 306.826021 
L 409.581467 307.579138 
L 411.001967 318.64519 
L 411.357092 317.797738 
L 411.712216 319.099337 
L 412.067343 319.181777 
L 412.60003 320.396195 
L 412.777593 320.61748 
L 413.132718 321.685245 
L 413.487843 321.617384 
L 413.842968 322.033323 
L 414.198092 321.539524 
L 414.730781 318.058791 
L 415.441031 313.167048 
L 417.216657 299.953698 
L 417.571782 299.017831 
L 418.459595 297.847509 
L 418.992282 297.668494 
L 419.169846 297.679969 
L 419.524969 299.104004 
L 420.235221 299.991499 
L 420.590345 303.557401 
L 420.945471 304.237081 
L 421.478158 303.236108 
L 422.365971 302.194185 
L 422.898659 301.559229 
L 423.431347 301.137163 
L 423.964034 300.309435 
L 424.141597 300.157083 
L 425.384535 294.731782 
L 425.562098 294.179708 
L 425.917222 294.580556 
L 426.272348 295.370312 
L 426.805036 295.488414 
L 427.16016 295.394274 
L 427.337724 295.31523 
L 428.403098 293.041098 
L 428.935786 291.537787 
L 429.468473 289.672326 
L 430.53385 280.145704 
L 431.776787 279.500659 
L 432.309475 278.94214 
L 433.019725 280.528223 
L 433.729975 276.545528 
L 434.440227 284.931056 
L 435.150476 286.520296 
L 436.570976 287.171959 
L 438.346601 291.680318 
L 439.58954 287.190041 
L 441.01004 280.283713 
L 441.897853 273.622908 
L 443.140792 258.073314 
L 443.851042 251.049518 
L 444.916417 245.654017 
L 445.449104 243.965394 
L 445.804231 247.509741 
L 446.159355 247.869278 
L 446.869606 247.685555 
L 447.93498 248.780874 
L 449.000356 247.901758 
L 449.888169 246.142099 
L 450.420857 245.587527 
L 451.663795 241.767905 
L 452.196483 240.278057 
L 452.551607 240.036746 
L 453.439421 238.440387 
L 454.682359 237.547945 
L 456.102859 239.414997 
L 456.457985 238.377026 
L 456.813108 238.321567 
L 458.94386 245.226909 
L 459.65411 245.18489 
L 460.36436 247.403738 
L 461.784862 244.575554 
L 462.139986 249.050141 
L 462.850237 251.180114 
L 463.205361 256.770965 
L 463.73805 254.365202 
L 464.093175 252.749645 
L 464.980987 250.182358 
L 465.336113 249.638581 
L 465.691237 249.666905 
L 465.691237 249.666905 
" style="fill:none;stroke:#55a868;stroke-linecap:round;stroke-opacity:0.75;stroke-width:1.5;"/>
   </g>
   <g id="line2d_16">
    <path clip-path="url(#p736e1644a5)" d="M 88.548344 178.475815 
L 89.61372 182.914038 
L 89.968845 182.01583 
L 90.323969 183.390058 
L 91.566908 179.546187 
L 92.454721 177.852915 
L 92.809845 178.06137 
L 93.164971 178.616041 
L 93.87522 181.667931 
L 94.230347 181.784639 
L 96.361096 190.215945 
L 96.716223 190.536583 
L 97.071348 189.890106 
L 97.426472 188.710716 
L 98.491848 182.458325 
L 99.202098 175.543057 
L 100.6226 158.859517 
L 100.977723 155.497299 
L 101.33285 156.049223 
L 101.865537 160.144948 
L 102.398225 165.775635 
L 102.753349 173.145263 
L 103.108475 175.882433 
L 104.528975 178.817881 
L 105.949476 169.146092 
L 106.304601 163.586807 
L 106.659726 162.821044 
L 107.014851 164.570027 
L 107.547539 171.316517 
L 107.902664 173.570149 
L 108.080226 174.484351 
L 108.435352 172.621498 
L 108.790477 173.572694 
L 110.033415 179.067146 
L 110.38854 179.870729 
L 110.566102 180.146564 
L 110.921228 180.253548 
L 111.80904 179.398336 
L 112.341727 178.608491 
L 113.229541 178.419208 
L 140.396614 180.022166 
L 140.751739 180.456772 
L 141.461989 182.163388 
L 141.817114 179.939574 
L 142.349802 185.354979 
L 142.527364 186.608234 
L 143.947865 186.099562 
L 144.658116 187.246639 
L 145.723492 192.219479 
L 146.078615 202.803692 
L 146.433742 196.584804 
L 146.788867 194.624295 
L 147.321554 203.529033 
L 147.499117 205.79457 
L 147.854241 202.37464 
L 148.209367 203.352911 
L 148.564492 197.622196 
L 148.919617 205.19424 
L 149.629867 206.287028 
L 150.340118 204.984406 
L 150.695242 209.745224 
L 151.050368 208.05357 
L 151.760618 209.712465 
L 152.470868 209.363832 
L 152.825994 210.066815 
L 153.181118 208.660445 
L 153.536244 208.243585 
L 153.89137 208.300424 
L 154.424057 209.698964 
L 156.554808 216.99491 
L 157.265058 222.419912 
L 157.797745 227.984046 
L 159.218246 244.134748 
L 160.106059 248.168867 
L 160.993872 251.759254 
L 162.059247 253.508993 
L 163.124622 251.261926 
L 163.834872 251.91111 
L 164.189999 252.654623 
L 164.545123 251.47737 
L 164.900248 252.005308 
L 165.255374 253.188254 
L 165.610498 255.388281 
L 166.320749 263.038568 
L 166.853436 266.777587 
L 168.273937 274.272335 
L 168.629062 277.256489 
L 169.339313 283.607634 
L 169.872001 286.184666 
L 170.937375 286.407828 
L 172.00275 278.758148 
L 172.357877 275.759348 
L 173.068127 275.822019 
L 173.423252 276.646702 
L 173.778376 276.798352 
L 174.488626 279.338589 
L 175.731565 288.66027 
L 176.79694 294.612866 
L 177.862315 299.48855 
L 178.395003 301.296638 
L 179.105253 299.914084 
L 179.815503 293.522895 
L 180.525755 294.266881 
L 181.591129 299.997974 
L 182.123817 300.419044 
L 182.30138 300.507367 
L 183.01163 301.875989 
L 183.544318 299.0192 
L 184.077006 297.206642 
L 184.964818 294.270417 
L 185.142381 293.726598 
L 185.852632 285.313089 
L 187.273132 262.913124 
L 187.628257 261.624036 
L 188.338508 262.892418 
L 188.693632 264.529783 
L 189.22632 271.138313 
L 190.64682 292.360397 
L 191.357071 298.973412 
L 191.712195 300.362797 
L 191.889759 300.736457 
L 192.600009 299.77302 
L 193.310259 297.981225 
L 194.198071 291.338048 
L 195.263447 280.336525 
L 195.618572 275.92857 
L 196.328822 267.189192 
L 197.216636 261.863878 
L 198.282011 259.721643 
L 198.814698 256.578333 
L 198.992262 255.968156 
L 199.347385 244.980813 
L 199.702512 247.6468 
L 201.123012 221.85343 
L 202.543513 210.169324 
L 202.898637 211.443577 
L 203.608889 211.423246 
L 204.141576 216.675219 
L 204.674263 222.158093 
L 205.029388 224.773713 
L 205.739638 225.855855 
L 206.094765 226.313666 
L 206.805015 232.104824 
L 207.515264 229.927204 
L 208.047952 233.134847 
L 208.225514 233.943782 
L 208.935765 229.246863 
L 209.29089 229.316406 
L 209.646015 229.122492 
L 210.711391 219.655937 
L 211.066515 219.647473 
L 211.421641 219.30261 
L 211.776766 218.236573 
L 212.131891 220.913111 
L 212.487017 220.006186 
L 212.842141 219.814263 
L 213.197267 222.493541 
L 213.552391 223.219863 
L 214.262642 222.700993 
L 215.150455 235.228526 
L 215.860705 242.829242 
L 216.21583 246.000944 
L 216.748518 249.155779 
L 217.458769 251.407384 
L 218.346581 256.984722 
L 218.701706 258.492617 
L 219.056831 259.966509 
L 219.58952 261.817004 
L 221.542707 271.765875 
L 222.608083 276.618168 
L 223.673458 283.707364 
L 224.028584 285.758024 
L 225.626647 297.265762 
L 225.981771 295.849803 
L 226.692022 306.474965 
L 227.757397 326.799673 
L 228.112523 330.727826 
L 228.822772 333.36682 
L 229.888148 331.151199 
L 230.953524 321.624303 
L 231.308648 319.035869 
L 232.018899 318.205551 
L 233.084273 310.670418 
L 234.149649 295.452826 
L 234.8599 286.306389 
L 235.57015 280.736289 
L 236.990651 263.380328 
L 237.345777 271.441595 
L 237.878464 268.129896 
L 238.056026 267.604404 
L 238.411151 268.279056 
L 238.766276 270.933513 
L 239.476526 283.74354 
L 240.36434 300.227765 
L 240.541903 302.810587 
L 240.897028 303.525799 
L 241.252151 302.784789 
L 241.962402 296.169303 
L 243.560466 270.771588 
L 244.093154 265.302633 
L 244.448278 263.568902 
L 245.336091 264.838391 
L 245.868779 265.217975 
L 246.401466 261.78977 
L 246.934155 259.700291 
L 247.821967 250.766907 
L 248.532217 243.52333 
L 249.775156 236.834424 
L 252.083468 235.071594 
L 252.616156 234.969491 
L 252.971282 223.620555 
L 253.326407 233.762967 
L 253.681532 234.551305 
L 255.102033 241.167492 
L 255.812284 238.510005 
L 256.344971 236.737361 
L 256.522533 236.300134 
L 257.410346 236.713775 
L 257.765471 236.86551 
L 258.29816 237.100024 
L 258.830847 237.163858 
L 259.718658 237.59742 
L 260.251347 238.00017 
L 260.42891 238.030045 
L 260.961597 238.688599 
L 261.13916 238.768252 
L 261.671847 241.022489 
L 262.914786 247.532889 
L 263.980162 252.35646 
L 264.512849 255.605063 
L 265.045536 260.335495 
L 266.466037 276.629329 
L 266.821161 277.586657 
L 267.176288 277.180161 
L 267.531413 277.70488 
L 267.886537 277.488524 
L 268.241663 277.729966 
L 269.4846 281.040289 
L 270.194851 283.053499 
L 270.549975 283.522652 
L 270.727539 283.673549 
L 271.082664 283.490047 
L 271.437788 282.506038 
L 271.970476 279.159678 
L 272.325602 278.050932 
L 272.503164 277.732293 
L 272.85829 277.85912 
L 273.213414 278.91342 
L 273.746102 282.622093 
L 274.456352 288.117185 
L 274.811478 289.914494 
L 274.989039 290.509534 
L 275.344166 290.64827 
L 275.69929 290.098574 
L 276.054416 288.242605 
L 276.409541 294.504971 
L 276.764666 293.521126 
L 278.007604 286.289147 
L 278.717854 280.189037 
L 279.250541 273.773476 
L 279.605667 272.35296 
L 280.671042 263.122859 
L 282.269105 240.907624 
L 282.801792 236.763619 
L 283.689606 218.887885 
L 284.222294 204.429395 
L 284.577418 200.902304 
L 285.642794 175.668042 
L 286.175482 162.985396 
L 286.530607 158.702013 
L 287.063295 153.457677 
L 288.12867 134.841226 
L 289.371608 100.200707 
L 289.726733 92.757859 
L 290.614547 82.424045 
L 291.324797 89.655322 
L 292.035047 117.785018 
L 292.390172 143.338155 
L 293.100422 160.752733 
L 293.455546 163.935976 
L 294.165798 163.250812 
L 295.231173 157.985751 
L 297.71705 127.160937 
L 299.670237 79.390781 
L 301.2683 59.79765 
L 302.688801 82.132026 
L 303.399051 95.903494 
L 303.931739 120.622175 
L 305.352239 152.121329 
L 305.884927 158.403746 
L 306.595178 159.714174 
L 306.950302 162.289331 
L 307.305428 162.816827 
L 308.015678 158.069786 
L 308.725927 156.906721 
L 309.613741 167.19075 
L 311.034242 189.911975 
L 311.744492 199.779442 
L 312.454741 205.033461 
L 313.164992 207.400725 
L 313.69768 208.226853 
L 314.40793 208.361386 
L 315.473306 211.242133 
L 315.82843 212.379246 
L 316.53868 212.902194 
L 317.426494 212.556821 
L 317.959182 212.636191 
L 318.669432 214.979717 
L 319.379682 215.776993 
L 320.089931 213.737881 
L 321.33287 202.850302 
L 322.398246 192.988642 
L 323.108496 189.165621 
L 323.818747 187.724103 
L 324.351435 187.205717 
L 325.061685 184.916035 
L 325.949497 172.214332 
L 327.192434 159.838993 
L 327.547561 157.748261 
L 328.612936 162.799282 
L 329.500749 177.867447 
L 329.855873 184.402961 
L 330.210999 187.8303 
L 330.921248 191.86533 
L 331.276374 193.32696 
L 331.986624 195.700198 
L 332.519312 196.667241 
L 333.407125 194.533095 
L 333.76225 194.07246 
L 333.939813 193.909677 
L 334.4725 192.697751 
L 334.827625 191.466455 
L 335.715439 188.151902 
L 336.425689 186.964858 
L 337.135939 186.526836 
L 337.846189 188.457067 
L 338.556439 192.486358 
L 340.332066 195.645213 
L 342.817942 191.384649 
L 344.238441 186.036071 
L 345.303817 182.431461 
L 346.369193 178.701529 
L 346.724317 179.389158 
L 347.079443 180.667793 
L 347.789692 184.957416 
L 348.144818 185.732602 
L 349.210194 192.081148 
L 350.275568 199.444916 
L 350.630694 200.276631 
L 350.98582 200.203432 
L 351.340943 199.245972 
L 352.761445 192.552079 
L 353.11657 192.408105 
L 353.471695 215.699545 
L 354.359508 232.158374 
L 355.247321 248.65309 
L 356.135134 260.850537 
L 356.845384 267.755889 
L 357.378071 271.781237 
L 358.265884 277.915889 
L 358.62101 279.415501 
L 358.798573 279.869355 
L 359.153697 280.164314 
L 360.04151 282.10608 
L 360.219072 282.652276 
L 360.574198 284.805537 
L 361.284449 291.92697 
L 362.349824 297.956804 
L 363.060074 298.353772 
L 363.415199 298.051493 
L 364.125449 295.562375 
L 364.658136 293.259717 
L 365.013262 291.837226 
L 365.190825 290.986164 
L 365.545949 312.746323 
L 366.078637 316.331875 
L 366.256199 317.038927 
L 366.611325 316.427867 
L 367.321575 311.939587 
L 367.676701 300.030558 
L 368.031825 303.031602 
L 368.386951 298.417088 
L 368.742076 298.706364 
L 369.0972 290.253572 
L 369.629889 288.256572 
L 369.80745 287.834488 
L 370.517702 288.186903 
L 370.872826 274.068712 
L 372.47089 281.597789 
L 372.648452 282.146409 
L 373.003578 282.016041 
L 373.713828 278.748568 
L 374.068954 276.413145 
L 374.424077 276.909276 
L 374.779203 276.134109 
L 375.844579 265.858131 
L 376.55483 265.764031 
L 376.909953 267.030512 
L 377.265079 270.123523 
L 377.975328 271.518062 
L 378.863142 275.405452 
L 379.573392 279.59397 
L 379.928517 281.747824 
L 380.10608 282.453634 
L 380.461205 285.422408 
L 380.816331 285.897708 
L 381.171456 287.851207 
L 381.52658 287.875576 
L 381.881706 288.251079 
L 382.236831 285.386802 
L 382.591956 284.92316 
L 382.947082 283.296002 
L 383.302206 283.31342 
L 383.657331 283.07851 
L 384.012456 283.699067 
L 384.545144 286.935567 
L 384.722707 287.525563 
L 385.610519 294.871148 
L 386.675895 301.578044 
L 387.208583 306.193766 
L 387.918834 304.150884 
L 388.273958 305.074085 
L 389.339334 301.823854 
L 389.694459 297.562539 
L 390.404709 302.317187 
L 391.114959 295.328179 
L 392.002772 298.652734 
L 392.53546 299.784026 
L 394.133523 297.924692 
L 395.731586 295.398951 
L 396.086712 287.991611 
L 397.507211 291.578278 
L 398.217462 291.248885 
L 399.105275 285.527363 
L 399.4604 283.95693 
L 399.637963 283.447213 
L 401.058462 283.793845 
L 402.301401 279.832806 
L 403.544338 273.844291 
L 403.899465 272.02842 
L 405.319964 255.110197 
L 406.918028 235.532075 
L 407.09559 234.581998 
L 408.338529 215.805792 
L 408.871216 209.35856 
L 409.226341 205.584348 
L 409.581467 206.372077 
L 410.114154 216.422726 
L 411.88978 254.417868 
L 412.422467 262.958738 
L 413.132718 270.615463 
L 414.198092 282.643271 
L 414.908343 285.484413 
L 415.263468 285.958359 
L 415.618594 285.506411 
L 416.683969 283.126508 
L 417.039094 284.363106 
L 417.749344 288.392642 
L 418.10447 288.789784 
L 418.459595 287.870516 
L 418.992282 285.083624 
L 419.524969 283.510588 
L 420.235221 284.217995 
L 421.478158 279.621712 
L 422.898659 273.630972 
L 423.964034 266.00315 
L 424.496722 260.365698 
L 425.206973 249.086086 
L 426.272348 229.51115 
L 426.982598 221.802129 
L 428.225535 214.126272 
L 428.935786 212.442089 
L 429.468473 211.705663 
L 430.711411 206.852223 
L 431.776787 201.468688 
L 433.019725 196.661753 
L 434.262663 190.912707 
L 436.570976 177.137152 
L 437.281226 177.600647 
L 437.991478 179.384157 
L 438.346601 181.098587 
L 439.411978 179.844395 
L 440.122228 183.133643 
L 440.832478 184.017089 
L 441.897853 186.771501 
L 442.608104 185.025794 
L 444.206167 172.208013 
L 444.916417 167.462955 
L 445.449104 164.527357 
L 445.804231 168.695274 
L 446.514481 170.21891 
L 447.757419 178.451466 
L 448.467669 182.933021 
L 449.000356 184.700544 
L 449.710606 181.87658 
L 450.420857 183.260687 
L 451.131107 178.1159 
L 452.196483 178.098206 
L 453.439421 172.798253 
L 455.037483 171.755217 
L 456.457985 175.286926 
L 457.52336 187.262422 
L 458.94386 191.444133 
L 460.36436 199.512288 
L 461.074612 196.717543 
L 461.784862 197.083911 
L 462.850237 214.836001 
L 463.205361 216.206574 
L 463.560487 216.276182 
L 463.915611 215.143272 
L 464.625863 218.245597 
L 465.691237 210.864595 
L 465.691237 210.864595 
" style="fill:none;stroke:#c44e52;stroke-linecap:round;stroke-opacity:0.75;stroke-width:1.5;"/>
   </g>
   <g id="patch_3">
    <path d="M 71.6799 383.5095 
L 71.6799 44.3828 
" style="fill:none;stroke:#ffffff;stroke-linecap:square;stroke-linejoin:miter;stroke-width:1.25;"/>
   </g>
   <g id="patch_4">
    <path d="M 465.8688 383.5095 
L 465.8688 44.3828 
" style="fill:none;stroke:#ffffff;stroke-linecap:square;stroke-linejoin:miter;stroke-width:1.25;"/>
   </g>
   <g id="patch_5">
    <path d="M 71.6799 383.5095 
L 465.8688 383.5095 
" style="fill:none;stroke:#ffffff;stroke-linecap:square;stroke-linejoin:miter;stroke-width:1.25;"/>
   </g>
   <g id="patch_6">
    <path d="M 71.6799 44.3828 
L 465.8688 44.3828 
" style="fill:none;stroke:#ffffff;stroke-linecap:square;stroke-linejoin:miter;stroke-width:1.25;"/>
   </g>
   <g id="text_17">
    <!-- APE w.r.t. translation part (m) -->
    <defs>
     <path d="M 4.203125 54.6875 
L 13.1875 54.6875 
L 24.421875 12.015625 
L 35.59375 54.6875 
L 46.1875 54.6875 
L 57.421875 12.015625 
L 68.609375 54.6875 
L 77.59375 54.6875 
L 63.28125 0 
L 52.6875 0 
L 40.921875 44.828125 
L 29.109375 0 
L 18.5 0 
z
" id="DejaVuSans-77"/>
     <path d="M 41.109375 46.296875 
Q 39.59375 47.171875 37.8125 47.578125 
Q 36.03125 48 33.890625 48 
Q 26.265625 48 22.1875 43.046875 
Q 18.109375 38.09375 18.109375 28.8125 
L 18.109375 0 
L 9.078125 0 
L 9.078125 54.6875 
L 18.109375 54.6875 
L 18.109375 46.1875 
Q 20.953125 51.171875 25.484375 53.578125 
Q 30.03125 56 36.53125 56 
Q 37.453125 56 38.578125 55.875 
Q 39.703125 55.765625 41.0625 55.515625 
z
" id="DejaVuSans-72"/>
     <path d="M 18.3125 70.21875 
L 18.3125 54.6875 
L 36.8125 54.6875 
L 36.8125 47.703125 
L 18.3125 47.703125 
L 18.3125 18.015625 
Q 18.3125 11.328125 20.140625 9.421875 
Q 21.96875 7.515625 27.59375 7.515625 
L 36.8125 7.515625 
L 36.8125 0 
L 27.59375 0 
Q 17.1875 0 13.234375 3.875 
Q 9.28125 7.765625 9.28125 18.015625 
L 9.28125 47.703125 
L 2.6875 47.703125 
L 2.6875 54.6875 
L 9.28125 54.6875 
L 9.28125 70.21875 
z
" id="DejaVuSans-74"/>
     <path d="M 34.28125 27.484375 
Q 23.390625 27.484375 19.1875 25 
Q 14.984375 22.515625 14.984375 16.5 
Q 14.984375 11.71875 18.140625 8.90625 
Q 21.296875 6.109375 26.703125 6.109375 
Q 34.1875 6.109375 38.703125 11.40625 
Q 43.21875 16.703125 43.21875 25.484375 
L 43.21875 27.484375 
z
M 52.203125 31.203125 
L 52.203125 0 
L 43.21875 0 
L 43.21875 8.296875 
Q 40.140625 3.328125 35.546875 0.953125 
Q 30.953125 -1.421875 24.3125 -1.421875 
Q 15.921875 -1.421875 10.953125 3.296875 
Q 6 8.015625 6 15.921875 
Q 6 25.140625 12.171875 29.828125 
Q 18.359375 34.515625 30.609375 34.515625 
L 43.21875 34.515625 
L 43.21875 35.40625 
Q 43.21875 41.609375 39.140625 45 
Q 35.0625 48.390625 27.6875 48.390625 
Q 23 48.390625 18.546875 47.265625 
Q 14.109375 46.140625 10.015625 43.890625 
L 10.015625 52.203125 
Q 14.9375 54.109375 19.578125 55.046875 
Q 24.21875 56 28.609375 56 
Q 40.484375 56 46.34375 49.84375 
Q 52.203125 43.703125 52.203125 31.203125 
z
" id="DejaVuSans-61"/>
     <path d="M 54.890625 33.015625 
L 54.890625 0 
L 45.90625 0 
L 45.90625 32.71875 
Q 45.90625 40.484375 42.875 44.328125 
Q 39.84375 48.1875 33.796875 48.1875 
Q 26.515625 48.1875 22.3125 43.546875 
Q 18.109375 38.921875 18.109375 30.90625 
L 18.109375 0 
L 9.078125 0 
L 9.078125 54.6875 
L 18.109375 54.6875 
L 18.109375 46.1875 
Q 21.34375 51.125 25.703125 53.5625 
Q 30.078125 56 35.796875 56 
Q 45.21875 56 50.046875 50.171875 
Q 54.890625 44.34375 54.890625 33.015625 
z
" id="DejaVuSans-6e"/>
     <path d="M 9.421875 75.984375 
L 18.40625 75.984375 
L 18.40625 0 
L 9.421875 0 
z
" id="DejaVuSans-6c"/>
     <path d="M 9.421875 54.6875 
L 18.40625 54.6875 
L 18.40625 0 
L 9.421875 0 
z
M 9.421875 75.984375 
L 18.40625 75.984375 
L 18.40625 64.59375 
L 9.421875 64.59375 
z
" id="DejaVuSans-69"/>
     <path d="M 30.609375 48.390625 
Q 23.390625 48.390625 19.1875 42.75 
Q 14.984375 37.109375 14.984375 27.296875 
Q 14.984375 17.484375 19.15625 11.84375 
Q 23.34375 6.203125 30.609375 6.203125 
Q 37.796875 6.203125 41.984375 11.859375 
Q 46.1875 17.53125 46.1875 27.296875 
Q 46.1875 37.015625 41.984375 42.703125 
Q 37.796875 48.390625 30.609375 48.390625 
z
M 30.609375 56 
Q 42.328125 56 49.015625 48.375 
Q 55.71875 40.765625 55.71875 27.296875 
Q 55.71875 13.875 49.015625 6.21875 
Q 42.328125 -1.421875 30.609375 -1.421875 
Q 18.84375 -1.421875 12.171875 6.21875 
Q 5.515625 13.875 5.515625 27.296875 
Q 5.515625 40.765625 12.171875 48.375 
Q 18.84375 56 30.609375 56 
z
" id="DejaVuSans-6f"/>
     <path d="M 18.109375 8.203125 
L 18.109375 -20.796875 
L 9.078125 -20.796875 
L 9.078125 54.6875 
L 18.109375 54.6875 
L 18.109375 46.390625 
Q 20.953125 51.265625 25.265625 53.625 
Q 29.59375 56 35.59375 56 
Q 45.5625 56 51.78125 48.09375 
Q 58.015625 40.1875 58.015625 27.296875 
Q 58.015625 14.40625 51.78125 6.484375 
Q 45.5625 -1.421875 35.59375 -1.421875 
Q 29.59375 -1.421875 25.265625 0.953125 
Q 20.953125 3.328125 18.109375 8.203125 
z
M 48.6875 27.296875 
Q 48.6875 37.203125 44.609375 42.84375 
Q 40.53125 48.484375 33.40625 48.484375 
Q 26.265625 48.484375 22.1875 42.84375 
Q 18.109375 37.203125 18.109375 27.296875 
Q 18.109375 17.390625 22.1875 11.75 
Q 26.265625 6.109375 33.40625 6.109375 
Q 40.53125 6.109375 44.609375 11.75 
Q 48.6875 17.390625 48.6875 27.296875 
z
" id="DejaVuSans-70"/>
    </defs>
    <g style="fill:#262626;" transform="translate(179.112788 24.945425)scale(0.12 -0.12)">
     <use xlink:href="#DejaVuSans-41"/>
     <use x="68.408203" xlink:href="#DejaVuSans-50"/>
     <use x="128.710938" xlink:href="#DejaVuSans-45"/>
     <use x="191.894531" xlink:href="#DejaVuSans-20"/>
     <use x="223.681641" xlink:href="#DejaVuSans-77"/>
     <use x="305.328125" xlink:href="#DejaVuSans-2e"/>
     <use x="337.115234" xlink:href="#DejaVuSans-72"/>
     <use x="378.087891" xlink:href="#DejaVuSans-2e"/>
     <use x="409.875" xlink:href="#DejaVuSans-74"/>
     <use x="449.083984" xlink:href="#DejaVuSans-2e"/>
     <use x="480.871094" xlink:href="#DejaVuSans-20"/>
     <use x="512.658203" xlink:href="#DejaVuSans-74"/>
     <use x="551.867188" xlink:href="#DejaVuSans-72"/>
     <use x="592.980469" xlink:href="#DejaVuSans-61"/>
     <use x="654.259766" xlink:href="#DejaVuSans-6e"/>
     <use x="717.638672" xlink:href="#DejaVuSans-73"/>
     <use x="769.738281" xlink:href="#DejaVuSans-6c"/>
     <use x="797.521484" xlink:href="#DejaVuSans-61"/>
     <use x="858.800781" xlink:href="#DejaVuSans-74"/>
     <use x="898.009766" xlink:href="#DejaVuSans-69"/>
     <use x="925.792969" xlink:href="#DejaVuSans-6f"/>
     <use x="986.974609" xlink:href="#DejaVuSans-6e"/>
     <use x="1050.353516" xlink:href="#DejaVuSans-20"/>
     <use x="1082.140625" xlink:href="#DejaVuSans-70"/>
     <use x="1145.617188" xlink:href="#DejaVuSans-61"/>
     <use x="1206.896484" xlink:href="#DejaVuSans-72"/>
     <use x="1248.009766" xlink:href="#DejaVuSans-74"/>
     <use x="1287.21875" xlink:href="#DejaVuSans-20"/>
     <use x="1319.005859" xlink:href="#DejaVuSans-28"/>
     <use x="1358.019531" xlink:href="#DejaVuSans-6d"/>
     <use x="1455.431641" xlink:href="#DejaVuSans-29"/>
    </g>
    <!-- (with SE(3) Umeyama alignment) -->
    <defs>
     <path d="M 54.890625 33.015625 
L 54.890625 0 
L 45.90625 0 
L 45.90625 32.71875 
Q 45.90625 40.484375 42.875 44.328125 
Q 39.84375 48.1875 33.796875 48.1875 
Q 26.515625 48.1875 22.3125 43.546875 
Q 18.109375 38.921875 18.109375 30.90625 
L 18.109375 0 
L 9.078125 0 
L 9.078125 75.984375 
L 18.109375 75.984375 
L 18.109375 46.1875 
Q 21.34375 51.125 25.703125 53.5625 
Q 30.078125 56 35.796875 56 
Q 45.21875 56 50.046875 50.171875 
Q 54.890625 44.34375 54.890625 33.015625 
z
" id="DejaVuSans-68"/>
     <path d="M 53.515625 70.515625 
L 53.515625 60.890625 
Q 47.90625 63.578125 42.921875 64.890625 
Q 37.9375 66.21875 33.296875 66.21875 
Q 25.25 66.21875 20.875 63.09375 
Q 16.5 59.96875 16.5 54.203125 
Q 16.5 49.359375 19.40625 46.890625 
Q 22.3125 44.4375 30.421875 42.921875 
L 36.375 41.703125 
Q 47.40625 39.59375 52.65625 34.296875 
Q 57.90625 29 57.90625 20.125 
Q 57.90625 9.515625 50.796875 4.046875 
Q 43.703125 -1.421875 29.984375 -1.421875 
Q 24.8125 -1.421875 18.96875 -0.25 
Q 13.140625 0.921875 6.890625 3.21875 
L 6.890625 13.375 
Q 12.890625 10.015625 18.65625 8.296875 
Q 24.421875 6.59375 29.984375 6.59375 
Q 38.421875 6.59375 43.015625 9.90625 
Q 47.609375 13.234375 47.609375 19.390625 
Q 47.609375 24.75 44.3125 27.78125 
Q 41.015625 30.8125 33.5 32.328125 
L 27.484375 33.5 
Q 16.453125 35.6875 11.515625 40.375 
Q 6.59375 45.0625 6.59375 53.421875 
Q 6.59375 63.09375 13.40625 68.65625 
Q 20.21875 74.21875 32.171875 74.21875 
Q 37.3125 74.21875 42.625 73.28125 
Q 47.953125 72.359375 53.515625 70.515625 
z
" id="DejaVuSans-53"/>
     <path d="M 8.6875 72.90625 
L 18.609375 72.90625 
L 18.609375 28.609375 
Q 18.609375 16.890625 22.84375 11.734375 
Q 27.09375 6.59375 36.625 6.59375 
Q 46.09375 6.59375 50.34375 11.734375 
Q 54.59375 16.890625 54.59375 28.609375 
L 54.59375 72.90625 
L 64.5 72.90625 
L 64.5 27.390625 
Q 64.5 13.140625 57.4375 5.859375 
Q 50.390625 -1.421875 36.625 -1.421875 
Q 22.796875 -1.421875 15.734375 5.859375 
Q 8.6875 13.140625 8.6875 27.390625 
z
" id="DejaVuSans-55"/>
     <path d="M 32.171875 -5.078125 
Q 28.375 -14.84375 24.75 -17.8125 
Q 21.140625 -20.796875 15.09375 -20.796875 
L 7.90625 -20.796875 
L 7.90625 -13.28125 
L 13.1875 -13.28125 
Q 16.890625 -13.28125 18.9375 -11.515625 
Q 21 -9.765625 23.484375 -3.21875 
L 25.09375 0.875 
L 2.984375 54.6875 
L 12.5 54.6875 
L 29.59375 11.921875 
L 46.6875 54.6875 
L 56.203125 54.6875 
z
" id="DejaVuSans-79"/>
     <path d="M 45.40625 27.984375 
Q 45.40625 37.75 41.375 43.109375 
Q 37.359375 48.484375 30.078125 48.484375 
Q 22.859375 48.484375 18.828125 43.109375 
Q 14.796875 37.75 14.796875 27.984375 
Q 14.796875 18.265625 18.828125 12.890625 
Q 22.859375 7.515625 30.078125 7.515625 
Q 37.359375 7.515625 41.375 12.890625 
Q 45.40625 18.265625 45.40625 27.984375 
z
M 54.390625 6.78125 
Q 54.390625 -7.171875 48.1875 -13.984375 
Q 42 -20.796875 29.203125 -20.796875 
Q 24.46875 -20.796875 20.265625 -20.09375 
Q 16.0625 -19.390625 12.109375 -17.921875 
L 12.109375 -9.1875 
Q 16.0625 -11.328125 19.921875 -12.34375 
Q 23.78125 -13.375 27.78125 -13.375 
Q 36.625 -13.375 41.015625 -8.765625 
Q 45.40625 -4.15625 45.40625 5.171875 
L 45.40625 9.625 
Q 42.625 4.78125 38.28125 2.390625 
Q 33.9375 0 27.875 0 
Q 17.828125 0 11.671875 7.65625 
Q 5.515625 15.328125 5.515625 27.984375 
Q 5.515625 40.671875 11.671875 48.328125 
Q 17.828125 56 27.875 56 
Q 33.9375 56 38.28125 53.609375 
Q 42.625 51.21875 45.40625 46.390625 
L 45.40625 54.6875 
L 54.390625 54.6875 
z
" id="DejaVuSans-67"/>
    </defs>
    <g style="fill:#262626;" transform="translate(168.553725 38.3828)scale(0.12 -0.12)">
     <use xlink:href="#DejaVuSans-28"/>
     <use x="39.013672" xlink:href="#DejaVuSans-77"/>
     <use x="120.800781" xlink:href="#DejaVuSans-69"/>
     <use x="148.583984" xlink:href="#DejaVuSans-74"/>
     <use x="187.792969" xlink:href="#DejaVuSans-68"/>
     <use x="251.171875" xlink:href="#DejaVuSans-20"/>
     <use x="282.958984" xlink:href="#DejaVuSans-53"/>
     <use x="346.435547" xlink:href="#DejaVuSans-45"/>
     <use x="409.619141" xlink:href="#DejaVuSans-28"/>
     <use x="448.632812" xlink:href="#DejaVuSans-33"/>
     <use x="512.255859" xlink:href="#DejaVuSans-29"/>
     <use x="551.269531" xlink:href="#DejaVuSans-20"/>
     <use x="583.056641" xlink:href="#DejaVuSans-55"/>
     <use x="656.25" xlink:href="#DejaVuSans-6d"/>
     <use x="753.662109" xlink:href="#DejaVuSans-65"/>
     <use x="815.185547" xlink:href="#DejaVuSans-79"/>
     <use x="874.365234" xlink:href="#DejaVuSans-61"/>
     <use x="935.644531" xlink:href="#DejaVuSans-6d"/>
     <use x="1033.056641" xlink:href="#DejaVuSans-61"/>
     <use x="1094.335938" xlink:href="#DejaVuSans-20"/>
     <use x="1126.123047" xlink:href="#DejaVuSans-61"/>
     <use x="1187.402344" xlink:href="#DejaVuSans-6c"/>
     <use x="1215.185547" xlink:href="#DejaVuSans-69"/>
     <use x="1242.96875" xlink:href="#DejaVuSans-67"/>
     <use x="1306.445312" xlink:href="#DejaVuSans-6e"/>
     <use x="1369.824219" xlink:href="#DejaVuSans-6d"/>
     <use x="1467.236328" xlink:href="#DejaVuSans-65"/>
     <use x="1528.759766" xlink:href="#DejaVuSans-6e"/>
     <use x="1592.138672" xlink:href="#DejaVuSans-74"/>
     <use x="1631.347656" xlink:href="#DejaVuSans-29"/>
    </g>
   </g>
   <g id="legend_1">
    <g id="patch_7">
     <path d="M 325.881769 102.538425 
L 458.1688 102.538425 
Q 460.3688 102.538425 460.3688 100.338425 
L 460.3688 52.0828 
Q 460.3688 49.8828 458.1688 49.8828 
L 325.881769 49.8828 
Q 323.681769 49.8828 323.681769 52.0828 
L 323.681769 100.338425 
Q 323.681769 102.538425 325.881769 102.538425 
z
" style="fill:#eaeaf2;opacity:0.8;stroke:#cccccc;stroke-linejoin:miter;"/>
    </g>
    <g id="line2d_17">
     <path d="M 328.081769 58.791081 
L 350.081769 58.791081 
" style="fill:none;stroke:#4c72b0;stroke-linecap:round;stroke-opacity:0.75;stroke-width:1.5;"/>
    </g>
    <g id="line2d_18"/>
    <g id="text_18">
     <!-- basalt_traj -->
     <defs>
      <path d="M 48.6875 27.296875 
Q 48.6875 37.203125 44.609375 42.84375 
Q 40.53125 48.484375 33.40625 48.484375 
Q 26.265625 48.484375 22.1875 42.84375 
Q 18.109375 37.203125 18.109375 27.296875 
Q 18.109375 17.390625 22.1875 11.75 
Q 26.265625 6.109375 33.40625 6.109375 
Q 40.53125 6.109375 44.609375 11.75 
Q 48.6875 17.390625 48.6875 27.296875 
z
M 18.109375 46.390625 
Q 20.953125 51.265625 25.265625 53.625 
Q 29.59375 56 35.59375 56 
Q 45.5625 56 51.78125 48.09375 
Q 58.015625 40.1875 58.015625 27.296875 
Q 58.015625 14.40625 51.78125 6.484375 
Q 45.5625 -1.421875 35.59375 -1.421875 
Q 29.59375 -1.421875 25.265625 0.953125 
Q 20.953125 3.328125 18.109375 8.203125 
L 18.109375 0 
L 9.078125 0 
L 9.078125 75.984375 
L 18.109375 75.984375 
z
" id="DejaVuSans-62"/>
      <path d="M 50.984375 -16.609375 
L 50.984375 -23.578125 
L -0.984375 -23.578125 
L -0.984375 -16.609375 
z
" id="DejaVuSans-5f"/>
      <path d="M 9.421875 54.6875 
L 18.40625 54.6875 
L 18.40625 -0.984375 
Q 18.40625 -11.421875 14.421875 -16.109375 
Q 10.453125 -20.796875 1.609375 -20.796875 
L -1.8125 -20.796875 
L -1.8125 -13.1875 
L 0.59375 -13.1875 
Q 5.71875 -13.1875 7.5625 -10.8125 
Q 9.421875 -8.453125 9.421875 -0.984375 
z
M 9.421875 75.984375 
L 18.40625 75.984375 
L 18.40625 64.59375 
L 9.421875 64.59375 
z
" id="DejaVuSans-6a"/>
     </defs>
     <g style="fill:#262626;" transform="translate(358.881769 62.641081)scale(0.11 -0.11)">
      <use xlink:href="#DejaVuSans-62"/>
      <use x="63.476562" xlink:href="#DejaVuSans-61"/>
      <use x="124.755859" xlink:href="#DejaVuSans-73"/>
      <use x="176.855469" xlink:href="#DejaVuSans-61"/>
      <use x="238.134766" xlink:href="#DejaVuSans-6c"/>
      <use x="265.917969" xlink:href="#DejaVuSans-74"/>
      <use x="305.126953" xlink:href="#DejaVuSans-5f"/>
      <use x="355.126953" xlink:href="#DejaVuSans-74"/>
      <use x="394.335938" xlink:href="#DejaVuSans-72"/>
      <use x="435.449219" xlink:href="#DejaVuSans-61"/>
      <use x="496.728516" xlink:href="#DejaVuSans-6a"/>
     </g>
    </g>
    <g id="line2d_19">
     <path d="M 328.081769 75.242956 
L 350.081769 75.242956 
" style="fill:none;stroke:#55a868;stroke-linecap:round;stroke-opacity:0.75;stroke-width:1.5;"/>
    </g>
    <g id="line2d_20"/>
    <g id="text_19">
     <!-- DM_SVI_slam_traj -->
     <defs>
      <path d="M 19.671875 64.796875 
L 19.671875 8.109375 
L 31.59375 8.109375 
Q 46.6875 8.109375 53.6875 14.9375 
Q 60.6875 21.78125 60.6875 36.53125 
Q 60.6875 51.171875 53.6875 57.984375 
Q 46.6875 64.796875 31.59375 64.796875 
z
M 9.8125 72.90625 
L 30.078125 72.90625 
Q 51.265625 72.90625 61.171875 64.09375 
Q 71.09375 55.28125 71.09375 36.53125 
Q 71.09375 17.671875 61.125 8.828125 
Q 51.171875 0 30.078125 0 
L 9.8125 0 
z
" id="DejaVuSans-44"/>
      <path d="M 9.8125 72.90625 
L 24.515625 72.90625 
L 43.109375 23.296875 
L 61.8125 72.90625 
L 76.515625 72.90625 
L 76.515625 0 
L 66.890625 0 
L 66.890625 64.015625 
L 48.09375 14.015625 
L 38.1875 14.015625 
L 19.390625 64.015625 
L 19.390625 0 
L 9.8125 0 
z
" id="DejaVuSans-4d"/>
      <path d="M 28.609375 0 
L 0.78125 72.90625 
L 11.078125 72.90625 
L 34.1875 11.53125 
L 57.328125 72.90625 
L 67.578125 72.90625 
L 39.796875 0 
z
" id="DejaVuSans-56"/>
      <path d="M 9.8125 72.90625 
L 19.671875 72.90625 
L 19.671875 0 
L 9.8125 0 
z
" id="DejaVuSans-49"/>
     </defs>
     <g style="fill:#262626;" transform="translate(358.881769 79.092956)scale(0.11 -0.11)">
      <use xlink:href="#DejaVuSans-44"/>
      <use x="77.001953" xlink:href="#DejaVuSans-4d"/>
      <use x="163.28125" xlink:href="#DejaVuSans-5f"/>
      <use x="213.28125" xlink:href="#DejaVuSans-53"/>
      <use x="276.757812" xlink:href="#DejaVuSans-56"/>
      <use x="345.166016" xlink:href="#DejaVuSans-49"/>
      <use x="374.658203" xlink:href="#DejaVuSans-5f"/>
      <use x="424.658203" xlink:href="#DejaVuSans-73"/>
      <use x="476.757812" xlink:href="#DejaVuSans-6c"/>
      <use x="504.541016" xlink:href="#DejaVuSans-61"/>
      <use x="565.820312" xlink:href="#DejaVuSans-6d"/>
      <use x="663.232422" xlink:href="#DejaVuSans-5f"/>
      <use x="713.232422" xlink:href="#DejaVuSans-74"/>
      <use x="752.441406" xlink:href="#DejaVuSans-72"/>
      <use x="793.554688" xlink:href="#DejaVuSans-61"/>
      <use x="854.833984" xlink:href="#DejaVuSans-6a"/>
     </g>
    </g>
    <g id="line2d_21">
     <path d="M 328.081769 91.694831 
L 350.081769 91.694831 
" style="fill:none;stroke:#c44e52;stroke-linecap:round;stroke-opacity:0.75;stroke-width:1.5;"/>
    </g>
    <g id="line2d_22"/>
    <g id="text_20">
     <!-- vins_fusion_traj -->
     <defs>
      <path d="M 2.984375 54.6875 
L 12.5 54.6875 
L 29.59375 8.796875 
L 46.6875 54.6875 
L 56.203125 54.6875 
L 35.6875 0 
L 23.484375 0 
z
" id="DejaVuSans-76"/>
      <path d="M 37.109375 75.984375 
L 37.109375 68.5 
L 28.515625 68.5 
Q 23.6875 68.5 21.796875 66.546875 
Q 19.921875 64.59375 19.921875 59.515625 
L 19.921875 54.6875 
L 34.71875 54.6875 
L 34.71875 47.703125 
L 19.921875 47.703125 
L 19.921875 0 
L 10.890625 0 
L 10.890625 47.703125 
L 2.296875 47.703125 
L 2.296875 54.6875 
L 10.890625 54.6875 
L 10.890625 58.5 
Q 10.890625 67.625 15.140625 71.796875 
Q 19.390625 75.984375 28.609375 75.984375 
z
" id="DejaVuSans-66"/>
      <path d="M 8.5 21.578125 
L 8.5 54.6875 
L 17.484375 54.6875 
L 17.484375 21.921875 
Q 17.484375 14.15625 20.5 10.265625 
Q 23.53125 6.390625 29.59375 6.390625 
Q 36.859375 6.390625 41.078125 11.03125 
Q 45.3125 15.671875 45.3125 23.6875 
L 45.3125 54.6875 
L 54.296875 54.6875 
L 54.296875 0 
L 45.3125 0 
L 45.3125 8.40625 
Q 42.046875 3.421875 37.71875 1 
Q 33.40625 -1.421875 27.6875 -1.421875 
Q 18.265625 -1.421875 13.375 4.4375 
Q 8.5 10.296875 8.5 21.578125 
z
M 31.109375 56 
z
" id="DejaVuSans-75"/>
     </defs>
     <g style="fill:#262626;" transform="translate(358.881769 95.544831)scale(0.11 -0.11)">
      <use xlink:href="#DejaVuSans-76"/>
      <use x="59.179688" xlink:href="#DejaVuSans-69"/>
      <use x="86.962891" xlink:href="#DejaVuSans-6e"/>
      <use x="150.341797" xlink:href="#DejaVuSans-73"/>
      <use x="202.441406" xlink:href="#DejaVuSans-5f"/>
      <use x="252.441406" xlink:href="#DejaVuSans-66"/>
      <use x="287.646484" xlink:href="#DejaVuSans-75"/>
      <use x="351.025391" xlink:href="#DejaVuSans-73"/>
      <use x="403.125" xlink:href="#DejaVuSans-69"/>
      <use x="430.908203" xlink:href="#DejaVuSans-6f"/>
      <use x="492.089844" xlink:href="#DejaVuSans-6e"/>
      <use x="555.46875" xlink:href="#DejaVuSans-5f"/>
      <use x="605.46875" xlink:href="#DejaVuSans-74"/>
      <use x="644.677734" xlink:href="#DejaVuSans-72"/>
      <use x="685.791016" xlink:href="#DejaVuSans-61"/>
      <use x="747.070312" xlink:href="#DejaVuSans-6a"/>
     </g>
    </g>
   </g>
  </g>
 </g>
 <defs>
  <clipPath id="p736e1644a5">
   <rect height="339.1267" width="394.1889" x="71.6799" y="44.3828"/>
  </clipPath>
 </defs>
</svg>
