<?xml version="1.0" encoding="utf-8" standalone="no"?>
<!DOCTYPE svg PUBLIC "-//W3C//DTD SVG 1.1//EN"
  "http://www.w3.org/Graphics/SVG/1.1/DTD/svg11.dtd">
<!-- Created with matplotlib (http://matplotlib.org/) -->
<svg height="435.6pt" version="1.1" viewBox="0 0 485.28 435.6" width="485.28pt" xmlns="http://www.w3.org/2000/svg" xmlns:xlink="http://www.w3.org/1999/xlink">
 <defs>
  <style type="text/css">
*{stroke-linecap:butt;stroke-linejoin:round;}
  </style>
 </defs>
 <g id="figure_1">
  <g id="patch_1">
   <path d="M 0 435.6 
L 485.28 435.6 
L 485.28 0 
L 0 0 
z
" style="fill:#ffffff;"/>
  </g>
  <g id="axes_1">
   <g id="patch_2">
    <path d="M 71.6799 384.088031 
L 465.8688 384.088031 
L 465.8688 17.424 
L 71.6799 17.424 
z
" style="fill:#eaeaf2;"/>
   </g>
   <g id="matplotlib.axis_1">
    <g id="xtick_1">
     <g id="text_1">
      <!-- basalt_traj -->
      <defs>
       <path d="M 48.6875 27.296875 
Q 48.6875 37.203125 44.609375 42.84375 
Q 40.53125 48.484375 33.40625 48.484375 
Q 26.265625 48.484375 22.1875 42.84375 
Q 18.109375 37.203125 18.109375 27.296875 
Q 18.109375 17.390625 22.1875 11.75 
Q 26.265625 6.109375 33.40625 6.109375 
Q 40.53125 6.109375 44.609375 11.75 
Q 48.6875 17.390625 48.6875 27.296875 
z
M 18.109375 46.390625 
Q 20.953125 51.265625 25.265625 53.625 
Q 29.59375 56 35.59375 56 
Q 45.5625 56 51.78125 48.09375 
Q 58.015625 40.1875 58.015625 27.296875 
Q 58.015625 14.40625 51.78125 6.484375 
Q 45.5625 -1.421875 35.59375 -1.421875 
Q 29.59375 -1.421875 25.265625 0.953125 
Q 20.953125 3.328125 18.109375 8.203125 
L 18.109375 0 
L 9.078125 0 
L 9.078125 75.984375 
L 18.109375 75.984375 
z
" id="DejaVuSans-62"/>
       <path d="M 34.28125 27.484375 
Q 23.390625 27.484375 19.1875 25 
Q 14.984375 22.515625 14.984375 16.5 
Q 14.984375 11.71875 18.140625 8.90625 
Q 21.296875 6.109375 26.703125 6.109375 
Q 34.1875 6.109375 38.703125 11.40625 
Q 43.21875 16.703125 43.21875 25.484375 
L 43.21875 27.484375 
z
M 52.203125 31.203125 
L 52.203125 0 
L 43.21875 0 
L 43.21875 8.296875 
Q 40.140625 3.328125 35.546875 0.953125 
Q 30.953125 -1.421875 24.3125 -1.421875 
Q 15.921875 -1.421875 10.953125 3.296875 
Q 6 8.015625 6 15.921875 
Q 6 25.140625 12.171875 29.828125 
Q 18.359375 34.515625 30.609375 34.515625 
L 43.21875 34.515625 
L 43.21875 35.40625 
Q 43.21875 41.609375 39.140625 45 
Q 35.0625 48.390625 27.6875 48.390625 
Q 23 48.390625 18.546875 47.265625 
Q 14.109375 46.140625 10.015625 43.890625 
L 10.015625 52.203125 
Q 14.9375 54.109375 19.578125 55.046875 
Q 24.21875 56 28.609375 56 
Q 40.484375 56 46.34375 49.84375 
Q 52.203125 43.703125 52.203125 31.203125 
z
" id="DejaVuSans-61"/>
       <path d="M 44.28125 53.078125 
L 44.28125 44.578125 
Q 40.484375 46.53125 36.375 47.5 
Q 32.28125 48.484375 27.875 48.484375 
Q 21.1875 48.484375 17.84375 46.4375 
Q 14.5 44.390625 14.5 40.28125 
Q 14.5 37.15625 16.890625 35.375 
Q 19.28125 33.59375 26.515625 31.984375 
L 29.59375 31.296875 
Q 39.15625 29.25 43.1875 25.515625 
Q 47.21875 21.78125 47.21875 15.09375 
Q 47.21875 7.46875 41.1875 3.015625 
Q 35.15625 -1.421875 24.609375 -1.421875 
Q 20.21875 -1.421875 15.453125 -0.5625 
Q 10.6875 0.296875 5.421875 2 
L 5.421875 11.28125 
Q 10.40625 8.6875 15.234375 7.390625 
Q 20.0625 6.109375 24.8125 6.109375 
Q 31.15625 6.109375 34.5625 8.28125 
Q 37.984375 10.453125 37.984375 14.40625 
Q 37.984375 18.0625 35.515625 20.015625 
Q 33.0625 21.96875 24.703125 23.78125 
L 21.578125 24.515625 
Q 13.234375 26.265625 9.515625 29.90625 
Q 5.8125 33.546875 5.8125 39.890625 
Q 5.8125 47.609375 11.28125 51.796875 
Q 16.75 56 26.8125 56 
Q 31.78125 56 36.171875 55.265625 
Q 40.578125 54.546875 44.28125 53.078125 
z
" id="DejaVuSans-73"/>
       <path d="M 9.421875 75.984375 
L 18.40625 75.984375 
L 18.40625 0 
L 9.421875 0 
z
" id="DejaVuSans-6c"/>
       <path d="M 18.3125 70.21875 
L 18.3125 54.6875 
L 36.8125 54.6875 
L 36.8125 47.703125 
L 18.3125 47.703125 
L 18.3125 18.015625 
Q 18.3125 11.328125 20.140625 9.421875 
Q 21.96875 7.515625 27.59375 7.515625 
L 36.8125 7.515625 
L 36.8125 0 
L 27.59375 0 
Q 17.1875 0 13.234375 3.875 
Q 9.28125 7.765625 9.28125 18.015625 
L 9.28125 47.703125 
L 2.6875 47.703125 
L 2.6875 54.6875 
L 9.28125 54.6875 
L 9.28125 70.21875 
z
" id="DejaVuSans-74"/>
       <path d="M 50.984375 -16.609375 
L 50.984375 -23.578125 
L -0.984375 -23.578125 
L -0.984375 -16.609375 
z
" id="DejaVuSans-5f"/>
       <path d="M 41.109375 46.296875 
Q 39.59375 47.171875 37.8125 47.578125 
Q 36.03125 48 33.890625 48 
Q 26.265625 48 22.1875 43.046875 
Q 18.109375 38.09375 18.109375 28.8125 
L 18.109375 0 
L 9.078125 0 
L 9.078125 54.6875 
L 18.109375 54.6875 
L 18.109375 46.1875 
Q 20.953125 51.171875 25.484375 53.578125 
Q 30.03125 56 36.53125 56 
Q 37.453125 56 38.578125 55.875 
Q 39.703125 55.765625 41.0625 55.515625 
z
" id="DejaVuSans-72"/>
       <path d="M 9.421875 54.6875 
L 18.40625 54.6875 
L 18.40625 -0.984375 
Q 18.40625 -11.421875 14.421875 -16.109375 
Q 10.453125 -20.796875 1.609375 -20.796875 
L -1.8125 -20.796875 
L -1.8125 -13.1875 
L 0.59375 -13.1875 
Q 5.71875 -13.1875 7.5625 -10.8125 
Q 9.421875 -8.453125 9.421875 -0.984375 
z
M 9.421875 75.984375 
L 18.40625 75.984375 
L 18.40625 64.59375 
L 9.421875 64.59375 
z
" id="DejaVuSans-6a"/>
      </defs>
      <g style="fill:#262626;" transform="translate(108.53055 401.946312)scale(0.11 -0.11)">
       <use xlink:href="#DejaVuSans-62"/>
       <use x="63.476562" xlink:href="#DejaVuSans-61"/>
       <use x="124.755859" xlink:href="#DejaVuSans-73"/>
       <use x="176.855469" xlink:href="#DejaVuSans-61"/>
       <use x="238.134766" xlink:href="#DejaVuSans-6c"/>
       <use x="265.917969" xlink:href="#DejaVuSans-74"/>
       <use x="305.126953" xlink:href="#DejaVuSans-5f"/>
       <use x="355.126953" xlink:href="#DejaVuSans-74"/>
       <use x="394.335938" xlink:href="#DejaVuSans-72"/>
       <use x="435.449219" xlink:href="#DejaVuSans-61"/>
       <use x="496.728516" xlink:href="#DejaVuSans-6a"/>
      </g>
     </g>
    </g>
    <g id="xtick_2">
     <g id="text_2">
      <!-- DM_SVI_slam_traj -->
      <defs>
       <path d="M 19.671875 64.796875 
L 19.671875 8.109375 
L 31.59375 8.109375 
Q 46.6875 8.109375 53.6875 14.9375 
Q 60.6875 21.78125 60.6875 36.53125 
Q 60.6875 51.171875 53.6875 57.984375 
Q 46.6875 64.796875 31.59375 64.796875 
z
M 9.8125 72.90625 
L 30.078125 72.90625 
Q 51.265625 72.90625 61.171875 64.09375 
Q 71.09375 55.28125 71.09375 36.53125 
Q 71.09375 17.671875 61.125 8.828125 
Q 51.171875 0 30.078125 0 
L 9.8125 0 
z
" id="DejaVuSans-44"/>
       <path d="M 9.8125 72.90625 
L 24.515625 72.90625 
L 43.109375 23.296875 
L 61.8125 72.90625 
L 76.515625 72.90625 
L 76.515625 0 
L 66.890625 0 
L 66.890625 64.015625 
L 48.09375 14.015625 
L 38.1875 14.015625 
L 19.390625 64.015625 
L 19.390625 0 
L 9.8125 0 
z
" id="DejaVuSans-4d"/>
       <path d="M 53.515625 70.515625 
L 53.515625 60.890625 
Q 47.90625 63.578125 42.921875 64.890625 
Q 37.9375 66.21875 33.296875 66.21875 
Q 25.25 66.21875 20.875 63.09375 
Q 16.5 59.96875 16.5 54.203125 
Q 16.5 49.359375 19.40625 46.890625 
Q 22.3125 44.4375 30.421875 42.921875 
L 36.375 41.703125 
Q 47.40625 39.59375 52.65625 34.296875 
Q 57.90625 29 57.90625 20.125 
Q 57.90625 9.515625 50.796875 4.046875 
Q 43.703125 -1.421875 29.984375 -1.421875 
Q 24.8125 -1.421875 18.96875 -0.25 
Q 13.140625 0.921875 6.890625 3.21875 
L 6.890625 13.375 
Q 12.890625 10.015625 18.65625 8.296875 
Q 24.421875 6.59375 29.984375 6.59375 
Q 38.421875 6.59375 43.015625 9.90625 
Q 47.609375 13.234375 47.609375 19.390625 
Q 47.609375 24.75 44.3125 27.78125 
Q 41.015625 30.8125 33.5 32.328125 
L 27.484375 33.5 
Q 16.453125 35.6875 11.515625 40.375 
Q 6.59375 45.0625 6.59375 53.421875 
Q 6.59375 63.09375 13.40625 68.65625 
Q 20.21875 74.21875 32.171875 74.21875 
Q 37.3125 74.21875 42.625 73.28125 
Q 47.953125 72.359375 53.515625 70.515625 
z
" id="DejaVuSans-53"/>
       <path d="M 28.609375 0 
L 0.78125 72.90625 
L 11.078125 72.90625 
L 34.1875 11.53125 
L 57.328125 72.90625 
L 67.578125 72.90625 
L 39.796875 0 
z
" id="DejaVuSans-56"/>
       <path d="M 9.8125 72.90625 
L 19.671875 72.90625 
L 19.671875 0 
L 9.8125 0 
z
" id="DejaVuSans-49"/>
       <path d="M 52 44.1875 
Q 55.375 50.25 60.0625 53.125 
Q 64.75 56 71.09375 56 
Q 79.640625 56 84.28125 50.015625 
Q 88.921875 44.046875 88.921875 33.015625 
L 88.921875 0 
L 79.890625 0 
L 79.890625 32.71875 
Q 79.890625 40.578125 77.09375 44.375 
Q 74.3125 48.1875 68.609375 48.1875 
Q 61.625 48.1875 57.5625 43.546875 
Q 53.515625 38.921875 53.515625 30.90625 
L 53.515625 0 
L 44.484375 0 
L 44.484375 32.71875 
Q 44.484375 40.625 41.703125 44.40625 
Q 38.921875 48.1875 33.109375 48.1875 
Q 26.21875 48.1875 22.15625 43.53125 
Q 18.109375 38.875 18.109375 30.90625 
L 18.109375 0 
L 9.078125 0 
L 9.078125 54.6875 
L 18.109375 54.6875 
L 18.109375 46.1875 
Q 21.1875 51.21875 25.484375 53.609375 
Q 29.78125 56 35.6875 56 
Q 41.65625 56 45.828125 52.96875 
Q 50 49.953125 52 44.1875 
z
" id="DejaVuSans-6d"/>
      </defs>
      <g style="fill:#262626;" transform="translate(220.230834 401.946312)scale(0.11 -0.11)">
       <use xlink:href="#DejaVuSans-44"/>
       <use x="77.001953" xlink:href="#DejaVuSans-4d"/>
       <use x="163.28125" xlink:href="#DejaVuSans-5f"/>
       <use x="213.28125" xlink:href="#DejaVuSans-53"/>
       <use x="276.757812" xlink:href="#DejaVuSans-56"/>
       <use x="345.166016" xlink:href="#DejaVuSans-49"/>
       <use x="374.658203" xlink:href="#DejaVuSans-5f"/>
       <use x="424.658203" xlink:href="#DejaVuSans-73"/>
       <use x="476.757812" xlink:href="#DejaVuSans-6c"/>
       <use x="504.541016" xlink:href="#DejaVuSans-61"/>
       <use x="565.820312" xlink:href="#DejaVuSans-6d"/>
       <use x="663.232422" xlink:href="#DejaVuSans-5f"/>
       <use x="713.232422" xlink:href="#DejaVuSans-74"/>
       <use x="752.441406" xlink:href="#DejaVuSans-72"/>
       <use x="793.554688" xlink:href="#DejaVuSans-61"/>
       <use x="854.833984" xlink:href="#DejaVuSans-6a"/>
      </g>
     </g>
    </g>
    <g id="xtick_3">
     <g id="text_3">
      <!-- vins_fusion_traj -->
      <defs>
       <path d="M 2.984375 54.6875 
L 12.5 54.6875 
L 29.59375 8.796875 
L 46.6875 54.6875 
L 56.203125 54.6875 
L 35.6875 0 
L 23.484375 0 
z
" id="DejaVuSans-76"/>
       <path d="M 9.421875 54.6875 
L 18.40625 54.6875 
L 18.40625 0 
L 9.421875 0 
z
M 9.421875 75.984375 
L 18.40625 75.984375 
L 18.40625 64.59375 
L 9.421875 64.59375 
z
" id="DejaVuSans-69"/>
       <path d="M 54.890625 33.015625 
L 54.890625 0 
L 45.90625 0 
L 45.90625 32.71875 
Q 45.90625 40.484375 42.875 44.328125 
Q 39.84375 48.1875 33.796875 48.1875 
Q 26.515625 48.1875 22.3125 43.546875 
Q 18.109375 38.921875 18.109375 30.90625 
L 18.109375 0 
L 9.078125 0 
L 9.078125 54.6875 
L 18.109375 54.6875 
L 18.109375 46.1875 
Q 21.34375 51.125 25.703125 53.5625 
Q 30.078125 56 35.796875 56 
Q 45.21875 56 50.046875 50.171875 
Q 54.890625 44.34375 54.890625 33.015625 
z
" id="DejaVuSans-6e"/>
       <path d="M 37.109375 75.984375 
L 37.109375 68.5 
L 28.515625 68.5 
Q 23.6875 68.5 21.796875 66.546875 
Q 19.921875 64.59375 19.921875 59.515625 
L 19.921875 54.6875 
L 34.71875 54.6875 
L 34.71875 47.703125 
L 19.921875 47.703125 
L 19.921875 0 
L 10.890625 0 
L 10.890625 47.703125 
L 2.296875 47.703125 
L 2.296875 54.6875 
L 10.890625 54.6875 
L 10.890625 58.5 
Q 10.890625 67.625 15.140625 71.796875 
Q 19.390625 75.984375 28.609375 75.984375 
z
" id="DejaVuSans-66"/>
       <path d="M 8.5 21.578125 
L 8.5 54.6875 
L 17.484375 54.6875 
L 17.484375 21.921875 
Q 17.484375 14.15625 20.5 10.265625 
Q 23.53125 6.390625 29.59375 6.390625 
Q 36.859375 6.390625 41.078125 11.03125 
Q 45.3125 15.671875 45.3125 23.6875 
L 45.3125 54.6875 
L 54.296875 54.6875 
L 54.296875 0 
L 45.3125 0 
L 45.3125 8.40625 
Q 42.046875 3.421875 37.71875 1 
Q 33.40625 -1.421875 27.6875 -1.421875 
Q 18.265625 -1.421875 13.375 4.4375 
Q 8.5 10.296875 8.5 21.578125 
z
M 31.109375 56 
z
" id="DejaVuSans-75"/>
       <path d="M 30.609375 48.390625 
Q 23.390625 48.390625 19.1875 42.75 
Q 14.984375 37.109375 14.984375 27.296875 
Q 14.984375 17.484375 19.15625 11.84375 
Q 23.34375 6.203125 30.609375 6.203125 
Q 37.796875 6.203125 41.984375 11.859375 
Q 46.1875 17.53125 46.1875 27.296875 
Q 46.1875 37.015625 41.984375 42.703125 
Q 37.796875 48.390625 30.609375 48.390625 
z
M 30.609375 56 
Q 42.328125 56 49.015625 48.375 
Q 55.71875 40.765625 55.71875 27.296875 
Q 55.71875 13.875 49.015625 6.21875 
Q 42.328125 -1.421875 30.609375 -1.421875 
Q 18.84375 -1.421875 12.171875 6.21875 
Q 5.515625 13.875 5.515625 27.296875 
Q 5.515625 40.765625 12.171875 48.375 
Q 18.84375 56 30.609375 56 
z
" id="DejaVuSans-6f"/>
      </defs>
      <g style="fill:#262626;" transform="translate(357.555103 401.946312)scale(0.11 -0.11)">
       <use xlink:href="#DejaVuSans-76"/>
       <use x="59.179688" xlink:href="#DejaVuSans-69"/>
       <use x="86.962891" xlink:href="#DejaVuSans-6e"/>
       <use x="150.341797" xlink:href="#DejaVuSans-73"/>
       <use x="202.441406" xlink:href="#DejaVuSans-5f"/>
       <use x="252.441406" xlink:href="#DejaVuSans-66"/>
       <use x="287.646484" xlink:href="#DejaVuSans-75"/>
       <use x="351.025391" xlink:href="#DejaVuSans-73"/>
       <use x="403.125" xlink:href="#DejaVuSans-69"/>
       <use x="430.908203" xlink:href="#DejaVuSans-6f"/>
       <use x="492.089844" xlink:href="#DejaVuSans-6e"/>
       <use x="555.46875" xlink:href="#DejaVuSans-5f"/>
       <use x="605.46875" xlink:href="#DejaVuSans-74"/>
       <use x="644.677734" xlink:href="#DejaVuSans-72"/>
       <use x="685.791016" xlink:href="#DejaVuSans-61"/>
       <use x="747.070312" xlink:href="#DejaVuSans-6a"/>
      </g>
     </g>
    </g>
    <g id="text_4">
     <!-- estimate -->
     <defs>
      <path d="M 56.203125 29.59375 
L 56.203125 25.203125 
L 14.890625 25.203125 
Q 15.484375 15.921875 20.484375 11.0625 
Q 25.484375 6.203125 34.421875 6.203125 
Q 39.59375 6.203125 44.453125 7.46875 
Q 49.3125 8.734375 54.109375 11.28125 
L 54.109375 2.78125 
Q 49.265625 0.734375 44.1875 -0.34375 
Q 39.109375 -1.421875 33.890625 -1.421875 
Q 20.796875 -1.421875 13.15625 6.1875 
Q 5.515625 13.8125 5.515625 26.8125 
Q 5.515625 40.234375 12.765625 48.109375 
Q 20.015625 56 32.328125 56 
Q 43.359375 56 49.78125 48.890625 
Q 56.203125 41.796875 56.203125 29.59375 
z
M 47.21875 32.234375 
Q 47.125 39.59375 43.09375 43.984375 
Q 39.0625 48.390625 32.421875 48.390625 
Q 24.90625 48.390625 20.390625 44.140625 
Q 15.875 39.890625 15.1875 32.171875 
z
" id="DejaVuSans-65"/>
     </defs>
     <g style="fill:#262626;" transform="translate(242.372475 417.658031)scale(0.12 -0.12)">
      <use xlink:href="#DejaVuSans-65"/>
      <use x="61.523438" xlink:href="#DejaVuSans-73"/>
      <use x="113.623047" xlink:href="#DejaVuSans-74"/>
      <use x="152.832031" xlink:href="#DejaVuSans-69"/>
      <use x="180.615234" xlink:href="#DejaVuSans-6d"/>
      <use x="278.027344" xlink:href="#DejaVuSans-61"/>
      <use x="339.306641" xlink:href="#DejaVuSans-74"/>
      <use x="378.515625" xlink:href="#DejaVuSans-65"/>
     </g>
    </g>
   </g>
   <g id="matplotlib.axis_2">
    <g id="ytick_1">
     <g id="line2d_1">
      <path clip-path="url(#p9077312d2f)" d="M 71.6799 357.711135 
L 465.8688 357.711135 
" style="fill:none;stroke:#ffffff;stroke-linecap:round;"/>
     </g>
     <g id="text_5">
      <!-- 0.00 -->
      <defs>
       <path d="M 31.78125 66.40625 
Q 24.171875 66.40625 20.328125 58.90625 
Q 16.5 51.421875 16.5 36.375 
Q 16.5 21.390625 20.328125 13.890625 
Q 24.171875 6.390625 31.78125 6.390625 
Q 39.453125 6.390625 43.28125 13.890625 
Q 47.125 21.390625 47.125 36.375 
Q 47.125 51.421875 43.28125 58.90625 
Q 39.453125 66.40625 31.78125 66.40625 
z
M 31.78125 74.21875 
Q 44.046875 74.21875 50.515625 64.515625 
Q 56.984375 54.828125 56.984375 36.375 
Q 56.984375 17.96875 50.515625 8.265625 
Q 44.046875 -1.421875 31.78125 -1.421875 
Q 19.53125 -1.421875 13.0625 8.265625 
Q 6.59375 17.96875 6.59375 36.375 
Q 6.59375 54.828125 13.0625 64.515625 
Q 19.53125 74.21875 31.78125 74.21875 
z
" id="DejaVuSans-30"/>
       <path d="M 10.6875 12.40625 
L 21 12.40625 
L 21 0 
L 10.6875 0 
z
" id="DejaVuSans-2e"/>
      </defs>
      <g style="fill:#262626;" transform="translate(37.687713 361.890276)scale(0.11 -0.11)">
       <use xlink:href="#DejaVuSans-30"/>
       <use x="63.623047" xlink:href="#DejaVuSans-2e"/>
       <use x="95.410156" xlink:href="#DejaVuSans-30"/>
       <use x="159.033203" xlink:href="#DejaVuSans-30"/>
      </g>
     </g>
    </g>
    <g id="ytick_2">
     <g id="line2d_2">
      <path clip-path="url(#p9077312d2f)" d="M 71.6799 312.404579 
L 465.8688 312.404579 
" style="fill:none;stroke:#ffffff;stroke-linecap:round;"/>
     </g>
     <g id="text_6">
      <!-- 0.05 -->
      <defs>
       <path d="M 10.796875 72.90625 
L 49.515625 72.90625 
L 49.515625 64.59375 
L 19.828125 64.59375 
L 19.828125 46.734375 
Q 21.96875 47.46875 24.109375 47.828125 
Q 26.265625 48.1875 28.421875 48.1875 
Q 40.625 48.1875 47.75 41.5 
Q 54.890625 34.8125 54.890625 23.390625 
Q 54.890625 11.625 47.5625 5.09375 
Q 40.234375 -1.421875 26.90625 -1.421875 
Q 22.3125 -1.421875 17.546875 -0.640625 
Q 12.796875 0.140625 7.71875 1.703125 
L 7.71875 11.625 
Q 12.109375 9.234375 16.796875 8.0625 
Q 21.484375 6.890625 26.703125 6.890625 
Q 35.15625 6.890625 40.078125 11.328125 
Q 45.015625 15.765625 45.015625 23.390625 
Q 45.015625 31 40.078125 35.4375 
Q 35.15625 39.890625 26.703125 39.890625 
Q 22.75 39.890625 18.8125 39.015625 
Q 14.890625 38.140625 10.796875 36.28125 
z
" id="DejaVuSans-35"/>
      </defs>
      <g style="fill:#262626;" transform="translate(37.687713 316.58372)scale(0.11 -0.11)">
       <use xlink:href="#DejaVuSans-30"/>
       <use x="63.623047" xlink:href="#DejaVuSans-2e"/>
       <use x="95.410156" xlink:href="#DejaVuSans-30"/>
       <use x="159.033203" xlink:href="#DejaVuSans-35"/>
      </g>
     </g>
    </g>
    <g id="ytick_3">
     <g id="line2d_3">
      <path clip-path="url(#p9077312d2f)" d="M 71.6799 267.098024 
L 465.8688 267.098024 
" style="fill:none;stroke:#ffffff;stroke-linecap:round;"/>
     </g>
     <g id="text_7">
      <!-- 0.10 -->
      <defs>
       <path d="M 12.40625 8.296875 
L 28.515625 8.296875 
L 28.515625 63.921875 
L 10.984375 60.40625 
L 10.984375 69.390625 
L 28.421875 72.90625 
L 38.28125 72.90625 
L 38.28125 8.296875 
L 54.390625 8.296875 
L 54.390625 0 
L 12.40625 0 
z
" id="DejaVuSans-31"/>
      </defs>
      <g style="fill:#262626;" transform="translate(37.687713 271.277164)scale(0.11 -0.11)">
       <use xlink:href="#DejaVuSans-30"/>
       <use x="63.623047" xlink:href="#DejaVuSans-2e"/>
       <use x="95.410156" xlink:href="#DejaVuSans-31"/>
       <use x="159.033203" xlink:href="#DejaVuSans-30"/>
      </g>
     </g>
    </g>
    <g id="ytick_4">
     <g id="line2d_4">
      <path clip-path="url(#p9077312d2f)" d="M 71.6799 221.791468 
L 465.8688 221.791468 
" style="fill:none;stroke:#ffffff;stroke-linecap:round;"/>
     </g>
     <g id="text_8">
      <!-- 0.15 -->
      <g style="fill:#262626;" transform="translate(37.687713 225.970609)scale(0.11 -0.11)">
       <use xlink:href="#DejaVuSans-30"/>
       <use x="63.623047" xlink:href="#DejaVuSans-2e"/>
       <use x="95.410156" xlink:href="#DejaVuSans-31"/>
       <use x="159.033203" xlink:href="#DejaVuSans-35"/>
      </g>
     </g>
    </g>
    <g id="ytick_5">
     <g id="line2d_5">
      <path clip-path="url(#p9077312d2f)" d="M 71.6799 176.484912 
L 465.8688 176.484912 
" style="fill:none;stroke:#ffffff;stroke-linecap:round;"/>
     </g>
     <g id="text_9">
      <!-- 0.20 -->
      <defs>
       <path d="M 19.1875 8.296875 
L 53.609375 8.296875 
L 53.609375 0 
L 7.328125 0 
L 7.328125 8.296875 
Q 12.9375 14.109375 22.625 23.890625 
Q 32.328125 33.6875 34.8125 36.53125 
Q 39.546875 41.84375 41.421875 45.53125 
Q 43.3125 49.21875 43.3125 52.78125 
Q 43.3125 58.59375 39.234375 62.25 
Q 35.15625 65.921875 28.609375 65.921875 
Q 23.96875 65.921875 18.8125 64.3125 
Q 13.671875 62.703125 7.8125 59.421875 
L 7.8125 69.390625 
Q 13.765625 71.78125 18.9375 73 
Q 24.125 74.21875 28.421875 74.21875 
Q 39.75 74.21875 46.484375 68.546875 
Q 53.21875 62.890625 53.21875 53.421875 
Q 53.21875 48.921875 51.53125 44.890625 
Q 49.859375 40.875 45.40625 35.40625 
Q 44.1875 33.984375 37.640625 27.21875 
Q 31.109375 20.453125 19.1875 8.296875 
z
" id="DejaVuSans-32"/>
      </defs>
      <g style="fill:#262626;" transform="translate(37.687713 180.664053)scale(0.11 -0.11)">
       <use xlink:href="#DejaVuSans-30"/>
       <use x="63.623047" xlink:href="#DejaVuSans-2e"/>
       <use x="95.410156" xlink:href="#DejaVuSans-32"/>
       <use x="159.033203" xlink:href="#DejaVuSans-30"/>
      </g>
     </g>
    </g>
    <g id="ytick_6">
     <g id="line2d_6">
      <path clip-path="url(#p9077312d2f)" d="M 71.6799 131.178357 
L 465.8688 131.178357 
" style="fill:none;stroke:#ffffff;stroke-linecap:round;"/>
     </g>
     <g id="text_10">
      <!-- 0.25 -->
      <g style="fill:#262626;" transform="translate(37.687713 135.357497)scale(0.11 -0.11)">
       <use xlink:href="#DejaVuSans-30"/>
       <use x="63.623047" xlink:href="#DejaVuSans-2e"/>
       <use x="95.410156" xlink:href="#DejaVuSans-32"/>
       <use x="159.033203" xlink:href="#DejaVuSans-35"/>
      </g>
     </g>
    </g>
    <g id="ytick_7">
     <g id="line2d_7">
      <path clip-path="url(#p9077312d2f)" d="M 71.6799 85.871801 
L 465.8688 85.871801 
" style="fill:none;stroke:#ffffff;stroke-linecap:round;"/>
     </g>
     <g id="text_11">
      <!-- 0.30 -->
      <defs>
       <path d="M 40.578125 39.3125 
Q 47.65625 37.796875 51.625 33 
Q 55.609375 28.21875 55.609375 21.1875 
Q 55.609375 10.40625 48.1875 4.484375 
Q 40.765625 -1.421875 27.09375 -1.421875 
Q 22.515625 -1.421875 17.65625 -0.515625 
Q 12.796875 0.390625 7.625 2.203125 
L 7.625 11.71875 
Q 11.71875 9.328125 16.59375 8.109375 
Q 21.484375 6.890625 26.8125 6.890625 
Q 36.078125 6.890625 40.9375 10.546875 
Q 45.796875 14.203125 45.796875 21.1875 
Q 45.796875 27.640625 41.28125 31.265625 
Q 36.765625 34.90625 28.71875 34.90625 
L 20.21875 34.90625 
L 20.21875 43.015625 
L 29.109375 43.015625 
Q 36.375 43.015625 40.234375 45.921875 
Q 44.09375 48.828125 44.09375 54.296875 
Q 44.09375 59.90625 40.109375 62.90625 
Q 36.140625 65.921875 28.71875 65.921875 
Q 24.65625 65.921875 20.015625 65.03125 
Q 15.375 64.15625 9.8125 62.3125 
L 9.8125 71.09375 
Q 15.4375 72.65625 20.34375 73.4375 
Q 25.25 74.21875 29.59375 74.21875 
Q 40.828125 74.21875 47.359375 69.109375 
Q 53.90625 64.015625 53.90625 55.328125 
Q 53.90625 49.265625 50.4375 45.09375 
Q 46.96875 40.921875 40.578125 39.3125 
z
" id="DejaVuSans-33"/>
      </defs>
      <g style="fill:#262626;" transform="translate(37.687713 90.050942)scale(0.11 -0.11)">
       <use xlink:href="#DejaVuSans-30"/>
       <use x="63.623047" xlink:href="#DejaVuSans-2e"/>
       <use x="95.410156" xlink:href="#DejaVuSans-33"/>
       <use x="159.033203" xlink:href="#DejaVuSans-30"/>
      </g>
     </g>
    </g>
    <g id="ytick_8">
     <g id="line2d_8">
      <path clip-path="url(#p9077312d2f)" d="M 71.6799 40.565246 
L 465.8688 40.565246 
" style="fill:none;stroke:#ffffff;stroke-linecap:round;"/>
     </g>
     <g id="text_12">
      <!-- 0.35 -->
      <g style="fill:#262626;" transform="translate(37.687713 44.744386)scale(0.11 -0.11)">
       <use xlink:href="#DejaVuSans-30"/>
       <use x="63.623047" xlink:href="#DejaVuSans-2e"/>
       <use x="95.410156" xlink:href="#DejaVuSans-33"/>
       <use x="159.033203" xlink:href="#DejaVuSans-35"/>
      </g>
     </g>
    </g>
    <g id="text_13">
     <!-- APE (m) -->
     <defs>
      <path d="M 34.1875 63.1875 
L 20.796875 26.90625 
L 47.609375 26.90625 
z
M 28.609375 72.90625 
L 39.796875 72.90625 
L 67.578125 0 
L 57.328125 0 
L 50.6875 18.703125 
L 17.828125 18.703125 
L 11.1875 0 
L 0.78125 0 
z
" id="DejaVuSans-41"/>
      <path d="M 19.671875 64.796875 
L 19.671875 37.40625 
L 32.078125 37.40625 
Q 38.96875 37.40625 42.71875 40.96875 
Q 46.484375 44.53125 46.484375 51.125 
Q 46.484375 57.671875 42.71875 61.234375 
Q 38.96875 64.796875 32.078125 64.796875 
z
M 9.8125 72.90625 
L 32.078125 72.90625 
Q 44.34375 72.90625 50.609375 67.359375 
Q 56.890625 61.8125 56.890625 51.125 
Q 56.890625 40.328125 50.609375 34.8125 
Q 44.34375 29.296875 32.078125 29.296875 
L 19.671875 29.296875 
L 19.671875 0 
L 9.8125 0 
z
" id="DejaVuSans-50"/>
      <path d="M 9.8125 72.90625 
L 55.90625 72.90625 
L 55.90625 64.59375 
L 19.671875 64.59375 
L 19.671875 43.015625 
L 54.390625 43.015625 
L 54.390625 34.71875 
L 19.671875 34.71875 
L 19.671875 8.296875 
L 56.78125 8.296875 
L 56.78125 0 
L 9.8125 0 
z
" id="DejaVuSans-45"/>
      <path id="DejaVuSans-20"/>
      <path d="M 31 75.875 
Q 24.46875 64.65625 21.28125 53.65625 
Q 18.109375 42.671875 18.109375 31.390625 
Q 18.109375 20.125 21.3125 9.0625 
Q 24.515625 -2 31 -13.1875 
L 23.1875 -13.1875 
Q 15.875 -1.703125 12.234375 9.375 
Q 8.59375 20.453125 8.59375 31.390625 
Q 8.59375 42.28125 12.203125 53.3125 
Q 15.828125 64.359375 23.1875 75.875 
z
" id="DejaVuSans-28"/>
      <path d="M 8.015625 75.875 
L 15.828125 75.875 
Q 23.140625 64.359375 26.78125 53.3125 
Q 30.421875 42.28125 30.421875 31.390625 
Q 30.421875 20.453125 26.78125 9.375 
Q 23.140625 -1.703125 15.828125 -13.1875 
L 8.015625 -13.1875 
Q 14.5 -2 17.703125 9.0625 
Q 20.90625 20.125 20.90625 31.390625 
Q 20.90625 42.671875 17.703125 53.65625 
Q 14.5 64.65625 8.015625 75.875 
z
" id="DejaVuSans-29"/>
     </defs>
     <g style="fill:#262626;" transform="translate(31.192087 224.702578)rotate(-90)scale(0.12 -0.12)">
      <use xlink:href="#DejaVuSans-41"/>
      <use x="68.408203" xlink:href="#DejaVuSans-50"/>
      <use x="128.710938" xlink:href="#DejaVuSans-45"/>
      <use x="191.894531" xlink:href="#DejaVuSans-20"/>
      <use x="223.681641" xlink:href="#DejaVuSans-28"/>
      <use x="262.695312" xlink:href="#DejaVuSans-6d"/>
      <use x="360.107422" xlink:href="#DejaVuSans-29"/>
     </g>
    </g>
   </g>
   <g id="PolyCollection_1">
    <defs>
     <path d="M 137.531762 -68.178516 
L 137.224338 -68.178516 
L 137.113821 -70.173138 
L 136.946539 -72.16776 
L 136.707298 -74.162383 
L 136.383204 -76.157005 
L 135.965694 -78.151627 
L 135.451145 -80.14625 
L 134.839277 -82.140872 
L 134.129414 -84.135494 
L 133.3159 -86.130117 
L 132.384883 -88.124739 
L 131.314744 -90.119361 
L 130.081328 -92.113984 
L 128.667175 -94.108606 
L 127.07206 -96.103228 
L 125.32119 -98.097851 
L 123.468105 -100.092473 
L 121.591194 -102.087095 
L 119.785029 -104.081717 
L 118.14911 -106.07634 
L 116.77655 -108.070962 
L 115.74397 -110.065584 
L 115.102521 -112.060207 
L 114.869687 -114.054829 
L 115.022692 -116.049451 
L 115.496137 -118.044074 
L 116.187283 -120.038696 
L 116.970882 -122.033318 
L 117.721784 -124.027941 
L 118.339319 -126.022563 
L 118.765206 -128.017185 
L 118.988084 -130.011808 
L 119.032501 -132.00643 
L 118.936339 -134.001052 
L 118.725329 -135.995675 
L 118.39445 -137.990297 
L 117.903288 -139.984919 
L 117.187086 -141.979542 
L 116.179545 -143.974164 
L 114.839341 -145.968786 
L 113.171171 -147.963409 
L 111.233831 -149.958031 
L 109.1318 -151.952653 
L 106.991745 -153.947276 
L 104.92996 -155.941898 
L 103.01991 -157.93652 
L 101.269873 -159.931143 
L 99.618915 -161.925765 
L 97.955191 -163.920387 
L 96.15466 -165.91501 
L 94.131951 -167.909632 
L 91.889994 -169.904254 
L 89.552734 -171.898877 
L 87.367473 -173.893499 
L 85.670364 -175.888121 
L 84.81953 -177.882744 
L 85.111679 -179.877366 
L 86.70577 -181.871988 
L 89.577097 -183.866611 
L 93.516301 -185.861233 
L 98.173157 -187.855855 
L 103.130616 -189.850478 
L 107.986202 -191.8451 
L 112.418509 -193.839722 
L 116.224624 -195.834345 
L 119.325527 -197.828967 
L 121.746081 -199.823589 
L 123.581094 -201.818211 
L 124.95887 -203.812834 
L 126.010362 -205.807456 
L 126.847771 -207.802078 
L 127.552937 -209.796701 
L 128.174033 -211.791323 
L 128.728476 -213.785945 
L 129.210132 -215.780568 
L 129.599079 -217.77519 
L 129.872191 -219.769812 
L 130.012799 -221.764435 
L 130.017887 -223.759057 
L 129.901889 -225.753679 
L 129.696899 -227.748302 
L 129.449824 -229.742924 
L 129.217287 -231.737546 
L 129.059065 -233.732169 
L 129.030714 -235.726791 
L 129.176012 -237.721413 
L 129.520151 -239.716036 
L 130.064913 -241.710658 
L 130.787194 -243.70528 
L 131.641771 -245.699903 
L 132.568244 -247.694525 
L 133.500853 -249.689147 
L 134.378935 -251.68377 
L 135.155572 -253.678392 
L 135.802566 -255.673014 
L 136.311077 -257.667637 
L 136.688537 -259.662259 
L 136.953316 -261.656881 
L 137.128903 -263.651504 
L 137.239001 -265.646126 
L 137.517099 -265.646126 
L 137.517099 -265.646126 
L 137.627197 -263.651504 
L 137.802784 -261.656881 
L 138.067563 -259.662259 
L 138.445023 -257.667637 
L 138.953534 -255.673014 
L 139.600528 -253.678392 
L 140.377165 -251.68377 
L 141.255247 -249.689147 
L 142.187856 -247.694525 
L 143.114329 -245.699903 
L 143.968906 -243.70528 
L 144.691187 -241.710658 
L 145.235949 -239.716036 
L 145.580088 -237.721413 
L 145.725386 -235.726791 
L 145.697035 -233.732169 
L 145.538813 -231.737546 
L 145.306276 -229.742924 
L 145.059201 -227.748302 
L 144.854211 -225.753679 
L 144.738213 -223.759057 
L 144.743301 -221.764435 
L 144.883909 -219.769812 
L 145.157021 -217.77519 
L 145.545968 -215.780568 
L 146.027624 -213.785945 
L 146.582067 -211.791323 
L 147.203163 -209.796701 
L 147.908329 -207.802078 
L 148.745738 -205.807456 
L 149.79723 -203.812834 
L 151.175006 -201.818211 
L 153.010019 -199.823589 
L 155.430573 -197.828967 
L 158.531476 -195.834345 
L 162.337591 -193.839722 
L 166.769898 -191.8451 
L 171.625484 -189.850478 
L 176.582943 -187.855855 
L 181.239799 -185.861233 
L 185.179003 -183.866611 
L 188.05033 -181.871988 
L 189.644421 -179.877366 
L 189.93657 -177.882744 
L 189.085736 -175.888121 
L 187.388627 -173.893499 
L 185.203366 -171.898877 
L 182.866106 -169.904254 
L 180.624149 -167.909632 
L 178.60144 -165.91501 
L 176.800909 -163.920387 
L 175.137185 -161.925765 
L 173.486227 -159.931143 
L 171.73619 -157.93652 
L 169.82614 -155.941898 
L 167.764355 -153.947276 
L 165.6243 -151.952653 
L 163.522269 -149.958031 
L 161.584929 -147.963409 
L 159.916759 -145.968786 
L 158.576555 -143.974164 
L 157.569014 -141.979542 
L 156.852812 -139.984919 
L 156.36165 -137.990297 
L 156.030771 -135.995675 
L 155.819761 -134.001052 
L 155.723599 -132.00643 
L 155.768016 -130.011808 
L 155.990894 -128.017185 
L 156.416781 -126.022563 
L 157.034316 -124.027941 
L 157.785218 -122.033318 
L 158.568817 -120.038696 
L 159.259963 -118.044074 
L 159.733408 -116.049451 
L 159.886413 -114.054829 
L 159.653579 -112.060207 
L 159.01213 -110.065584 
L 157.97955 -108.070962 
L 156.60699 -106.07634 
L 154.971071 -104.081717 
L 153.164906 -102.087095 
L 151.287995 -100.092473 
L 149.43491 -98.097851 
L 147.68404 -96.103228 
L 146.088925 -94.108606 
L 144.674772 -92.113984 
L 143.441356 -90.119361 
L 142.371217 -88.124739 
L 141.4402 -86.130117 
L 140.626686 -84.135494 
L 139.916823 -82.140872 
L 139.304955 -80.14625 
L 138.790406 -78.151627 
L 138.372896 -76.157005 
L 138.048802 -74.162383 
L 137.809561 -72.16776 
L 137.642279 -70.173138 
L 137.531762 -68.178516 
z
" id="mc3ac23755e" style="stroke:#4c4c4c;stroke-width:1.5;"/>
    </defs>
    <g clip-path="url(#p9077312d2f)">
     <use style="fill:#5875a4;stroke:#4c4c4c;stroke-width:1.5;" x="0" xlink:href="#mc3ac23755e" y="435.6"/>
    </g>
   </g>
   <g id="PolyCollection_2">
    <defs>
     <path d="M 268.948555 -79.013929 
L 268.600145 -79.013929 
L 268.484728 -81.163851 
L 268.313527 -83.313773 
L 268.072082 -85.463695 
L 267.74837 -87.613618 
L 267.335803 -89.76354 
L 266.835956 -91.913462 
L 266.260133 -94.063384 
L 265.628973 -96.213307 
L 264.969711 -98.363229 
L 264.311362 -100.513151 
L 263.678746 -102.663073 
L 263.086708 -104.812996 
L 262.535902 -106.962918 
L 262.011155 -109.11284 
L 261.48276 -111.262762 
L 260.91034 -113.412684 
L 260.248345 -115.562607 
L 259.451973 -117.712529 
L 258.482335 -119.862451 
L 257.310087 -122.012373 
L 255.917333 -124.162296 
L 254.298271 -126.312218 
L 252.459484 -128.46214 
L 250.420808 -130.612062 
L 248.217227 -132.761985 
L 245.901355 -134.911907 
L 243.545213 -137.061829 
L 241.239491 -139.211751 
L 239.088782 -141.361673 
L 237.202223 -143.511596 
L 235.680397 -145.661518 
L 234.600712 -147.81144 
L 234.004271 -149.961362 
L 233.887236 -152.111285 
L 234.198934 -154.261207 
L 234.847515 -156.411129 
L 235.712338 -158.561051 
L 236.660726 -160.710973 
L 237.565611 -162.860896 
L 238.320308 -165.010818 
L 238.847274 -167.16074 
L 239.099366 -169.310662 
L 239.054378 -171.460585 
L 238.705969 -173.610507 
L 238.055633 -175.760429 
L 237.110264 -177.910351 
L 235.887983 -180.060274 
L 234.431367 -182.210196 
L 232.823375 -184.360118 
L 231.198584 -186.51004 
L 229.742281 -188.659962 
L 228.672975 -190.809885 
L 228.209361 -192.959807 
L 228.528608 -195.109729 
L 229.726904 -197.259651 
L 231.793569 -199.409574 
L 234.606564 -201.559496 
L 237.95106 -203.709418 
L 241.556169 -205.85934 
L 245.140353 -208.009263 
L 248.454583 -210.159185 
L 251.31427 -212.309107 
L 253.614892 -214.459029 
L 255.330905 -216.608951 
L 256.501255 -218.758874 
L 257.207202 -220.908796 
L 257.548767 -223.058718 
L 257.625264 -225.20864 
L 257.523395 -227.358563 
L 257.313738 -229.508485 
L 257.053844 -231.658407 
L 256.794369 -233.808329 
L 256.584188 -235.958252 
L 256.471557 -238.108174 
L 256.500575 -240.258096 
L 256.704523 -242.408018 
L 257.09915 -244.55794 
L 257.679027 -246.707863 
L 258.418733 -248.857785 
L 259.278594 -251.007707 
L 260.21295 -253.157629 
L 261.178155 -255.307552 
L 262.138012 -257.457474 
L 263.065702 -259.607396 
L 263.942718 -261.757318 
L 264.75632 -263.90724 
L 265.497098 -266.057163 
L 266.157697 -268.207085 
L 266.732842 -270.357007 
L 267.220144 -272.506929 
L 267.620907 -274.656852 
L 267.940331 -276.806774 
L 268.186937 -278.956696 
L 268.371403 -281.106618 
L 268.505195 -283.256541 
L 268.599365 -285.406463 
L 268.663722 -287.556385 
L 268.706426 -289.706307 
L 268.733917 -291.856229 
L 268.814783 -291.856229 
L 268.814783 -291.856229 
L 268.842274 -289.706307 
L 268.884978 -287.556385 
L 268.949335 -285.406463 
L 269.043505 -283.256541 
L 269.177297 -281.106618 
L 269.361763 -278.956696 
L 269.608369 -276.806774 
L 269.927793 -274.656852 
L 270.328556 -272.506929 
L 270.815858 -270.357007 
L 271.391003 -268.207085 
L 272.051602 -266.057163 
L 272.79238 -263.90724 
L 273.605982 -261.757318 
L 274.482998 -259.607396 
L 275.410688 -257.457474 
L 276.370545 -255.307552 
L 277.33575 -253.157629 
L 278.270106 -251.007707 
L 279.129967 -248.857785 
L 279.869673 -246.707863 
L 280.44955 -244.55794 
L 280.844177 -242.408018 
L 281.048125 -240.258096 
L 281.077143 -238.108174 
L 280.964512 -235.958252 
L 280.754331 -233.808329 
L 280.494856 -231.658407 
L 280.234962 -229.508485 
L 280.025305 -227.358563 
L 279.923436 -225.20864 
L 279.999933 -223.058718 
L 280.341498 -220.908796 
L 281.047445 -218.758874 
L 282.217795 -216.608951 
L 283.933808 -214.459029 
L 286.23443 -212.309107 
L 289.094117 -210.159185 
L 292.408347 -208.009263 
L 295.992531 -205.85934 
L 299.59764 -203.709418 
L 302.942136 -201.559496 
L 305.755131 -199.409574 
L 307.821796 -197.259651 
L 309.020092 -195.109729 
L 309.339339 -192.959807 
L 308.875725 -190.809885 
L 307.806419 -188.659962 
L 306.350116 -186.51004 
L 304.725325 -184.360118 
L 303.117333 -182.210196 
L 301.660717 -180.060274 
L 300.438436 -177.910351 
L 299.493067 -175.760429 
L 298.842731 -173.610507 
L 298.494322 -171.460585 
L 298.449334 -169.310662 
L 298.701426 -167.16074 
L 299.228392 -165.010818 
L 299.983089 -162.860896 
L 300.887974 -160.710973 
L 301.836362 -158.561051 
L 302.701185 -156.411129 
L 303.349766 -154.261207 
L 303.661464 -152.111285 
L 303.544429 -149.961362 
L 302.947988 -147.81144 
L 301.868303 -145.661518 
L 300.346477 -143.511596 
L 298.459918 -141.361673 
L 296.309209 -139.211751 
L 294.003487 -137.061829 
L 291.647345 -134.911907 
L 289.331473 -132.761985 
L 287.127892 -130.612062 
L 285.089216 -128.46214 
L 283.250429 -126.312218 
L 281.631367 -124.162296 
L 280.238613 -122.012373 
L 279.066365 -119.862451 
L 278.096727 -117.712529 
L 277.300355 -115.562607 
L 276.63836 -113.412684 
L 276.06594 -111.262762 
L 275.537545 -109.11284 
L 275.012798 -106.962918 
L 274.461992 -104.812996 
L 273.869954 -102.663073 
L 273.237338 -100.513151 
L 272.578989 -98.363229 
L 271.919727 -96.213307 
L 271.288567 -94.063384 
L 270.712744 -91.913462 
L 270.212897 -89.76354 
L 269.80033 -87.613618 
L 269.476618 -85.463695 
L 269.235173 -83.313773 
L 269.063972 -81.163851 
L 268.948555 -79.013929 
z
" id="md5d60c2d55" style="stroke:#4c4c4c;stroke-width:1.5;"/>
    </defs>
    <g clip-path="url(#p9077312d2f)">
     <use style="fill:#5f9e6e;stroke:#4c4c4c;stroke-width:1.5;" x="0" xlink:href="#md5d60c2d55" y="435.6"/>
    </g>
   </g>
   <g id="PolyCollection_3">
    <defs>
     <path d="M 400.243055 -91.3714 
L 400.098245 -91.3714 
L 400.046197 -94.504108 
L 399.966202 -97.636815 
L 399.848706 -100.769523 
L 399.682948 -103.902231 
L 399.456847 -107.034938 
L 399.156232 -110.167646 
L 398.763126 -113.300353 
L 398.253218 -116.433061 
L 397.593137 -119.565769 
L 396.738755 -122.698476 
L 395.636102 -125.831184 
L 394.226315 -128.963891 
L 392.455245 -132.096599 
L 390.286945 -135.229307 
L 387.718665 -138.362014 
L 384.79383 -141.494722 
L 381.609261 -144.627429 
L 378.313812 -147.760137 
L 375.097257 -150.892845 
L 372.170259 -154.025552 
L 369.738042 -157.15826 
L 367.971872 -160.290967 
L 366.983467 -163.423675 
L 366.807583 -166.556383 
L 367.396943 -169.68909 
L 368.63104 -172.821798 
L 370.336916 -175.954505 
L 372.316957 -179.087213 
L 374.377376 -182.219921 
L 376.351801 -185.352628 
L 378.11663 -188.485336 
L 379.597302 -191.618043 
L 380.76636 -194.750751 
L 381.635007 -197.883459 
L 382.240224 -201.016166 
L 382.630032 -204.148874 
L 382.850037 -207.281582 
L 382.934401 -210.414289 
L 382.903191 -213.546997 
L 382.765708 -216.679704 
L 382.526912 -219.812412 
L 382.19288 -222.94512 
L 381.772286 -226.077827 
L 381.273791 -229.210535 
L 380.702371 -232.343242 
L 380.059033 -235.47595 
L 379.346944 -238.608658 
L 378.583285 -241.741365 
L 377.812068 -244.874073 
L 377.111062 -248.00678 
L 376.587231 -251.139488 
L 376.359462 -254.272196 
L 376.532854 -257.404903 
L 377.17288 -260.537611 
L 378.288334 -263.670318 
L 379.828719 -266.803026 
L 381.696237 -269.935734 
L 383.767229 -273.068441 
L 385.915319 -276.201149 
L 388.029367 -279.333856 
L 390.022862 -282.466564 
L 391.835404 -285.599272 
L 393.429515 -288.731979 
L 394.786328 -291.864687 
L 395.902284 -294.997395 
L 396.78706 -298.130102 
L 397.461792 -301.26281 
L 397.956545 -304.395517 
L 398.306662 -307.528225 
L 398.548411 -310.660933 
L 398.714806 -313.79364 
L 398.832455 -316.926348 
L 398.919971 -320.059055 
L 398.98807 -323.191763 
L 399.041098 -326.324471 
L 399.079483 -329.457178 
L 399.102442 -332.589886 
L 399.110257 -335.722593 
L 399.105597 -338.855301 
L 399.093656 -341.988009 
L 399.081248 -345.120716 
L 399.075324 -348.253424 
L 399.081506 -351.386131 
L 399.103155 -354.518839 
L 399.141227 -357.651547 
L 399.194804 -360.784254 
L 399.26194 -363.916962 
L 399.340376 -367.049669 
L 399.427832 -370.182377 
L 399.521865 -373.315085 
L 399.619536 -376.447792 
L 399.717225 -379.5805 
L 399.810815 -382.713207 
L 399.896249 -385.845915 
L 399.970241 -388.978623 
L 400.030853 -392.11133 
L 400.07772 -395.244038 
L 400.111884 -398.376746 
L 400.135349 -401.509453 
L 400.205951 -401.509453 
L 400.205951 -401.509453 
L 400.229416 -398.376746 
L 400.26358 -395.244038 
L 400.310447 -392.11133 
L 400.371059 -388.978623 
L 400.445051 -385.845915 
L 400.530485 -382.713207 
L 400.624075 -379.5805 
L 400.721764 -376.447792 
L 400.819435 -373.315085 
L 400.913468 -370.182377 
L 401.000924 -367.049669 
L 401.07936 -363.916962 
L 401.146496 -360.784254 
L 401.200073 -357.651547 
L 401.238145 -354.518839 
L 401.259794 -351.386131 
L 401.265976 -348.253424 
L 401.260052 -345.120716 
L 401.247644 -341.988009 
L 401.235703 -338.855301 
L 401.231043 -335.722593 
L 401.238858 -332.589886 
L 401.261817 -329.457178 
L 401.300202 -326.324471 
L 401.35323 -323.191763 
L 401.421329 -320.059055 
L 401.508845 -316.926348 
L 401.626494 -313.79364 
L 401.792889 -310.660933 
L 402.034638 -307.528225 
L 402.384755 -304.395517 
L 402.879508 -301.26281 
L 403.55424 -298.130102 
L 404.439016 -294.997395 
L 405.554972 -291.864687 
L 406.911785 -288.731979 
L 408.505896 -285.599272 
L 410.318438 -282.466564 
L 412.311933 -279.333856 
L 414.425981 -276.201149 
L 416.574071 -273.068441 
L 418.645063 -269.935734 
L 420.512581 -266.803026 
L 422.052966 -263.670318 
L 423.16842 -260.537611 
L 423.808446 -257.404903 
L 423.981838 -254.272196 
L 423.754069 -251.139488 
L 423.230238 -248.00678 
L 422.529232 -244.874073 
L 421.758015 -241.741365 
L 420.994356 -238.608658 
L 420.282267 -235.47595 
L 419.638929 -232.343242 
L 419.067509 -229.210535 
L 418.569014 -226.077827 
L 418.14842 -222.94512 
L 417.814388 -219.812412 
L 417.575592 -216.679704 
L 417.438109 -213.546997 
L 417.406899 -210.414289 
L 417.491263 -207.281582 
L 417.711268 -204.148874 
L 418.101076 -201.016166 
L 418.706293 -197.883459 
L 419.57494 -194.750751 
L 420.743998 -191.618043 
L 422.22467 -188.485336 
L 423.989499 -185.352628 
L 425.963924 -182.219921 
L 428.024343 -179.087213 
L 430.004384 -175.954505 
L 431.71026 -172.821798 
L 432.944357 -169.68909 
L 433.533717 -166.556383 
L 433.357833 -163.423675 
L 432.369428 -160.290967 
L 430.603258 -157.15826 
L 428.171041 -154.025552 
L 425.244043 -150.892845 
L 422.027488 -147.760137 
L 418.732039 -144.627429 
L 415.54747 -141.494722 
L 412.622635 -138.362014 
L 410.054355 -135.229307 
L 407.886055 -132.096599 
L 406.114985 -128.963891 
L 404.705198 -125.831184 
L 403.602545 -122.698476 
L 402.748163 -119.565769 
L 402.088082 -116.433061 
L 401.578174 -113.300353 
L 401.185068 -110.167646 
L 400.884453 -107.034938 
L 400.658352 -103.902231 
L 400.492594 -100.769523 
L 400.375098 -97.636815 
L 400.295103 -94.504108 
L 400.243055 -91.3714 
z
" id="m865b0e3345" style="stroke:#4c4c4c;stroke-width:1.5;"/>
    </defs>
    <g clip-path="url(#p9077312d2f)">
     <use style="fill:#b55d60;stroke:#4c4c4c;stroke-width:1.5;" x="0" xlink:href="#m865b0e3345" y="435.6"/>
    </g>
   </g>
   <g id="line2d_9">
    <path clip-path="url(#p9077312d2f)" d="M 137.37805 351.108785 
L 137.37805 186.266573 
" style="fill:none;stroke:#4c4c4c;stroke-linecap:round;stroke-width:1.5;"/>
   </g>
   <g id="line2d_10">
    <path clip-path="url(#p9077312d2f)" d="M 137.37805 298.815765 
L 137.37805 252.730557 
" style="fill:none;stroke:#4c4c4c;stroke-linecap:round;stroke-width:4.5;"/>
   </g>
   <g id="line2d_11">
    <path clip-path="url(#p9077312d2f)" d="M 268.77435 337.306898 
L 268.77435 172.042493 
" style="fill:none;stroke:#4c4c4c;stroke-linecap:round;stroke-width:1.5;"/>
   </g>
   <g id="line2d_12">
    <path clip-path="url(#p9077312d2f)" d="M 268.77435 285.581009 
L 268.77435 237.093698 
" style="fill:none;stroke:#4c4c4c;stroke-linecap:round;stroke-width:4.5;"/>
   </g>
   <g id="line2d_13">
    <path clip-path="url(#p9077312d2f)" d="M 400.17065 318.317312 
L 400.17065 60.001835 
" style="fill:none;stroke:#4c4c4c;stroke-linecap:round;stroke-width:1.5;"/>
   </g>
   <g id="line2d_14">
    <path clip-path="url(#p9077312d2f)" d="M 400.17065 269.953839 
L 400.17065 185.397778 
" style="fill:none;stroke:#4c4c4c;stroke-linecap:round;stroke-width:4.5;"/>
   </g>
   <g id="patch_3">
    <path d="M 71.6799 384.088031 
L 71.6799 17.424 
" style="fill:none;stroke:#ffffff;stroke-linecap:square;stroke-linejoin:miter;stroke-width:1.25;"/>
   </g>
   <g id="patch_4">
    <path d="M 465.8688 384.088031 
L 465.8688 17.424 
" style="fill:none;stroke:#ffffff;stroke-linecap:square;stroke-linejoin:miter;stroke-width:1.25;"/>
   </g>
   <g id="patch_5">
    <path d="M 71.6799 384.088031 
L 465.8688 384.088031 
" style="fill:none;stroke:#ffffff;stroke-linecap:square;stroke-linejoin:miter;stroke-width:1.25;"/>
   </g>
   <g id="patch_6">
    <path d="M 71.6799 17.424 
L 465.8688 17.424 
" style="fill:none;stroke:#ffffff;stroke-linecap:square;stroke-linejoin:miter;stroke-width:1.25;"/>
   </g>
   <g id="PathCollection_1">
    <defs>
     <path d="M 0 1.5 
C 0.397805 1.5 0.77937 1.341951 1.06066 1.06066 
C 1.341951 0.77937 1.5 0.397805 1.5 0 
C 1.5 -0.397805 1.341951 -0.77937 1.06066 -1.06066 
C 0.77937 -1.341951 0.397805 -1.5 0 -1.5 
C -0.397805 -1.5 -0.77937 -1.341951 -1.06066 -1.06066 
C -1.341951 -0.77937 -1.5 -0.397805 -1.5 0 
C -1.5 0.397805 -1.341951 0.77937 -1.06066 1.06066 
C -0.77937 1.341951 -0.397805 1.5 0 1.5 
z
" id="mc82f807d6c" style="stroke:#4c4c4c;"/>
    </defs>
    <g clip-path="url(#p9077312d2f)">
     <use style="fill:#ffffff;stroke:#4c4c4c;" x="137.37805" xlink:href="#mc82f807d6c" y="267.231587"/>
    </g>
   </g>
   <g id="PathCollection_2">
    <g clip-path="url(#p9077312d2f)">
     <use style="fill:#ffffff;stroke:#4c4c4c;" x="268.77435" xlink:href="#mc82f807d6c" y="257.201888"/>
    </g>
   </g>
   <g id="PathCollection_3">
    <g clip-path="url(#p9077312d2f)">
     <use style="fill:#ffffff;stroke:#4c4c4c;" x="400.17065" xlink:href="#mc82f807d6c" y="232.37431"/>
    </g>
   </g>
  </g>
 </g>
 <defs>
  <clipPath id="p9077312d2f">
   <rect height="366.664031" width="394.1889" x="71.6799" y="17.424"/>
  </clipPath>
 </defs>
</svg>
